<svg width="717" height="447" viewBox="0 0 717 447" fill="none" xmlns="http://www.w3.org/2000/svg">
<g id="meccanica">
<path id="Vector" d="M692.771 321.111H369.321C334.052 321.111 305.36 292.418 305.36 257.149V127.057C305.36 119.196 298.965 112.801 291.104 112.801H176.442C171.321 112.801 167.155 116.967 167.155 122.088V170.195C167.155 201.905 141.357 227.702 109.649 227.702H0V179.482H109.649C114.769 179.482 118.935 175.316 118.935 170.195V122.088C118.935 90.3793 144.732 64.5813 176.442 64.5813H291.104C325.553 64.5813 353.58 92.6073 353.58 127.057V257.149C353.58 265.829 360.642 272.89 369.321 272.89H692.771V321.111Z" fill="#EBEBEB"/>
<path id="Vector_2" d="M193.621 122.032C190.416 122.032 187.818 119.434 187.818 116.229V56.6482C187.818 53.4432 190.416 50.8452 193.621 50.8452C196.826 50.8452 199.424 53.4432 199.424 56.6482V116.229C199.424 119.434 196.826 122.032 193.621 122.032Z" fill="#E0E0E0"/>
<path id="Vector_3" d="M177.926 147.277C177.926 150.482 175.328 153.08 172.123 153.08H112.542C109.337 153.08 106.739 150.482 106.739 147.277C106.739 144.072 109.337 141.474 112.542 141.474H172.123C175.328 141.474 177.926 144.072 177.926 147.277Z" fill="#E0E0E0"/>
<path id="Vector_4" d="M73.008 241.886C69.803 241.886 67.205 239.288 67.205 236.083V176.502C67.205 173.297 69.803 170.699 73.008 170.699C76.213 170.699 78.811 173.297 78.811 176.502V236.083C78.811 239.288 76.213 241.886 73.008 241.886Z" fill="#E0E0E0"/>
<path id="Vector_5" d="M361.706 151.652C361.706 154.857 359.108 157.455 355.903 157.455H296.322C293.117 157.455 290.519 154.857 290.519 151.652C290.519 148.447 293.117 145.849 296.322 145.849H355.903C359.108 145.849 361.706 148.447 361.706 151.652Z" fill="#E0E0E0"/>
<path id="Vector_6" d="M361.706 249.52C361.706 252.725 359.108 255.323 355.903 255.323H296.322C293.117 255.323 290.519 252.725 290.519 249.52C290.519 246.315 293.117 243.717 296.322 243.717H355.903C359.108 243.716 361.706 246.315 361.706 249.52Z" fill="#E0E0E0"/>
<path id="Vector_7" d="M524.217 259.844C527.422 259.844 530.02 262.442 530.02 265.647V325.228C530.02 328.433 527.422 331.031 524.217 331.031C521.012 331.031 518.414 328.433 518.414 325.228V265.647C518.414 262.442 521.012 259.844 524.217 259.844Z" fill="#E0E0E0"/>
<path id="Vector_8" d="M641.015 259.844C644.22 259.844 646.818 262.442 646.818 265.647V325.228C646.818 328.433 644.22 331.031 641.015 331.031C637.81 331.031 635.212 328.433 635.212 325.228V265.647C635.213 262.442 637.811 259.844 641.015 259.844Z" fill="#E0E0E0"/>
<path id="Vector_9" d="M284.716 124.26C281.511 124.26 278.913 121.662 278.913 118.457V58.8762C278.913 55.6712 281.511 53.0732 284.716 53.0732C287.921 53.0732 290.519 55.6712 290.519 58.8762V118.457C290.519 121.661 287.92 124.26 284.716 124.26Z" fill="#E0E0E0"/>
<path id="Vector_10" d="M716.211 445.959C716.211 446.103 558.06 446.219 363.017 446.219C167.906 446.219 9.789 446.103 9.789 445.959C9.789 445.815 167.906 445.699 363.017 445.699C558.06 445.699 716.211 445.816 716.211 445.959Z" fill="#263238"/>
<g id="ruota-4">
<path id="Vector_11" d="M577.51 267.15C580.318 267.051 583.09 267.335 585.761 267.965L590.794 262.152L602.011 268.148L599.975 275.561C601.983 277.432 603.76 279.579 605.238 281.969L612.903 281.417L616.595 293.589L609.917 297.389C610.016 300.197 609.732 302.971 609.101 305.642L614.913 310.674L608.918 321.892L601.504 319.856C599.634 321.864 597.486 323.64 595.097 325.118L595.648 332.783L583.477 336.476L579.677 329.797C576.869 329.896 574.096 329.612 571.425 328.981L566.392 334.794L555.175 328.799L557.211 321.385C555.203 319.514 553.427 317.367 551.949 314.977L544.284 315.529L540.591 303.357L547.269 299.557C547.17 296.749 547.453 293.976 548.084 291.304L542.272 286.272L548.267 275.055L555.681 277.09C557.551 275.082 559.699 273.306 562.088 271.828L561.537 264.163L573.708 260.47L577.51 267.15ZM577.449 284.76C568.405 285.963 563.15 295.234 566.531 303.508C568.836 309.148 574.801 312.654 580.841 311.852C589.887 310.651 595.145 301.377 591.762 293.102C589.456 287.461 583.49 283.957 577.449 284.76Z" fill="#C2DFFA"/>
<path id="Vector_12" d="M577.449 284.76C577.449 284.76 578.637 284.448 580.821 284.647C582.952 284.897 586.205 285.817 589.012 288.631C590.4 290.015 591.636 291.858 592.323 294.075C593.038 296.266 593.283 298.828 592.672 301.373C592.593 301.689 592.514 302.008 592.434 302.328C592.341 302.644 592.21 302.951 592.098 303.265C591.896 303.905 591.551 304.49 591.253 305.104C590.555 306.272 589.75 307.434 588.69 308.386C586.664 310.393 583.85 311.664 580.881 312.108C577.88 312.512 574.858 311.837 572.39 310.439C569.907 309.047 567.973 306.951 566.783 304.63C565.649 302.279 565.164 299.775 565.319 297.462C565.454 295.144 566.195 293.055 567.188 291.364C568.184 289.663 569.458 288.377 570.689 287.436C571.909 286.46 573.154 285.921 574.157 285.5C575.196 285.162 576.011 284.932 576.584 284.873C577.15 284.781 577.447 284.742 577.449 284.76C577.451 284.778 577.159 284.852 576.604 284.976C576.041 285.067 575.243 285.327 574.23 285.689C572.273 286.494 569.45 288.204 567.506 291.55C566.559 293.208 565.861 295.243 565.75 297.49C565.619 299.731 566.106 302.15 567.21 304.414C568.369 306.647 570.242 308.66 572.638 309.996C575.021 311.338 577.928 311.981 580.811 311.594C583.675 311.163 586.382 309.947 588.338 308.018C589.363 307.104 590.14 305.986 590.819 304.863C591.108 304.272 591.445 303.709 591.641 303.092C591.75 302.789 591.878 302.494 591.97 302.189C592.048 301.88 592.126 301.573 592.204 301.268C592.807 298.814 592.587 296.339 591.912 294.209C591.263 292.053 590.085 290.256 588.75 288.892C586.052 286.118 582.889 285.158 580.797 284.85C578.654 284.59 577.453 284.831 577.449 284.76Z" fill="#263238"/>
<path id="Vector_13" d="M577.51 267.15C577.51 267.15 577.421 267.018 577.254 266.739C577.081 266.444 576.836 266.027 576.515 265.482C575.856 264.345 574.893 262.682 573.636 260.513L573.732 260.551C570.629 261.505 566.534 262.765 561.575 264.291L561.668 264.155C561.841 266.476 562.034 269.056 562.24 271.818L562.247 271.91L562.168 271.959C559.969 273.328 557.791 275.069 555.806 277.208L555.736 277.284L555.636 277.257C553.325 276.627 550.822 275.945 548.218 275.236L548.431 275.145C546.549 278.68 544.551 282.431 542.453 286.371L542.406 286.12C544.207 287.675 546.191 289.388 548.225 291.144L548.324 291.229L548.294 291.356C547.706 293.849 547.386 296.671 547.494 299.551L547.499 299.687L547.381 299.755C545.312 300.935 543.031 302.236 540.707 303.562L540.814 303.293C541.977 307.115 543.231 311.237 544.516 315.461L544.267 315.29C546.654 315.117 549.276 314.926 551.932 314.733L552.082 314.722L552.161 314.85C553.516 317.043 555.293 319.261 557.385 321.203L557.497 321.307L557.457 321.454C556.82 323.776 556.126 326.31 555.424 328.869L555.298 328.577C558.85 330.474 562.657 332.507 566.517 334.569L566.199 334.628C567.788 332.792 569.503 330.811 571.231 328.815L571.334 328.696L571.487 328.732C574.03 329.335 576.841 329.643 579.662 329.541H579.67L579.828 329.537L579.905 329.673C581.18 331.914 582.447 334.14 583.705 336.352L583.404 336.232C587.513 334.986 591.574 333.754 595.575 332.541L595.393 332.806C595.208 330.226 595.026 327.671 594.845 325.141L594.834 324.987L594.966 324.906C597.333 323.443 599.471 321.676 601.323 319.689L601.427 319.577L601.574 319.618C604.081 320.308 606.549 320.987 608.986 321.657L608.701 321.779C610.75 317.951 612.752 314.211 614.704 310.566L614.759 310.86C612.788 309.151 610.853 307.473 608.951 305.824L608.844 305.731L608.877 305.594C609.525 302.857 609.787 300.093 609.695 297.403L609.69 297.266L609.808 297.199C612.1 295.898 614.321 294.638 616.49 293.407L616.39 293.658C615.097 289.374 613.876 285.33 612.714 281.481L612.919 281.622C610.223 281.812 607.693 281.989 605.253 282.161L605.14 282.169L605.081 282.073C603.535 279.568 601.755 277.468 599.861 275.692L599.785 275.621L599.812 275.522C600.558 272.829 601.23 270.404 601.864 268.114L601.94 268.29C597.598 265.953 593.901 263.963 590.74 262.261L590.883 262.235C588.86 264.552 587.202 266.45 585.826 268.026L585.792 268.064L585.743 268.052C583.021 267.404 580.938 267.256 579.566 267.195C578.878 267.165 578.365 267.168 578.023 267.164C577.672 267.159 577.51 267.15 577.51 267.15C577.51 267.15 577.687 267.132 578.021 267.115C578.362 267.105 578.877 267.088 579.567 267.103C580.944 267.137 583.038 267.257 585.78 267.883L585.698 267.91C587.061 266.322 588.702 264.41 590.706 262.076L590.766 262.006L590.849 262.05C594.02 263.733 597.728 265.701 602.084 268.013L602.192 268.07L602.16 268.189C601.536 270.482 600.875 272.91 600.141 275.606L600.093 275.436C602.016 277.223 603.824 279.341 605.398 281.871L605.226 281.783C607.665 281.603 610.195 281.417 612.89 281.219L613.049 281.207L613.096 281.36C614.268 285.206 615.5 289.246 616.805 293.527L616.855 293.692L616.704 293.778C614.537 295.014 612.319 296.28 610.031 297.585L610.145 297.381C610.244 300.11 609.984 302.916 609.331 305.695L609.257 305.465C611.161 307.111 613.1 308.786 615.073 310.492L615.218 310.617L615.128 310.786C613.181 314.434 611.184 318.177 609.14 322.007L609.047 322.182L608.855 322.13C606.417 321.462 603.948 320.786 601.441 320.098L601.692 320.027C599.812 322.048 597.64 323.846 595.235 325.335L595.355 325.099C595.537 327.629 595.722 330.184 595.908 332.764L595.923 332.969L595.726 333.029C591.725 334.244 587.665 335.477 583.556 336.724L583.357 336.784L583.254 336.603C581.996 334.392 580.728 332.165 579.453 329.925L579.688 330.056H579.68C576.811 330.16 573.952 329.846 571.367 329.233L571.623 329.15C569.895 331.145 568.179 333.126 566.59 334.962L566.455 335.118L566.273 335.02C562.415 332.956 558.608 330.921 555.058 329.022L554.878 328.926L554.932 328.729C555.636 326.171 556.332 323.638 556.971 321.316L557.042 321.567C554.918 319.592 553.115 317.336 551.741 315.106L551.969 315.223C549.313 315.412 546.691 315.599 544.304 315.77L544.111 315.784L544.055 315.599C542.776 311.372 541.529 307.248 540.372 303.425L540.318 303.247L540.479 303.155C542.806 301.834 545.09 300.537 547.161 299.362L547.048 299.565C546.945 296.643 547.276 293.781 547.878 291.255L547.946 291.467C545.917 289.706 543.938 287.987 542.141 286.427L542.017 286.319L542.094 286.175C544.204 282.242 546.213 278.496 548.106 274.967L548.176 274.836L548.319 274.875C550.92 275.594 553.42 276.286 555.729 276.924L555.559 276.972C557.574 274.818 559.783 273.068 562.011 271.696L561.939 271.837C561.748 269.074 561.569 266.492 561.408 264.171L561.401 264.065L561.502 264.035C566.472 262.548 570.577 261.319 573.687 260.389L573.751 260.37L573.783 260.428C574.999 262.604 575.931 264.271 576.569 265.411C576.877 265.97 577.112 266.397 577.279 266.7C577.435 266.993 577.51 267.15 577.51 267.15Z" fill="#263238"/>
</g>
<g id="ruota-3">
<path id="Vector_14" d="M325.94 109.946C329.778 109.585 333.598 109.751 337.307 110.399L343.733 102.033L359.579 109.344L357.386 119.661C360.287 122.063 362.893 124.861 365.109 128.015L375.564 126.644L381.599 143.019L372.758 148.76C373.119 152.599 372.953 156.42 372.304 160.129L380.669 166.554L373.358 182.4L363.04 180.207C360.639 183.107 357.841 185.713 354.687 187.929L356.057 198.384L339.683 204.42L333.941 195.577C330.103 195.938 326.282 195.771 322.573 195.123L316.147 203.489L300.301 196.178L302.494 185.86C299.593 183.459 296.988 180.66 294.772 177.506L284.317 178.877L278.281 162.502L287.123 156.761C286.762 152.922 286.927 149.102 287.576 145.392L279.211 138.966L286.522 123.121L296.84 125.313C299.241 122.413 302.04 119.808 305.193 117.591L303.822 107.137L320.196 101.101L325.94 109.946ZM327.272 134.07C314.981 136.444 308.528 149.565 313.823 160.625C317.432 168.165 325.885 172.487 334.094 170.904C346.388 168.533 352.844 155.407 347.546 144.345C343.934 136.806 335.48 132.485 327.272 134.07Z" fill="#C2DFFA"/>
<path id="Vector_15" d="M327.272 134.07C327.27 134.061 327.37 134.037 327.568 133.999C327.795 133.959 328.085 133.907 328.447 133.842C329.223 133.719 330.383 133.631 331.879 133.682C333.369 133.784 335.198 134.064 337.201 134.796C339.191 135.531 341.386 136.679 343.374 138.495C344.398 139.368 345.306 140.456 346.184 141.629C347.016 142.838 347.765 144.18 348.318 145.664C349.465 148.597 350.001 152.07 349.369 155.588C349.287 156.026 349.204 156.466 349.12 156.909C349.018 157.347 348.864 157.776 348.737 158.213C348.512 159.101 348.088 159.927 347.73 160.787C346.871 162.435 345.866 164.082 344.497 165.464C341.895 168.36 338.162 170.316 334.151 171.159C330.095 171.949 325.923 171.272 322.447 169.565C318.951 167.868 316.146 165.167 314.337 162.099C312.602 158.986 311.737 155.611 311.759 152.444C311.753 149.272 312.593 146.361 313.81 143.972C315.03 141.569 316.662 139.708 318.265 138.32C319.85 136.885 321.505 136.044 322.839 135.383C323.533 135.106 324.161 134.888 324.699 134.686C325.235 134.476 325.726 134.419 326.103 134.314C326.463 134.234 326.75 134.169 326.974 134.119C327.169 134.078 327.27 134.062 327.272 134.07C327.274 134.079 327.176 134.113 326.983 134.171C326.762 134.234 326.48 134.314 326.127 134.415C325.756 134.536 325.273 134.609 324.747 134.832C324.213 135.047 323.604 135.292 322.922 135.567C321.615 136.25 319.997 137.105 318.455 138.539C316.895 139.927 315.312 141.771 314.137 144.138C312.965 146.491 312.165 149.346 312.189 152.445C312.186 155.539 313.048 158.829 314.749 161.856C316.523 164.837 319.262 167.459 322.668 169.106C326.056 170.762 330.111 171.414 334.05 170.648C337.957 169.824 341.587 167.929 344.123 165.115C345.459 163.774 346.439 162.171 347.281 160.57C347.631 159.732 348.048 158.93 348.269 158.065C348.394 157.639 348.546 157.222 348.648 156.795C348.731 156.364 348.813 155.935 348.895 155.509C349.524 152.082 349.019 148.694 347.915 145.82C347.384 144.365 346.66 143.05 345.855 141.861C345.004 140.707 344.125 139.634 343.127 138.769C341.193 136.971 339.049 135.82 337.1 135.07C335.137 134.324 333.338 134.018 331.866 133.886C330.389 133.806 329.235 133.86 328.46 133.948C328.095 133.991 327.804 134.026 327.577 134.053C327.377 134.073 327.273 134.079 327.272 134.07Z" fill="#263238"/>
<path id="Vector_16" d="M325.94 109.945C325.94 109.945 325.809 109.767 325.56 109.395C325.305 109.011 324.937 108.456 324.452 107.726C323.468 106.23 322.019 104.025 320.127 101.147L320.225 101.18C316.056 102.73 310.543 104.78 303.868 107.262L303.953 107.121C304.374 110.286 304.843 113.805 305.344 117.573L305.356 117.665L305.28 117.719C302.372 119.772 299.523 122.334 296.971 125.425L296.905 125.505L296.803 125.484C293.587 124.805 290.104 124.071 286.482 123.306L286.689 123.202C284.393 128.193 281.956 133.492 279.396 139.056L279.335 138.807C281.926 140.793 284.78 142.981 287.706 145.225L287.809 145.304L287.787 145.433C287.18 148.901 286.967 152.799 287.345 156.743L287.358 156.878L287.244 156.952C284.505 158.733 281.484 160.698 278.406 162.7L278.497 162.425C280.396 167.567 282.443 173.112 284.542 178.796L284.283 178.64C287.539 178.211 291.114 177.741 294.737 177.264L294.886 177.244L294.972 177.367C297.009 180.269 299.626 183.171 302.652 185.669L302.769 185.766L302.737 185.915C302.051 189.147 301.303 192.673 300.547 196.234L300.404 195.949C305.421 198.263 310.799 200.743 316.251 203.256L315.937 203.333C317.966 200.691 320.156 197.839 322.362 194.967L322.458 194.842L322.613 194.869C326.152 195.492 330.036 195.688 333.901 195.321L333.912 195.32L334.07 195.306L334.155 195.437C336.081 198.403 337.995 201.352 339.896 204.28L339.588 204.178C345.116 202.141 350.579 200.128 355.962 198.144L355.796 198.419C355.336 194.899 354.88 191.414 354.428 187.964L354.408 187.81L354.535 187.721C357.667 185.522 360.459 182.924 362.841 180.047L362.938 179.929L363.087 179.961C366.576 180.704 370.012 181.435 373.404 182.157L373.127 182.296C375.625 176.888 378.066 171.604 380.445 166.454L380.517 166.744C377.68 164.562 374.893 162.419 372.156 160.314L372.044 160.228L372.068 160.089C372.737 156.281 372.872 152.466 372.528 148.781L372.515 148.645L372.629 148.571C375.663 146.605 378.603 144.699 381.475 142.837L381.39 143.093C379.273 137.33 377.274 131.89 375.371 126.712L375.584 126.841C371.906 127.319 368.455 127.767 365.128 128.2L365.016 128.214L364.951 128.121C362.626 124.81 360.015 122.073 357.272 119.792L357.192 119.726L357.214 119.625C358.017 115.876 358.741 112.5 359.424 109.312L359.51 109.484C353.371 106.636 348.145 104.211 343.68 102.139L343.821 102.104C341.238 105.445 339.123 108.18 337.369 110.45L337.338 110.49L337.288 110.481C333.504 109.816 330.637 109.787 328.752 109.818C327.807 109.836 327.104 109.883 326.636 109.907C326.166 109.94 325.94 109.945 325.94 109.945C325.94 109.945 326.178 109.911 326.637 109.864C327.104 109.825 327.808 109.763 328.754 109.732C330.642 109.673 333.518 109.674 337.321 110.316L337.24 110.347C338.98 108.067 341.078 105.318 343.64 101.961L343.696 101.887L343.781 101.926C348.255 103.979 353.492 106.381 359.642 109.203L359.754 109.254L359.729 109.375C359.056 112.565 358.344 115.943 357.553 119.695L357.495 119.528C360.267 121.82 362.908 124.572 365.262 127.906L365.085 127.828C368.412 127.388 371.861 126.931 375.538 126.445L375.696 126.424L375.751 126.574C377.664 131.748 379.673 137.184 381.802 142.943L381.862 143.105L381.717 143.2C378.848 145.066 375.911 146.977 372.88 148.948L372.982 148.738C373.335 152.461 373.204 156.317 372.533 160.168L372.445 159.943C375.185 162.045 377.974 164.185 380.814 166.363L380.966 166.48L380.886 166.654C378.512 171.807 376.076 177.093 373.583 182.504L373.5 182.684L373.306 182.643C369.913 181.923 366.477 181.195 362.988 180.454L363.235 180.368C360.827 183.28 358.003 185.911 354.835 188.138L354.941 187.896C355.394 191.346 355.851 194.831 356.313 198.35L356.34 198.554L356.147 198.625C350.764 200.61 345.302 202.625 339.774 204.663L339.579 204.735L339.466 204.561C337.565 201.633 335.65 198.685 333.724 195.719L333.967 195.836L333.956 195.837C330.043 196.209 326.112 196.01 322.529 195.379L322.78 195.281C320.573 198.153 318.383 201.004 316.353 203.646L316.227 203.81L316.039 203.723C310.588 201.207 305.211 198.725 300.195 196.409L300.01 196.324L300.052 196.125C300.81 192.564 301.56 189.039 302.248 185.808L302.334 186.054C299.273 183.525 296.628 180.587 294.57 177.649L294.804 177.752C291.181 178.225 287.605 178.693 284.349 179.118L284.157 179.143L284.09 178.961C281.998 173.275 279.957 167.727 278.064 162.583L278 162.409L278.156 162.308C281.236 160.311 284.26 158.351 287.002 156.573L286.901 156.782C286.525 152.796 286.746 148.857 287.366 145.355L287.447 145.563C284.525 143.314 281.676 141.121 279.088 139.129L278.958 139.029L279.027 138.881C281.599 133.323 284.048 128.03 286.355 123.044L286.417 122.909L286.562 122.94C290.182 123.714 293.663 124.459 296.877 125.146L296.71 125.204C299.292 122.095 302.171 119.523 305.107 117.466L305.043 117.611C304.556 113.842 304.102 110.32 303.693 107.154L303.679 107.049L303.778 107.013C310.467 104.569 315.991 102.55 320.168 101.023L320.231 101L320.267 101.056C322.119 103.943 323.537 106.154 324.5 107.654C324.973 108.398 325.332 108.964 325.581 109.356C325.822 109.741 325.94 109.945 325.94 109.945Z" fill="#263238"/>
</g>
<g id="lampadina">
<path id="Vector_17" d="M428.846 35.6886C429.235 15.8616 413.693 -0.116362 394.131 0.000638474C374.569 0.118638 358.396 16.2866 358.007 36.1146C357.725 50.4696 365.798 62.8016 377.697 68.4736C377.613 72.7276 377.519 77.5306 377.519 77.5306L408.563 77.3436C408.563 77.3436 408.85 72.2596 409.009 67.7216C420.532 61.6896 428.573 49.5936 428.846 35.6886Z" fill="#F8C917"/>
</g>
<path id="Vector_18" d="M389.524 77.1786C389.572 65.5336 390.389 53.8796 390.224 42.2366C390.191 39.8846 390.122 37.5286 389.895 35.1926C389.609 32.2616 388.999 29.0036 386.33 27.3856C385.168 26.6806 383.712 26.4166 382.398 26.9306C381.114 27.4326 380.179 28.5426 379.546 29.7486C378.187 32.3386 377.862 35.5226 378.225 38.3566C378.967 44.1506 382.639 49.1816 388.093 51.1456C393.539 53.1076 400.026 51.9546 404.391 47.8526C408.674 43.8276 411.063 36.8736 409.117 31.2486C408.277 28.8196 406.237 26.1096 403.369 26.4436C400.584 26.7676 399.193 29.5686 398.55 32.0256C397.805 34.8656 397.622 37.9006 397.358 40.8066C397.05 44.1986 396.837 47.5956 396.66 50.9936C396.293 57.9906 396.092 64.9916 395.724 71.9886C395.643 73.5346 395.552 75.0796 395.446 76.6246C395.41 77.1456 396.211 77.1086 396.246 76.5896C397.095 64.2086 397.059 51.7906 398.287 39.4246C398.558 36.6986 398.735 33.8086 399.631 31.1886C400.067 29.9146 400.751 28.5596 401.91 27.8066C403.139 27.0076 404.619 27.0856 405.792 27.8706C408.246 29.5126 408.98 32.8696 408.944 35.6976C408.907 38.6186 408.019 41.5306 406.479 44.0346C403.351 49.1236 397.614 51.8196 391.848 51.1796C386.186 50.5516 381.543 46.7846 379.726 41.3426C378.857 38.7396 378.639 35.8886 379.213 33.1596C379.785 30.4416 381.547 26.6086 384.918 27.6376C388.148 28.6246 388.825 32.3876 389.107 35.3556C389.303 37.4146 389.374 39.4876 389.412 41.5586C389.614 52.3426 388.958 63.1476 388.762 73.9376C388.742 75.0296 388.728 76.1216 388.724 77.2126C388.721 77.7356 389.522 77.7016 389.524 77.1786Z" fill="white"/>
<path id="Vector_19" d="M385.574 93.1646C385.574 93.1646 386.829 93.9926 387.566 94.9736C387.949 95.4836 388.559 95.7636 389.199 95.7586L395.446 95.7166C396.146 95.7116 396.812 95.3606 397.214 94.7686C397.684 94.0756 398.521 93.2546 399.381 93.0706L385.574 93.1646Z" fill="#455A64"/>
<path id="Vector_20" d="M379.143 75.5798C379.141 75.7068 380.403 85.5878 380.887 89.3658C381.085 90.9168 382.005 92.2908 383.402 92.9308C383.912 93.1648 384.503 93.3188 385.172 93.3138C387.849 93.2958 398.836 93.2208 398.836 93.2208C398.836 93.2208 402.407 93.1968 403.27 90.3198C404.179 87.2918 406.016 75.3958 406.016 75.3958L379.143 75.5798Z" fill="#263238"/>
<path id="Vector_21" d="M404.974 88.4317L380.16 88.6887C379.786 88.6927 379.488 88.3887 379.494 88.0097L379.495 87.9347C379.501 87.5557 379.809 87.2457 380.183 87.2407L404.997 86.9837C405.371 86.9797 405.669 87.2837 405.664 87.6627L405.663 87.7377C405.656 88.1177 405.348 88.4277 404.974 88.4317Z" fill="#455A64"/>
<path id="Vector_22" d="M405.354 85.3147L379.897 85.5787C379.523 85.5827 379.224 85.2787 379.23 84.8997L379.231 84.8247C379.237 84.4457 379.545 84.1357 379.918 84.1317L405.375 83.8677C405.749 83.8637 406.047 84.1677 406.041 84.5467L406.04 84.6217C406.036 84.9997 405.728 85.3107 405.354 85.3147Z" fill="#455A64"/>
<path id="Vector_23" d="M376.105 69.6266C376.1 69.8836 376.549 75.9376 376.781 79.0446C376.866 80.1856 377.463 81.2086 378.401 81.8256L379.777 82.7296L406.197 82.5496L407.588 81.6386C408.561 81.0016 409.2 79.9516 409.318 78.7956L410.28 69.3936L376.105 69.6266Z" fill="#455A64"/>
<path id="Vector_24" d="M380.608 88.6107C383.34 89.1757 386.074 89.2067 389.086 89.1737C391.518 89.1467 393.901 89.1937 396.541 89.1247C398.475 89.0737 400.257 88.9707 402.186 88.8787C403.163 88.8327 404.236 88.5927 404.436 88.4067L380.608 88.6107Z" fill="black"/>
<path id="Vector_25" d="M380.666 85.5177C383.398 86.0827 386.132 86.1137 389.144 86.0807C391.575 86.0537 393.958 86.1007 396.599 86.0317C398.534 85.9807 400.315 85.8777 402.245 85.7857C403.222 85.7397 404.295 85.4997 404.495 85.3137L380.666 85.5177Z" fill="black"/>
<path id="Vector_26" d="M408.648 80.0907C408.647 80.1547 401.579 80.2557 392.864 80.3147C384.146 80.3737 377.082 80.3697 377.083 80.3047C377.084 80.2407 384.151 80.1397 392.869 80.0807C401.583 80.0217 408.649 80.0257 408.648 80.0907Z" fill="#263238"/>
<path id="Vector_27" d="M410.097 69.2187C410.098 69.2907 402.423 69.4307 392.956 69.5327C383.486 69.6347 375.81 69.6597 375.809 69.5877C375.808 69.5167 383.481 69.3757 392.952 69.2737C402.418 69.1717 410.096 69.1467 410.097 69.2187Z" fill="#263238"/>
<path id="Vector_28" d="M386.817 10.5776C386.799 9.05456 387.816 7.47556 389.279 6.20356C391.372 4.38456 394.106 3.55356 396.82 3.71156C404.803 4.17656 410.272 6.63956 415.692 12.9736C417.528 15.1196 419.668 19.0716 419.487 22.0826C419.396 23.5956 418.768 25.0626 417.612 26.0516C414.604 28.6226 410.454 26.5296 408.032 23.8236C405.774 21.3016 403.986 18.1046 400.89 16.7546C398.339 15.6416 395.389 16.0156 392.625 15.6086C389.86 15.2016 386.85 13.4176 386.817 10.5776Z" fill="white"/>
<path id="Vector_29" d="M415.336 33.5846C416.147 31.2316 418.998 29.7196 420.899 30.1426C422.465 30.5406 423.834 31.6766 424.438 33.1886C425.166 35.0106 424.674 37.3076 423.215 38.6676C421.756 40.0276 419.417 40.3176 417.766 39.2966C416.114 38.2746 414.685 35.4716 415.336 33.5846Z" fill="white"/>
<g id="ruota-2">
<path id="Vector_30" d="M494.639 100.877C500.627 97.7221 506.939 95.4341 513.395 94.0031L518.226 76.1201L548.845 77.3811L552.192 95.5981C558.509 97.5541 564.613 100.353 570.322 103.989L586.376 94.7641L607.135 117.307L596.625 132.546C599.781 138.536 602.069 144.851 603.498 151.306L621.379 156.136L620.119 186.754L601.902 190.102C599.946 196.418 597.148 202.52 593.512 208.23L602.735 224.285L580.195 245.045L564.954 234.534C558.964 237.689 552.651 239.977 546.195 241.407L541.363 259.29L510.745 258.03L507.398 239.811C501.082 237.855 494.979 235.056 489.269 231.42L473.215 240.645L452.455 218.103L462.965 202.863C459.81 196.873 457.52 190.561 456.09 184.104L438.209 179.273L439.469 148.656L457.687 145.307C459.642 138.992 462.443 132.888 466.078 127.179L456.854 111.125L479.394 90.3651L494.639 100.877ZM512.95 139.15C494.586 151.232 492.895 176.852 508.895 191.263C519.803 201.087 536.418 202.444 548.683 194.379C567.053 182.299 568.748 156.67 552.74 142.258C541.831 132.435 525.214 131.081 512.95 139.15Z" fill="#024474"/>
<path id="Vector_31" d="M502.8 183.976C502.8 183.976 502.698 183.828 502.519 183.524C502.333 183.199 502.074 182.748 501.739 182.164C501.073 180.958 500.231 179.101 499.409 176.612C498.676 174.1 498.028 170.925 498.014 167.193C498.014 163.481 498.564 159.182 500.334 154.82C500.556 154.276 500.782 153.726 501.012 153.171C501.283 152.635 501.558 152.092 501.836 151.544L502.259 150.718L502.751 149.921C503.086 149.389 503.406 148.84 503.763 148.308C505.239 146.209 506.98 144.167 509.077 142.359C513.183 138.694 518.544 135.706 524.687 134.599C525.453 134.467 526.225 134.335 527.001 134.202C527.781 134.103 528.576 134.094 529.37 134.037C530.959 133.864 532.569 134.055 534.196 134.116C537.415 134.519 540.723 135.16 543.817 136.559C545.424 137.116 546.861 138.068 548.389 138.858C549.111 139.325 549.805 139.844 550.518 140.338L551.583 141.09L552.562 141.959C553.212 142.544 553.866 143.129 554.521 143.718C555.104 144.379 555.688 145.041 556.275 145.706L557.151 146.708L557.911 147.807C558.42 148.541 558.929 149.277 559.44 150.015C563.202 156.166 564.642 163.401 563.971 170.129C563.329 176.883 560.625 183.122 556.713 187.957C556.196 188.538 555.683 189.117 555.173 189.691C554.664 190.266 554.062 190.742 553.517 191.268C552.954 191.775 552.417 192.304 551.844 192.781C551.239 193.22 550.637 193.654 550.041 194.086C547.664 195.83 545.06 197.074 542.491 198.08C537.303 200.032 532.023 200.442 527.366 199.917C522.683 199.394 518.632 197.864 515.371 196.094C514.963 195.869 514.562 195.648 514.168 195.432C513.971 195.323 513.776 195.216 513.583 195.109C513.403 194.982 513.224 194.856 513.047 194.731C512.342 194.228 511.664 193.746 511.015 193.283C510.338 192.854 509.826 192.275 509.27 191.806C508.732 191.319 508.22 190.854 507.733 190.414C506.849 189.448 506.102 188.555 505.437 187.798C505.089 187.431 504.834 187.042 504.599 186.688C504.361 186.338 504.145 186.018 503.951 185.731C503.578 185.172 503.289 184.74 503.081 184.429C502.886 184.134 502.8 183.976 502.8 183.976C502.8 183.976 502.918 184.116 503.125 184.401C503.342 184.704 503.646 185.126 504.036 185.671C504.236 185.953 504.458 186.266 504.701 186.609C504.942 186.958 505.204 187.34 505.556 187.7C506.231 188.442 506.987 189.32 507.876 190.27C508.364 190.702 508.879 191.157 509.419 191.636C509.975 192.097 510.489 192.666 511.165 193.086C511.813 193.54 512.491 194.013 513.194 194.505C513.37 194.627 513.548 194.751 513.728 194.876C513.92 194.98 514.115 195.086 514.31 195.191C514.702 195.403 515.101 195.62 515.508 195.839C518.753 197.569 522.772 199.058 527.405 199.552C532.015 200.047 537.228 199.62 542.34 197.677C544.872 196.674 547.437 195.441 549.777 193.714C550.364 193.287 550.956 192.856 551.552 192.423C552.116 191.95 552.644 191.426 553.198 190.925C553.734 190.405 554.326 189.934 554.827 189.367C555.328 188.8 555.833 188.229 556.34 187.655C560.183 182.884 562.837 176.735 563.463 170.082C564.117 163.454 562.695 156.336 558.995 150.287C558.492 149.56 557.99 148.835 557.49 148.113L556.741 147.03L555.878 146.043C555.301 145.388 554.725 144.736 554.152 144.085C553.508 143.505 552.865 142.928 552.224 142.353L551.261 141.496L550.212 140.755C549.51 140.269 548.829 139.757 548.118 139.296C546.614 138.519 545.201 137.577 543.619 137.03C540.574 135.647 537.318 135.014 534.147 134.611C532.545 134.55 530.96 134.355 529.393 134.525C528.61 134.581 527.827 134.587 527.059 134.684C526.294 134.813 525.534 134.942 524.778 135.071C518.722 136.148 513.43 139.079 509.363 142.683C507.286 144.461 505.561 146.47 504.095 148.536C503.739 149.059 503.422 149.602 503.089 150.124L502.598 150.91L502.178 151.724C501.9 152.265 501.627 152.8 501.355 153.328C501.126 153.876 500.901 154.419 500.677 154.954C498.905 159.26 498.334 163.512 498.306 167.192C498.292 170.892 498.906 174.048 499.604 176.552C500.391 179.035 501.199 180.898 501.833 182.115C502.147 182.707 502.39 183.167 502.565 183.496C502.727 183.809 502.8 183.976 502.8 183.976Z" fill="#263238"/>
<path id="Vector_32" d="M494.639 100.877C494.639 100.877 494.308 100.664 493.656 100.222C492.998 99.774 492.026 99.112 490.744 98.239C488.164 96.472 484.342 93.854 479.348 90.434L479.451 90.427C473.72 95.723 466.133 102.732 456.944 111.223L456.969 111.06C459.767 115.917 462.879 121.32 466.211 127.103L466.257 127.183L466.207 127.261C462.852 132.546 459.932 138.62 457.851 145.358L457.821 145.457L457.719 145.476C452.043 146.524 445.897 147.659 439.504 148.839L439.656 148.664C439.265 158.304 438.851 168.536 438.415 179.282L438.264 179.076C443.799 180.568 449.897 182.212 456.148 183.898L456.274 183.932L456.302 184.059C457.638 190.109 459.906 196.595 463.165 202.76L463.229 202.88L463.152 202.992C459.896 207.717 456.306 212.928 452.648 218.236L452.628 217.947C459.15 225.024 466.185 232.658 473.395 240.482L473.096 240.436C478.095 237.562 483.585 234.405 489.147 231.207L489.277 231.132L489.403 231.213C494.665 234.57 500.871 237.537 507.473 239.572L507.619 239.617L507.647 239.767C508.696 245.473 509.841 251.697 510.998 257.985L510.758 257.776C520.452 258.174 530.842 258.6 541.375 259.032L541.115 259.223C542.641 253.575 544.287 247.48 545.945 241.34L545.986 241.188L546.14 241.154C552.319 239.792 558.772 237.506 564.817 234.313L564.834 234.304L564.975 234.231L565.104 234.32C570.217 237.846 575.298 241.351 580.344 244.831L580.02 244.854C587.63 237.846 595.15 230.92 602.561 224.095L602.512 224.413C599.408 219.008 596.334 213.656 593.291 208.357L593.214 208.223L593.297 208.093C596.917 202.412 599.717 196.308 601.662 190.028L601.707 189.882L601.857 189.855C608.018 188.724 614.085 187.61 620.075 186.511L619.872 186.745C620.305 176.292 620.728 166.082 621.14 156.127L621.317 156.368C615.25 154.727 609.292 153.115 603.438 151.531L603.301 151.494L603.27 151.356C601.801 144.711 599.458 138.413 596.425 132.65L596.361 132.529L596.439 132.417C600.045 127.193 603.542 122.128 606.956 117.183L606.975 117.453C599.676 109.517 592.786 102.027 586.228 94.899L586.474 94.937C580.825 98.178 575.525 101.219 570.414 104.151L570.316 104.207L570.221 104.146C564.217 100.323 558.133 97.628 552.141 95.76L552.042 95.729L552.023 95.627C550.812 89.003 549.722 83.039 548.693 77.408L548.838 77.534C536.963 77.031 526.855 76.602 518.221 76.236L518.338 76.15C516.391 83.308 514.796 89.168 513.475 94.024L513.462 94.073L513.412 94.084C506.821 95.548 502.148 97.431 499.112 98.754C497.591 99.42 496.484 99.972 495.742 100.331C495.001 100.706 494.639 100.877 494.639 100.877C494.639 100.877 496.046 100.053 499.078 98.676C502.106 97.327 506.777 95.414 513.377 93.921L513.314 93.981C514.618 89.12 516.191 83.255 518.113 76.09L518.137 76L518.231 76.004C526.866 76.349 536.975 76.753 548.851 77.228L548.974 77.233L548.996 77.354C550.035 82.983 551.137 88.945 552.359 95.567L552.241 95.435C558.264 97.3 564.382 99.999 570.421 103.832L570.228 103.827C575.335 100.888 580.631 97.84 586.276 94.591L586.414 94.512L586.522 94.629C593.087 101.75 599.986 109.233 607.294 117.16L607.411 117.287L607.313 117.43C603.904 122.379 600.412 127.446 596.811 132.674L596.825 132.441C599.882 138.236 602.244 144.57 603.727 151.256L603.56 151.081C609.415 152.661 615.374 154.268 621.442 155.905L621.627 155.955L621.619 156.147C621.212 166.102 620.795 176.312 620.368 186.765L620.36 186.963L620.165 186.999C614.175 188.101 608.109 189.217 601.948 190.351L602.143 190.178C600.188 196.501 597.371 202.647 593.728 208.369L593.734 208.105C596.778 213.403 599.853 218.754 602.959 224.158L603.062 224.337L602.911 224.477C595.501 231.303 587.982 238.23 580.373 245.239L580.22 245.38L580.049 245.262C575.003 241.782 569.921 238.278 564.808 234.752L565.077 234.768L565.06 234.777C558.972 237.992 552.474 240.294 546.253 241.665L546.448 241.479C544.789 247.618 543.142 253.713 541.615 259.361L541.561 259.561L541.354 259.553C530.821 259.118 520.43 258.69 510.737 258.29L510.533 258.282L510.496 258.081C509.342 251.793 508.199 245.568 507.152 239.862L507.325 240.057C500.679 238.006 494.433 235.016 489.138 231.634L489.394 231.64C483.83 234.835 478.338 237.989 473.338 240.861L473.17 240.958L473.039 240.815C465.834 232.986 458.804 225.348 452.287 218.267L452.161 218.13L452.266 217.977C455.928 212.672 459.523 207.464 462.782 202.742L462.768 202.974C459.494 196.77 457.219 190.243 455.882 184.157L456.036 184.318C449.787 182.626 443.691 180.975 438.158 179.477L438 179.434L438.007 179.27C438.456 168.525 438.884 158.293 439.287 148.654L439.293 148.506L439.439 148.479C445.834 147.309 451.982 146.183 457.659 145.144L457.527 145.262C459.629 138.497 462.573 132.402 465.952 127.102L465.948 127.26C462.63 121.469 459.529 116.059 456.742 111.196L456.689 111.104L456.767 111.033C465.983 102.572 473.592 95.587 479.34 90.309L479.389 90.264L479.444 90.302C484.404 93.745 488.2 96.381 490.762 98.16C492.038 99.051 493.006 99.726 493.661 100.184C494.31 100.635 494.639 100.877 494.639 100.877Z" fill="#01375D"/>
</g>
<g id="ruota-1">
<path id="Vector_33" d="M448.527 237.218C456.372 240.309 463.654 244.391 470.237 249.289L491.16 239.596L514.724 269.219L500.098 286.822C503.346 294.281 505.62 302.211 506.777 310.437L528.539 318.114L523.88 355.431L500.88 357.715C497.733 365.425 493.575 372.581 488.589 379.046L498.454 399.599L468.303 422.75L450.384 408.381C442.793 411.571 434.723 413.804 426.35 414.942L418.534 436.32L380.552 431.746L378.227 409.148C370.38 406.056 363.098 401.973 356.516 397.074L335.593 406.766L312.029 377.145L326.656 359.54C323.409 352.081 321.137 344.153 319.978 335.926L298.217 328.249L302.875 290.932L325.875 288.648C329.022 280.939 333.177 273.783 338.164 267.316L328.299 246.763L358.45 223.613L376.371 237.982C383.961 234.792 392.033 232.56 400.406 231.421L408.221 210.043L446.203 214.618L448.527 237.218ZM426.922 284.745C400.574 277.179 374.83 295.955 374.058 322.362C373.532 340.364 385.679 356.974 403.272 362.031C429.623 369.604 455.379 350.824 456.145 324.41C456.668 306.406 444.518 289.798 426.922 284.745Z" fill="#056AAD"/>
<path id="Vector_34" d="M426.922 284.745C426.922 284.745 427.139 284.799 427.556 284.929C427.989 285.067 428.603 285.264 429.403 285.52C431.018 286.062 433.344 287.044 436.181 288.618C438.957 290.282 442.218 292.613 445.373 295.983C445.761 296.408 446.187 296.815 446.564 297.277C446.937 297.742 447.317 298.214 447.702 298.694C448.509 299.628 449.174 300.715 449.919 301.789C450.306 302.318 450.612 302.908 450.947 303.49C451.277 304.076 451.612 304.67 451.951 305.271C452.243 305.897 452.538 306.531 452.837 307.174C452.987 307.495 453.137 307.819 453.288 308.144C453.414 308.48 453.54 308.818 453.667 309.158C453.919 309.839 454.174 310.528 454.431 311.226C454.632 311.942 454.835 312.666 455.04 313.398C455.141 313.765 455.242 314.133 455.343 314.504C455.415 314.882 455.487 315.261 455.559 315.643C455.695 316.408 455.871 317.175 455.978 317.96C456.134 319.538 456.357 321.145 456.324 322.798C456.333 323.622 456.374 324.455 456.299 325.293C456.25 326.131 456.218 326.978 456.097 327.825C455.721 331.221 454.897 334.689 453.572 338.084C452.259 341.483 450.374 344.768 448.047 347.827C445.73 350.899 442.846 353.645 439.612 356.037C436.344 358.381 432.683 360.352 428.718 361.697C420.816 364.491 411.75 364.716 403.215 362.282C394.651 359.833 387.254 354.518 382.194 347.861C377.087 341.209 374.301 333.262 373.868 325.585C373.449 317.883 375.354 310.55 378.571 304.534C381.793 298.484 386.357 293.794 391.097 290.464C395.85 287.099 400.839 285.17 405.303 284.071C409.801 283.04 413.803 282.838 417.037 283.008C420.279 283.177 422.75 283.708 424.416 284.056C425.227 284.274 425.85 284.441 426.288 284.559C426.71 284.673 426.922 284.745 426.922 284.745C426.922 284.745 426.701 284.706 426.276 284.606C425.836 284.5 425.21 284.349 424.395 284.153C422.726 283.838 420.258 283.34 417.029 283.203C413.809 283.064 409.832 283.295 405.371 284.345C400.944 285.464 396.004 287.401 391.306 290.756C386.621 294.076 382.117 298.736 378.945 304.731C375.779 310.691 373.911 317.947 374.338 325.558C374.779 333.142 377.541 340.988 382.592 347.556C387.597 354.129 394.903 359.373 403.358 361.791C411.796 364.197 420.748 363.979 428.558 361.224C432.476 359.898 436.096 357.954 439.329 355.642C442.528 353.282 445.383 350.572 447.678 347.539C449.983 344.52 451.852 341.277 453.158 337.918C454.475 334.565 455.299 331.136 455.68 327.777C455.802 326.939 455.836 326.101 455.887 325.271C455.963 324.442 455.924 323.618 455.918 322.802C455.957 321.167 455.74 319.576 455.591 318.013C455.488 317.235 455.316 316.475 455.184 315.718C455.114 315.34 455.043 314.964 454.974 314.589C454.875 314.222 454.776 313.856 454.677 313.493C454.476 312.767 454.278 312.049 454.082 311.339C453.829 310.647 453.579 309.963 453.332 309.287C451.327 303.874 448.245 299.538 445.164 296.177C442.051 292.812 438.827 290.471 436.079 288.789C433.272 287.197 430.967 286.189 429.367 285.617C428.575 285.341 427.967 285.129 427.539 284.98C427.129 284.833 426.922 284.745 426.922 284.745Z" fill="#263238"/>
<path id="Vector_35" d="M448.527 237.218C448.527 237.218 448.465 236.737 448.36 235.777C448.256 234.809 448.101 233.374 447.898 231.479C447.496 227.668 446.899 222.015 446.119 214.625L446.19 214.697C436.562 213.55 423.75 212.023 408.202 210.171L408.339 210.087C405.977 216.567 403.352 223.768 400.543 231.472L400.512 231.557L400.423 231.569C392.695 232.629 384.55 234.721 376.433 238.136L376.341 238.175L376.263 238.113C370.677 233.639 364.627 228.795 358.334 223.755L358.558 223.757C349.07 231.049 338.997 238.791 328.419 246.922L328.478 246.676C331.533 253.035 334.901 260.043 338.352 267.225L338.408 267.342L338.329 267.445C333.66 273.49 329.315 280.766 326.077 288.731L326.027 288.853L325.895 288.866C318.765 289.576 310.904 290.36 302.896 291.158L303.099 290.96C301.639 302.678 300.065 315.321 298.451 328.278L298.295 328.025C305.073 330.415 312.516 333.038 320.058 335.697L320.197 335.746L320.217 335.892C321.279 343.49 323.48 351.658 326.881 359.441L326.942 359.58L326.845 359.697C322.265 365.211 317.268 371.227 312.22 377.304L312.223 376.989C319.684 386.366 327.682 396.418 335.789 406.608L335.485 406.536C342.093 403.475 349.224 400.171 356.407 396.843L356.545 396.779L356.666 396.869C362.977 401.577 370.379 405.791 378.297 408.902L378.319 408.911L378.463 408.969L378.479 409.122C379.259 416.703 380.034 424.238 380.804 431.72L380.581 431.494C393.406 433.039 406.077 434.566 418.563 436.07L418.296 436.234C420.928 429.038 423.534 421.913 426.115 414.857L426.167 414.715L426.316 414.695C434.648 413.565 442.724 411.334 450.288 408.154L450.423 408.097L450.538 408.189C456.598 413.05 462.564 417.835 468.455 422.561L468.156 422.558C478.452 414.656 488.508 406.938 498.312 399.414L498.244 399.701C494.899 392.728 491.613 385.877 488.384 379.146L488.323 379.019L488.409 378.908C493.534 372.266 497.639 365.068 500.677 357.633L500.727 357.51L500.859 357.497C508.746 356.717 516.393 355.96 523.859 355.221L523.67 355.405C525.314 342.282 526.867 329.89 528.346 318.09L528.475 318.298C520.823 315.594 513.641 313.056 506.718 310.609L506.613 310.572L506.597 310.462C505.375 301.797 503.014 293.967 499.946 286.888L499.905 286.793L499.971 286.714C505.293 280.319 510.084 274.56 514.61 269.122L514.608 269.312C505.489 257.825 497.718 248.037 491.073 239.666L491.211 239.699C482.835 243.565 475.966 246.736 470.275 249.363L470.231 249.384L470.192 249.355C463.454 244.351 457.882 241.485 454.169 239.702C452.306 238.812 450.885 238.218 449.944 237.812C448.986 237.418 448.527 237.218 448.527 237.218C448.527 237.218 449.01 237.399 449.956 237.772C450.901 238.165 452.33 238.747 454.2 239.625C457.928 241.385 463.52 244.23 470.285 249.223L470.202 249.214C475.886 246.571 482.746 243.381 491.111 239.492L491.193 239.454L491.249 239.524C497.91 247.882 505.7 257.655 514.841 269.125L514.917 269.221L514.839 269.316C510.322 274.761 505.538 280.526 500.226 286.929L500.251 286.755C503.341 293.855 505.721 301.713 506.957 310.411L506.837 310.264C513.763 312.703 520.948 315.234 528.602 317.929L528.75 317.981L528.731 318.137C527.263 329.938 525.721 342.332 524.088 355.456L524.067 355.624L523.898 355.641C516.432 356.385 508.785 357.148 500.899 357.934L501.081 357.798C498.034 365.271 493.913 372.508 488.767 379.186L488.792 378.948C492.024 385.677 495.314 392.526 498.663 399.498L498.746 399.67L498.595 399.786C488.794 407.315 478.741 415.037 468.449 422.944L468.298 423.06L468.149 422.941C462.256 418.217 456.289 413.434 450.227 408.575L450.477 408.61C442.875 411.808 434.757 414.053 426.381 415.191L426.582 415.029C424.003 422.085 421.398 429.211 418.768 436.407L418.699 436.595L418.501 436.571C406.014 435.068 393.343 433.543 380.518 431.999L380.316 431.975L380.295 431.773C379.525 424.291 378.75 416.756 377.969 409.175L378.129 409.386L378.107 409.377C370.146 406.25 362.704 402.012 356.359 397.278L356.617 397.305C349.434 400.632 342.302 403.935 335.694 406.996L335.513 407.08L335.389 406.924C327.283 396.733 319.287 386.679 311.828 377.3L311.702 377.141L311.832 376.985C316.881 370.91 321.88 364.895 326.462 359.382L326.426 359.637C323.009 351.811 320.799 343.598 319.734 335.959L319.893 336.153C312.353 333.491 304.911 330.864 298.134 328.472L297.954 328.408L297.978 328.218C299.599 315.262 301.18 302.619 302.646 290.903L302.669 290.723L302.85 290.705C310.859 289.912 318.721 289.134 325.851 288.428L325.669 288.563C328.928 280.561 333.3 273.255 337.995 267.186L337.972 267.406C334.527 260.22 331.166 253.21 328.116 246.848L328.046 246.701L328.175 246.602C338.762 238.482 348.842 230.75 358.337 223.468L358.45 223.381L358.561 223.47C364.848 228.517 370.892 233.369 376.472 237.85L376.303 237.826C384.453 234.409 392.628 232.322 400.382 231.272L400.262 231.369C403.084 223.67 405.722 216.474 408.096 209.998L408.131 209.902L408.233 209.914C423.776 211.806 436.585 213.365 446.209 214.537L446.274 214.545L446.28 214.609C447.021 221.989 447.588 227.633 447.97 231.439C448.157 233.34 448.299 234.781 448.394 235.753C448.488 236.72 448.527 237.218 448.527 237.218Z" fill="#263238"/>
</g>
<g id="Group">
<g id="Group_2">
<g id="Group_3">
<path id="Vector_36" d="M190 196.173L205.632 214.891V445.707H222.379V214.891L239.429 196.173H190Z" fill="#E0E0E0"/>
</g>
<g id="Group_4">
<g id="Group_5">
<path id="Vector_37" d="M190 196.173C191.131 196.168 208.288 196.11 239.43 196.001L239.805 196L239.536 196.296C234.463 201.879 228.714 208.204 222.505 215.036L222.56 214.89C222.58 268.107 222.608 343.354 222.64 426.681C222.64 433.077 222.64 439.427 222.639 445.706V446H222.379C216.728 445.999 211.14 445.999 205.632 445.998H205.373V445.706C205.441 342.09 205.499 255.485 205.525 214.89L205.554 214.972C195.543 202.871 190.51 196.789 190 196.173C190.515 196.784 195.598 202.814 205.709 214.808L205.738 214.842V214.889C205.765 255.485 205.822 342.089 205.891 445.705L205.633 445.414C211.141 445.413 216.729 445.413 222.38 445.412L222.12 445.705C222.12 439.424 222.12 433.076 222.119 426.68C222.15 343.353 222.179 268.106 222.199 214.889V214.802L222.254 214.742C228.477 207.927 234.239 201.617 239.324 196.049L239.43 196.343C208.288 196.236 191.13 196.176 190 196.173Z" fill="#263238"/>
</g>
</g>
</g>
<g id="Group_6">
<g id="Group_7">
<path id="Vector_38" d="M222.379 215.143C222.379 215.306 218.61 215.437 213.961 215.437C209.311 215.437 205.542 215.305 205.542 215.143C205.542 214.981 209.31 214.85 213.961 214.85C218.61 214.85 222.379 214.982 222.379 215.143Z" fill="#263238"/>
</g>
</g>
</g>
<path id="Vector_39" d="M175.973 142.496C171.185 153.511 170.213 165.957 173.298 177.58C174.172 180.87 175.393 184.062 176.882 187.123C177.365 188.116 178.779 188.384 179.68 187.857C180.694 187.264 180.9 186.055 180.414 185.057C174.332 172.555 173.956 157.325 179.506 144.561C179.946 143.549 179.805 142.366 178.772 141.762C177.907 141.257 176.416 141.478 175.973 142.496Z" fill="#E0E0E0"/>
<path id="Vector_40" d="M178.073 177.763C180.929 173.592 183.785 169.419 186.642 165.247C187.248 164.362 186.837 162.94 185.908 162.448C184.868 161.899 183.755 162.237 183.109 163.182C180.253 167.354 177.397 171.526 174.541 175.698C173.934 176.583 174.345 178.005 175.275 178.497C176.313 179.046 177.427 178.708 178.073 177.763Z" fill="#E0E0E0"/>
<path id="Vector_41" d="M173.994 165.222C177.807 165.469 181.631 165.423 185.438 165.085C186.501 164.991 187.536 164.212 187.484 163.039C187.438 162.012 186.579 160.892 185.438 160.994C181.632 161.332 177.807 161.377 173.994 161.13C172.924 161.061 171.901 162.121 171.948 163.176C172.001 164.344 172.848 165.147 173.994 165.222Z" fill="#E0E0E0"/>
<path id="Vector_42" d="M174.847 149.281C177.756 153.452 180.413 157.791 182.802 162.279C183.305 163.225 184.698 163.595 185.601 163.013C186.562 162.393 186.873 161.226 186.335 160.214C183.945 155.726 181.289 151.386 178.379 147.216C177.768 146.341 176.56 145.85 175.581 146.482C174.711 147.043 174.192 148.343 174.847 149.281Z" fill="#E0E0E0"/>
<path id="Vector_43" d="M99.0929 405.189L96.8811 430.363C96.8811 430.363 121.725 441.065 121.77 445.757L72.806 443.222L74.6423 403.857L99.0929 405.189Z" fill="#455A64"/>
<path id="Vector_44" d="M81.8515 427.457C80.89 427.667 80.1805 428.698 80.3507 429.667C80.5209 430.636 81.5643 431.368 82.5282 431.174C83.4922 430.981 84.3833 429.769 84.1051 428.825C83.8269 427.882 82.556 427.09 81.6657 427.509" fill="#E0E0E0"/>
<path id="Vector_45" d="M72.7185 444.25L72.892 440.436L119.966 443.173C119.966 443.173 122.097 444.234 121.771 445.757L72.7185 444.25Z" fill="#E0E0E0"/>
<path id="Vector_46" d="M97.688 430.155C97.6675 430.394 96.4663 430.44 95.2503 431.148C94.0155 431.824 93.3551 432.829 93.1407 432.723C92.9222 432.665 93.3535 431.254 94.8411 430.422C96.3206 429.578 97.751 429.938 97.688 430.155Z" fill="#263238"/>
<path id="Vector_47" d="M102.714 432.544C102.756 432.778 101.7 433.132 100.836 434.101C99.9431 435.044 99.6813 436.128 99.444 436.105C99.2173 436.13 99.124 434.722 100.222 433.537C101.309 432.344 102.72 432.316 102.714 432.544Z" fill="#263238"/>
<path id="Vector_48" d="M105.313 438.842C105.093 438.881 104.822 437.67 105.504 436.393C106.176 435.11 107.331 434.651 107.422 434.856C107.546 435.06 106.784 435.724 106.24 436.782C105.672 437.826 105.552 438.831 105.313 438.842Z" fill="#263238"/>
<path id="Vector_49" d="M97.5554 424.361C97.4441 424.574 96.364 424.187 95.0081 424.209C93.6513 424.203 92.5761 424.603 92.4623 424.391C92.333 424.211 93.4058 423.378 95.0031 423.375C96.6004 423.36 97.683 424.18 97.5554 424.361Z" fill="#263238"/>
<path id="Vector_50" d="M97.6903 181.491C91.6112 181.963 86.2694 177.49 85.6655 171.422L82.0323 134.908C80.7434 125.13 85.3603 116.229 95.1708 115.212L96.0832 115.171C105.262 114.758 113.222 121.46 114.372 130.575C115.442 139.057 116.515 148.442 116.664 153.011C116.973 162.471 107.584 164.367 107.584 164.367C107.562 164.369 108.675 170.601 108.92 173.367C109.467 179.581 103.911 181.007 97.6903 181.491Z" fill="#FFBE9D"/>
<path id="Vector_51" d="M107.384 164.19C107.384 164.19 101.441 164.808 94.9106 161.105C94.9106 161.105 98.3827 167.859 107.778 166.583L107.384 164.19Z" fill="black" fill-opacity="0.3"/>
<path id="Vector_52" d="M112.359 138.679C112.416 139.391 111.861 140.027 111.119 140.1C110.378 140.173 109.729 139.658 109.672 138.946C109.615 138.234 110.169 137.598 110.911 137.524C111.654 137.45 112.302 137.967 112.359 138.679Z" fill="#263238"/>
<path id="Vector_53" d="M112.329 134.414C112.169 134.597 111.113 133.886 109.66 133.956C108.208 134.004 107.175 134.799 107.009 134.628C106.928 134.553 107.084 134.227 107.534 133.869C107.976 133.512 108.74 133.149 109.646 133.112C110.551 133.077 111.327 133.375 111.78 133.696C112.242 134.019 112.407 134.33 112.329 134.414Z" fill="#263238"/>
<path id="Vector_54" d="M98.6674 139.586C98.7247 140.298 98.1691 140.933 97.4269 141.007C96.6863 141.081 96.0374 140.564 95.9801 139.852C95.9229 139.141 96.4785 138.505 97.2198 138.431C97.962 138.357 98.6101 138.875 98.6674 139.586Z" fill="#263238"/>
<path id="Vector_55" d="M98.1241 135.642C97.9645 135.825 96.9065 135.115 95.4548 135.184C94.0032 135.232 92.9705 136.028 92.8044 135.857C92.7242 135.781 92.878 135.456 93.3289 135.097C93.7708 134.74 94.5351 134.377 95.4401 134.34C96.3451 134.305 97.1217 134.604 97.575 134.924C98.0357 135.248 98.2027 135.559 98.1241 135.642Z" fill="#263238"/>
<path id="Vector_56" d="M103.838 146.572C103.828 146.489 104.724 146.292 106.179 146.04C106.548 145.985 106.895 145.896 106.947 145.639C107.022 145.367 106.849 144.973 106.65 144.55C106.26 143.668 105.854 142.744 105.426 141.775C103.721 137.821 102.469 134.564 102.629 134.496C102.789 134.429 104.301 137.578 106.005 141.532C106.417 142.508 106.81 143.437 107.184 144.327C107.344 144.742 107.606 145.21 107.442 145.774C107.354 146.056 107.092 146.27 106.856 146.344C106.621 146.427 106.413 146.441 106.23 146.46C104.76 146.606 103.848 146.654 103.838 146.572Z" fill="#263238"/>
<path id="Vector_57" d="M99.6077 147.769C99.8433 147.744 99.9178 149.321 101.318 150.38C102.716 151.442 104.389 151.189 104.411 151.409C104.437 151.507 104.05 151.732 103.342 151.784C102.647 151.839 101.62 151.661 100.763 151.014C99.9088 150.364 99.5136 149.465 99.4309 148.82C99.3409 148.163 99.4997 147.765 99.6077 147.769Z" fill="#263238"/>
<path id="Vector_58" d="M98.0971 130.609C97.9711 131.011 96.5129 130.888 94.8174 131.17C93.1162 131.418 91.7643 131.98 91.5221 131.635C91.4133 131.47 91.6367 131.088 92.1751 130.68C92.7086 130.273 93.5711 129.871 94.5899 129.711C95.6079 129.553 96.5522 129.674 97.1847 129.899C97.8213 130.122 98.1503 130.418 98.0971 130.609Z" fill="#263238"/>
<path id="Vector_59" d="M111.517 129.092C111.277 129.433 110.26 129.136 109.056 129.174C107.85 129.17 106.843 129.495 106.593 129.161C106.483 128.998 106.629 128.66 107.06 128.328C107.485 127.997 108.207 127.709 109.035 127.697C109.863 127.686 110.593 127.953 111.028 128.272C111.467 128.592 111.623 128.926 111.517 129.092Z" fill="#263238"/>
<path id="Vector_60" d="M159.683 146.454L137.429 170.588L110.761 175.743L118.536 198.9L142.85 190.584C145.286 189.917 150.568 187.24 153.919 182.287C159.683 173.766 169.506 156.052 169.506 156.052L159.683 146.454Z" fill="#0A8EE6"/>
<path id="Vector_61" d="M144.877 162.512L157.685 176.4L161.42 170.182L149.603 157.386L144.877 162.512Z" fill="white"/>
<path id="Vector_62" d="M164.863 140.64C164.863 140.64 175.387 132.117 177.547 131.89C179.707 131.662 181.184 131.093 182.662 132.345C184.14 133.596 187.065 137.252 187.407 138.388C187.748 139.525 186.993 142.041 186.993 142.041C186.993 142.041 186.019 140.19 184.422 138.972C183.613 138.356 180.483 137.46 180.038 140.415C179.593 143.371 180.038 145.303 180.038 145.303L181.781 145.06L182.927 148.678L171.408 149.168L168.367 154.915L159.683 146.454L164.863 140.64Z" fill="#FFBE9D"/>
<path id="Vector_63" d="M111.077 175.744C111.077 175.744 117.208 178.528 119.852 184.792C122.496 191.055 120.892 198.095 120.892 198.095L111.077 175.744Z" fill="black" fill-opacity="0.3"/>
<path id="Vector_64" d="M80.3254 353.203C76.4835 371.13 72.2463 426.5 72.2463 426.5L99.3008 427.394L109.053 371.523C109.053 371.523 113.45 351.924 116.14 341.106C118.537 331.471 126.603 257.122 126.603 257.122L79.7427 258.212C79.7427 258.212 77.9548 262.472 76.7437 273.901C75.7601 283.182 75.8133 288.365 76.5407 292.956C76.9687 295.659 77.9629 298.238 79.4596 300.529L82.9398 308.032L80.3254 353.203Z" fill="#0A8EE6"/>
<path id="Vector_65" d="M217.87 179.601H209.498V193.588H217.87V179.601Z" fill="#E0E0E0"/>
<path id="Vector_66" d="M227.302 193.168H201.233V196.983H227.302V193.168Z" fill="#E0E0E0"/>
<path id="Vector_67" d="M200.191 157.558H189.276V163.387H200.191V157.558Z" fill="#E0E0E0"/>
<path id="Vector_68" d="M227.302 145.587H199.343V180.131H227.302V145.587Z" fill="#E0E0E0"/>
<path id="Vector_69" d="M219.014 167.845C222.159 164.7 222.159 159.601 219.014 156.456C215.869 153.311 210.77 153.311 207.625 156.456C204.479 159.601 204.479 164.7 207.625 167.845C210.77 170.99 215.869 170.991 219.014 167.845Z" fill="white"/>
<path id="Vector_70" d="M221.377 162.149C221.316 162.153 221.353 161.431 221.028 160.206C220.707 159.005 219.895 157.245 218.086 155.89C217.19 155.228 216.065 154.668 214.771 154.445C213.484 154.232 212.036 154.277 210.66 154.805C209.967 155.048 209.299 155.414 208.687 155.875C208.066 156.326 207.503 156.887 207.039 157.536C206.08 158.814 205.541 160.455 205.525 162.147C205.541 163.839 206.08 165.481 207.039 166.76C207.503 167.409 208.066 167.969 208.687 168.422C209.299 168.882 209.968 169.248 210.66 169.491C212.037 170.02 213.485 170.065 214.771 169.851C216.066 169.629 217.191 169.068 218.087 168.406C219.896 167.051 220.708 165.291 221.029 164.09C221.353 162.866 221.316 162.144 221.377 162.149C221.394 162.149 221.403 162.325 221.402 162.665C221.406 162.835 221.4 163.045 221.363 163.292C221.333 163.539 221.306 163.826 221.221 164.139C220.952 165.384 220.168 167.238 218.306 168.694C217.383 169.405 216.21 170.015 214.848 170.268C213.496 170.513 211.965 170.481 210.499 169.935C209.762 169.683 209.05 169.3 208.395 168.814C207.733 168.338 207.132 167.745 206.635 167.057C205.61 165.7 205.029 163.949 205.014 162.147C205.03 160.346 205.611 158.595 206.636 157.239C207.133 156.551 207.734 155.958 208.396 155.482C209.051 154.997 209.763 154.614 210.5 154.362C211.965 153.816 213.497 153.784 214.849 154.029C216.211 154.282 217.384 154.891 218.306 155.603C220.169 157.06 220.954 158.913 221.223 160.158C221.308 160.471 221.336 160.758 221.364 161.005C221.402 161.252 221.407 161.462 221.404 161.632C221.403 161.971 221.395 162.149 221.377 162.149Z" fill="#263238"/>
<path id="Vector_71" d="M199.343 145.587C199.335 145.579 199.501 145.571 199.83 145.563C200.184 145.557 200.672 145.549 201.297 145.539C202.62 145.526 204.52 145.508 206.932 145.484C211.853 145.457 218.86 145.419 227.301 145.373L227.514 145.373V145.587C227.526 155.471 227.541 167.352 227.556 180.127C227.613 180.075 227.07 180.615 227.296 180.386H227.289H227.274H227.245H227.186H227.067H226.831H226.358H225.416C224.789 180.386 224.164 180.386 223.542 180.386C222.297 180.385 221.063 180.385 219.84 180.384C217.394 180.382 214.994 180.381 212.65 180.378C207.961 180.371 203.499 180.364 199.343 180.358H199.113L199.114 180.13C199.161 169.841 199.201 161.187 199.229 155.079C199.255 152.074 199.275 149.698 199.289 148.047C199.301 147.258 199.31 146.643 199.316 146.203C199.326 145.788 199.334 145.579 199.343 145.587C199.347 145.591 199.352 145.651 199.356 145.762C199.36 145.891 199.364 146.051 199.369 146.254C199.376 146.705 199.385 147.335 199.396 148.142C199.41 149.806 199.431 152.2 199.457 155.226C199.485 161.298 199.524 169.902 199.572 180.13L199.343 179.901C203.499 179.895 207.962 179.888 212.65 179.881C214.994 179.879 217.394 179.878 219.84 179.875C221.063 179.874 222.297 179.874 223.542 179.874C224.164 179.874 224.789 179.874 225.416 179.874H226.358H226.831H227.067H227.186H227.245H227.274H227.289H227.296C227.528 179.645 226.99 180.185 227.045 180.126C227.06 167.351 227.075 155.47 227.087 145.586L227.3 145.799C218.914 145.753 211.954 145.715 207.065 145.688C204.632 145.665 202.715 145.647 201.382 145.634C200.738 145.623 200.237 145.615 199.873 145.609C199.532 145.602 199.351 145.595 199.343 145.587Z" fill="#263238"/>
<path id="Vector_72" d="M226.884 193.168C226.884 193.309 221.116 193.424 214.004 193.424C206.889 193.424 201.123 193.309 201.123 193.168C201.123 193.026 206.889 192.912 214.004 192.912C221.117 192.912 226.884 193.026 226.884 193.168Z" fill="#263238"/>
<g id="lancetta">
<path id="Vector_73" d="M212.492 161.861L214.731 162.557L215.576 156.589L212.492 161.861Z" fill="#FF725E"/>
</g>
<path id="Vector_74" d="M183.719 184.38C186.141 182.287 186.972 180.581 188.015 176.731C188.915 173.407 189.965 168.048 190.207 162.693C190.646 152.953 188.768 146.447 187.736 143.669C187.264 142.399 186.575 141.217 185.641 140.235C184.545 139.083 182.945 137.96 181.244 138.659C178.151 139.931 180.463 143.53 181.244 144.621C181.71 145.271 183.623 149.788 183.953 153.921C184.568 161.618 183.139 174.253 181.957 178.235C180.774 182.216 180.774 183.25 180.774 183.25C180.774 183.25 182.921 184.745 183.159 184.792C183.209 184.801 183.418 184.64 183.719 184.38Z" fill="#E0E0E0"/>
<path id="Vector_75" d="M183.719 184.38C183.723 184.385 183.671 184.441 183.56 184.542C183.504 184.593 183.434 184.655 183.344 184.724C183.296 184.758 183.257 184.798 183.175 184.825C183.079 184.812 183.032 184.774 182.96 184.741C182.435 184.45 181.696 183.964 180.729 183.311L180.693 183.287L180.697 183.247C180.767 182.319 181.025 181.274 181.328 180.068C181.636 178.861 182.075 177.539 182.336 176.026C182.904 173.006 183.33 169.377 183.633 165.296C183.781 163.256 183.888 161.099 183.905 158.848C183.9 156.602 183.91 154.234 183.467 151.867C183.246 150.682 182.929 149.492 182.543 148.306C182.154 147.132 181.715 145.91 181.125 144.824C180.409 143.775 179.666 142.598 179.492 141.207C179.409 140.522 179.568 139.734 180.08 139.193C180.328 138.925 180.63 138.714 180.952 138.567C181.261 138.391 181.62 138.298 181.976 138.252C182.928 138.137 183.841 138.515 184.567 139.019C185.303 139.532 185.919 140.168 186.451 140.86C187.533 142.248 188.085 143.908 188.561 145.483C189.505 148.67 190.007 151.845 190.261 154.878C190.766 160.955 190.237 166.46 189.422 170.98C189.017 173.243 188.551 175.272 188.054 177.031C187.562 178.788 187.029 180.288 186.367 181.405C185.714 182.526 184.997 183.248 184.507 183.711C184.259 183.943 184.065 184.112 183.929 184.22C183.796 184.332 183.724 184.385 183.719 184.38C183.705 184.364 183.975 184.133 184.448 183.652C184.917 183.172 185.604 182.44 186.224 181.325C186.853 180.216 187.358 178.726 187.826 176.97C188.299 175.214 188.742 173.188 189.127 170.93C189.901 166.422 190.393 160.948 189.871 154.914C189.608 151.904 189.1 148.755 188.162 145.606C187.684 144.036 187.149 142.442 186.114 141.118C185.607 140.46 185.011 139.848 184.326 139.372C183.646 138.9 182.835 138.578 182.025 138.677C181.719 138.718 181.413 138.794 181.139 138.951C180.853 139.082 180.598 139.263 180.395 139.483C179.981 139.923 179.845 140.549 179.914 141.163C180.07 142.417 180.756 143.545 181.481 144.602C182.12 145.783 182.537 146.976 182.937 148.179C183.325 149.381 183.644 150.587 183.865 151.794C184.311 154.221 184.29 156.592 184.286 158.852C184.259 161.114 184.142 163.276 183.982 165.323C183.654 169.414 183.198 173.047 182.596 176.078C182.315 177.602 181.854 178.935 181.533 180.122C181.215 181.311 180.938 182.37 180.852 183.247L180.819 183.184C181.769 183.855 182.497 184.363 183 184.67C183.059 184.706 183.134 184.743 183.165 184.755C183.209 184.743 183.266 184.703 183.31 184.675C183.395 184.612 183.47 184.558 183.535 184.509C183.654 184.42 183.715 184.374 183.719 184.38Z" fill="#263238"/>
<path id="Vector_76" d="M84.4381 167.532L83.6649 172.161C80.8835 177.211 74.3068 187.111 75.2135 202.283C76.3387 221.107 78.0693 256.528 78.0693 256.528L77.9883 257.018C77.5465 259.706 78.4908 262.434 80.4989 264.273L80.5332 264.304L123.318 265.226C128.589 264.344 132.21 259.44 131.5 254.143L124.758 203.895L111.756 174.232L110.537 171.689L109.075 170.806L84.4381 167.532Z" fill="#0A8EE6"/>
<path id="Vector_77" d="M75.5138 207.449L76.5408 226.378L126.825 226.025L125.738 207.717L75.5138 207.449Z" fill="white"/>
<path id="Vector_78" d="M107.261 170.588C107.294 170.594 107.242 171.045 107.173 171.859C107.107 172.673 107.03 173.853 107.067 175.307L107.072 175.502L106.877 175.463C104.364 174.961 100.956 174.364 97.1888 173.865C93.2037 173.332 89.5794 172.952 86.9601 172.64C85.65 172.485 84.5903 172.352 83.8596 172.249C83.1288 172.146 82.7262 172.076 82.7295 172.046C82.7328 172.017 83.1411 172.032 83.8776 172.085C84.6942 172.152 85.7392 172.238 86.9912 172.34C89.6179 172.576 93.2503 172.908 97.2461 173.442C101.023 173.942 104.438 174.585 106.943 175.156L106.753 175.311C106.755 173.839 106.88 172.652 106.999 171.839C107.122 171.026 107.233 170.584 107.261 170.588Z" fill="#263238"/>
<path id="Vector_79" d="M124.07 203.257C124.043 203.268 123.85 202.859 123.526 202.11C123.176 201.289 122.72 200.22 122.171 198.934C121.032 196.25 119.441 192.551 117.638 188.486C115.826 184.463 114.188 180.824 112.96 178.098C112.387 176.821 111.912 175.761 111.547 174.947C111.219 174.199 111.051 173.78 111.077 173.767C111.103 173.754 111.322 174.15 111.696 174.875C112.07 175.6 112.596 176.658 113.233 177.97C114.507 180.594 116.221 184.243 118.027 188.313C119.833 192.383 121.382 196.105 122.45 198.82C122.985 200.178 123.404 201.281 123.68 202.049C123.958 202.817 124.098 203.246 124.07 203.257Z" fill="#263238"/>
<path id="Vector_80" d="M125.898 263.578C125.899 263.593 125.736 263.622 125.423 263.662C125.064 263.703 124.611 263.755 124.055 263.819C122.866 263.949 121.143 264.105 119.01 264.271C114.747 264.604 108.844 264.929 102.318 265.033C95.7895 265.132 89.8789 264.99 85.6074 264.789C83.4709 264.69 81.7443 264.587 80.5512 264.495C79.9931 264.448 79.5389 264.411 79.1789 264.38C78.8655 264.349 78.701 264.326 78.7018 264.312C78.7027 264.297 78.8688 264.292 79.1838 264.294C79.5447 264.303 80.0005 264.315 80.5602 264.329C81.8122 264.368 83.5257 264.422 85.6181 264.488C89.8888 264.612 95.7911 264.707 102.311 264.608C108.828 264.505 114.725 264.226 118.99 263.97C121.079 263.839 122.791 263.732 124.041 263.654C124.6 263.623 125.055 263.596 125.416 263.577C125.73 263.564 125.896 263.564 125.898 263.578Z" fill="#263238"/>
<path id="Vector_81" d="M171.272 185.736L177.547 178.938C178.1 178.339 178.878 177.997 179.694 177.997H181.878C181.878 177.997 181.193 181.569 183.773 181.866C186.352 182.164 187.254 179.827 187.254 179.827C187.254 179.827 191.114 181.568 190.718 184.148C190.321 186.728 189.13 187.72 189.13 187.72C189.13 187.72 190.122 189.903 189.328 191.49C188.534 193.078 186.947 193.871 186.947 193.871C186.947 193.871 185.359 195.856 184.169 196.451C182.978 197.046 174.175 197.486 174.175 197.486L166.501 205.364L160.853 192.97L171.272 185.736Z" fill="#FFBE9D"/>
<path id="Vector_82" d="M84.1173 196.993C84.1173 196.993 83.6362 200.91 88.8332 208.706C94.0302 216.501 102.423 230.114 113.929 233.094C125.437 236.073 127.623 235.126 127.623 235.126L125.723 220.964L84.1173 196.993Z" fill="black" fill-opacity="0.3"/>
<path id="Vector_83" d="M82.1109 188.191C82.4734 195.3 85.7564 201.94 90.9477 206.81C98.9653 214.331 114.551 230.747 124.634 230.966C139.01 231.279 168.741 205.802 168.741 205.802L162.592 189.704L125.721 207.378L106.786 182.693C103.63 178.579 98.8884 175.888 93.7135 175.577C90.6645 175.393 87.456 175.979 84.9954 178.324C82.5339 180.667 81.9186 184.418 82.1109 188.191Z" fill="#0A8EE6"/>
<path id="Vector_84" d="M143.789 198.717L151.283 219.043L157.554 214.604L150.853 195.406L143.789 198.717Z" fill="white"/>
<path id="Vector_85" d="M82.1109 188.191C82.1109 188.191 82.0593 187.77 82.0495 186.953C82.0421 186.138 82.0552 184.918 82.349 183.363C82.6567 181.836 83.2835 179.868 84.9545 178.243C85.7867 177.452 86.8275 176.749 88.0517 176.262C89.2751 175.773 90.6645 175.501 92.1342 175.445C95.0669 175.336 98.3786 176.019 101.442 177.806C102.977 178.685 104.432 179.84 105.737 181.229C106.392 181.922 106.979 182.699 107.575 183.471C108.171 184.246 108.777 185.034 109.394 185.835C114.321 192.242 119.86 199.445 125.872 207.264L125.638 207.208C136.9 201.802 149.347 195.828 162.499 189.515L162.707 189.415L162.789 189.63C164.188 193.29 165.671 197.173 167.173 201.103C167.778 202.688 168.38 204.264 168.939 205.728L168.993 205.87L168.879 205.966C162.754 211.103 156.526 215.787 150.283 219.965C147.151 222.036 144.021 223.992 140.843 225.708C137.669 227.425 134.465 228.952 131.171 230.009C129.522 230.519 127.858 230.95 126.168 231.096C125.323 231.15 124.479 231.176 123.641 231.085C122.812 230.965 121.995 230.803 121.212 230.553C118.068 229.569 115.323 227.91 112.79 226.212C107.748 222.743 103.527 218.914 99.7361 215.397C97.8451 213.631 96.0743 211.919 94.4009 210.299C93.5638 209.492 92.7495 208.707 91.9615 207.946C91.171 207.191 90.392 206.465 89.6842 205.715C86.8513 202.715 85.0788 199.576 83.9946 196.905C82.9087 194.22 82.4947 191.996 82.2934 190.497C82.1927 189.744 82.1469 189.168 82.1322 188.78C82.1117 188.389 82.1109 188.191 82.1109 188.191C82.1109 188.191 82.1403 188.388 82.1772 188.774C82.2058 189.161 82.2655 189.735 82.3793 190.483C82.606 191.974 83.0446 194.182 84.1468 196.842C85.2474 199.487 87.0288 202.593 89.8552 205.553C90.559 206.291 91.338 207.009 92.1358 207.764C92.9287 208.522 93.7454 209.303 94.5874 210.107C96.2674 211.718 98.0439 213.422 99.9399 215.18C103.738 218.679 107.965 222.487 112.988 225.923C115.507 227.605 118.239 229.241 121.32 230.199C122.088 230.443 122.882 230.598 123.686 230.713C124.492 230.798 125.312 230.772 126.136 230.718C127.786 230.572 129.426 230.146 131.055 229.639C134.31 228.589 137.495 227.066 140.653 225.353C143.814 223.64 146.933 221.688 150.056 219.619C156.277 215.447 162.499 210.763 168.604 205.641L168.543 205.878C167.984 204.414 167.381 202.838 166.777 201.254C165.276 197.324 163.793 193.441 162.395 189.781L162.684 189.896C149.524 196.196 137.072 202.157 125.805 207.552L125.665 207.619L125.571 207.496C119.577 199.663 114.055 192.447 109.144 186.028C108.53 185.225 107.926 184.436 107.332 183.658C106.736 182.879 106.164 182.116 105.521 181.432C104.242 180.059 102.812 178.916 101.305 178.045C98.2951 176.271 95.0359 175.583 92.1432 175.674C90.6948 175.722 89.3291 175.981 88.127 176.451C86.9241 176.922 85.8996 177.603 85.0756 178.373C83.4308 179.946 82.7901 181.878 82.4668 183.39C82.1567 184.929 82.124 186.143 82.1109 186.957C82.106 187.364 82.1092 187.674 82.115 187.881C82.1174 188.084 82.1109 188.191 82.1109 188.191Z" fill="#263238"/>
<path id="Vector_86" d="M125.157 215.185C125.038 215.168 125.191 213.483 125.345 211.408C125.503 209.332 125.602 207.645 125.723 207.645C125.837 207.645 125.928 209.347 125.769 211.44C125.615 213.533 125.27 215.203 125.157 215.185Z" fill="#263238"/>
<path id="Vector_87" d="M83.9119 172.173C83.7671 172.217 108.49 177.175 108.49 177.175L107.261 171.285L106.91 175.311C106.91 175.311 85.8161 171.591 83.9119 172.173Z" fill="black" fill-opacity="0.3"/>
<path id="Vector_88" d="M77.7772 250.622C77.7625 250.622 77.7461 250.455 77.7289 250.135C77.715 249.769 77.6971 249.306 77.675 248.736C77.643 247.522 77.5702 245.766 77.4597 243.597C77.2486 239.26 76.7887 233.277 76.2454 226.668C75.7029 220.058 75.2888 214.063 75.1546 209.716C75.0826 207.542 75.0556 205.783 75.0744 204.566C75.085 203.996 75.0932 203.533 75.0998 203.166C75.1104 202.846 75.1227 202.678 75.1374 202.678C75.1521 202.678 75.1685 202.846 75.1857 203.166C75.1996 203.532 75.2176 203.995 75.2397 204.565C75.2716 205.779 75.3444 207.535 75.4549 209.704C75.666 214.041 76.1259 220.025 76.6693 226.635C77.2118 233.243 77.6259 239.237 77.7592 243.585C77.8312 245.758 77.8582 247.519 77.8394 248.735C77.8288 249.305 77.8206 249.768 77.8141 250.135C77.8042 250.454 77.792 250.622 77.7772 250.622Z" fill="#263238"/>
<path id="Vector_89" d="M115 125.616C110.677 127.331 105.525 126.806 101.641 124.256C98.9248 122.472 96.6609 119.711 93.4563 119.134C91.299 118.746 89.0421 119.468 87.2626 120.742C85.4837 122.015 84.1335 123.798 83.0159 125.673C85.5932 130.56 84.9682 136.434 84.2765 141.909C84.1997 142.514 84.1002 143.169 83.662 143.595C82.9175 144.319 81.6312 143.976 80.827 143.318C79.539 142.265 78.8923 140.636 78.4044 139.051C77.2926 135.439 76.7368 131.625 77.1216 127.868C77.5058 124.111 78.8654 120.409 81.2792 117.493C84.2958 113.848 88.8693 111.599 93.5916 111.108C98.3139 110.618 103.147 111.825 107.251 114.2C109.154 115.301 110.954 116.693 112.095 118.565" fill="#263238"/>
<path id="Vector_90" d="M82.9202 141.698C82.7557 141.636 76.3378 140.069 76.8354 146.523C77.3329 152.978 83.7098 151.147 83.7074 150.961C83.7033 150.774 82.9202 141.698 82.9202 141.698Z" fill="#FFBE9D"/>
<path id="Vector_91" d="M81.5463 148.667C81.5168 148.648 81.4399 148.755 81.2566 148.856C81.0782 148.955 80.764 149.039 80.4178 148.938C79.7166 148.741 79.0595 147.702 78.9375 146.541C78.8762 145.955 78.9564 145.387 79.1282 144.907C79.2894 144.42 79.5693 144.066 79.9072 143.978C80.2427 143.874 80.5013 144.06 80.5946 144.235C80.6952 144.409 80.6641 144.541 80.6993 144.549C80.7181 144.564 80.8294 144.431 80.7566 144.168C80.7198 144.042 80.633 143.896 80.471 143.784C80.3065 143.669 80.0742 143.622 79.8368 143.667C79.3418 143.74 78.9285 144.233 78.7395 144.759C78.5227 145.289 78.4187 145.93 78.4883 146.588C78.6299 147.885 79.3892 149.051 80.3434 149.249C80.8065 149.332 81.1747 149.166 81.3589 148.999C81.5471 148.823 81.57 148.677 81.5463 148.667Z" fill="#BC937D"/>
<path id="Vector_92" d="M87.375 108.688C86.9421 108.814 76.6095 112.801 75.1079 121.155C73.6064 129.51 74.7495 131.839 74.7495 131.839C74.7495 131.839 74.1849 132.307 73.7749 132.962C73.4075 133.55 74.4263 135.963 75.7789 135.475C85.5387 129.318 97.8263 127.035 111.655 125.436L122.177 123.754C125.179 123.662 126.1 122.727 124.746 122.169C123.708 121.742 114.837 119.612 114.837 119.612L113.015 118.654L107.773 113.259C107.773 113.259 108.188 112.34 107.021 111.797C105.854 111.255 95.9147 106.191 87.375 108.688Z" fill="#0A8EE6"/>
<path id="Vector_93" d="M78.3042 114.817C78.3042 114.817 89.5492 111.261 95.0711 112.982C94.8567 112.911 94.6423 112.84 94.4279 112.768C96.1578 113.244 97.8868 113.719 99.6167 114.195C100.493 114.435 101.511 114.654 102.245 114.119C102.245 114.119 99.2984 112.163 94.2405 111.242C89.1818 110.322 81.4268 110.746 78.3042 114.817Z" fill="black" fill-opacity="0.3"/>
<path id="Vector_94" d="M78.1462 114.903C78.1462 114.903 78.4466 114.572 79.0791 114.075C79.7092 113.579 80.6699 112.904 81.9775 112.299C83.2778 111.684 84.9242 111.143 86.8095 110.866C88.6843 110.589 90.8323 110.54 92.9582 111.157C94.0204 111.45 95.0146 111.856 95.9687 112.25C96.9163 112.661 97.8467 113.008 98.7043 113.429C99.5561 113.85 100.345 114.286 101.148 114.517C101.946 114.786 102.731 114.729 103.44 114.638C106.276 114.261 107.928 113.42 107.774 113.26C107.773 113.253 107.759 113.386 107.581 113.517C107.408 113.64 107.132 113.796 106.755 113.937C106.004 114.226 104.882 114.557 103.456 114.764C102.753 114.864 101.924 114.929 101.106 114.66C100.282 114.428 99.4792 113.99 98.6314 113.577C97.7853 113.166 96.8467 112.819 95.9008 112.412C94.9475 112.021 93.959 111.618 92.9099 111.328C90.8126 110.72 88.6957 110.763 86.8324 111.029C84.9626 111.294 83.3269 111.818 82.0299 112.413C80.7255 112.999 79.7607 113.653 79.1208 114.129C78.8001 114.369 78.5587 114.565 78.3999 114.703C78.2379 114.838 78.1462 114.903 78.1462 114.903Z" fill="#263238"/>
<path id="Vector_95" d="M74.594 124.627C76.657 124.31 78.1446 123.544 80.129 122.794C82.2435 121.995 84.3514 121.3 86.4258 120.401C87.9994 119.719 89.8798 119.039 90.7742 117.698C91.0549 118.531 90.9125 119.345 90.3732 120.039C89.834 120.734 87.9044 121.749 87.0984 122.101C82.5053 124.107 79.3197 125.469 74.405 126.544C74.3723 126.026 74.594 124.627 74.594 124.627Z" fill="black" fill-opacity="0.3"/>
<path id="Vector_96" d="M75.3126 120.236C74.0876 120.995 73.3413 121.496 73.4673 122.616C73.572 123.548 73.9264 124.655 74.8641 124.683C75.1497 124.691 75.4271 124.593 75.6963 124.497C80.3074 122.842 84.9185 121.187 89.5288 119.532C89.9969 119.364 90.5026 119.165 90.7497 118.734C91.1294 118.07 90.6556 117.179 89.9682 116.846C89.28 116.513 88.4732 116.585 87.7146 116.681C83.4055 117.235 79.3214 118.561 75.3126 120.236Z" fill="#0A8EE6"/>
<path id="Vector_97" d="M90.5614 118.975C90.5369 118.963 90.7873 118.781 90.8536 118.298C90.9182 117.843 90.7406 117.043 90.0042 116.585C89.2554 116.165 88.1614 116.147 87.0444 116.372C85.9094 116.597 84.6632 116.862 83.367 117.183C80.7705 117.817 78.4809 118.616 76.8885 119.341C76.0874 119.694 75.4598 120.021 75.0253 120.249C74.8477 120.344 74.6841 120.432 74.5286 120.516C74.414 120.576 74.3518 120.605 74.3494 120.599C74.3461 120.594 74.4017 120.555 74.5106 120.485C74.6611 120.392 74.8199 120.294 74.9917 120.188C75.4164 119.942 76.0383 119.596 76.8362 119.226C78.4229 118.468 80.7198 117.646 83.3244 117.01C84.6255 116.687 85.8742 116.427 87.0149 116.21C88.1532 115.993 89.2775 116.014 90.0721 116.478C90.8552 116.989 91.0123 117.835 90.9239 118.309C90.8814 118.558 90.7824 118.732 90.7046 118.837C90.6171 118.935 90.5639 118.979 90.5614 118.975Z" fill="#263238"/>
<path id="Vector_98" d="M109.418 114.953L100.424 116.082L101.552 118.498L111.272 116.862L109.418 114.953Z" fill="white"/>
<path id="Vector_99" d="M97.0219 124.901C97.008 124.854 100.923 123.696 105.765 122.316C110.607 120.936 114.543 119.856 114.556 119.903C114.57 119.951 110.656 121.108 105.814 122.488C100.972 123.869 97.035 124.949 97.0219 124.901Z" fill="#263238"/>
</g>
</svg>
