<svg width="692" height="410" viewBox="0 0 692 410" fill="none" xmlns="http://www.w3.org/2000/svg">
<g id="ux-ui">
<path id="Vector" d="M34.7051 99.8521C35.9561 99.0961 37.2891 98.5221 38.6631 98.1321L39.4781 94.2141L46.0971 94.0981L47.0501 97.9841C48.4371 98.3261 49.7891 98.8521 51.0661 99.5641L54.4111 97.3711L59.1741 101.969L57.1011 105.389C57.8581 106.641 58.4311 107.974 58.8211 109.348L62.7381 110.163L62.8541 116.782L58.9681 117.735C58.6261 119.122 58.1001 120.473 57.3881 121.751L59.5801 125.097L54.9821 129.86L51.5621 127.786C50.3101 128.542 48.9781 129.116 47.6031 129.506L46.7871 133.424L40.1681 133.54L39.2151 129.653C37.8281 129.311 36.4771 128.785 35.1991 128.073L31.8541 130.266L27.0911 125.668L29.1651 122.248C28.4091 120.996 27.8351 119.664 27.4451 118.289L23.5281 117.474L23.4121 110.855L27.2991 109.902C27.6411 108.515 28.1671 107.164 28.8791 105.886L26.6861 102.541L31.2841 97.7781L34.7051 99.8521ZM38.2341 108.67C35.5101 111.492 35.5891 115.988 38.4101 118.712C41.2321 121.436 45.7281 121.357 48.4521 118.535C51.1761 115.713 51.0971 111.217 48.2761 108.493C45.4531 105.769 40.9581 105.848 38.2341 108.67Z" fill="#E0E0E0"/>
<path id="Vector_2" d="M677.688 409.289C677.688 409.433 530.041 409.549 347.951 409.549C165.798 409.549 18.1821 409.432 18.1821 409.289C18.1821 409.146 165.798 409.029 347.951 409.029C530.041 409.029 677.688 409.146 677.688 409.289Z" fill="#263238"/>
<path id="Vector_3" d="M525.935 271.088H493.365C486.828 271.088 481.53 265.789 481.53 259.253V226.683C481.53 220.147 486.829 214.848 493.365 214.848H525.935C532.471 214.848 537.77 220.147 537.77 226.683V259.253C537.77 265.789 532.471 271.088 525.935 271.088Z" fill="#455A64"/>
<path id="Vector_4" d="M503.703 246.687L496.488 249.553L503.703 252.419V256.122L492.553 251.506V247.6L503.703 242.984V246.687Z" fill="white"/>
<path id="Vector_5" d="M511.641 237.074H515.463L508 260.968H504.178L511.641 237.074Z" fill="white"/>
<path id="Vector_6" d="M526.861 247.6V251.506L515.711 256.122V252.419L522.925 249.553L515.711 246.687V242.984L526.861 247.6Z" fill="white"/>
<path id="Vector_7" d="M659.13 215.605H603.354C596.089 215.605 590.199 209.715 590.199 202.45V156.288C590.199 149.023 596.089 143.133 603.354 143.133H659.13C666.395 143.133 672.285 149.023 672.285 156.288V202.45C672.285 209.716 666.396 215.605 659.13 215.605Z" fill="#455A64"/>
<path id="Vector_8" d="M598.401 208.901H661.702C663.377 208.901 664.402 206.986 663.524 205.499L646.048 175.923C645.247 174.567 643.362 174.552 642.542 175.895L636.139 186.368C635.818 186.892 635.082 186.887 634.769 186.358L622.998 166.484C622.138 165.032 620.11 165.038 619.259 166.496L596.553 205.385C595.621 206.907 596.67 208.901 598.401 208.901Z" fill="#E0E0E0"/>
<path id="Vector_9" d="M651.798 169.397C656.168 169.397 659.711 165.702 659.711 161.145C659.711 156.587 656.168 152.893 651.798 152.893C647.428 152.893 643.885 156.587 643.885 161.145C643.885 165.702 647.428 169.397 651.798 169.397Z" fill="#E0E0E0"/>
<path id="Vector_10" d="M609.677 279.647H564.411C560.47 279.647 557.275 276.452 557.275 272.511V234.218C557.275 230.277 560.47 227.082 564.411 227.082H609.677C613.618 227.082 616.813 230.277 616.813 234.218V272.511C616.813 276.452 613.618 279.647 609.677 279.647Z" fill="#E0E0E0"/>
<path id="Vector_11" d="M609.677 279.647C609.671 279.601 610.435 279.676 611.783 279.276C612.445 279.051 613.245 278.687 614.045 278.049C614.85 277.423 615.617 276.484 616.148 275.273C616.393 274.659 616.581 273.983 616.661 273.254C616.716 272.528 616.689 271.741 616.69 270.927C616.683 269.294 616.676 267.522 616.669 265.619C616.658 261.807 616.645 257.47 616.63 252.679C616.62 247.883 616.61 242.632 616.598 236.996C616.597 236.291 616.596 235.581 616.595 234.864C616.605 234.138 616.577 233.451 616.433 232.755C616.125 231.381 615.398 230.068 614.307 229.103C613.237 228.115 611.818 227.499 610.333 227.351C608.834 227.287 607.236 227.336 605.662 227.323C592.982 227.329 579.046 227.336 564.417 227.343C562.649 227.339 560.913 228.045 559.66 229.257C558.396 230.458 557.633 232.143 557.553 233.858C557.545 237.416 557.538 240.923 557.53 244.368C557.525 251.267 557.52 257.922 557.515 264.263C557.513 265.848 557.512 267.413 557.51 268.957C557.509 269.729 557.508 270.496 557.507 271.258C557.511 272.023 557.477 272.779 557.581 273.49C557.959 276.402 560.314 278.774 563.009 279.29C563.685 279.419 564.35 279.444 565.052 279.436C565.745 279.437 566.431 279.439 567.111 279.44C568.471 279.443 569.806 279.445 571.114 279.448C573.73 279.454 576.242 279.459 578.64 279.465C588.213 279.5 595.967 279.528 601.35 279.548C604.014 279.569 606.091 279.586 607.524 279.597C608.214 279.608 608.748 279.617 609.13 279.623C609.491 279.629 609.677 279.647 609.677 279.647C609.677 279.647 609.492 279.665 609.13 279.674C608.748 279.68 608.214 279.689 607.524 279.7C606.091 279.711 604.014 279.728 601.35 279.749C595.967 279.769 588.213 279.797 578.64 279.832C576.242 279.837 573.731 279.843 571.114 279.849C569.805 279.852 568.471 279.854 567.111 279.857C566.431 279.858 565.745 279.86 565.052 279.861C564.369 279.872 563.633 279.849 562.922 279.713C560.055 279.174 557.54 276.661 557.127 273.554C557.013 272.778 557.049 272.013 557.042 271.257C557.041 270.495 557.04 269.728 557.039 268.956C557.037 267.412 557.036 265.846 557.034 264.262C557.029 257.922 557.024 251.267 557.019 244.367C557.026 240.911 556.997 237.419 557.034 233.83C557.118 231.986 557.94 230.171 559.298 228.88C560.644 227.577 562.516 226.816 564.415 226.821C579.044 226.828 592.98 226.835 605.66 226.841C607.254 226.858 608.789 226.809 610.375 226.881C611.961 227.042 613.474 227.706 614.612 228.761C615.772 229.793 616.543 231.195 616.866 232.659C617.018 233.391 617.044 234.156 617.031 234.862C617.03 235.579 617.029 236.289 617.028 236.994C617.017 242.63 617.006 247.881 616.996 252.677C616.982 257.469 616.969 261.805 616.958 265.617C616.95 267.52 616.943 269.293 616.936 270.925C616.927 271.742 616.948 272.517 616.883 273.276C616.793 274.028 616.591 274.723 616.332 275.351C615.772 276.592 614.971 277.542 614.139 278.169C613.312 278.808 612.489 279.163 611.812 279.375C611.125 279.56 610.586 279.632 610.223 279.645C609.862 279.655 609.677 279.647 609.677 279.647Z" fill="#263238"/>
<path id="Vector_12" d="M564.288 274.023H608.07C609.228 274.023 609.938 272.698 609.33 271.67L597.243 251.214C596.689 250.276 595.386 250.266 594.818 251.195L590.39 258.438C590.168 258.801 589.659 258.797 589.443 258.431L581.302 244.685C580.707 243.68 579.305 243.685 578.716 244.694L563.012 271.591C562.366 272.643 563.091 274.023 564.288 274.023Z" fill="#455A64"/>
<path id="Vector_13" d="M606.693 240.992C606.693 244.144 604.243 246.699 601.22 246.699C598.197 246.699 595.747 244.144 595.747 240.992C595.747 237.84 598.197 235.285 601.22 235.285C604.242 235.284 606.693 237.839 606.693 240.992Z" fill="#455A64"/>
<path id="Vector_14" d="M624.463 130.977L622.584 118.423C622.467 117.642 622.667 116.847 623.14 116.215L655.536 72.8491L677.731 87.3741L644.281 131.556C643.955 131.987 643.291 132.391 642.55 132.518L629.458 134.767L627.568 137.136C626.834 138.057 625.501 138.228 624.557 137.524L623.181 136.497C622.236 135.791 622.022 134.462 622.699 133.497L624.463 130.977Z" fill="white"/>
<path id="Vector_15" d="M631.31 105.402L623.139 116.247C622.666 116.879 622.466 117.674 622.583 118.455L624.462 131.009L622.698 133.527C622.021 134.493 622.234 135.822 623.18 136.528L624.556 137.555C625.5 138.259 626.832 138.088 627.567 137.167L629.457 134.798L642.549 132.549C643.289 132.422 643.953 132.018 644.28 131.587L658.656 112.812C658.54 112.967 631.31 105.402 631.31 105.402Z" fill="#03732E"/>
<path id="Vector_16" d="M625.807 137.481C625.684 137.502 625.395 136.65 624.574 135.982C623.775 135.284 622.854 135.374 622.833 135.224C622.821 135.164 623.044 135.039 623.45 135.027C623.854 135.011 624.427 135.187 624.904 135.579C625.882 136.378 625.976 137.488 625.807 137.481Z" fill="#263238"/>
<path id="Vector_17" d="M629.252 134.482C629.17 134.6 628.017 133.944 626.676 133.016C625.335 132.088 624.314 131.24 624.396 131.121C624.478 131.003 625.631 131.659 626.973 132.587C628.313 133.516 629.334 134.364 629.252 134.482Z" fill="#263238"/>
<path id="Vector_18" d="M624.401 130.926C624.407 130.927 624.366 130.997 624.277 131.133C624.175 131.286 624.043 131.484 623.873 131.738C623.687 132.012 623.462 132.342 623.198 132.73C622.952 133.136 622.541 133.55 622.385 134.128C622.224 134.7 622.316 135.439 622.787 136.006C623.009 136.292 623.354 136.496 623.685 136.752C624.018 136.992 624.368 137.273 624.724 137.507C625.449 137.955 626.552 137.889 627.239 137.181C627.88 136.415 628.557 135.534 629.274 134.642L629.308 134.6L629.361 134.591C633.116 133.945 637.517 133.187 642.465 132.335C643.038 132.23 643.622 131.952 644.009 131.517C644.397 131.006 644.791 130.489 645.189 129.965C645.989 128.91 646.81 127.828 647.649 126.722C649.329 124.509 651.085 122.196 652.908 119.793C660.217 110.184 668.616 99.1422 677.599 87.3322L677.663 87.7063C676.288 86.8003 674.812 85.8282 673.327 84.8503C667.161 80.7843 661.168 76.8323 655.517 73.1073L655.858 73.0482C643.901 88.8892 633.494 102.677 626.06 112.525C625.132 113.75 624.251 114.915 623.419 116.014C623.047 116.561 622.793 117.188 622.702 117.8C622.649 118.108 622.698 118.394 622.746 118.715C622.79 119.026 622.833 119.333 622.876 119.634C623.211 122.031 623.498 124.088 623.734 125.773C623.957 127.426 624.131 128.711 624.253 129.608C624.305 130.025 624.346 130.352 624.376 130.595C624.399 130.815 624.408 130.927 624.401 130.926C624.393 130.924 624.37 130.809 624.33 130.585C624.289 130.34 624.234 130.011 624.163 129.591C624.022 128.695 623.819 127.411 623.558 125.759C623.301 124.085 622.988 122.042 622.623 119.661C622.578 119.363 622.532 119.059 622.485 118.75C622.437 118.454 622.376 118.102 622.432 117.764C622.527 117.093 622.784 116.445 623.18 115.848C624.006 114.739 624.88 113.565 625.8 112.329C633.198 102.453 643.554 88.6272 655.453 72.7422L655.595 72.5522L655.794 72.6833C661.447 76.4053 667.443 80.3522 673.612 84.4142C675.097 85.3932 676.572 86.3653 677.947 87.2713L678.18 87.4243L678.011 87.6452C669.007 99.4392 660.589 110.466 653.263 120.062C651.43 122.458 649.665 124.764 647.977 126.971C647.133 128.074 646.308 129.151 645.502 130.203C645.096 130.731 644.695 131.252 644.299 131.767C643.819 132.295 643.181 132.583 642.527 132.704C637.573 133.521 633.167 134.248 629.407 134.869L629.494 134.818C628.761 135.713 628.102 136.558 627.417 137.357C626.636 138.144 625.406 138.199 624.611 137.693C624.22 137.429 623.901 137.162 623.563 136.912C623.244 136.656 622.89 136.443 622.643 136.12C622.141 135.493 622.056 134.695 622.241 134.085C622.431 133.454 622.849 133.065 623.099 132.672C623.374 132.295 623.608 131.975 623.802 131.709C623.986 131.462 624.13 131.269 624.24 131.12C624.34 130.991 624.394 130.924 624.401 130.926Z" fill="#263238"/>
<path id="Vector_19" d="M673.446 107.549L672.994 108.16C671.565 110.093 668.839 110.501 666.906 109.071L637.637 87.4243C635.704 85.9943 635.296 83.2693 636.726 81.3363L637.178 80.7253C638.607 78.7923 641.333 78.3843 643.266 79.8143L672.535 101.461C674.467 102.891 674.875 105.617 673.446 107.549Z" fill="#455A64"/>
<path id="Vector_20" d="M688.773 76.6482L670.154 101.823C668.371 104.234 664.97 104.743 662.559 102.96L646.212 90.8702C643.801 89.0872 643.292 85.6862 645.075 83.2752L663.694 58.1002C668.404 51.7312 677.386 50.3862 683.755 55.0972L685.77 56.5872C692.139 61.2972 693.483 70.2792 688.773 76.6482Z" fill="#455A64"/>
<path id="Vector_21" d="M670.362 99.8555C670.342 99.8855 669.986 99.6795 669.361 99.2805C668.735 98.8835 667.843 98.2875 666.751 97.5375C664.566 96.0385 661.596 93.9005 658.346 91.5015C655.149 89.1335 652.258 86.9915 650.035 85.3445C649.045 84.6045 648.206 83.9775 647.523 83.4685C646.934 83.0195 646.618 82.7575 646.638 82.7275C646.658 82.6975 647.014 82.9035 647.639 83.3015C648.265 83.6985 649.157 84.2945 650.248 85.0445C652.433 86.5435 655.403 88.6815 658.654 91.0825C661.85 93.4505 664.74 95.5915 666.964 97.2385C667.955 97.9785 668.794 98.6055 669.476 99.1145C670.066 99.5635 670.383 99.8255 670.362 99.8555Z" fill="#263238"/>
<path id="Vector_22" d="M587.474 81.07C599.613 86.008 612.001 87.662 624.198 86.014C628.794 85.393 632.418 81.797 633.015 77.198L638.255 36.844L586.51 30.125L581.289 70.333C580.697 74.898 583.212 79.337 587.474 81.07Z" fill="#E0E0E0"/>
<path id="Vector_23" d="M634.808 63.3875L633.344 74.6595C633.344 74.6595 595.237 71.4794 584.165 48.1844L585.998 34.0645C596.213 57.4025 634.808 63.3875 634.808 63.3875Z" fill="white"/>
<path id="Vector_24" d="M627.79 49.4071C627.582 51.0101 628.684 52.4741 630.252 52.6781C631.82 52.8811 633.259 51.7471 633.467 50.1441C633.675 48.5411 632.573 47.0771 631.005 46.8731C629.438 46.6701 627.998 47.8041 627.79 49.4071Z" fill="#263238"/>
<path id="Vector_25" d="M592.108 35.5327C592.454 34.0157 592.888 32.4627 592.692 30.9307L608.091 37.3867C607.542 40.2417 606.696 43.0347 605.573 45.6887C604.98 47.0917 604.149 48.6017 602.801 48.9557C601.507 49.2957 600.179 48.3547 599.576 47.0637C598.973 45.7727 598.961 44.2227 599.128 42.7557C599.195 42.1677 599.287 41.5697 599.192 40.9927C599.097 40.4157 598.766 39.8497 598.256 39.7087C597.134 39.3977 596.426 41.0977 595.4 41.7447C594.172 42.5197 592.566 41.5337 592.036 40.1137C591.508 38.6937 591.762 37.0487 592.108 35.5327Z" fill="#03732E"/>
<path id="Vector_26" d="M586.874 30.1743C586.527 32.8453 597.748 36.5053 611.936 38.3473C626.124 40.1893 637.908 39.5173 638.254 36.8463C638.601 34.1743 627.38 30.5153 613.192 28.6733C599.004 26.8303 587.221 27.5033 586.874 30.1743Z" fill="#03732E"/>
<path id="Vector_27" d="M584.179 43.1983C584.192 43.2113 584.005 43.4243 583.638 43.8203C583.242 44.2523 582.711 44.8303 582.044 45.5563C581.365 46.3193 580.551 47.2703 579.736 48.4643C578.928 49.6573 578.126 51.1143 577.679 52.8663C577.237 54.5983 577.132 56.6713 577.95 58.6153C578.749 60.5703 580.519 62.1553 582.622 63.2603C584.734 64.3773 587.168 65.1463 589.702 65.7783C592.245 66.3973 594.945 66.7623 597.72 66.8443C603.277 67.0323 608.572 65.9923 613.056 64.2633C617.548 62.5173 621.24 60.1313 624.042 57.8083C626.847 55.4743 628.813 53.2453 630.075 51.6423C630.699 50.8333 631.179 50.2013 631.484 49.7573C631.799 49.3203 631.972 49.0953 631.987 49.1053C632.002 49.1153 631.859 49.3593 631.571 49.8163C631.293 50.2803 630.839 50.9343 630.236 51.7663C629.017 53.4153 627.079 55.6993 624.278 58.0913C621.481 60.4723 617.769 62.9183 613.23 64.7113C608.698 66.4873 603.333 67.5563 597.703 67.3653C594.892 67.2823 592.157 66.9093 589.581 66.2743C587.013 65.6263 584.561 64.8433 582.393 63.6823C580.24 62.5383 578.381 60.8643 577.55 58.7813C576.702 56.7113 576.844 54.5513 577.321 52.7733C577.806 50.9723 578.653 49.4913 579.495 48.2983C580.345 47.1033 581.188 46.1643 581.893 45.4193C582.6 44.6743 583.171 44.1203 583.561 43.7473C583.954 43.3743 584.167 43.1863 584.179 43.1983Z" fill="#263238"/>
<path id="Vector_28" d="M542.277 51.2185C548.628 49.5655 553.775 44.0005 554.856 36.7265C556.264 27.1965 550.164 18.3965 541.227 17.0705C532.295 15.7455 523.909 22.3965 522.499 31.9255C521.414 39.2675 524.806 46.1355 530.5 49.5265C505.048 49.7015 502.289 76.9405 502.289 76.9405L561.162 85.6735C561.162 85.6735 566.438 58.4945 542.277 51.2185Z" fill="#455A64"/>
<path id="Vector_29" d="M490.521 55.1564H441.791C439.606 55.1564 437.835 53.3854 437.835 51.2004V4.10736C437.835 1.92236 439.606 0.151367 441.791 0.151367H490.521C492.706 0.151367 494.477 1.92236 494.477 4.10736V51.2014C494.477 53.3854 492.706 55.1564 490.521 55.1564Z" fill="white"/>
<path id="Vector_30" d="M489.727 55.1563C489.711 55.1063 490.523 55.2513 491.821 54.6303C492.454 54.3163 493.184 53.7603 493.728 52.8723C493.999 52.4313 494.219 51.9083 494.334 51.3223C494.461 50.7373 494.411 50.0933 494.418 49.4123C494.407 43.9613 494.39 36.0873 494.37 26.3593C494.364 21.4923 494.358 16.1623 494.351 10.4403C494.35 9.00932 494.348 7.55432 494.347 6.07632C494.328 5.33532 494.406 4.58531 494.228 3.87931C494.062 3.17031 493.734 2.48932 493.253 1.92532C492.77 1.36632 492.157 0.904316 491.459 0.626316C490.755 0.337316 490.008 0.264314 489.22 0.289314C487.653 0.290314 486.064 0.291317 484.456 0.292317C471.587 0.296317 457.441 0.300318 442.591 0.304318C440.78 0.282318 439.049 1.43732 438.362 3.08632C438.196 3.49732 438.071 3.92531 438.022 4.36531C437.978 4.80031 437.989 5.25832 437.988 5.71432C437.988 6.62532 437.988 7.53231 437.988 8.43631C437.987 12.0533 437.987 15.6163 437.986 19.1183C437.983 26.1213 437.98 32.8763 437.977 39.3113C437.975 42.5283 437.973 45.6663 437.971 48.7143C437.971 49.0953 437.97 49.4753 437.97 49.8533C437.967 50.2353 437.965 50.6063 438.006 50.9663C438.096 51.6903 438.357 52.3853 438.754 52.9853C439.562 54.1783 440.917 54.9523 442.313 55.0153C448.032 55.0273 453.36 55.0383 458.225 55.0483C467.953 55.0693 475.826 55.0853 481.276 55.0973C483.992 55.1093 486.103 55.1193 487.543 55.1263C488.254 55.1333 488.798 55.1383 489.173 55.1413C489.539 55.1463 489.727 55.1563 489.727 55.1563C489.727 55.1563 489.539 55.1663 489.172 55.1723C488.797 55.1763 488.253 55.1813 487.542 55.1873C486.102 55.1943 483.991 55.2033 481.275 55.2163C475.825 55.2283 467.952 55.2443 458.224 55.2653C453.355 55.2663 448.022 55.2683 442.297 55.2693C440.824 55.2053 439.391 54.3923 438.536 53.1333C438.115 52.5013 437.838 51.7663 437.742 51.0003C437.697 50.6143 437.7 50.2303 437.702 49.8553C437.702 49.4773 437.701 49.0973 437.701 48.7163C437.699 45.6673 437.697 42.5303 437.695 39.3133C437.692 32.8783 437.689 26.1233 437.686 19.1203C437.685 15.6183 437.684 12.0553 437.684 8.43831C437.684 7.53431 437.684 6.62632 437.684 5.71632C437.685 5.26232 437.672 4.80632 437.72 4.33232C437.773 3.86232 437.905 3.40532 438.083 2.96732C438.814 1.20932 440.661 -0.0226833 442.592 0.000316699C457.441 0.0043167 471.588 0.00831774 484.457 0.0123177C486.066 0.0133177 487.654 0.0143161 489.221 0.0153161C489.996 -0.00968391 490.83 0.0683162 491.562 0.376316C492.301 0.672316 492.949 1.16131 493.459 1.75431C493.966 2.35231 494.313 3.07231 494.487 3.82331C494.674 4.58531 494.59 5.34732 494.609 6.07832C494.608 7.55632 494.606 9.01132 494.605 10.4423C494.598 16.1643 494.592 21.4943 494.586 26.3613C494.565 36.0893 494.549 43.9633 494.537 49.4143C494.526 50.0903 494.572 50.7433 494.437 51.3443C494.315 51.9433 494.086 52.4743 493.806 52.9213C493.243 53.8223 492.495 54.3783 491.849 54.6873C491.198 55.0013 490.648 55.0983 490.283 55.1383C489.915 55.1643 489.727 55.1563 489.727 55.1563Z" fill="#263238"/>
<path id="Vector_31" d="M450.363 13.1133H481.248L481.298 23.4583H479.82C479.336 19.7573 477.95 17.2533 475.662 15.9473C474.376 15.2273 472.456 14.8343 469.901 14.7663V41.7893C469.901 43.6773 470.231 44.9313 470.89 45.5493C471.549 46.1673 472.923 46.4763 475.01 46.4763V47.7783H456.725V46.4763C458.729 46.4763 460.06 46.1633 460.72 45.5363C461.38 44.9093 461.709 43.6603 461.709 41.7893V14.7663C459.204 14.8333 457.284 15.2273 455.948 15.9473C453.493 17.2873 452.107 19.7903 451.79 23.4583H450.312L450.363 13.1133Z" fill="#263238"/>
<g id="ui">
<path id="Vector_32" d="M592.039 232.875H453.906C440.674 232.875 429.948 222.148 429.948 208.917V91.6973C429.948 78.4653 440.675 67.7393 453.906 67.7393H592.039C605.271 67.7393 615.997 78.4663 615.997 91.6973V208.917C615.997 222.148 605.271 232.875 592.039 232.875Z" fill="#03732E"/>
<path id="Vector_33" d="M473.231 187.166C466.471 180.365 463.091 170.622 463.091 157.934V108.485H479.365V157.308C479.365 174.502 486.792 183.097 501.648 183.097C516.421 183.097 523.806 174.502 523.806 157.308V108.485H539.83V157.934C539.83 170.621 536.47 180.364 529.752 187.166C523.033 193.969 513.622 197.369 501.523 197.369C489.421 197.368 479.991 193.969 473.231 187.166Z" fill="white"/>
<path id="Vector_34" d="M562.613 108.485H578.887V196.116H562.613V108.485Z" fill="white"/>
</g>
<path id="Vector_35" opacity="0.3" d="M459.081 232.668C459.081 232.668 452.074 203.664 429.947 200.541L430.565 213.581C431.086 224.583 442.49 233.152 453.501 232.868L459.081 232.668Z" fill="black"/>
<path id="Vector_36" d="M129.274 200.346L65.1783 85.0541C63.4033 81.8601 64.5523 77.8321 67.7463 76.0561L88.9453 64.2701C92.1393 62.4951 96.1673 63.6441 97.9423 66.8381L162.039 182.129C163.814 185.323 162.665 189.351 159.471 191.126L138.272 202.912C135.078 204.689 131.05 203.539 129.274 200.346Z" fill="#08BB50"/>
<path id="Vector_37" d="M102.463 74.9712L95.79 140.117L102.463 152.12L109.606 87.8192L102.463 74.9712Z" fill="white"/>
<path id="Vector_38" d="M113.597 95.0181L106.924 160.164L110.744 167.034L118.345 103.558L113.597 95.0181Z" fill="white"/>
<path id="Vector_39" d="M85.8741 85.0592C85.9441 85.1852 82.4841 87.2422 78.1471 89.6532C73.8091 92.0652 70.2361 93.9182 70.1661 93.7922C70.0961 93.6662 73.5551 91.6102 77.8931 89.1982C82.2311 86.7872 85.8041 84.9342 85.8741 85.0592Z" fill="#263238"/>
<path id="Vector_40" d="M84.6563 98.8454C84.7263 98.9714 82.7853 100.183 80.3223 101.553C77.8583 102.923 75.8043 103.931 75.7343 103.806C75.6643 103.68 77.6053 102.468 80.0693 101.098C82.5323 99.7284 84.5863 98.7204 84.6563 98.8454Z" fill="#263238"/>
<path id="Vector_41" d="M97.0084 105.086C97.0784 105.212 93.6184 107.269 89.2814 109.68C84.9434 112.092 81.3704 113.945 81.3004 113.819C81.2304 113.693 84.6894 111.637 89.0284 109.225C93.3654 106.814 96.9394 104.961 97.0084 105.086Z" fill="#263238"/>
<path id="Vector_42" d="M95.7901 118.872C95.8601 118.998 93.9191 120.21 91.4561 121.58C88.9921 122.95 86.938 123.958 86.868 123.833C86.798 123.708 88.738 122.495 91.203 121.125C93.666 119.755 95.7201 118.746 95.7901 118.872Z" fill="#263238"/>
<path id="Vector_43" d="M106.924 138.899C106.994 139.025 105.053 140.237 102.59 141.607C100.126 142.977 98.0723 143.985 98.0023 143.86C97.9323 143.734 99.8723 142.522 102.337 141.152C104.8 139.782 106.854 138.773 106.924 138.899Z" fill="#263238"/>
<path id="Vector_44" d="M119.277 145.14C119.347 145.266 115.887 147.323 111.55 149.734C107.212 152.146 103.639 153.999 103.569 153.873C103.499 153.747 106.958 151.691 111.297 149.279C115.633 146.868 119.207 145.014 119.277 145.14Z" fill="#263238"/>
<path id="Vector_45" d="M118.058 158.926C118.128 159.052 116.187 160.264 113.724 161.634C111.26 163.004 109.206 164.012 109.136 163.887C109.066 163.761 111.006 162.549 113.471 161.179C115.934 159.809 117.988 158.8 118.058 158.926Z" fill="#263238"/>
<path id="Vector_46" d="M130.41 165.167C130.48 165.293 127.02 167.35 122.683 169.761C118.345 172.173 114.772 174.026 114.702 173.9C114.632 173.774 118.091 171.718 122.43 169.306C126.768 166.894 130.341 165.041 130.41 165.167Z" fill="#263238"/>
<path id="Vector_47" d="M129.192 178.953C129.262 179.079 127.321 180.291 124.858 181.661C122.394 183.031 120.34 184.039 120.27 183.914C120.2 183.788 122.14 182.576 124.605 181.206C127.068 179.836 129.122 178.827 129.192 178.953Z" fill="#263238"/>
<path id="Vector_48" d="M141.545 185.194C141.615 185.32 138.155 187.377 133.818 189.788C129.48 192.2 125.907 194.053 125.837 193.927C125.767 193.801 129.226 191.745 133.565 189.333C137.902 186.921 141.475 185.068 141.545 185.194Z" fill="#263238"/>
<path id="Vector_49" d="M233.538 165.386L153.624 159.803C150.046 159.553 147.348 156.45 147.598 152.871L152.347 84.9014C152.597 81.3234 155.7 78.6254 159.279 78.8754L239.193 84.4584C242.771 84.7084 245.469 87.8115 245.219 91.3905L240.47 159.36C240.219 162.938 237.116 165.636 233.538 165.386Z" fill="white"/>
<path id="Vector_50" d="M233.538 165.386C233.538 165.368 233.835 165.394 234.406 165.355C234.973 165.317 235.84 165.187 236.836 164.68C237.821 164.185 238.961 163.285 239.704 161.829C240.525 160.382 240.393 158.421 240.581 156.305C241.157 147.777 241.989 135.461 243.017 120.245C243.539 112.632 244.111 104.295 244.725 95.3452C244.802 94.2262 244.88 93.0982 244.958 91.9602C245.062 90.8282 245.016 89.7142 244.579 88.6652C243.79 86.5652 241.752 84.9402 239.44 84.7172C234.676 84.3832 229.773 84.0402 224.745 83.6882C204.618 82.2882 182.492 80.7492 159.267 79.1342C157.873 79.0502 156.451 79.4092 155.309 80.2092C154.171 80.9982 153.278 82.1562 152.882 83.4822C152.672 84.1462 152.599 84.8142 152.56 85.5422L152.41 87.6822C152.31 89.1062 152.211 90.5262 152.112 91.9402C151.716 97.5962 151.325 103.17 150.941 108.646C150.171 119.598 149.427 130.163 148.719 140.227C148.541 142.743 148.366 145.228 148.193 147.679C148.106 148.905 148.02 150.122 147.935 151.332C147.858 152.551 147.692 153.732 147.999 154.85C148.536 157.109 150.422 158.909 152.604 159.413C153.681 159.653 154.869 159.64 155.996 159.747C157.134 159.828 158.262 159.908 159.381 159.987C168.33 160.624 176.666 161.217 184.277 161.758C199.488 162.856 211.799 163.744 220.323 164.36C224.568 164.678 227.867 164.925 230.121 165.094C231.231 165.183 232.08 165.251 232.668 165.298C233.245 165.348 233.538 165.386 233.538 165.386C233.538 165.386 233.243 165.383 232.668 165.352C232.079 165.317 231.229 165.266 230.117 165.2C227.861 165.054 224.56 164.84 220.312 164.564C211.785 163.988 199.47 163.156 184.254 162.128C176.641 161.606 168.304 161.034 159.353 160.42C158.234 160.343 157.106 160.265 155.968 160.187C154.828 160.079 153.693 160.106 152.503 159.848C150.163 159.312 148.14 157.388 147.558 154.963C147.226 153.749 147.403 152.488 147.475 151.301C147.558 150.092 147.643 148.874 147.727 147.648C147.897 145.196 148.069 142.711 148.243 140.195C148.941 130.13 149.675 119.565 150.434 108.611C150.815 103.134 151.203 97.5612 151.597 91.9042C151.696 90.4902 151.795 89.0712 151.894 87.6462L152.043 85.5062C152.079 84.8052 152.16 84.0342 152.387 83.3272C152.817 81.8902 153.783 80.6352 155.016 79.7802C156.252 78.9142 157.796 78.5232 159.304 78.6152C182.528 80.2452 204.653 81.7982 224.779 83.2102C229.813 83.5702 234.722 83.9222 239.492 84.2632C241.972 84.5072 244.154 86.2542 244.995 88.5042C245.461 89.6112 245.506 90.8632 245.396 91.9912C245.315 93.1292 245.235 94.2572 245.156 95.3752C244.519 104.323 243.926 112.659 243.385 120.27C242.287 135.481 241.399 147.793 240.783 156.318C240.705 157.382 240.63 158.386 240.561 159.33C240.496 160.287 240.224 161.161 239.842 161.899C239.066 163.383 237.891 164.286 236.882 164.774C235.861 165.274 234.982 165.387 234.409 165.408C233.832 165.431 233.538 165.386 233.538 165.386Z" fill="#263238"/>
<path id="Vector_51" d="M229.509 160.465L158.297 155.49C154.719 155.24 152.021 152.137 152.271 148.558L156.375 89.8223C156.625 86.2443 159.728 83.5463 163.307 83.7963L234.519 88.7713C238.097 89.0213 240.795 92.1243 240.545 95.7033L236.441 154.439C236.191 158.017 233.088 160.715 229.509 160.465Z" fill="white"/>
<path id="Vector_52" d="M217.539 159.628C217.549 159.485 220.237 159.555 223.542 159.786C226.848 160.017 229.52 160.321 229.509 160.464C229.499 160.607 226.812 160.536 223.505 160.305C220.201 160.075 217.529 159.772 217.539 159.628Z" fill="#263238"/>
<path id="Vector_53" d="M193.597 157.956C193.607 157.812 196.295 157.883 199.6 158.114C202.906 158.345 205.578 158.649 205.568 158.792C205.558 158.935 202.87 158.864 199.564 158.634C196.259 158.403 193.587 158.099 193.597 157.956Z" fill="#263238"/>
<path id="Vector_54" d="M169.655 156.283C169.665 156.14 172.353 156.211 175.658 156.441C178.964 156.672 181.636 156.976 181.626 157.119C181.616 157.262 178.928 157.192 175.622 156.961C172.317 156.73 169.645 156.426 169.655 156.283Z" fill="#263238"/>
<path id="Vector_55" d="M152.44 146.138C152.512 146.143 152.53 146.818 152.501 147.906C152.488 148.457 152.447 149.084 152.54 149.77C152.639 150.455 152.856 151.191 153.226 151.897C153.959 153.329 155.162 154.25 156.09 154.732C157.035 155.209 157.704 155.33 157.687 155.418C157.684 155.471 156.979 155.483 155.934 155.066C154.912 154.647 153.56 153.693 152.764 152.139C152.364 151.374 152.143 150.568 152.063 149.828C151.99 149.083 152.075 148.412 152.133 147.881C152.257 146.799 152.368 146.133 152.44 146.138Z" fill="#263238"/>
<path id="Vector_56" d="M154.113 122.197C154.256 122.207 154.185 124.895 153.955 128.2C153.724 131.506 153.42 134.178 153.277 134.167C153.134 134.157 153.205 131.47 153.436 128.163C153.666 124.859 153.97 122.187 154.113 122.197Z" fill="#263238"/>
<path id="Vector_57" d="M155.786 98.2549C155.929 98.2649 155.859 100.953 155.628 104.258C155.397 107.564 155.093 110.235 154.95 110.225C154.807 110.215 154.878 107.527 155.108 104.221C155.339 100.917 155.642 98.2449 155.786 98.2549Z" fill="#263238"/>
<path id="Vector_58" d="M168.645 84.1694C168.646 84.3294 165.922 84.2054 162.665 84.0474C161.06 84.0824 159.703 84.7514 158.869 85.3864C158.023 86.0234 157.623 86.5734 157.554 86.5214C157.505 86.4934 157.802 85.8534 158.637 85.1004C159.453 84.3544 160.907 83.5634 162.65 83.5264C166.009 83.6874 168.643 84.0414 168.645 84.1694Z" fill="#263238"/>
<path id="Vector_59" d="M192.586 85.8424C192.576 85.9854 189.888 85.9154 186.583 85.6844C183.277 85.4534 180.605 85.1494 180.616 85.0064C180.626 84.8634 183.313 84.9344 186.62 85.1654C189.925 85.3954 192.596 85.6984 192.586 85.8424Z" fill="#263238"/>
<path id="Vector_60" d="M216.528 87.5144C216.518 87.6584 213.83 87.5873 210.525 87.3563C207.219 87.1253 204.547 86.8214 204.558 86.6784C204.568 86.5354 207.256 86.6064 210.562 86.8364C213.866 87.0674 216.538 87.3714 216.528 87.5144Z" fill="#263238"/>
<path id="Vector_61" d="M239.496 91.6862C239.424 91.7362 239.046 91.1702 238.222 90.5032C237.411 89.8382 236.079 89.1242 234.472 89.0292C231.163 88.7982 228.489 88.4942 228.499 88.3512C228.509 88.2082 231.199 88.2792 234.508 88.5102C236.246 88.6112 237.675 89.4512 238.464 90.2262C239.273 91.0082 239.544 91.6612 239.496 91.6862Z" fill="#263238"/>
<path id="Vector_62" d="M239.166 115.433C239.023 115.423 239.093 112.735 239.324 109.43C239.555 106.124 239.858 103.453 240.002 103.463C240.145 103.473 240.074 106.161 239.843 109.467C239.613 112.771 239.31 115.443 239.166 115.433Z" fill="#263238"/>
<path id="Vector_63" d="M237.494 139.375C237.351 139.365 237.421 136.677 237.652 133.372C237.883 130.066 238.186 127.394 238.33 127.404C238.473 127.414 238.403 130.102 238.171 133.408C237.941 136.713 237.637 139.385 237.494 139.375Z" fill="#263238"/>
<path id="Vector_64" d="M230.797 160.428C230.783 160.338 231.458 160.249 232.417 159.798C233.367 159.355 234.588 158.463 235.38 157.068C235.78 156.378 236.016 155.646 236.139 154.966C236.244 154.292 236.281 153.621 236.35 153.088C236.473 152.007 236.585 151.341 236.656 151.346C236.728 151.351 236.746 152.026 236.717 153.113C236.693 153.663 236.7 154.288 236.612 155.039C236.507 155.775 236.265 156.577 235.832 157.325C234.972 158.84 233.602 159.76 232.56 160.137C231.505 160.524 230.798 160.48 230.797 160.428Z" fill="#263238"/>
<path id="Vector_65" d="M238.593 91.1902C238.679 91.3062 219.87 105.389 196.588 122.643C173.298 139.903 154.355 153.796 154.269 153.681C154.183 153.566 172.988 139.485 196.278 122.225C219.56 104.971 238.507 91.0742 238.593 91.1902Z" fill="#263238"/>
<path id="Vector_66" d="M157.86 85.7554C157.959 85.6514 175.287 102.035 196.558 122.344C217.836 142.661 234.999 159.21 234.9 159.314C234.801 159.418 217.477 143.038 196.199 122.721C174.927 102.411 157.761 85.8594 157.86 85.7554Z" fill="#263238"/>
<path id="Vector_67" d="M138.809 63.2405C140.543 62.1925 142.388 61.3985 144.292 60.8575L145.422 55.4305L154.591 55.2695L155.911 60.6535C157.833 61.1275 159.705 61.8565 161.475 62.8425L166.109 59.8045L172.707 66.1745L169.835 70.9115C170.883 72.6455 171.677 74.4915 172.218 76.3955L177.645 77.5245L177.806 86.6935L172.422 88.0135C171.949 89.9345 171.219 91.8065 170.233 93.5765L173.27 98.2115L166.901 104.81L162.163 101.937C160.429 102.985 158.583 103.779 156.679 104.32L155.549 109.747L146.38 109.908L145.06 104.524C143.139 104.05 141.266 103.321 139.497 102.335L134.863 105.373L128.265 99.0025L131.138 94.2655C130.09 92.5315 129.295 90.6855 128.755 88.7815L123.328 87.6525L123.167 78.4835L128.551 77.1635C129.025 75.2425 129.754 73.3695 130.74 71.6005L127.703 66.9655L134.073 60.3675L138.809 63.2405ZM143.696 75.4555C139.922 79.3645 140.031 85.5925 143.94 89.3665C147.849 93.1405 154.077 93.0305 157.851 89.1215C161.625 85.2125 161.516 78.9845 157.607 75.2105C153.698 71.4375 147.47 71.5465 143.696 75.4555Z" fill="#455A64"/>
<path id="Vector_68" d="M200.267 275.166C202.114 274.05 204.08 273.204 206.107 272.628L207.31 266.847L217.077 266.676L218.483 272.411C220.53 272.915 222.525 273.692 224.41 274.742L229.346 271.506L236.374 278.292L233.314 283.338C234.43 285.185 235.276 287.152 235.852 289.18L241.632 290.383L241.804 300.15L236.069 301.556C235.565 303.602 234.788 305.597 233.738 307.482L236.973 312.419L230.188 319.447L225.141 316.387C223.294 317.503 221.328 318.349 219.3 318.925L218.097 324.706L208.33 324.877L206.924 319.142C204.877 318.637 202.883 317.861 200.998 316.81L196.062 320.046L189.034 313.261L192.094 308.215C190.978 306.368 190.131 304.402 189.556 302.374L183.775 301.171L183.604 291.404L189.339 289.998C189.843 287.952 190.62 285.957 191.67 284.072L188.435 279.135L195.22 272.107L200.267 275.166ZM205.474 288.178C201.454 292.342 201.57 298.976 205.734 302.996C209.898 307.016 216.532 306.899 220.552 302.735C224.572 298.571 224.456 291.937 220.292 287.917C216.128 283.898 209.494 284.014 205.474 288.178Z" fill="#455A64"/>
<path id="Vector_69" d="M38.6814 208.83C32.5854 210.087 26.0584 209.52 19.9524 206.8C12.4324 203.45 6.6664 197.371 3.7174 189.684C0.768399 181.996 0.990399 173.621 4.3414 166.1C11.2574 150.575 29.5164 143.571 45.0424 150.488C52.5634 153.839 58.3284 159.918 61.2774 167.605C64.2264 175.292 64.0044 183.667 60.6534 191.189C56.4564 200.607 48.0844 206.891 38.6814 208.83ZM26.7274 150.479C17.9534 152.289 10.1424 158.15 6.2264 166.939C3.1004 173.956 2.8934 181.771 5.6444 188.943C8.3954 196.116 13.7754 201.788 20.7924 204.914C27.8094 208.041 35.6244 208.248 42.7974 205.495C49.9694 202.745 55.6414 197.364 58.7684 190.347C61.8944 183.33 62.1014 175.515 59.3504 168.343C56.5994 161.17 51.2194 155.499 44.2024 152.372C38.5064 149.835 32.4144 149.306 26.7274 150.479Z" fill="#455A64"/>
<path id="Vector_70" d="M37.0251 211.837C30.9291 213.094 24.4021 212.527 18.2962 209.807C10.7761 206.457 5.01015 200.378 2.06115 192.691C-0.887851 185.003 -0.665851 176.628 2.68515 169.107C9.60115 153.582 27.8601 146.578 43.3861 153.495C50.9071 156.846 56.6721 162.925 59.6211 170.612C62.5701 178.299 62.3481 186.674 58.9971 194.196C54.8001 203.614 46.4271 209.897 37.0251 211.837ZM25.0701 153.486C16.2961 155.296 8.48515 161.157 4.56915 169.946C1.44315 176.963 1.23615 184.778 3.98715 191.95C6.73815 199.123 12.1182 204.795 19.1352 207.921C26.1522 211.048 33.9672 211.255 41.1402 208.503C48.3122 205.753 53.9842 200.372 57.1112 193.355C60.2372 186.338 60.4442 178.523 57.6932 171.351C54.9422 164.178 49.5621 158.507 42.5452 155.38C36.8492 152.842 30.7571 152.312 25.0701 153.486Z" fill="#263238"/>
<path id="Vector_71" d="M37.6091 210.104C31.5131 211.361 24.9861 210.794 18.8801 208.074C11.3601 204.724 5.59413 198.644 2.64513 190.957C-0.303867 183.269 -0.0818665 174.894 3.26913 167.373C10.1851 151.848 28.4441 144.844 43.9701 151.761C51.4911 155.112 57.2561 161.191 60.2051 168.878C63.1541 176.565 62.9321 184.94 59.5811 192.462C55.3841 201.881 47.0111 208.165 37.6091 210.104ZM25.6541 151.753C16.8801 153.563 9.06913 159.424 5.15313 168.213C2.02713 175.23 1.82013 183.045 4.57113 190.217C7.32213 197.39 12.7021 203.061 19.7191 206.188C26.7361 209.315 34.5511 209.521 41.7241 206.77C48.8961 204.019 54.5681 198.639 57.6951 191.622C60.8211 184.605 61.0281 176.79 58.2771 169.618C55.5261 162.445 50.1461 156.774 43.1291 153.647C37.4331 151.109 31.3411 150.58 25.6541 151.753Z" fill="#455A64"/>
<path id="Vector_72" d="M81.9113 215.012L81.1563 216.149C80.4833 217.163 78.7123 217.18 77.7883 216.559L53.6733 200.011L57.2163 194.673L81.2793 211.186C82.4033 211.984 82.7783 213.707 81.9113 215.012Z" fill="#455A64"/>
<path id="Vector_73" d="M45.233 168.442C45.283 168.506 39.351 173.247 31.985 179.031C24.617 184.817 18.605 189.454 18.555 189.39C18.505 189.326 24.436 184.586 31.804 178.801C39.17 173.016 45.183 168.378 45.233 168.442Z" fill="#263238"/>
<path id="Vector_74" d="M37.2713 166.534C37.3223 166.597 32.9343 170.218 27.4713 174.62C22.0073 179.024 17.5373 182.542 17.4863 182.479C17.4353 182.416 21.8223 178.796 27.2873 174.392C32.7493 169.99 37.2203 166.471 37.2713 166.534Z" fill="#263238"/>
<path id="Vector_75" d="M44.4425 177.841C44.4935 177.904 41.4895 180.409 37.7345 183.435C33.9775 186.462 30.8925 188.865 30.8415 188.802C30.7905 188.739 33.7935 186.235 37.5505 183.207C41.3055 180.181 44.3915 177.778 44.4425 177.841Z" fill="#263238"/>
<path id="Vector_76" d="M155.184 327.624C153.495 320.422 157.964 313.214 165.166 311.525C172.368 309.836 179.576 314.305 181.266 321.507C182.955 328.709 178.486 335.917 171.284 337.607C164.081 339.296 156.873 334.827 155.184 327.624Z" fill="#08BB50"/>
<path id="Vector_77" d="M12.123 223.274L25.244 246.543L156.103 332.567L170.39 309.74L40.244 224.442L13.278 221.514C12.419 221.42 11.697 222.52 12.123 223.274Z" fill="#08BB50"/>
<path id="Vector_78" d="M40.2439 224.442C40.1659 225.716 39.2259 226.851 38.0819 226.726C39.4429 228.321 39.5549 231.076 38.3479 233.258C37.1409 235.44 34.7039 236.885 32.5699 236.686C33.2059 238.788 32.6359 241.453 31.1329 243.408C29.6299 245.363 27.2539 246.531 25.1379 246.354L12.2019 223.416C11.7469 222.609 12.5179 221.432 13.4379 221.532L40.2439 224.442Z" fill="white"/>
<path id="Vector_79" d="M17.3342 231.336C18.7482 231.012 22.1752 229.599 22.8922 223.474C22.9532 222.958 22.6532 222.532 22.1912 222.482L13.1632 221.502C12.3472 221.413 11.6622 222.458 12.0662 223.175L16.4572 230.963C16.6322 231.271 16.9692 231.419 17.3342 231.336Z" fill="#08BB50"/>
<path id="Vector_80" d="M32.5692 236.685L162.232 320.916L155.518 332.15L25.2432 246.544L25.1382 246.354C25.1382 246.354 26.3642 246.532 27.8622 245.919C28.8652 245.509 30.0482 244.747 31.0072 243.565C32.2412 242.044 32.7302 240.393 32.8222 239.091C32.9202 237.685 32.5692 236.685 32.5692 236.685Z" fill="#03732E"/>
<path id="Vector_81" d="M38.0811 226.726L168.583 312.532L170.558 309.824L40.244 224.442C40.244 224.442 40.2021 226.284 38.5181 226.72C38.3841 226.755 38.2381 226.725 38.0811 226.726Z" fill="#03732E"/>
<path id="Vector_82" d="M26.0921 236.677C26.1011 236.661 26.1481 236.802 26.3681 236.814C26.5681 236.832 26.9711 236.663 27.1041 236.197C27.2341 235.757 27.1791 235.183 26.9871 234.625C26.8811 234.351 26.7071 234.086 26.4301 233.939C26.1621 233.79 25.7831 233.76 25.4501 233.98C25.1131 234.192 24.8891 234.608 24.7631 235.037C24.6331 235.471 24.5991 235.937 24.5861 236.412C24.5701 237.355 24.6921 238.366 25.0771 239.267C25.2771 239.701 25.6031 240.105 26.0881 240.171C26.5671 240.24 27.1211 239.952 27.5141 239.516C28.3051 238.596 28.5351 237.258 28.5331 236.065C28.4911 233.622 27.0941 231.631 25.2841 231.108C24.8291 230.996 24.3231 231.114 23.9251 231.44C23.5221 231.755 23.2231 232.196 22.9841 232.631C22.5201 233.52 22.2231 234.412 22.0361 235.226C21.6621 236.864 21.7411 238.186 21.8641 239.053C21.9341 239.487 22.0081 239.816 22.0661 240.036C22.1261 240.255 22.1491 240.375 22.1491 240.375C22.1491 240.375 21.9591 239.945 21.8001 239.077C21.6571 238.211 21.5581 236.88 21.9221 235.218C22.1051 234.391 22.3971 233.489 22.8681 232.575C23.1121 232.126 23.4191 231.663 23.8531 231.319C24.2811 230.962 24.8541 230.827 25.3371 230.947C27.2311 231.487 28.6501 233.521 28.6991 236.032C28.7131 236.657 28.6321 237.293 28.4771 237.911C28.3161 238.525 28.0561 239.145 27.6201 239.627C27.1911 240.1 26.5881 240.418 26.0421 240.34C25.4911 240.261 25.1441 239.812 24.9381 239.359C24.5421 238.419 24.4281 237.398 24.4491 236.433C24.4661 235.951 24.5031 235.473 24.6431 235.016C24.7771 234.568 25.0211 234.113 25.4051 233.874C25.7851 233.628 26.2061 233.671 26.4901 233.836C26.7871 233.999 26.9681 234.288 27.0741 234.575C27.2631 235.161 27.3111 235.738 27.1641 236.211C27.0101 236.71 26.5661 236.885 26.3591 236.851C26.1271 236.823 26.0911 236.667 26.0921 236.677Z" fill="white"/>
<path id="Vector_83" d="M28.0863 223.399C28.1053 223.402 27.9683 223.76 27.8733 224.415C27.7743 225.068 27.7763 226.017 28.0403 227.088C28.2913 228.167 28.8313 229.325 29.4933 230.564C30.1323 231.81 30.9053 233.194 31.1403 234.937C31.3733 236.672 31.0423 238.472 30.4063 239.976C29.7733 241.493 28.8243 242.692 27.9403 243.536C27.0463 244.384 26.2073 244.887 25.6243 245.182C25.0363 245.474 24.6973 245.568 24.6973 245.568C24.6963 245.562 24.7773 245.523 24.9333 245.453C25.0893 245.385 25.3173 245.276 25.6043 245.12C26.1763 244.808 26.9993 244.295 27.8713 243.448C28.7353 242.605 29.6563 241.421 30.2693 239.931C30.8853 238.453 31.2043 236.689 30.9763 234.992C30.7473 233.289 29.9893 231.914 29.3563 230.662C28.7023 229.418 28.1653 228.237 27.9253 227.138C27.6723 226.046 27.6883 225.076 27.8083 224.416C27.9263 223.751 28.0863 223.399 28.0863 223.399Z" fill="white"/>
<path id="Vector_84" d="M34.8352 223.743C34.8782 223.761 34.1232 224.201 33.7892 225.418C33.4672 226.6 33.4742 228.268 33.5662 230.049C33.6782 231.834 33.9772 233.393 34.2562 234.49C34.3922 235.041 34.5222 235.477 34.6102 235.779C34.7022 236.079 34.7492 236.249 34.7382 236.255C34.7272 236.261 34.6612 236.103 34.5492 235.812C34.4422 235.519 34.2942 235.089 34.1422 234.543C33.8322 233.455 33.5122 231.89 33.4002 230.091C33.3412 229.193 33.3382 228.325 33.3732 227.53C33.4052 226.737 33.4882 226.004 33.6772 225.398C33.8592 224.789 34.1652 224.337 34.4112 224.082C34.6652 223.829 34.8352 223.743 34.8352 223.743Z" fill="white"/>
<path id="Vector_85" d="M37.7353 234.148C37.7173 234.161 37.5293 233.849 37.2783 233.304C37.0383 232.76 36.7213 231.95 36.7493 230.932C36.7593 229.911 37.2443 228.961 37.7473 228.482C37.9943 228.235 38.2293 228.085 38.3953 228.005C38.5613 227.924 38.6583 227.906 38.6593 227.914C38.6713 227.945 38.2773 228.07 37.8213 228.565C37.3613 229.044 36.9263 229.931 36.9153 230.907C36.8873 231.881 37.1763 232.68 37.3873 233.236C37.6073 233.794 37.7593 234.133 37.7353 234.148Z" fill="white"/>
<path id="Vector_86" d="M24.1753 222.635C24.1803 222.632 24.2043 222.673 24.2433 222.756C24.2823 222.839 24.3403 222.96 24.4063 223.124C24.4693 223.288 24.5473 223.498 24.5503 223.776C24.5583 224.053 24.4643 224.379 24.3293 224.707C24.0703 225.377 23.6283 226.115 23.2073 226.951C22.7863 227.788 22.3933 228.739 22.0553 229.755C21.3803 231.79 21.0303 233.677 20.7733 235.035C20.6653 235.625 20.5683 236.158 20.4793 236.647C20.4093 237.028 20.3643 237.238 20.3533 237.238C20.3423 237.238 20.3653 237.027 20.4153 236.646C20.4673 236.265 20.5463 235.714 20.6583 235.032C20.8853 233.671 21.2183 231.775 21.9003 229.721C22.2413 228.696 22.6423 227.735 23.0763 226.892C23.5103 226.048 23.9563 225.324 24.2233 224.673C24.5433 224.025 24.4773 223.48 24.3453 223.158C24.2303 222.826 24.1623 222.642 24.1753 222.635Z" fill="white"/>
<path id="Vector_87" d="M155.237 332.067L170.558 309.823C170.774 309.509 171.204 309.43 171.518 309.646L178.372 314.367C178.686 314.583 178.765 315.013 178.549 315.327L163.228 337.571C163.012 337.885 162.582 337.964 162.268 337.748L155.414 333.027C155.1 332.811 155.021 332.381 155.237 332.067Z" fill="#E0E0E0"/>
<path id="Vector_88" d="M155.237 332.067C155.245 332.072 155.205 332.126 155.169 332.246C155.136 332.362 155.114 332.563 155.233 332.772C155.344 332.982 155.648 333.108 155.941 333.323C156.249 333.529 156.599 333.763 156.989 334.024C157.784 334.561 158.744 335.209 159.855 335.959C160.414 336.338 161.01 336.743 161.641 337.172C161.799 337.279 161.959 337.389 162.122 337.499C162.295 337.614 162.43 337.731 162.593 337.74C162.757 337.758 162.93 337.7 163.049 337.582C163.154 337.466 163.28 337.253 163.397 337.09C167.249 331.472 172.543 323.751 178.391 315.222C178.53 315.028 178.502 314.739 178.329 314.578C178.126 314.419 177.817 314.22 177.568 314.044C177.042 313.681 176.519 313.321 176 312.963C174.962 312.247 173.94 311.542 172.935 310.848C172.433 310.501 171.935 310.157 171.442 309.817C171.251 309.669 170.999 309.676 170.82 309.808C170.777 309.841 170.738 309.88 170.706 309.925L170.58 310.107L170.329 310.47C169.661 311.436 169.007 312.381 168.369 313.304C165.815 316.985 163.514 320.303 161.574 323.098C159.641 325.86 158.072 328.103 156.966 329.682C156.428 330.436 156.004 331.031 155.697 331.461C155.559 331.647 155.448 331.798 155.359 331.918C155.285 332.02 155.243 332.071 155.237 332.067C155.232 332.063 155.264 332.006 155.331 331.897C155.412 331.771 155.513 331.613 155.638 331.418C155.931 330.978 156.335 330.37 156.848 329.599C157.93 328.003 159.466 325.737 161.357 322.947C163.277 320.138 165.556 316.806 168.085 313.107C168.72 312.182 169.37 311.234 170.034 310.266L170.284 309.902L170.41 309.719C170.463 309.643 170.529 309.575 170.604 309.518C170.9 309.283 171.362 309.292 171.65 309.517C172.144 309.856 172.642 310.199 173.145 310.544C174.151 311.236 175.175 311.94 176.213 312.654C176.732 313.011 177.256 313.371 177.782 313.734C178.053 313.928 178.291 314.069 178.592 314.308C178.896 314.592 178.944 315.097 178.701 315.436C172.817 323.94 167.491 331.639 163.615 337.241C163.482 337.42 163.401 337.576 163.229 337.768C163.052 337.94 162.799 338.021 162.562 337.991C162.311 337.966 162.13 337.801 161.98 337.701C161.819 337.589 161.66 337.478 161.503 337.368C160.878 336.931 160.287 336.518 159.733 336.131C158.637 335.361 157.688 334.695 156.904 334.143C156.52 333.871 156.177 333.627 155.875 333.413C155.594 333.189 155.289 333.057 155.164 332.806C155.043 332.567 155.083 332.351 155.13 332.232C155.184 332.111 155.237 332.067 155.237 332.067Z" fill="#263238"/>
<path id="Vector_89" d="M176.658 317.735C176.601 317.822 174.787 316.727 172.607 315.29C170.427 313.852 168.706 312.617 168.763 312.53C168.82 312.443 170.634 313.538 172.814 314.975C174.994 316.412 176.715 317.648 176.658 317.735Z" fill="#263238"/>
<path id="Vector_90" d="M171.085 326.398C171.027 326.487 169.148 325.36 166.825 323.983C164.503 322.604 162.613 321.496 162.664 321.402C162.712 321.312 164.688 322.275 167.018 323.659C169.348 325.04 171.141 326.313 171.085 326.398Z" fill="#263238"/>
<path id="Vector_91" d="M156.121 330.888C156.18 330.802 158.033 331.889 160.26 333.316C162.488 334.743 164.25 335.972 164.196 336.062C164.143 336.151 162.29 335.064 160.057 333.634C157.825 332.203 156.062 330.974 156.121 330.888Z" fill="#263238"/>
<g id="ux">
<path id="Vector_92" d="M251.099 293.244H73.2113C69.1193 293.244 65.8022 289.927 65.8022 285.835V139.003C65.8022 134.911 69.1193 131.594 73.2113 131.594H251.099C255.191 131.594 258.508 134.911 258.508 139.003V285.835C258.508 289.927 255.191 293.244 251.099 293.244Z" fill="#F5F5F5"/>
<path id="Vector_93" d="M251.099 293.244C251.099 293.244 251.251 293.227 251.55 293.208C251.849 293.195 252.297 293.139 252.87 292.994C253.992 292.715 255.738 291.975 257.097 290.083C257.772 289.153 258.269 287.917 258.408 286.506C258.472 285.089 258.419 283.515 258.43 281.823C258.423 278.432 258.415 274.522 258.406 270.121C258.386 252.504 258.358 227.025 258.323 195.543C258.313 179.799 258.303 162.555 258.291 144.043C258.29 142.886 258.29 141.724 258.289 140.557C258.28 139.382 258.351 138.222 258.03 137.123C257.455 134.913 255.72 133.011 253.527 132.247C252.985 132.038 252.41 131.934 251.834 131.855C251.26 131.815 250.658 131.814 250.053 131.819C248.848 131.82 247.638 131.82 246.424 131.821C243.995 131.822 241.548 131.823 239.083 131.824C229.222 131.828 219.073 131.831 208.666 131.835C167.035 131.841 121.267 131.848 73.228 131.855C70.301 131.802 67.514 133.764 66.528 136.486C65.96 137.831 66.075 139.309 66.063 140.806C66.063 142.294 66.063 143.779 66.063 145.262C66.063 151.194 66.062 157.087 66.062 162.937C66.061 174.637 66.059 186.166 66.058 197.494C66.053 220.15 66.048 242.004 66.043 262.822C66.041 268.026 66.039 273.166 66.038 278.238C66.037 280.774 66.036 283.292 66.035 285.793C66.036 287.008 66.342 288.209 66.909 289.27C67.5 290.314 68.325 291.236 69.338 291.872C70.345 292.509 71.502 292.92 72.689 292.988C73.878 293.042 75.122 293.004 76.329 293.016C78.758 293.017 81.169 293.018 83.56 293.019C88.343 293.021 93.051 293.024 97.679 293.026C116.192 293.037 133.437 293.048 149.181 293.058C180.663 293.093 206.141 293.121 223.755 293.141C232.554 293.162 239.388 293.179 244.03 293.19C246.343 293.201 248.108 293.21 249.303 293.216C250.491 293.226 251.099 293.244 251.099 293.244C251.099 293.244 250.49 293.262 249.303 293.271C248.108 293.277 246.343 293.285 244.03 293.297C239.388 293.308 232.554 293.325 223.755 293.346C206.14 293.366 180.663 293.394 149.181 293.429C133.437 293.439 116.192 293.449 97.679 293.461C93.051 293.463 88.343 293.465 83.56 293.468C81.168 293.469 78.758 293.47 76.329 293.471C75.107 293.459 73.911 293.5 72.656 293.445C71.395 293.373 70.162 292.938 69.091 292.26C68.013 291.583 67.135 290.605 66.505 289.494C65.9 288.366 65.573 287.083 65.572 285.796C65.571 283.295 65.57 280.776 65.569 278.241C65.567 273.169 65.566 268.03 65.564 262.825C65.559 242.007 65.554 220.153 65.549 197.497C65.548 186.169 65.546 174.64 65.545 162.94C65.545 157.09 65.544 151.197 65.544 145.265C65.544 143.782 65.544 142.296 65.544 140.809C65.554 140.059 65.522 139.335 65.566 138.561C65.607 137.792 65.759 137.025 66.042 136.305C67.099 133.384 70.091 131.28 73.23 131.337C121.27 131.344 167.038 131.351 208.668 131.357C219.075 131.361 229.224 131.364 239.085 131.368C241.55 131.369 243.998 131.37 246.426 131.371C247.64 131.371 248.85 131.372 250.055 131.373C250.655 131.37 251.257 131.369 251.881 131.413C252.493 131.496 253.104 131.609 253.68 131.831C256.01 132.646 257.847 134.664 258.456 137.012C258.796 138.192 258.718 139.411 258.727 140.561C258.726 141.728 258.726 142.89 258.725 144.047C258.714 162.559 258.703 179.804 258.693 195.547C258.658 227.029 258.63 252.509 258.61 270.125C258.601 274.527 258.593 278.437 258.586 281.827C258.566 283.524 258.612 285.081 258.539 286.521C258.389 287.956 257.875 289.209 257.184 290.147C255.792 292.055 254.018 292.785 252.884 293.049C252.305 293.186 251.853 293.233 251.553 293.238C251.251 293.245 251.099 293.244 251.099 293.244Z" fill="#03732E"/>
<path id="Vector_94" d="M97.7132 246.886C91.7052 240.696 88.7012 231.831 88.7012 220.285V175.287H103.166V219.716C103.166 235.362 109.767 243.183 122.972 243.183C136.101 243.183 142.666 235.361 142.666 219.716V175.287H156.909V220.285C156.909 231.83 153.922 240.696 147.951 246.886C141.979 253.076 133.615 256.17 122.86 256.17C112.103 256.17 103.722 253.077 97.7132 246.886Z" fill="#03732E"/>
<path id="Vector_95" d="M225.114 255.031L203.973 224.729L183.055 255.031H166.587L195.517 214.362L168.145 175.287H184.502L204.419 203.653L224.113 175.287H239.802L212.542 213.792L241.805 255.031H225.114Z" fill="#03732E"/>
<path id="Vector_96" d="M73.8021 132.752C73.8021 136.323 70.9071 139.218 67.3361 139.218C63.7651 139.218 60.8701 136.323 60.8701 132.752C60.8701 129.181 63.7651 126.286 67.3361 126.286C70.9071 126.286 73.8021 129.181 73.8021 132.752Z" fill="#08BB50"/>
<path id="Vector_97" d="M262.173 132.752C262.173 136.323 259.278 139.218 255.707 139.218C252.136 139.218 249.241 136.323 249.241 132.752C249.241 129.181 252.136 126.286 255.707 126.286C259.278 126.286 262.173 129.181 262.173 132.752Z" fill="#08BB50"/>
<path id="Vector_98" d="M73.8021 293.244C73.8021 296.815 70.9071 299.71 67.3361 299.71C63.7651 299.71 60.8701 296.815 60.8701 293.244C60.8701 289.673 63.7651 286.778 67.3361 286.778C70.9071 286.778 73.8021 289.673 73.8021 293.244Z" fill="#08BB50"/>
</g>
<path id="Vector_99" d="M483.804 382.292C483.767 382.309 483.574 381.975 483.237 381.321C482.853 380.541 482.384 379.588 481.817 378.433C480.596 375.921 478.923 372.24 476.917 367.666C472.9 358.519 467.755 345.714 462.271 331.507C456.782 317.294 451.764 304.458 447.948 295.241C446.077 290.762 444.538 287.077 443.394 284.338C442.904 283.149 442.502 282.169 442.171 281.363C441.905 280.68 441.78 280.313 441.817 280.293C441.854 280.279 442.048 280.612 442.384 281.268C442.768 282.048 443.236 282.999 443.803 284.153C445.024 286.664 446.697 290.346 448.702 294.92C452.72 304.065 457.865 316.873 463.351 331.086C468.836 345.295 473.854 358.13 477.672 367.347C479.544 371.825 481.082 375.511 482.226 378.249C482.716 379.438 483.118 380.422 483.449 381.224C483.718 381.909 483.84 382.276 483.804 382.292Z" fill="#E0E0E0"/>
<path id="Vector_100" d="M310.66 190.466C310.66 190.466 309.918 190.717 308.602 191.16C299.411 194.26 272.077 203.299 263.811 206.681C263.811 206.681 278.442 336.113 280.16 348.143C281.878 360.173 282.308 408.293 282.308 408.293H437.97C437.97 408.293 437.553 278.58 438.004 258.459C438.587 232.429 441.811 206.679 441.811 206.679L414.62 196.049L382.831 179.293L310.66 190.466Z" fill="#08BB50"/>
<path id="Vector_101" d="M345.328 219.293C332.561 266.317 319.109 313.158 304.975 359.796C303.31 365.292 301.655 371.33 303.906 376.618C305.915 381.339 310.853 384.453 315.974 385.131C321.095 385.807 326.322 384.308 330.834 381.81C341.405 375.957 348.269 364.936 351.644 353.405C355.019 341.874 355.32 329.71 355.596 317.707C356.334 285.695 357.072 253.683 357.811 221.671L345.328 219.293Z" fill="#EB996E" fill-opacity="0.5"/>
<path id="Vector_102" d="M264.053 207.293C264.053 207.293 241.122 217.356 242.91 257.717C244.125 285.181 248.329 310.293 248.329 310.293L312.811 291.904L296.414 221.822L264.053 207.293Z" fill="#08BB50"/>
<path id="Vector_103" d="M416.219 272.518L412.811 319.293L476.811 298.414C476.811 298.414 463.088 215.851 441.353 207.293L417.923 247.631L416.219 272.518Z" fill="#08BB50"/>
<path id="Vector_104" d="M423.84 258.293C423.862 258.291 423.896 258.623 423.94 259.254C423.981 259.967 424.035 260.884 424.102 262.019C424.214 264.517 424.369 267.968 424.559 272.191C424.907 280.784 425.284 292.66 425.628 305.777C425.972 318.856 426.282 330.691 426.511 339.372C426.618 343.6 426.704 347.054 426.768 349.554C426.785 350.692 426.799 351.61 426.81 352.324C426.813 352.957 426.804 353.291 426.782 353.293C426.76 353.294 426.726 352.963 426.682 352.332C426.641 351.62 426.588 350.704 426.521 349.569C426.409 347.07 426.253 343.619 426.062 339.396C425.716 330.804 425.337 318.926 424.993 305.804C424.649 292.73 424.339 280.897 424.11 272.215C424.003 267.987 423.917 264.534 423.853 262.034C423.836 260.896 423.822 259.978 423.811 259.263C423.808 258.629 423.818 258.294 423.84 258.293Z" fill="#263238"/>
<path id="Vector_105" d="M295.804 239.292C295.755 239.315 295.458 238.773 294.96 237.773C294.396 236.624 293.699 235.209 292.877 233.536C291.098 229.987 288.616 225.037 284.832 220.355C281.046 215.676 276.484 212.521 272.878 211.066C269.268 209.562 266.783 209.491 266.811 209.324C266.814 209.281 267.427 209.266 268.527 209.393C269.627 209.515 271.209 209.853 273.075 210.549C276.818 211.904 281.559 215.076 285.422 219.853C289.28 224.629 291.705 229.673 293.365 233.294C294.189 235.117 294.814 236.608 295.229 237.645C295.646 238.686 295.851 239.27 295.804 239.292Z" fill="#263238"/>
<path id="Vector_106" d="M430.798 204.295C431.012 204.413 428.424 209.097 426.828 215.493C425.183 221.877 425.207 227.304 424.966 227.293C424.875 227.294 424.752 225.942 424.842 223.749C424.931 221.559 425.287 218.531 426.106 215.288C426.93 212.048 428.055 209.239 429.014 207.297C429.972 205.351 430.719 204.244 430.798 204.295Z" fill="#263238"/>
<path id="Vector_107" d="M287.811 225.457C287.806 225.494 287.574 225.441 287.166 225.523C286.761 225.6 286.202 225.906 285.734 226.525C285.243 227.143 284.922 228.015 284.734 229.128C284.617 229.677 284.502 230.277 284.26 230.901C284.02 231.517 283.612 232.175 282.932 232.613C281.519 233.512 279.536 233.114 278.085 232.113C276.582 231.048 275.697 229.388 274.616 227.889C274.073 227.131 273.467 226.423 272.677 225.891C271.901 225.36 270.96 224.975 270.018 225.021C269.084 225.067 268.206 225.63 267.737 226.437C267.257 227.267 267.126 228.318 267.047 229.368C266.971 230.428 266.958 231.5 266.824 232.569C266.69 233.628 266.44 234.73 265.769 235.649C265.625 235.893 265.409 236.082 265.199 236.274C265 236.476 264.766 236.642 264.514 236.78C264.014 237.058 263.456 237.214 262.906 237.269C261.799 237.375 260.735 237.124 259.809 236.705C257.927 235.821 256.759 234.309 255.677 233.035C254.612 231.729 253.579 230.572 252.38 229.818C251.212 229.053 249.889 228.719 248.814 228.921C247.73 229.136 246.942 229.794 246.502 230.408C246.057 231.04 245.97 231.652 246.007 232.049C246.034 232.451 246.146 232.652 246.103 232.668C246.103 232.668 245.934 232.493 245.852 232.069C245.758 231.652 245.799 230.968 246.245 230.253C246.688 229.559 247.5 228.804 248.72 228.514C249.946 228.243 251.402 228.587 252.679 229.377C253.978 230.151 255.095 231.361 256.177 232.646C257.272 233.906 258.441 235.328 260.113 236.083C260.944 236.453 261.896 236.658 262.823 236.561C263.762 236.485 264.598 235.986 265.144 235.229C266.238 233.664 266.107 231.454 266.271 229.317C266.359 228.236 266.475 227.104 267.059 226.08C267.644 225.066 268.785 224.339 269.978 224.293C272.407 224.272 274.157 225.954 275.208 227.502C276.299 229.069 277.153 230.666 278.466 231.616C279.759 232.542 281.494 232.88 282.631 232.173C283.778 231.455 284.037 230.097 284.309 229.042C284.532 227.947 284.934 226.965 285.496 226.349C286.036 225.708 286.689 225.408 287.141 225.377C287.595 225.337 287.811 225.457 287.811 225.457Z" fill="#FAFAFA"/>
<path id="Vector_108" d="M300.77 246.294C300.788 246.292 300.831 246.592 300.799 247.17C300.752 247.744 300.558 248.603 299.989 249.55C299.432 250.495 298.463 251.5 297.06 252.178C295.685 252.831 293.709 253.093 291.945 252.101C290.198 251.233 288.745 249.527 286.72 248.949C284.67 248.323 282.443 249.778 281.147 251.811C279.794 253.86 279.246 256.551 277.875 259.053C277.179 260.306 276.193 261.456 274.907 262.227C273.65 263.015 271.924 263.293 270.478 262.588C269.043 261.878 268.11 260.581 267.379 259.35C266.64 258.102 266.027 256.834 265.282 255.719C264.558 254.595 263.602 253.686 262.45 253.365C261.303 253.019 260.08 253.348 259.116 254.036C257.13 255.427 256.006 257.62 255.101 259.662C254.174 261.715 253.344 263.685 252.297 265.334C250.288 268.758 247.088 270.237 244.964 270.285C243.882 270.341 243.054 270.092 242.545 269.85C242.28 269.75 242.107 269.612 241.984 269.54C241.863 269.46 241.805 269.415 241.811 269.402C241.841 269.275 242.852 270.152 244.943 269.976C246.97 269.828 249.956 268.367 251.833 265.032C252.82 263.416 253.608 261.468 254.517 259.387C255.405 257.334 256.541 254.979 258.718 253.426C259.774 252.652 261.26 252.219 262.641 252.631C264.035 253.007 265.144 254.097 265.905 255.274C266.698 256.453 267.318 257.732 268.036 258.937C268.743 260.136 269.61 261.277 270.796 261.865C271.999 262.443 273.392 262.233 274.521 261.543C275.661 260.864 276.571 259.823 277.216 258.668C278.526 256.323 279.088 253.613 280.557 251.399C281.291 250.312 282.213 249.373 283.32 248.765C284.415 248.146 285.744 247.968 286.883 248.313C288.031 248.635 288.952 249.305 289.785 249.926C290.621 250.552 291.388 251.171 292.195 251.606C293.791 252.54 295.564 252.345 296.884 251.774C298.216 251.176 299.17 250.26 299.736 249.383C300.895 247.589 300.653 246.26 300.77 246.294Z" fill="#FAFAFA"/>
<path id="Vector_109" d="M292.811 277.542C292.799 277.577 292.623 277.491 292.278 277.462C291.937 277.424 291.409 277.512 290.879 277.926C290.359 278.346 289.849 279.054 289.539 279.997C289.184 280.934 289.272 282.085 289.4 283.394C289.497 284.677 289.74 286.223 289.087 287.788C288.444 289.379 286.653 290.354 284.871 290.311C283.063 290.369 281.187 289.406 279.884 287.891C278.538 286.396 277.613 284.499 276.718 282.589L276.982 282.796C275.52 282.516 273.999 283.476 273.037 284.84C272.017 286.2 271.644 288 271.374 289.843C271.174 291.207 271.022 292.595 270.667 293.943C270.305 295.302 269.685 296.574 268.778 297.597C267.888 298.619 266.585 299.335 265.248 299.291C263.908 299.265 262.738 298.572 261.832 297.767C259.978 296.114 259.059 293.919 257.793 292.308C256.59 290.622 254.895 289.626 253.2 289.567C251.523 289.465 250.003 290.091 249.021 291.027C248.022 291.966 247.5 293.112 247.247 294.064C246.764 296.02 247.221 297.159 247.118 297.162C247.105 297.167 247.077 297.101 247.035 296.968C246.989 296.836 246.937 296.637 246.892 296.368C246.802 295.834 246.742 295.012 246.961 293.988C247.182 292.98 247.687 291.746 248.735 290.701C249.771 289.656 251.402 288.934 253.226 289.009C254.133 289.047 255.091 289.282 255.971 289.79C256.856 290.289 257.619 291.047 258.281 291.896C259.625 293.584 260.561 295.72 262.281 297.211C263.121 297.946 264.153 298.525 265.26 298.536C266.366 298.562 267.441 297.979 268.237 297.07C269.038 296.161 269.614 294.986 269.943 293.735C270.274 292.463 270.425 291.107 270.628 289.721C270.898 287.868 271.297 285.893 272.441 284.367C273.497 282.869 275.275 281.695 277.108 282.046L277.294 282.081L277.374 282.253C278.256 284.164 279.143 285.997 280.388 287.4C281.605 288.825 283.232 289.673 284.875 289.655C286.493 289.705 288.017 288.886 288.59 287.541C289.187 286.205 289.018 284.72 288.943 283.43C288.846 282.143 288.785 280.866 289.204 279.867C289.571 278.87 290.146 278.138 290.737 277.714C291.339 277.293 291.94 277.242 292.297 277.328C292.658 277.406 292.811 277.542 292.811 277.542Z" fill="#FAFAFA"/>
<path id="Vector_110" d="M471.81 271.311C471.816 271.359 471.532 271.349 471.056 271.528C470.579 271.694 469.922 272.097 469.369 272.894C468.812 273.681 468.345 274.798 468.035 276.151C467.742 277.489 467.568 279.161 466.765 280.814C466.368 281.629 465.795 282.492 464.862 283.013C463.948 283.542 462.72 283.607 461.692 283.108C460.66 282.609 459.898 281.716 459.276 280.766C458.655 279.809 458.159 278.738 457.695 277.673C457.231 276.644 456.579 275.653 455.759 274.827C454.945 274.026 453.84 273.384 452.768 273.661C451.652 273.904 450.94 274.961 450.73 276.189C450.483 277.42 450.55 278.745 450.532 280.118C450.486 282.867 449.7 285.698 447.798 287.639C445.947 289.544 443.024 290.399 440.688 289.352C438.404 288.31 437.031 286.41 435.502 285.08C434.042 283.671 432.189 282.881 430.545 283.349C428.913 283.768 427.716 284.935 426.975 286.058C426.225 287.21 425.85 288.37 425.576 289.31C425.065 291.214 424.89 292.306 424.821 292.293C424.796 292.288 424.815 292.013 424.881 291.494C424.952 290.975 425.058 290.209 425.283 289.235C425.518 288.268 425.853 287.062 426.608 285.824C427.363 284.613 428.591 283.326 430.409 282.814C431.307 282.552 432.342 282.599 433.302 282.938C434.272 283.274 435.136 283.897 435.928 284.593C437.52 285.963 438.923 287.793 440.965 288.688C442.988 289.584 445.581 288.83 447.256 287.102C448.955 285.357 449.712 282.727 449.752 280.104C449.773 278.776 449.697 277.4 449.971 276.035C450.111 275.357 450.351 274.667 450.794 274.081C451.239 273.492 451.893 273.092 452.59 272.917C454.075 272.564 455.404 273.422 456.281 274.295C457.183 275.214 457.86 276.27 458.351 277.379C458.812 278.465 459.273 279.481 459.853 280.395C460.428 281.297 461.121 282.103 461.972 282.525C462.807 282.945 463.815 282.908 464.574 282.486C465.35 282.075 465.888 281.324 466.273 280.57C467.06 279.024 467.267 277.444 467.613 276.049C467.974 274.666 468.499 273.518 469.128 272.714C469.751 271.897 470.496 271.501 471.011 271.379C471.527 271.24 471.81 271.311 471.81 271.311Z" fill="#FAFAFA"/>
<path id="Vector_111" d="M462.807 237.294C462.829 237.309 462.739 237.493 462.544 237.826C462.35 238.161 462.056 238.648 461.638 239.256C461.221 239.862 460.681 240.593 459.93 241.338C459.184 242.074 458.185 242.838 456.886 243.239C455.622 243.64 453.985 243.724 452.552 242.85C451.118 241.96 450.435 240.259 449.148 239.353C448.519 238.924 447.686 238.785 446.986 239.128C446.274 239.456 445.714 240.165 445.322 240.955C444.936 241.755 444.69 242.66 444.64 243.578C444.596 244.526 444.633 245.524 444.596 246.543C444.55 247.561 444.447 248.607 444.033 249.58C443.637 250.553 442.879 251.387 441.953 251.826C440.05 252.7 438.035 252.204 436.45 251.503C434.815 250.749 433.571 249.638 432.337 248.754C431.121 247.848 429.925 247.104 428.721 246.746C427.538 246.347 426.373 246.553 425.455 246.912C424.543 247.298 423.847 247.862 423.468 248.451C422.688 249.667 423.092 250.575 422.981 250.559C422.964 250.565 422.881 250.373 422.825 249.979C422.776 249.586 422.838 248.961 423.224 248.294C423.6 247.626 424.323 246.979 425.292 246.525C426.254 246.098 427.546 245.829 428.864 246.233C430.169 246.583 431.445 247.347 432.696 248.243C433.957 249.119 435.218 250.196 436.727 250.866C438.215 251.517 440.079 251.904 441.635 251.16C442.397 250.792 443.015 250.117 443.352 249.286C443.707 248.457 443.81 247.492 443.852 246.515C443.89 245.529 443.854 244.543 443.901 243.54C443.962 242.506 444.234 241.521 444.67 240.625C445.117 239.744 445.754 238.905 446.694 238.473C447.635 238.021 448.764 238.231 449.531 238.779C451.046 239.926 451.653 241.57 452.88 242.324C454.083 243.094 455.558 243.076 456.737 242.731C457.942 242.395 458.897 241.718 459.646 241.033C460.393 240.345 460.958 239.656 461.405 239.083C462.294 237.928 462.759 237.259 462.807 237.294Z" fill="#FAFAFA"/>
<path id="Vector_112" d="M425.811 321.71C425.811 321.71 425.67 322.113 425.055 322.585C424.453 323.073 423.263 323.381 421.837 323.115C421.125 322.984 420.35 322.74 419.568 322.33C418.776 321.919 418.025 321.342 417.197 320.767C416.371 320.197 415.484 319.579 414.455 319.174C413.431 318.743 412.242 318.675 411.111 319.087C409.983 319.515 409.087 320.511 408.378 321.663C407.659 322.823 407.081 324.151 406.47 325.529C405.85 326.902 405.235 328.366 404.238 329.703C403.716 330.347 403.125 330.992 402.342 331.407C401.952 331.618 401.556 331.818 401.107 331.879C400.889 331.923 400.672 331.986 400.45 332.012L399.776 332.008C398.877 331.974 397.965 331.65 397.234 331.102C396.469 330.592 395.866 329.904 395.291 329.21C394.168 327.795 393.243 326.23 392.143 324.796C391.052 323.382 389.732 322.025 388.015 321.568C386.306 321.121 384.416 321.641 382.862 322.655C381.271 323.662 380.049 325.112 379.068 326.707C378.069 328.292 377.251 329.981 376.322 331.59C375.404 333.199 374.329 334.751 372.952 335.948C371.6 337.147 369.96 338.061 368.187 338.256C366.423 338.454 364.649 337.845 363.371 336.794C362.069 335.756 361.122 334.464 360.255 333.23C358.557 330.754 357.067 328.328 354.967 326.985C353.942 326.304 352.8 325.983 351.696 325.98C350.591 325.989 349.565 326.283 348.672 326.683C346.873 327.506 345.645 328.811 344.938 330.012C344.221 331.224 344.015 332.333 343.965 333.074C343.952 333.817 343.991 334.217 343.954 334.222C343.941 334.223 343.921 334.127 343.893 333.935C343.875 333.742 343.806 333.453 343.811 333.071C343.811 332.31 343.975 331.148 344.68 329.862C345.377 328.589 346.619 327.195 348.492 326.292C349.423 325.852 350.504 325.519 351.691 325.489C352.873 325.467 354.149 325.807 355.253 326.523C357.516 327.934 359.066 330.432 360.77 332.86C361.634 334.072 362.568 335.307 363.778 336.256C364.964 337.217 366.537 337.729 368.107 337.55C369.686 337.371 371.199 336.531 372.469 335.395C373.761 334.262 374.771 332.799 375.672 331.212C376.581 329.632 377.398 327.932 378.424 326.297C379.427 324.658 380.744 323.082 382.451 322.005C384.118 320.917 386.223 320.309 388.203 320.826C390.192 321.366 391.609 322.877 392.732 324.335C393.864 325.824 394.782 327.388 395.856 328.749C396.909 330.082 398.237 331.27 399.811 331.3C401.378 331.386 402.795 330.537 403.703 329.293C404.638 328.062 405.263 326.63 405.891 325.268C406.514 323.9 407.112 322.553 407.879 321.345C408.634 320.151 409.627 319.052 410.917 318.58C412.196 318.125 413.547 318.241 414.629 318.721C415.726 319.174 416.617 319.827 417.44 320.417C418.26 321.012 418.998 321.603 419.735 322.007C420.474 322.42 421.215 322.676 421.891 322.823C423.25 323.121 424.37 322.88 424.967 322.46C425.579 322.052 425.771 321.677 425.811 321.71Z" fill="#FAFAFA"/>
<path id="Vector_113" d="M423.809 273.158C423.82 273.166 423.781 273.248 423.69 273.406C423.589 273.554 423.413 273.775 423.097 273.937C422.475 274.289 421.354 274.275 420.186 273.661C418.974 273.069 418.025 271.624 416.415 270.944C415.636 270.611 414.639 270.734 413.952 271.393C413.268 272.07 412.912 273.157 412.599 274.282C412.277 275.414 412.008 276.655 411.408 277.867C411.095 278.457 410.705 279.061 410.136 279.501C409.576 279.944 408.885 280.219 408.175 280.304C405.27 280.605 402.527 278.574 400.652 276.168C399.642 275.001 398.649 273.774 397.427 272.831C396.216 271.893 394.729 271.307 393.171 271.396C390.034 271.541 387.056 273.695 384.995 276.451C382.908 279.286 381.506 282.55 379.662 285.433C377.896 288.355 375.342 290.776 372.378 291.793C370.909 292.306 369.331 292.462 367.87 292.083C366.404 291.725 365.169 290.792 364.229 289.769C362.338 287.716 361.101 285.362 359.219 284.146C358.3 283.542 357.26 283.284 356.292 283.357C355.322 283.427 354.45 283.839 353.732 284.358C352.294 285.421 351.38 286.777 350.7 287.876C349.367 290.126 348.888 291.533 348.813 291.494C348.791 291.485 348.897 291.131 349.147 290.478C349.399 289.825 349.803 288.873 350.448 287.712C351.102 286.569 351.989 285.155 353.488 283.989C354.234 283.42 355.175 282.947 356.251 282.848C357.32 282.744 358.483 283.015 359.499 283.662C361.562 284.969 362.842 287.367 364.677 289.3C365.59 290.269 366.705 291.085 368.027 291.399C369.344 291.73 370.786 291.582 372.156 291.093C374.936 290.107 377.319 287.858 379.04 284.998C380.836 282.183 382.234 278.901 384.394 275.958C386.569 273.068 389.671 270.778 393.147 270.612C394.87 270.515 396.563 271.192 397.858 272.214C399.171 273.24 400.177 274.509 401.175 275.674C402.173 276.852 403.146 277.951 404.355 278.642C405.539 279.349 406.865 279.778 408.103 279.644C409.36 279.538 410.351 278.674 410.89 277.571C411.453 276.474 411.742 275.259 412.083 274.116C412.422 272.986 412.794 271.819 413.625 271.014C414.478 270.219 415.686 270.123 416.565 270.523C418.325 271.332 419.219 272.816 420.322 273.381C421.411 274.003 422.447 274.061 423.033 273.786C423.633 273.523 423.766 273.115 423.809 273.158Z" fill="#FAFAFA"/>
<path id="Vector_114" d="M423.811 222.402C423.779 222.434 423.578 222.165 423.054 221.884C422.539 221.603 421.635 221.403 420.549 221.7C419.458 221.972 418.263 222.793 417.496 224.241C416.681 225.654 416.28 227.506 415.657 229.534C415.327 230.542 414.914 231.601 414.243 232.585C413.586 233.571 412.571 234.427 411.33 234.813C410.085 235.189 408.715 235.09 407.441 234.703C406.158 234.318 404.931 233.689 403.769 232.914C401.483 231.401 399.272 229.375 396.451 228.867C395.066 228.637 393.598 228.871 392.296 229.558C390.983 230.222 389.82 231.252 388.784 232.411C386.68 234.718 385.264 237.546 383.279 239.881C382.309 241.053 381.224 242.125 379.973 242.937C378.733 243.754 377.289 244.248 375.858 244.291C372.928 244.352 370.533 242.747 368.642 241.239C366.73 239.67 365.138 238.047 363.447 236.891C361.78 235.733 360.019 234.999 358.434 235.026C356.846 235.046 355.498 235.586 354.613 236.278C353.694 236.951 353.27 237.781 353.07 238.34C352.867 238.912 352.872 239.247 352.823 239.241C352.823 239.241 352.759 238.905 352.922 238.293C353.08 237.695 353.487 236.785 354.428 236.036C355.337 235.268 356.736 234.65 358.427 234.587C360.144 234.517 362.005 235.262 363.748 236.429C365.509 237.591 367.152 239.22 369.034 240.725C370.902 242.188 373.202 243.651 375.834 243.568C378.476 243.493 380.873 241.664 382.704 239.383C384.611 237.135 386.024 234.296 388.216 231.881C389.293 230.678 390.519 229.584 391.954 228.859C393.375 228.11 395.035 227.843 396.574 228.109C399.7 228.704 401.931 230.834 404.158 232.312C406.35 233.794 408.915 234.825 411.148 234.191C412.24 233.862 413.138 233.135 413.758 232.235C414.388 231.338 414.804 230.334 415.14 229.357C415.782 227.395 416.231 225.488 417.125 224.019C417.563 223.288 418.081 222.665 418.677 222.225C419.272 221.794 419.898 221.538 420.478 221.404C421.647 221.132 422.61 221.403 423.13 221.747C423.66 222.089 423.811 222.402 423.811 222.402Z" fill="#FAFAFA"/>
<path id="Vector_115" d="M416.802 198.631C416.825 198.637 416.803 198.822 416.716 199.166C416.629 199.508 416.481 200.011 416.196 200.629C415.899 201.232 415.499 202.007 414.659 202.612C413.843 203.242 412.35 203.305 411.345 202.401C410.359 201.528 409.852 200.261 409.104 199.117C408.737 198.541 408.3 197.998 407.719 197.627C407.139 197.253 406.426 197.032 405.677 196.994C404.167 196.898 402.58 197.467 401.353 198.582C400.101 199.679 399.164 201.176 398.341 202.779C397.913 203.59 397.465 204.413 396.814 205.12C396.19 205.825 395.199 206.388 394.173 206.28C393.146 206.194 392.333 205.577 391.763 204.911C391.178 204.232 390.828 203.423 390.566 202.673C390.047 201.17 389.695 199.706 388.702 198.816C388.227 198.369 387.651 198.052 387.074 197.979C386.498 197.902 385.935 198.093 385.525 198.446C384.691 199.168 384.353 200.248 384.009 201.108C383.683 202.013 383.244 202.756 382.76 203.258C382.276 203.767 381.736 203.997 381.37 204.045C380.997 204.089 380.808 204.022 380.811 204.008C380.779 203.932 381.681 204.099 382.539 203.067C382.955 202.571 383.331 201.861 383.609 200.971C383.929 200.094 384.195 198.966 385.173 198.049C385.659 197.603 386.395 197.325 387.141 197.41C387.885 197.489 388.573 197.862 389.133 198.367C390.315 199.405 390.701 201.016 391.223 202.445C391.489 203.174 391.806 203.873 392.315 204.454C392.815 205.03 393.489 205.502 394.232 205.554C394.982 205.625 395.706 205.233 396.257 204.621C396.818 204.011 397.249 203.238 397.666 202.44C398.503 200.813 399.489 199.227 400.86 198.038C402.202 196.828 404.024 196.174 405.725 196.311C406.576 196.365 407.408 196.629 408.088 197.084C408.78 197.543 409.261 198.18 409.635 198.791C410.388 200.013 410.873 201.247 411.7 202.009C412.513 202.772 413.695 202.766 414.419 202.267C415.172 201.778 415.608 201.062 415.928 200.5C416.549 199.335 416.734 198.608 416.802 198.631Z" fill="#FAFAFA"/>
<path id="Vector_116" d="M320.489 198.293C320.514 198.29 320.564 198.534 320.627 199C320.688 199.467 320.776 200.158 320.804 201.06C320.826 201.957 320.811 203.088 320.43 204.34C320.078 205.59 319.172 206.941 317.697 207.682C316.972 208.045 316.069 208.254 315.167 208.017C314.258 207.8 313.478 207.123 312.927 206.34C312.356 205.557 311.937 204.674 311.425 203.859C310.925 203.044 310.29 202.288 309.432 201.961C307.682 201.295 305.44 202.321 304.485 204.235C303.975 205.181 303.692 206.283 303.59 207.422C303.481 208.559 303.587 209.744 303.65 210.969C303.711 212.191 303.734 213.461 303.394 214.679C303.071 215.874 302.422 217.04 301.367 217.725C300.315 218.419 298.978 218.429 297.921 218.014C296.846 217.61 295.954 216.92 295.205 216.154C293.738 214.564 292.834 212.771 291.57 211.501C290.354 210.185 288.745 209.588 287.267 209.689C285.79 209.757 284.52 210.413 283.697 211.278C282.86 212.143 282.427 213.153 282.217 213.99C281.808 215.701 282.169 216.699 282.077 216.703C282.062 216.708 281.957 216.478 281.882 216.007C281.81 215.54 281.747 214.819 281.934 213.921C282.111 213.032 282.523 211.942 283.398 210.977C284.258 210.01 285.629 209.251 287.237 209.142C288.833 208.985 290.684 209.641 292.004 211.042C293.365 212.381 294.319 214.202 295.691 215.647C296.39 216.352 297.222 216.974 298.158 217.315C299.086 217.666 300.139 217.634 300.981 217.081C301.819 216.535 302.393 215.544 302.678 214.471C302.977 213.397 302.963 212.215 302.902 211.012C302.718 208.635 302.648 206.003 303.846 203.862C304.949 201.698 307.53 200.458 309.675 201.292C310.749 201.717 311.464 202.632 311.979 203.49C312.509 204.358 312.911 205.232 313.426 205.956C313.925 206.684 314.571 207.244 315.309 207.437C316.043 207.648 316.821 207.494 317.474 207.186C318.808 206.549 319.668 205.362 320.033 204.204C320.43 203.04 320.491 201.945 320.512 201.065C320.522 199.288 320.422 198.296 320.489 198.293Z" fill="#FAFAFA"/>
<path id="Vector_117" d="M399.469 29.3057C389.538 27.1615 380.184 36.6982 370.086 35.5901C363.954 34.9184 358.991 30.4756 353.371 27.9257C344.967 24.1148 333.559 24.3529 325.715 29.2175C317.871 34.0807 312.966 38.9836 312.621 48.2205C304.799 44.5639 293.149 55.0295 289.677 64.4663C286.205 73.9046 288.062 83.2003 291.29 92.7252C296.847 109.125 305.656 124.411 317.053 137.431C318.062 138.585 319.623 139.823 320.948 139.055C321.867 138.525 322.078 137.311 322.157 136.251C322.832 127.232 320.938 118.249 319.411 109.336C317.885 100.422 316.726 91.1983 318.832 82.4037C320.938 73.6092 326.957 65.2408 335.632 62.7453C342.04 60.9023 348.989 62.4543 355.056 65.2202C361.124 67.9877 366.583 71.9146 372.412 75.1567C378.242 78.3974 384.698 80.9987 391.36 80.7254C398.021 80.452 404.875 76.7117 407.194 70.4494C409.512 64.1856 405.617 55.8966 399.002 55.0677C404.922 54.0125 409.699 48.4013 409.809 42.3771C409.919 36.3558 405.346 30.5755 399.469 29.3057Z" fill="#263238"/>
<path id="Vector_118" d="M382.091 188.226L379.541 168.931C379.541 168.931 404.323 161.877 401.602 136.247C400.289 123.869 395.538 98.6098 390.977 75.7951C386.071 51.259 363.405 34.6551 338.885 37.6393L336.449 37.935C310.365 42.6879 299.775 67.7993 305.185 94.0981L319.885 197.017C322.36 214.339 338.163 226.386 355.266 223.989C372.396 221.588 384.389 205.6 382.091 188.226Z" fill="#FFBE9D"/>
<path id="Vector_119" d="M379.964 168.716C379.964 168.716 364.11 171.942 345.811 163.293C345.811 163.293 355.807 180.596 380.811 175.277L379.964 168.716Z" fill="#EB996E"/>
<path id="Vector_120" d="M383.768 91.6041C384.067 93.7799 382.76 95.8511 380.849 96.2325C378.942 96.6124 377.152 95.1624 376.853 92.9849C376.554 90.8091 377.861 88.7347 379.768 88.3532C381.678 87.9734 383.469 89.4283 383.768 91.6041Z" fill="#263238"/>
<path id="Vector_121" d="M387.771 90.4962C387.389 91.0525 384.482 89.2532 380.688 89.76C376.894 90.2064 374.343 92.6907 373.877 92.2381C373.65 92.0413 373.995 91.0804 375.1 89.9646C376.189 88.8549 378.122 87.66 380.485 87.3625C382.85 87.068 384.941 87.7546 386.191 88.5729C387.466 89.3927 387.961 90.2451 387.771 90.4962Z" fill="#263238"/>
<path id="Vector_122" d="M346.76 94.616C347.108 96.795 345.621 98.8605 343.439 99.2344C341.262 99.6084 339.209 98.152 338.861 95.9729C338.513 93.7955 340 91.7269 342.178 91.3514C344.359 90.9774 346.412 92.4385 346.76 94.616Z" fill="#263238"/>
<path id="Vector_123" d="M350.766 94.4967C350.33 95.053 347.002 93.2555 342.671 93.7607C338.334 94.207 335.419 96.6894 334.886 96.2385C334.627 96.0417 335.018 95.0825 336.287 93.9652C337.529 92.8542 339.738 91.661 342.441 91.3619C345.144 91.069 347.534 91.754 348.963 92.5722C350.414 93.395 350.982 94.2457 350.766 94.4967Z" fill="#263238"/>
<path id="Vector_124" d="M367.399 122.224C367.355 122.007 369.677 121.305 373.46 120.342C374.422 120.123 375.32 119.814 375.404 119.122C375.549 118.382 375.016 117.37 374.408 116.28C373.209 114.008 371.954 111.626 370.637 109.13C365.37 98.9369 361.432 90.5073 361.839 90.297C362.248 90.0867 366.849 98.1769 372.116 108.37C373.391 110.887 374.61 113.285 375.771 115.58C376.272 116.655 377.058 117.847 376.735 119.384C376.56 120.152 375.909 120.774 375.305 121.019C374.704 121.287 374.157 121.366 373.679 121.453C369.834 122.133 367.44 122.442 367.399 122.224Z" fill="#263238"/>
<path id="Vector_125" d="M356.235 125.295C356.861 125.173 357.374 129.752 361.329 132.532C365.279 135.323 369.702 134.224 369.805 134.86C369.895 135.139 368.905 135.88 367.02 136.183C365.173 136.496 362.394 136.201 359.973 134.5C357.56 132.793 356.323 130.257 355.972 128.396C355.602 126.503 355.944 125.306 356.235 125.295Z" fill="#263238"/>
<path id="Vector_126" d="M348.802 76.2784C348.538 77.3065 344.496 77.2739 339.886 78.2952C335.251 79.2335 331.644 80.8895 330.906 80.0738C330.573 79.6802 331.109 78.6833 332.509 77.5626C333.894 76.4459 336.188 75.2774 338.959 74.6878C341.731 74.1035 344.355 74.2275 346.143 74.6714C347.943 75.1126 348.91 75.7922 348.802 76.2784Z" fill="#263238"/>
<path id="Vector_127" d="M385.739 77.7303C385.092 78.7397 381.968 78.1172 378.357 78.4766C374.73 78.7183 371.775 79.8454 370.948 78.9569C370.58 78.5225 370.941 77.5437 372.163 76.5191C373.366 75.5005 375.475 74.5416 377.962 74.3336C380.451 74.1287 382.705 74.7251 384.082 75.5311C385.477 76.3371 386.019 77.2425 385.739 77.7303Z" fill="#263238"/>
<path id="Vector_128" d="M309.56 112.565C309.075 112.428 290.282 109.45 293.098 127.026C295.914 144.603 313.859 138.284 313.81 137.776C313.76 137.267 309.56 112.565 309.56 112.565Z" fill="#FFBE9D"/>
<path id="Vector_129" d="M307.782 132.347C307.686 132.3 307.477 132.62 306.944 132.951C306.423 133.272 305.485 133.578 304.407 133.366C302.228 132.949 299.99 130.115 299.357 126.813C299.035 125.147 299.149 123.499 299.566 122.091C299.943 120.66 300.716 119.586 301.727 119.263C302.725 118.891 303.555 119.37 303.879 119.853C304.223 120.329 304.159 120.714 304.268 120.732C304.331 120.769 304.638 120.363 304.356 119.625C304.217 119.271 303.917 118.872 303.401 118.583C302.874 118.291 302.155 118.209 301.444 118.385C299.953 118.7 298.808 120.2 298.351 121.747C297.81 123.314 297.641 125.17 298.001 127.043C298.727 130.731 301.304 133.909 304.253 134.271C305.682 134.411 306.766 133.856 307.287 133.338C307.819 132.797 307.855 132.371 307.782 132.347Z" fill="#EB996E"/>
<path id="Vector_130" d="M395.811 70.0543C385.004 74.3671 372.123 73.0476 362.414 66.6333C355.623 62.1461 349.963 55.2017 341.951 53.7518C336.558 52.775 330.916 54.5924 326.467 57.7952C322.02 60.998 318.644 65.4807 315.85 70.1978C322.294 82.4905 320.731 97.2626 319.002 111.034C318.81 112.556 318.561 114.202 317.466 115.274C315.604 117.096 312.389 116.233 310.378 114.578C307.158 111.929 305.541 107.832 304.321 103.845C301.542 94.7613 300.152 85.169 301.115 75.7188C302.075 66.2686 305.474 56.959 311.509 49.6235C319.05 40.456 330.484 34.7987 342.29 33.5642C354.095 32.3311 366.178 35.3684 376.437 41.3405C381.196 44.1112 385.695 47.6113 388.549 52.321" fill="#263238"/>
<path id="Vector_131" d="M407.728 34.4651C407.728 34.4651 407.896 34.9786 407.753 35.9681C407.616 36.9415 407.102 38.4097 405.746 39.7839C404.403 41.1682 402.177 42.2502 399.481 42.6856C398.135 42.9055 396.675 43.0357 395.117 42.933C393.57 42.8172 391.886 42.4382 390.419 41.4358C388.992 40.4551 387.739 38.8408 387.646 36.8605C387.537 34.8485 388.964 32.9738 390.819 32.0553C391.751 31.5808 392.812 31.2959 393.913 31.293C395.012 31.2915 396.141 31.6445 397.072 32.2607C398.987 33.483 400.13 35.673 400.406 37.9382C400.704 40.2381 399.919 42.6639 398.423 44.5415C396.932 46.4407 394.845 47.88 392.527 48.8043C387.844 50.6804 382.407 50.4056 377.412 48.9706C372.361 47.5589 367.828 45.1852 363.564 42.8679C359.293 40.5578 355.158 38.3476 350.953 36.917C346.771 35.4589 342.497 34.9121 338.605 35.4676C334.709 36.0201 331.271 37.5187 328.48 39.3268C322.86 43.0154 319.871 47.7672 318.159 51.0102C317.298 52.6592 316.747 53.9972 316.387 54.9071C316.025 55.8184 315.848 56.3029 315.814 56.2928C315.8 56.2885 315.828 56.1626 315.894 55.9196C315.963 55.6781 316.059 55.315 316.222 54.8507C316.532 53.9177 317.032 52.5507 317.855 50.8641C319.492 47.5487 322.432 42.6697 328.137 38.8263C330.969 36.9444 334.482 35.3692 338.501 34.7689C342.521 34.1614 346.944 34.7067 351.218 36.1749C355.515 37.6156 359.699 39.8375 363.976 42.1359C368.242 44.4417 372.714 46.7705 377.652 48.1505C382.537 49.5536 387.753 49.8024 392.208 48.0304C394.407 47.1611 396.377 45.8014 397.763 44.0468C399.158 42.2951 399.868 40.1238 399.609 38.0279C399.367 35.955 398.328 33.9675 396.649 32.8885C395.005 31.7342 392.816 31.8267 391.151 32.6888C389.473 33.509 388.238 35.1407 388.319 36.8403C388.377 38.5457 389.473 40.0313 390.778 40.9469C392.102 41.877 393.684 42.2661 395.164 42.3948C396.656 42.5149 398.092 42.4093 399.406 42.2184C402.037 41.8379 404.189 40.8413 405.508 39.5539C406.847 38.2709 407.396 36.8793 407.583 35.9435C407.774 34.9873 407.676 34.4651 407.728 34.4651Z" fill="#455A64"/>
<path id="Vector_132" d="M288.811 79.9114C288.857 79.719 290.818 80.6811 294.13 80.6647C295.771 80.6334 297.727 80.2605 299.718 79.3401C301.714 78.4496 303.763 77.049 305.685 75.3604C309.521 71.9043 311.372 67.2593 312.002 63.9016C312.656 60.4947 312.33 58.3005 312.496 58.293C312.546 58.2856 312.666 58.8211 312.758 59.81C312.843 60.7975 312.85 62.2474 312.587 64.0135C312.092 67.501 310.258 72.401 306.235 76.0272C304.234 77.7829 302.129 79.1925 300.017 80.0889C297.92 81.0093 295.839 81.3374 294.126 81.2882C292.405 81.2285 291.048 80.875 290.153 80.5469C289.258 80.2157 288.793 79.9592 288.811 79.9114Z" fill="#455A64"/>
<path id="Vector_133" d="M289.811 92.023C289.815 91.8601 291.943 92.0704 295.269 91.487C298.568 90.9289 303.102 89.361 307.021 86.0831C310.938 82.7992 313.245 78.6404 314.34 75.5194C315.464 72.3762 315.602 70.2724 315.764 70.2931C315.818 70.2976 315.839 70.8231 315.752 71.7692C315.668 72.7153 315.434 74.0789 314.934 75.7134C313.966 78.9632 311.668 83.3367 307.594 86.7508C303.518 90.1605 298.772 91.6854 295.365 92.0985C293.65 92.3176 292.249 92.3235 291.288 92.2525C290.328 92.1814 289.806 92.0763 289.811 92.023Z" fill="#455A64"/>
<path id="Vector_134" d="M424.726 313.055L426.033 350.912C426.033 350.912 316.094 372.656 301.951 379.929C287.808 387.203 282.037 388.329 282.893 409.293L458.58 408.992C458.58 408.992 480.233 400.895 479.804 377.364C479.375 353.832 473.485 297.293 473.485 297.293L424.726 313.055Z" fill="#FFBE9D"/>
<path id="Vector_135" d="M300.424 409.293L314.948 407.934L328.811 374.043C326.563 373.653 279.785 366.578 277.027 367.352L265.811 408.13C265.811 408.13 299.423 409.29 300.424 409.293Z" fill="#FFBE9D"/>
<path id="Vector_136" d="M269.216 409.003C269.251 409.074 269.527 409.137 269.992 409.191C273.837 409.634 291.59 408.492 291.59 408.492C292.403 406.072 290.867 398.802 288.657 398.377C286.447 397.95 267.553 399.296 267.553 399.296C267.553 399.296 264.576 399.709 263.836 404.988C263.377 408.25 269.216 409.003 269.216 409.003Z" fill="#FFBE9D"/>
<path id="Vector_137" d="M263.067 397.95C263.1 398.014 263.368 398.071 263.82 398.118C267.556 398.519 283.867 398.343 284.573 396.396C285.363 394.214 284.108 388.751 281.96 388.368C279.812 387.985 261.449 389.197 261.449 389.197C261.449 389.197 258.556 389.569 257.835 394.329C257.392 397.269 263.067 397.95 263.067 397.95Z" fill="#FFBE9D"/>
<path id="Vector_138" d="M259.455 388.915C259.491 388.985 259.78 389.048 260.264 389.101C264.277 389.541 281.798 389.348 282.555 387.207C283.403 384.807 282.056 378.797 279.748 378.376C277.441 377.953 257.717 379.288 257.717 379.288C257.717 379.288 254.61 379.697 253.837 384.933C253.359 388.166 259.455 388.915 259.455 388.915Z" fill="#FFBE9D"/>
<path id="Vector_139" d="M257.066 378.915C257.1 378.985 257.368 379.048 257.819 379.101C261.555 379.541 277.867 379.348 278.573 377.207C279.363 374.807 278.108 368.797 275.96 368.376C273.812 367.953 255.448 369.289 255.448 369.289C255.448 369.289 252.555 369.697 251.836 374.933C251.389 378.166 257.066 378.915 257.066 378.915Z" fill="#FFBE9D"/>
<path id="Vector_140" d="M283.81 398.59C283.785 398.842 279.957 399.138 275.263 399.25C270.569 399.362 266.783 399.248 266.811 398.996C266.837 398.743 270.663 398.448 275.359 398.336C280.052 398.224 283.836 398.337 283.81 398.59Z" fill="#EB996E"/>
<path id="Vector_141" d="M283.811 388.719C283.82 389.171 278.455 389.796 271.829 390.112C265.2 390.43 259.821 390.317 259.811 389.866C259.802 389.414 265.166 388.789 271.794 388.473C278.419 388.157 283.8 388.268 283.811 388.719Z" fill="#EB996E"/>
<path id="Vector_142" d="M282.811 378.507C282.82 378.734 277.455 379.045 270.829 379.203C264.2 379.361 258.821 379.306 258.811 379.08C258.802 378.853 264.166 378.542 270.794 378.384C277.421 378.225 282.802 378.28 282.811 378.507Z" fill="#EB996E"/>
<path id="Vector_143" d="M309.811 372.293C309.811 372.293 277.872 358.498 275.878 360.49C273.884 362.482 270.811 368.889 270.811 368.889L309.811 372.293Z" fill="#FFBE9D"/>
<path id="Vector_144" d="M450.799 383.292C450.664 383.332 450.008 381.013 448.478 377.459C447.722 375.678 446.692 373.615 445.427 371.394C444.131 369.191 442.583 366.839 440.766 364.512C438.927 362.199 437.001 360.138 435.159 358.357C433.29 356.601 431.52 355.107 429.96 353.949C426.851 351.613 424.74 350.419 424.812 350.298C424.839 350.253 425.384 350.519 426.349 351.042C427.321 351.551 428.673 352.392 430.284 353.515C431.901 354.63 433.729 356.097 435.647 357.847C437.541 359.623 439.51 361.698 441.374 364.043C443.216 366.404 444.769 368.8 446.047 371.05C447.294 373.318 448.286 375.43 448.982 377.254C449.691 379.073 450.184 380.577 450.447 381.636C450.723 382.691 450.851 383.279 450.799 383.292Z" fill="#EB996E"/>
<path id="Vector_145" d="M322.049 204.293L288.983 299.003L251.811 309.776C251.811 309.776 265.287 367.182 279.052 377.492C283.725 380.992 291.378 384.789 299.208 384.24C314.068 383.197 330.732 372.654 337.085 357.932C342.729 344.851 357.811 209.579 357.811 209.579L322.049 204.293Z" fill="#FFBE9D"/>
<path id="Vector_146" d="M356.899 214.293L358.826 190.965L353.507 172.244L351.448 165.08L355.471 169.263L362.811 161.311C362.811 161.311 360.429 147.181 358.444 147.181C357.2 147.181 353.557 148.453 351.016 149.399C349.506 149.961 348.383 150.41 348.383 150.41L342.17 153.64L348.383 143.951C348.383 143.951 354.78 149.366 358.052 144.661C360.554 141.063 351.233 133.003 347.72 130.16C346.916 129.509 345.873 129.259 344.866 129.465L341.244 130.205C341.357 128.126 339.138 125.34 335.941 125.294C331.204 125.224 328.994 129.526 328.994 129.526L325.172 130.226C322.506 130.226 320.123 131.916 319.203 134.46L310.811 157.676L321.581 204.871" fill="#FFBE9D"/>
<path id="Vector_147" d="M321.174 204.909C321.174 204.909 321.077 204.63 320.931 204.076C320.78 203.484 320.573 202.665 320.306 201.615C319.769 199.413 318.995 196.239 318.007 192.191C316.047 183.991 313.244 172.263 309.832 157.98L309.811 157.892L309.842 157.806C311.537 153.222 313.333 148.364 315.218 143.269C316.161 140.721 317.127 138.114 318.113 135.451C318.53 134.116 319.306 132.667 320.528 131.732C321.728 130.772 323.277 130.215 324.853 130.213L324.789 130.219C326.003 130.002 327.349 129.762 328.706 129.518L328.442 129.71C329.157 128.484 330.127 127.466 331.311 126.652C332.503 125.863 333.932 125.354 335.408 125.311C336.887 125.189 338.44 125.683 339.621 126.622C340.787 127.554 341.74 128.93 341.712 130.579L341.252 130.185C342.183 129.999 343.12 129.814 344.06 129.626C344.534 129.545 344.979 129.411 345.535 129.375C346.068 129.347 346.609 129.424 347.113 129.607C347.611 129.774 348.1 130.109 348.459 130.411L349.596 131.328C350.35 131.948 351.098 132.582 351.833 133.236C353.303 134.543 354.739 135.918 356.067 137.42C357.358 138.939 358.696 140.53 359.264 142.621C359.403 143.214 359.44 143.878 359.218 144.507C358.994 145.162 358.523 145.575 358.128 146.027C357.233 146.889 355.933 147.309 354.727 147.247C352.28 147.103 350.219 145.902 348.399 144.541L348.974 144.456C346.815 147.722 344.688 150.939 342.599 154.102L342.103 153.556C344.254 152.473 346.378 151.402 348.474 150.345L348.492 150.336L348.507 150.33C350.657 149.525 352.778 148.73 354.918 148.057C355.992 147.722 357.052 147.392 358.178 147.184C358.483 147.146 358.699 147.07 359.134 147.128C359.588 147.254 359.796 147.543 359.974 147.776C360.325 148.269 360.545 148.777 360.759 149.287C362.287 153.391 363.022 157.501 363.779 161.475L363.811 161.641L363.69 161.768C361.073 164.511 358.567 167.139 356.151 169.673L355.917 169.918L355.679 169.677C354.256 168.234 352.895 166.854 351.565 165.503L352.09 165.2C354.986 175.186 357.499 183.858 359.57 191.001L359.582 191.041L359.579 191.081C358.912 198.398 358.384 204.193 358.018 208.201C357.827 210.153 357.678 211.669 357.573 212.736C357.519 213.223 357.475 213.606 357.444 213.901C357.41 214.162 357.389 214.294 357.379 214.293C357.368 214.293 357.368 214.158 357.38 213.895C357.397 213.6 357.419 213.214 357.45 212.725C357.526 211.655 357.636 210.137 357.776 208.181C358.092 204.171 358.549 198.37 359.127 191.044L359.134 191.124C357.018 183.994 354.447 175.34 351.489 165.374L351.137 164.188L352.015 165.071C353.351 166.416 354.718 167.79 356.147 169.227L355.676 169.232C358.083 166.689 360.578 164.053 363.185 161.299L363.096 161.592C362.338 157.665 361.571 153.519 360.083 149.56C359.883 149.081 359.664 148.593 359.381 148.204C359.25 148.003 359.062 147.856 358.985 147.841C358.88 147.814 358.542 147.861 358.307 147.904C357.265 148.098 356.203 148.427 355.148 148.76C353.032 149.43 350.92 150.226 348.786 151.029L348.819 151.014C346.724 152.075 344.601 153.148 342.452 154.234L341.167 154.883L341.955 153.688C344.042 150.525 346.164 147.306 348.321 144.037L348.55 143.69L348.896 143.951C350.583 145.224 352.621 146.37 354.748 146.476C355.803 146.522 356.836 146.181 357.592 145.461C357.931 145.07 358.343 144.69 358.477 144.254C358.635 143.811 358.618 143.299 358.498 142.793C358.021 140.992 356.734 139.392 355.475 137.928C354.18 136.46 352.763 135.104 351.31 133.809C350.583 133.163 349.843 132.534 349.097 131.919C348.327 131.338 347.634 130.598 346.845 130.326C346.009 129.996 345.183 130.16 344.212 130.375C343.272 130.561 342.334 130.747 341.402 130.931L340.928 131.025L340.942 130.537C340.978 129.279 340.175 128.02 339.141 127.212C338.096 126.387 336.766 125.953 335.44 126.06C332.738 126.112 330.363 127.904 329.098 130.051L329.003 130.213L328.835 130.243C327.478 130.482 326.13 130.72 324.917 130.936L324.883 130.942H324.85C323.44 130.942 322.056 131.435 320.977 132.291C319.867 133.16 319.213 134.34 318.775 135.698C317.781 138.356 316.806 140.961 315.856 143.507C313.95 148.595 312.134 153.445 310.42 158.021L310.43 157.848C313.735 172.156 316.447 183.905 318.344 192.118C319.261 196.181 319.982 199.368 320.481 201.579C320.71 202.639 320.889 203.463 321.018 204.059C321.138 204.616 321.174 204.909 321.174 204.909Z" fill="#EB996E"/>
<path id="Vector_148" d="M348.812 162.635C348.743 162.484 351.224 161.108 354.646 159.384L356.811 158.293L355.01 159.961C354.55 160.388 354.129 160.926 353.81 161.547C353.275 162.581 353.069 163.722 353.146 164.731C353.222 165.746 353.556 166.629 353.936 167.301C354.716 168.657 355.592 169.185 355.52 169.285C355.501 169.354 354.489 168.975 353.524 167.575C353.055 166.882 352.632 165.931 352.51 164.793C352.386 163.66 352.598 162.371 353.199 161.21C353.558 160.512 354.037 159.908 354.57 159.436L354.934 160.013C351.481 161.667 348.881 162.787 348.812 162.635Z" fill="#EB996E"/>
<path id="Vector_149" d="M330.818 149.291C330.73 149.239 331.412 147.965 332.588 145.948C333.763 143.931 335.43 141.173 337.313 138.149C338.262 136.637 339.141 135.202 340.009 133.901C340.882 132.604 341.899 131.514 343.001 130.932C344.09 130.341 345.136 130.23 345.815 130.321C346.504 130.406 346.826 130.633 346.81 130.664C346.79 130.726 346.439 130.599 345.797 130.607C345.165 130.609 344.232 130.786 343.271 131.381C341.282 132.532 339.887 135.558 337.955 138.535C336.073 141.558 334.334 144.274 333.043 146.22C331.75 148.166 330.908 149.344 330.818 149.291Z" fill="#EB996E"/>
<path id="Vector_150" d="M319.823 149.292C319.738 149.251 320.104 148.064 320.8 146.191C321.496 144.318 322.529 141.765 323.772 138.998C325.014 136.23 326.23 133.775 327.158 132.031C328.086 130.285 328.72 129.245 328.801 129.295C328.886 129.347 328.402 130.48 327.585 132.286C326.646 134.356 325.572 136.723 324.387 139.335C323.222 141.957 322.167 144.333 321.244 146.413C320.435 148.223 319.912 149.334 319.823 149.292Z" fill="#EB996E"/>
<path id="Vector_151" d="M291.804 289.294C291.848 289.314 291.67 289.924 291.309 291.01C290.888 292.241 290.365 293.774 289.743 295.592C288.41 299.456 286.582 304.796 284.651 310.729C282.721 316.664 281.056 322.068 279.859 325.985C279.291 327.824 278.812 329.373 278.427 330.619C278.08 331.711 277.866 332.307 277.82 332.293C277.774 332.278 277.898 331.652 278.165 330.532C278.43 329.413 278.845 327.803 279.384 325.823C280.461 321.86 282.055 316.419 283.987 310.473C285.921 304.53 287.827 299.211 289.281 295.394C290.007 293.486 290.614 291.95 291.055 290.899C291.494 289.844 291.758 289.273 291.804 289.294Z" fill="#EB996E"/>
<path id="Vector_152" d="M342.805 333.623C342.819 333.624 342.807 333.771 342.773 334.054C342.728 334.379 342.672 334.791 342.601 335.309C342.431 336.463 342.194 338.074 341.894 340.124C341.572 342.214 341.178 344.771 340.582 347.722C339.979 350.667 339.17 354.015 337.796 357.57C336.423 361.107 334.379 364.866 331.276 368.162C328.219 371.468 324.425 374.527 320.037 377.094C315.645 379.673 310.651 381.668 305.302 383.134C302.616 383.835 299.79 384.298 296.898 384.292C294.003 384.314 291.075 383.775 288.279 382.803C282.677 380.798 278.019 377.078 274.551 372.809C271.025 368.55 268.535 363.811 266.599 359.178C264.665 354.519 263.52 349.881 262.185 345.653C260.854 341.414 259.615 337.462 258.48 333.85C256.192 326.639 254.447 320.767 253.359 316.678C252.81 314.635 252.41 313.041 252.161 311.956C252.047 311.447 251.956 311.039 251.883 310.72C251.824 310.44 251.802 310.296 251.814 310.293C251.827 310.29 251.876 310.429 251.959 310.701C252.049 311.016 252.166 311.416 252.311 311.918C252.631 313.04 253.078 314.606 253.647 316.598C254.823 320.659 256.645 326.499 258.999 333.688C260.162 337.295 261.432 341.238 262.796 345.469C264.163 349.711 265.326 354.322 267.256 358.915C269.19 363.494 271.666 368.166 275.135 372.34C278.55 376.529 283.097 380.141 288.538 382.089C291.26 383.033 294.086 383.555 296.898 383.538C299.707 383.546 302.468 383.099 305.11 382.414C310.382 380.98 315.348 379.015 319.675 376.492C324.014 373.977 327.771 370.977 330.804 367.737C333.867 364.522 335.896 360.859 337.288 357.375C338.676 353.877 339.518 350.56 340.16 347.636C340.792 344.707 341.229 342.159 341.596 340.078C341.958 338.038 342.242 336.434 342.446 335.284C342.548 334.772 342.628 334.363 342.693 334.041C342.756 333.763 342.793 333.62 342.805 333.623Z" fill="#EB996E"/>
</g>
</svg>
