<svg width="16" height="16" viewBox="0 0 16 16" fill="none" xmlns="http://www.w3.org/2000/svg">
<g clip-path="url(#clip0_1447_1676)">
<path d="M14.6383 0H1.3617C0.609655 0 0 0.609655 0 1.3617V14.6383C0 15.3903 0.609655 16 1.3617 16H14.6383C15.3903 16 16 15.3903 16 14.6383V1.3617C16 0.609655 15.3903 0 14.6383 0Z" fill="black"/>
<path d="M4.6665 11.3333C4.6665 10.4128 5.4127 9.66663 6.33316 9.66663H7.99982V11.3333C7.99982 12.2537 7.25363 12.9999 6.33316 12.9999C5.4127 12.9999 4.6665 12.2537 4.6665 11.3333Z" fill="#24CB71"/>
<path d="M8 3.00012V6.33344H9.66666C10.5871 6.33344 11.3333 5.58724 11.3333 4.66678C11.3333 3.74632 10.5871 3.00012 9.66666 3.00012H8Z" fill="#FF7237"/>
<path d="M9.65299 9.66669C10.5735 9.66669 11.3196 8.9205 11.3196 8.00003C11.3196 7.07957 10.5735 6.33337 9.65299 6.33337C8.73253 6.33337 7.98633 7.07957 7.98633 8.00003C7.98633 8.9205 8.73253 9.66669 9.65299 9.66669Z" fill="#00B6FF"/>
<path d="M4.6665 4.66678C4.6665 5.58724 5.4127 6.33344 6.33316 6.33344H7.99982V3.00012H6.33316C5.4127 3.00012 4.6665 3.74632 4.6665 4.66678Z" fill="#FF3737"/>
<path d="M4.6665 8.00003C4.6665 8.9205 5.4127 9.66669 6.33316 9.66669H7.99982V6.33337H6.33316C5.4127 6.33337 4.6665 7.07957 4.6665 8.00003Z" fill="#874FFF"/>
</g>
<defs>
<clipPath id="clip0_1447_1676">
<rect width="16" height="16" fill="white"/>
</clipPath>
</defs>
</svg>
