<svg width="62" height="64" viewBox="0 0 62 64" fill="none" xmlns="http://www.w3.org/2000/svg">
<path d="M28.3792 53.4392C28.1302 54.7367 25.1678 54.0821 15.7462 50.6899C5.77539 47.0926 3.70679 45.9362 4.51848 44.5746C5.65774 42.7159 28.7279 51.3304 28.3792 53.4392Z" fill="#F9A46C"/>
<path d="M47.7619 10.8355C51.5816 11.8553 51.8979 12.6412 52.1511 21.6915C52.4224 31.039 52.1393 32.7562 50.3917 32.9521C47.2217 33.2943 46.3565 30.842 45.4443 19.2969C44.7762 10.7788 44.9426 10.0828 47.7619 10.8355Z" fill="#F9A46C"/>
<path d="M23.1383 18.3299C25.8945 19.0268 26.7492 19.8395 29.1176 23.9598C36.0966 36.2088 42.0535 44.4046 36.7157 42.9405C34.533 42.3578 33.0007 40.2145 24.3608 26.1582C19.6215 18.3652 19.4447 17.4217 23.1383 18.3299Z" fill="#E6620A"/>
</svg>
