<?xml version="1.0" encoding="UTF-8"?>
<svg id="Livello_2" xmlns="http://www.w3.org/2000/svg" viewBox="0 0 143 65.02">
  <defs>
    <style>
      .cls-1 {
        fill: #120801;
      }
    </style>
  </defs>
  <g id="Livello_1-2" data-name="Livello_1">
    <path class="cls-1" d="M142.42,61.64c1.24,1.24.36,3.35-1.39,3.35h-13.8s-9.15,0-9.15,0l-.06-.06-4.09-4.08c-.37-.37-.87-.57-1.39-.57h-7.86c-.52,0-1.02-.21-1.39-.57l-5.24-5.23c-1.24-1.24-.36-3.35,1.39-3.35h0c1.75,0,2.62-2.11,1.39-3.35l-1.39-1.39-4.63-4.63-4.62-4.62-.12-.12v27.98h-9.16s-7.3,0-7.3,0c-1.08,0-1.96-.88-1.96-1.96v-7.29l-.05.05v-.1l-4.7,4.7-4.58,4.58-.03.03h-9.34s-7.2,0-7.2,0c-1.08,0-1.96-.88-1.96-1.96v-16.57h-.01s-.04.03-.04.03v-.1l-4.71,4.71-4.56,4.55-4.73,4.72-4.56,4.56-.07.07H6.71s-4.74,0-4.74,0c-1.75,0-2.62-2.12-1.39-3.35l1.39-1.38,4.56-4.55,4.72-4.71,4.57-4.56h0s4.72-4.72,4.72-4.72l4.56-4.55h0s4.7-4.7,4.7-4.7l4.58-4.58,4.7-4.7,4.56-4.55,4.74-4.74,4.54-4.54h0s4.74-4.74,4.74-4.74L62.22.11h0l.1-.11v32.36c0,1.75,2.11,2.62,3.35,1.39l1.27-1.27,4.55-4.54,4.74-4.74,4.56-4.56,4.73-4.72,3.17-3.17c.77-.77,2.01-.77,2.77,0l3.29,3.28,4.61,4.61,4.67,4.67,4.62,4.62,4.63,4.63,4.66,4.65h0s4.63,4.63,4.63,4.63l4.62,4.62,9.29,9.28,5.91,5.9Z"/>
  </g>
</svg>