<svg width="170" height="233" viewBox="0 0 170 233" fill="none" xmlns="http://www.w3.org/2000/svg">
<path d="M120.519 5.75482C115.538 4.67387 110.845 9.48148 105.78 8.92285C102.704 8.58427 100.214 6.34457 97.3946 5.05913C93.1789 3.13802 87.4557 3.25804 83.521 5.71037C79.5863 8.16196 77.1253 10.6336 76.9524 15.29C73.0287 13.4467 67.1841 18.7226 65.4426 23.4798C63.7012 28.2378 64.6326 32.9238 66.252 37.7255C69.0396 45.9931 73.4584 53.699 79.1758 60.2625C79.6819 60.8441 80.4648 61.468 81.1299 61.0812C81.5904 60.8138 81.6964 60.2018 81.7361 59.6676C82.0745 55.1208 81.1247 50.5925 80.3588 46.099C79.5929 41.6055 79.0117 36.9558 80.0682 32.5223C81.1247 28.0888 84.1441 23.8702 88.496 22.6122C91.7104 21.6831 95.1962 22.4655 98.24 23.8599C101.284 25.2549 104.022 27.2346 106.947 28.869C109.871 30.5026 113.11 31.814 116.451 31.6762C119.793 31.5384 123.231 29.6528 124.394 26.4959C125.558 23.3383 123.603 19.1597 120.285 18.7418C123.255 18.2099 125.651 15.3812 125.706 12.3443C125.761 9.30886 123.467 6.39495 120.519 5.75482Z" fill="#263238"/>
<path d="M73.9944 104.301C89.1133 93.7381 92.5435 74.1322 91.9449 56.5079C91.8457 53.5665 92.1681 50.4647 90.7694 47.8831C89.3693 45.3029 86.1047 43.5385 83.4709 44.7782C81.2863 45.8067 80.3339 48.348 79.1114 50.4498C77.4859 53.2463 75.0632 55.56 72.2122 57.0393C70.3388 58.011 68.0214 58.6059 66.1719 57.5856C63.6343 56.1855 63.335 52.6799 63.3537 49.7534C63.388 44.2998 63.4216 38.8462 63.4559 33.3941C63.4739 30.4684 63.4828 27.4808 62.573 24.7044C61.6632 21.9272 59.6525 19.3478 56.8694 18.5679C54.0855 17.7887 50.6441 19.3933 50.056 22.2571C49.8112 23.449 50.0537 24.6864 49.9731 25.9C49.8918 27.1151 49.326 28.4585 48.1722 28.7966C47.0041 29.1399 45.8338 28.31 44.9591 27.4539C41.9394 24.4999 39.8899 20.6942 37.9748 16.9095C36.0596 13.1247 34.2005 9.25041 31.4606 6.02841C28.7207 2.80641 24.93 0.253147 20.74 0.0150608C16.5492 -0.222279 12.0846 2.36383 11.0262 6.47772C9.96419 10.6028 12.3712 14.7876 14.9894 18.1268C18.8741 23.0811 23.4702 27.4614 28.5879 31.0887C29.5104 31.7432 30.5098 32.4507 30.8628 33.5344C31.4987 35.4854 29.6499 37.4222 27.7244 38.0633C25.5435 38.7895 23.1768 38.5634 20.896 38.8321C18.6144 39.1007 16.1432 40.1068 15.2797 42.263C14.0811 45.2537 16.5821 48.3883 19.0436 50.4415C23.971 54.5532 29.5985 57.8006 35.6014 60.0001C37.7538 60.7875 40.019 61.4786 41.7543 62.9907C43.4903 64.5035 44.5374 67.1329 43.4888 69.1936C42.4394 71.2573 39.7481 71.9163 37.4934 71.4976C35.2401 71.0804 33.2213 69.8556 31.0725 69.0451C27.0519 67.5278 21.8595 67.8047 19.2839 71.2797C17.5912 73.5643 17.4419 76.7445 18.2987 79.4671C19.154 82.1898 20.8908 84.5356 22.7343 86.6985C29.1783 94.2591 37.4284 100.346 46.7563 103.58C56.082 106.815 64.7248 107.69 73.9944 104.301Z" fill="#B3E5BA"/>
<path d="M74.2261 117.366C73.5879 110.385 72.0564 102.139 69.4457 93.2523C66.8521 84.358 63.2002 74.845 59.0386 65.0253C57.9892 62.575 56.9525 60.1531 55.9308 57.7662C54.9053 55.3861 53.888 53.0254 52.7513 50.7789C50.4958 46.2739 47.9844 42.1145 45.4759 38.2409C42.9689 34.3644 40.4484 30.7774 38.0683 27.4412C35.6793 24.108 33.3939 21.0435 31.1914 18.3395C26.8029 12.912 22.7525 8.96231 19.8611 6.36426C18.4176 5.05964 17.2653 4.0849 16.4749 3.43483C16.095 3.12584 15.7965 2.88327 15.5718 2.70041C15.3666 2.53771 15.2583 2.45786 15.2524 2.46532C15.2456 2.47279 15.3419 2.56682 15.536 2.7437C15.7517 2.93626 16.0398 3.19227 16.4047 3.51842C17.1712 4.19536 18.3012 5.19547 19.7208 6.52099C22.5644 9.16382 26.5581 13.1419 30.8959 18.5835C33.073 21.295 35.3352 24.3655 37.7048 27.7054C40.0685 31.0513 42.5711 34.642 45.0609 38.5156C47.5507 42.3869 50.0428 46.5374 52.2796 51.0207C53.4073 53.2568 54.4127 55.5973 55.4389 57.9842C56.4599 60.3695 57.4944 62.7907 58.543 65.2402C62.7002 75.0517 66.3573 84.5364 68.9703 93.3956C71.5982 102.247 73.1618 110.452 73.8462 117.403" fill="#455A64"/>
<path d="M52.5966 50.7586C52.6332 50.7646 52.7324 50.3198 52.8824 49.5107C53.0362 48.7024 53.2198 47.5254 53.4251 46.0685C53.8385 43.1555 54.2729 39.1125 54.7342 34.6538C55.1954 30.1929 55.6857 26.1678 56.1425 23.269C56.3672 21.8188 56.5605 20.6471 56.7045 19.8388C56.8441 19.029 56.9045 18.5774 56.868 18.5685C56.8314 18.5603 56.703 18.9969 56.5 19.7947C56.2925 20.5911 56.041 21.7561 55.7686 23.2026C55.2133 26.0954 54.661 30.1295 54.199 34.5949C53.7549 38.9961 53.3534 42.9772 53.0466 46.0193C52.8996 47.3926 52.7742 48.5502 52.6742 49.4794C52.5899 50.2966 52.5593 50.7526 52.5966 50.7586Z" fill="#455A64"/>
<path d="M14.9789 43.7279C14.9781 43.7652 15.5133 43.8272 16.4791 43.9078C17.4441 43.9936 18.8412 44.11 20.5631 44.3101C24.0082 44.6817 28.7498 45.3624 33.9482 46.3416C39.1465 47.3305 43.8119 48.4262 47.1638 49.3158C48.8438 49.7487 50.1932 50.1361 51.1284 50.3973C52.0621 50.663 52.5838 50.7929 52.5965 50.7578C52.6077 50.7212 52.1069 50.5234 51.1904 50.195C50.2731 49.8711 48.9356 49.427 47.2646 48.9442C43.9291 47.9567 39.2599 46.7984 34.0467 45.8057C28.8334 44.8243 24.065 44.2011 20.5997 43.9264C18.8681 43.7757 17.462 43.716 16.4903 43.6958C15.5178 43.6809 14.9811 43.6898 14.9789 43.7279Z" fill="#455A64"/>
<path d="M68.9826 92.5602C68.9998 92.5677 69.0878 92.4102 69.2408 92.1012C69.4147 91.7333 69.6267 91.284 69.8842 90.7399C70.4372 89.5554 71.1933 87.8209 72.0994 85.6662C73.9145 81.3567 76.2342 75.3255 78.7038 68.6352C81.175 61.9419 83.4357 55.8972 85.1575 51.5564C86.0017 49.4465 86.6965 47.7105 87.2122 46.42C87.4332 45.8603 87.6145 45.3983 87.7638 45.0191C87.884 44.6967 87.9399 44.5243 87.922 44.5153C87.9049 44.5086 87.8168 44.6661 87.6638 44.9751C87.4899 45.343 87.2779 45.7909 87.0204 46.335C86.4674 47.5194 85.7113 49.2539 84.8053 51.4087C82.9901 55.7181 80.6705 61.7493 78.2 68.4426C75.7296 75.1337 73.4689 81.1776 71.7471 85.5199C70.9022 87.6291 70.2081 89.3658 69.6924 90.6548C69.4715 91.2146 69.2901 91.6773 69.1408 92.0565C69.0207 92.3796 68.9654 92.552 68.9826 92.5602Z" fill="#455A64"/>
<path d="M18.9949 76.4498C18.9905 76.4684 19.1614 76.5378 19.4913 76.6543C19.8824 76.7849 20.3615 76.9461 20.9429 77.1409C22.2841 77.576 24.094 78.1626 26.2957 78.8754C30.8156 80.3412 37.0342 82.4377 43.9029 84.7626C50.7738 87.0898 57.0186 89.1303 61.5698 90.5028C63.8454 91.1902 65.6919 91.7268 66.9756 92.0724C67.569 92.2284 68.0586 92.356 68.4564 92.4613C68.7967 92.5441 68.9781 92.5784 68.9833 92.5605C68.9878 92.5426 68.8169 92.4724 68.487 92.3553C68.0967 92.2254 67.6175 92.0649 67.0353 91.8694C65.6942 91.4343 63.885 90.8484 61.6832 90.1349C57.1633 88.6698 50.944 86.5725 44.0731 84.2469C37.2044 81.9205 30.9604 79.88 26.4092 78.5082C24.1336 77.8208 22.2871 77.2834 21.0026 76.9386C20.4093 76.7826 19.9204 76.6535 19.5219 76.5498C19.1815 76.4654 19.0009 76.4311 18.9949 76.4498Z" fill="#455A64"/>
<path d="M122.361 129.66C109.682 125.034 103.567 111.813 100.675 99.2356C100.192 97.1366 99.3806 95.0035 99.8842 92.9146C100.389 90.8264 102.366 88.9644 104.462 89.3457C106.2 89.6621 107.352 91.2803 108.612 92.5368C110.288 94.2089 112.436 95.3895 114.731 95.8993C116.239 96.2342 117.99 96.2189 119.106 95.1494C120.637 93.6818 120.189 91.1462 119.626 89.08C118.575 85.2294 117.526 81.3787 116.476 77.5292C115.913 75.4634 115.344 73.3521 115.466 71.2174C115.587 69.0821 116.523 66.8796 118.345 65.8044C120.167 64.7296 122.903 65.2171 123.858 67.1319C124.255 67.9288 124.316 68.8496 124.602 69.6927C124.888 70.5368 125.541 71.3805 126.42 71.4025C127.311 71.4256 127.983 70.6185 128.44 69.8485C130.02 67.1912 130.754 64.1141 131.396 61.0771C132.039 58.0401 132.625 54.9503 133.956 52.1561C135.288 49.362 137.489 46.8431 140.407 45.8865C143.327 44.9303 146.971 45.9194 148.493 48.6298C150.02 51.3475 149.105 54.76 147.881 57.6141C146.066 61.8488 143.639 65.8113 140.702 69.3394C140.173 69.9759 139.599 70.6643 139.554 71.4971C139.471 72.9966 141.143 74.0186 142.625 74.1098C144.304 74.2131 145.935 73.608 147.599 73.3689C149.263 73.1297 151.2 73.3764 152.217 74.7389C153.627 76.6286 152.448 79.316 151.093 81.2312C148.382 85.0661 145.013 88.4214 141.181 91.1062C139.807 92.068 138.335 92.9829 137.392 94.3788C136.449 95.7753 136.203 97.8319 137.332 99.0921C138.462 100.354 140.49 100.314 142.006 99.5937C143.521 98.8748 144.718 97.6288 146.085 96.6513C148.643 94.8218 152.368 94.0409 154.843 96.014C156.47 97.3114 157.174 99.5325 157.08 101.619C156.987 103.706 156.2 105.692 155.303 107.568C152.168 114.127 147.479 119.985 141.49 124.026C135.503 128.069 129.555 130.314 122.361 129.66Z" fill="#48B04F"/>
<path d="M124.655 138.944C123.793 133.886 123.325 127.767 123.5 120.99C123.661 114.212 124.454 106.797 125.55 99.0691C125.832 97.1388 126.109 95.2309 126.383 93.3506C126.66 91.4743 126.936 89.6134 127.317 87.8107C128.065 84.2003 129.059 80.7861 130.104 77.5747C131.148 74.3614 132.256 71.3504 133.311 68.5432C134.374 65.7364 135.414 63.1391 136.463 60.8123C138.546 56.1482 140.667 52.5929 142.223 50.2115C142.999 49.0173 143.63 48.1111 144.067 47.5027C144.278 47.2127 144.443 46.985 144.568 46.8134C144.682 46.6597 144.744 46.5829 144.749 46.587C144.756 46.5911 144.705 46.6757 144.601 46.8373C144.485 47.014 144.329 47.2493 144.133 47.5486C143.718 48.1716 143.107 49.0915 142.352 50.296C140.838 52.7 138.762 56.2648 136.718 60.9294C135.688 63.2566 134.666 65.8537 133.618 68.6617C132.576 71.4727 131.481 74.4829 130.449 77.6909C129.417 80.8972 128.435 84.3014 127.696 87.893C127.319 89.6866 127.049 91.5311 126.772 93.4122C126.498 95.2913 126.222 97.1982 125.941 99.1279C124.847 106.849 124.045 114.245 123.863 121.002C123.67 127.757 124.107 133.854 124.931 138.899" fill="#455A64"/>
<path d="M127.423 87.7675C127.398 87.7786 127.244 87.4827 126.986 86.9387C126.725 86.396 126.374 85.5981 125.954 84.6064C125.114 82.6239 124.046 79.8463 122.881 76.7796C121.716 73.7114 120.612 70.957 119.744 68.9927C119.312 68.0093 118.955 67.217 118.701 66.6724C118.45 66.126 118.322 65.818 118.346 65.8048C118.371 65.7921 118.544 66.0767 118.837 66.6028C119.134 67.127 119.531 67.9036 119.996 68.8754C120.932 70.8169 122.082 73.566 123.249 76.6373C124.391 79.6665 125.424 82.4065 126.213 84.5003C126.575 85.4439 126.882 86.239 127.127 86.8774C127.341 87.4395 127.448 87.7563 127.423 87.7675Z" fill="#455A64"/>
<path d="M152.705 75.7186C152.713 75.7448 152.346 75.8893 151.678 76.128C151.012 76.3702 150.045 76.7154 148.865 77.1808C146.499 78.0917 143.273 79.4651 139.781 81.1356C136.29 82.8129 133.197 84.4654 130.994 85.7251C129.887 86.3473 129.005 86.8751 128.393 87.2358C127.783 87.5994 127.438 87.7893 127.423 87.7669C127.408 87.7432 127.725 87.5091 128.311 87.1044C128.899 86.7028 129.761 86.1371 130.852 85.4812C133.026 84.1554 136.11 82.4578 139.61 80.7751C143.113 79.1003 146.368 77.7625 148.767 76.9163C149.963 76.484 150.947 76.1772 151.63 75.9802C152.315 75.7867 152.696 75.6921 152.705 75.7186Z" fill="#455A64"/>
<path d="M123.697 120.414C123.687 120.422 123.595 120.327 123.428 120.138C123.236 119.91 123.002 119.632 122.717 119.296C122.103 118.562 121.242 117.478 120.196 116.124C118.102 113.418 115.327 109.589 112.321 105.322C109.315 101.053 106.579 97.2029 104.544 94.4568C103.55 93.1234 102.732 92.0263 102.125 91.2106C101.863 90.8563 101.648 90.5637 101.471 90.3236C101.326 90.1182 101.254 90.0068 101.265 89.9971C101.275 89.9891 101.367 90.0839 101.534 90.2737C101.726 90.5012 101.96 90.778 102.244 91.1144C102.858 91.8481 103.719 92.9326 104.766 94.286C106.86 96.9924 109.635 100.822 112.642 105.091C115.647 109.358 118.383 113.207 120.418 115.955C121.412 117.287 122.23 118.385 122.837 119.2C123.099 119.554 123.314 119.847 123.491 120.087C123.637 120.293 123.708 120.405 123.697 120.414Z" fill="#455A64"/>
<path d="M156.02 99.6164C156.027 99.6288 155.919 99.71 155.707 99.8544C155.455 100.02 155.147 100.225 154.772 100.472C153.906 101.032 152.736 101.787 151.313 102.705C148.392 104.592 144.388 107.245 139.968 110.181C135.546 113.12 131.513 115.738 128.553 117.564C127.073 118.479 125.868 119.206 125.025 119.691C124.635 119.913 124.312 120.096 124.051 120.245C123.826 120.368 123.704 120.426 123.697 120.414C123.69 120.402 123.798 120.321 124.009 120.176C124.261 120.011 124.569 119.807 124.944 119.559C125.811 118.999 126.98 118.244 128.403 117.326C131.324 115.439 135.328 112.786 139.75 109.849C144.171 106.911 148.203 104.293 151.164 102.467C152.644 101.553 153.848 100.825 154.692 100.34C155.082 100.118 155.404 99.9346 155.666 99.7863C155.891 99.6626 156.012 99.6043 156.02 99.6164Z" fill="#455A64"/>
<path d="M78.9175 87.0278C67.864 87.3062 56.6911 87.601 46.0026 90.4319C35.3141 93.2628 24.9928 98.912 18.6518 107.97C11.6697 117.943 10.283 130.692 9.58292 142.847C8.42233 163.006 8.55519 183.261 10.533 203.356C11.5354 213.542 15.1455 223 24.6174 226.878C36.0097 231.542 51.3159 226.878 51.3159 226.878" fill="#263238"/>
<path d="M49.2705 224.451C49.2705 224.451 49.1287 224.438 48.8518 224.431C48.56 224.427 48.151 224.42 47.6226 224.412C46.5262 224.404 44.9364 224.391 42.8967 224.375C40.8449 224.362 38.3305 224.388 35.4503 223.984C34.7338 223.867 33.9852 223.782 33.2329 223.591C32.8545 223.506 32.4701 223.421 32.0798 223.334C31.6939 223.232 31.3073 223.109 30.9117 222.994C30.1139 222.786 29.3355 222.45 28.5204 222.153C27.7353 221.785 26.9091 221.445 26.1321 220.967C24.5528 220.066 23.0042 218.909 21.6936 217.417C20.3845 215.932 19.3284 214.104 18.7708 212.046C17.7088 207.882 17.2617 203.274 17.0953 198.438C16.9423 193.596 16.9968 188.5 16.9535 183.221C16.9296 177.942 16.905 172.476 16.8788 166.878C16.855 161.277 16.7975 155.811 16.9788 150.539C17.1625 145.269 17.5752 140.188 18.4044 135.417C20.0165 125.871 23.3587 117.592 27.6681 111.669C29.8139 108.705 32.1611 106.341 34.2673 104.338C36.3915 102.347 38.3036 100.72 39.8724 99.3986C41.4383 98.0918 42.6586 97.073 43.4997 96.3707C43.9027 96.0288 44.2147 95.7646 44.4371 95.5758C44.6469 95.3952 44.7483 95.2944 44.7483 95.2944C44.7483 95.2944 44.6304 95.3743 44.4125 95.5452C44.1841 95.7266 43.8639 95.9811 43.4505 96.3102C42.5981 96.9998 41.3622 97.9992 39.7762 99.2829C38.1917 100.588 36.2638 102.2 34.1196 104.18C31.9939 106.175 29.6228 108.533 27.4464 111.51C23.0788 117.452 19.6911 125.773 18.0529 135.358C17.2102 140.149 16.7885 145.246 16.5997 150.527C16.4131 155.811 16.4684 161.282 16.4915 166.882C16.5199 172.481 16.5475 177.946 16.5736 183.226C16.6221 188.505 16.5751 193.596 16.7378 198.453C16.9154 203.304 17.3737 207.929 18.4604 212.132C19.0388 214.242 20.1285 216.108 21.4696 217.618C22.8123 219.134 24.3916 220.302 25.997 221.208C26.7874 221.688 27.6248 222.029 28.4212 222.396C29.2466 222.693 30.0355 223.027 30.8416 223.233C31.2409 223.346 31.632 223.468 32.0216 223.568C32.4156 223.653 32.803 223.737 33.1851 223.82C33.9449 224.006 34.6987 224.088 35.4212 224.201C38.3223 224.586 40.8502 224.538 42.8974 224.528C44.9379 224.512 46.5277 224.5 47.6233 224.492C48.1517 224.483 48.5607 224.477 48.8526 224.472C49.1287 224.465 49.2705 224.451 49.2705 224.451Z" fill="#455A64"/>
<path d="M16.715 169.771C16.7412 169.675 15.0268 169.176 12.8392 169.077C10.6517 168.969 8.89776 169.306 8.91493 169.404C8.92836 169.518 10.6733 169.359 12.8206 169.465C14.9678 169.562 16.6912 169.884 16.715 169.771Z" fill="#455A64"/>
<path d="M64.4756 87.6084C64.4756 87.6017 64.3786 87.5995 64.189 87.6002C63.98 87.604 63.7016 87.6092 63.3471 87.6159C62.6075 87.645 61.5118 87.6413 60.1079 87.7383C57.3136 88.0257 53.2378 88.5645 48.4656 90.2229C47.8745 90.4423 47.2692 90.6662 46.6512 90.8961C46.3422 91.0118 46.0295 91.1282 45.7138 91.2461C45.4071 91.385 45.0966 91.526 44.7831 91.6678C44.1562 91.9522 43.5165 92.2418 42.8657 92.5373C42.2119 92.8292 41.5865 93.2061 40.9282 93.5464C38.3003 94.9197 35.6433 96.6706 33.0139 98.7171C30.3845 100.764 27.7879 103.137 25.4026 105.877C23.012 108.606 20.873 111.755 19.2444 115.247C15.9172 122.223 14.4715 129.527 13.7364 136.127C13.0326 142.754 13.0027 148.757 12.9639 153.783C12.9452 158.812 12.9311 162.879 12.8609 165.689C12.8221 167.077 12.7915 168.164 12.7706 168.925C12.7609 169.279 12.7534 169.558 12.7482 169.767C12.7452 169.956 12.7475 170.054 12.7534 170.054C12.7602 170.054 12.7713 169.958 12.7878 169.768C12.8027 169.56 12.8228 169.282 12.849 168.928C12.9012 168.189 12.9572 167.099 13.0124 165.693C13.1288 162.882 13.1856 158.812 13.2393 153.784C13.3132 148.761 13.3722 142.765 14.0931 136.165C14.8454 129.591 16.2964 122.331 19.596 115.414C21.2141 111.947 23.321 108.841 25.6907 106.126C28.0536 103.403 30.6293 101.04 33.2356 98.9985C35.8433 96.9572 38.4764 95.207 41.0827 93.8293C41.7358 93.4882 42.356 93.109 43.0038 92.8165C43.6494 92.5194 44.2838 92.2276 44.9055 91.9418C45.216 91.7985 45.5235 91.6566 45.828 91.5171C46.1407 91.3977 46.4512 91.2797 46.7572 91.1633C47.3707 90.9312 47.9708 90.7036 48.5574 90.4819C53.2923 88.7996 57.3412 88.2219 60.1229 87.8891C61.52 87.7697 62.6127 87.7487 63.3501 87.6943C63.7039 87.6719 63.9823 87.654 64.1905 87.6405C64.3786 87.6256 64.4756 87.6152 64.4756 87.6084Z" fill="#E0E0E0"/>
<path d="M71.3862 87.5823C71.3862 87.5823 68.6747 80.4248 59.0251 81.7802C59.0251 81.7802 54.7232 81.5436 53.9448 83.9334C53.9448 83.9334 62.9331 81.7003 66.7611 87.9211L71.3862 87.5823Z" fill="#263238"/>
<path d="M43.8817 96.3027H49.5339C49.5339 96.3027 50.6303 81.354 64.3325 81.9324C64.3325 81.9324 47.3 76.231 43.8817 96.3027Z" fill="#455A64"/>
<path d="M16.6309 178.888L8.53005 180.015L9.33685 182.895L16.9019 182.312L16.6309 178.888Z" fill="#455A64"/>
<path d="M16.1388 181.5C16.1873 181.461 15.8157 180.898 15.1902 180.044L15.0775 179.89L14.9507 180.044C14.5909 180.482 14.214 180.94 13.8199 181.42L14.0804 181.384C13.8177 181.19 13.5483 180.99 13.2699 180.784C12.9825 180.576 12.7049 180.374 12.4332 180.177L12.278 180.064L12.1697 180.217C11.8063 180.728 11.4615 181.213 11.1308 181.679L11.3406 181.646C10.477 181.07 9.91279 180.732 9.87771 180.782C9.84188 180.831 10.3419 181.258 11.1644 181.891L11.2793 181.98L11.3734 181.859C11.7242 181.407 12.0891 180.937 12.4735 180.442L12.2101 180.482C12.4802 180.682 12.7556 180.885 13.0407 181.097C13.3214 181.3 13.593 181.497 13.8573 181.688L14.0087 181.798L14.1185 181.653C14.4931 181.157 14.8499 180.684 15.1917 180.231H14.9521C15.6321 181.043 16.0903 181.538 16.1388 181.5Z" fill="#E8505B"/>
<path d="M134.433 232.231C134.433 232.231 136.003 227.127 135.689 224.968C135.374 222.808 132.47 220.845 132.47 220.845L135.619 139.004C135.619 139.004 136.028 103.209 117.082 92.0823L105.775 89.2335L77.8825 87.5825C76.9802 87.8833 44.2026 100.212 39.6917 105.024L53.8253 177.195C53.8253 177.195 52.108 198.521 50.3929 213.846C50.0421 216.977 47.6941 232.455 47.6941 232.455L134.433 232.231Z" fill="#F68C22"/>
<path d="M50.9131 209.027C51.1766 211.017 51.9327 213.442 53.8441 214.058C55.7555 214.675 57.8296 214.497 59.8067 214.144C66.7963 212.899 73.2313 209.615 79.5469 206.37C91.3512 200.307 103.264 194.173 113.454 185.672C114.887 184.478 116.417 182.612 115.54 180.967C114.546 179.101 111.75 179.727 109.829 180.612C89.81 189.841 70.931 199.798 50.9131 209.027Z" fill="black" fill-opacity="0.3"/>
<path d="M121.315 94.3125C121.315 94.3125 133.799 98.4786 137.836 110.045C142.297 122.825 145.257 147.634 145.257 147.634L132.922 149.184L121.315 94.3125Z" fill="#F68C22"/>
<path d="M39.6922 105.023C39.6922 105.023 32.9944 113.829 29.7366 124.533C26.4788 135.236 24.6174 166.251 24.6174 166.251L58.2009 165.784L59.9862 138.494C59.9862 138.494 63.3761 92.96 39.6922 105.023Z" fill="#F68C22"/>
<path d="M140.852 121.194C140.852 121.194 140.608 120.815 139.925 120.318C139.255 119.837 137.99 119.326 136.391 119.641C134.763 119.882 133.184 121.159 131.101 121.953C130.071 122.351 128.866 122.658 127.641 122.381C126.413 122.113 125.348 121.235 124.226 120.38C123.659 119.954 123.063 119.511 122.357 119.208C121.664 118.896 120.802 118.793 120.037 119.108C119.257 119.393 118.68 120.049 118.233 120.718C117.771 121.393 117.398 122.126 116.913 122.783C116.439 123.442 115.814 124.014 115.019 124.247C114.236 124.505 113.356 124.444 112.523 124.227C111.683 124.011 110.869 123.634 110.094 123.179C109.321 122.724 108.571 122.166 107.769 121.671C106.97 121.171 106.119 120.7 105.173 120.41C104.233 120.132 103.169 120.064 102.199 120.403C101.225 120.722 100.378 121.324 99.6149 121.98C98.8439 122.633 98.1267 123.348 97.334 123.966C96.5489 124.584 95.6682 125.119 94.677 125.268C93.6986 125.459 92.6626 125.323 91.6991 124.96C89.7571 124.23 88.0442 122.912 86.1365 121.859C85.1797 121.341 84.1848 120.85 83.0974 120.647C82.0197 120.441 80.8763 120.511 79.8605 120.901C77.8252 121.694 76.3183 123.233 74.5114 124.093C74.0658 124.319 73.5956 124.475 73.1224 124.59C72.6455 124.69 72.1574 124.708 71.676 124.681C70.7072 124.615 69.7735 124.29 68.8951 123.885C67.1262 123.086 65.526 121.968 63.7005 121.367C62.7951 121.069 61.8174 120.932 60.88 121.114C59.9351 121.274 59.1089 121.793 58.4253 122.369C57.055 123.515 55.978 124.966 54.4114 125.455C53.6456 125.696 52.8313 125.678 52.0604 125.522C51.2856 125.368 50.5445 125.103 49.8146 124.849C48.3749 124.344 46.865 123.821 45.4037 124.154C44.6782 124.297 44.0498 124.678 43.5079 125.09C42.9653 125.508 42.4892 125.966 42.013 126.385C41.5383 126.807 41.0539 127.185 40.5367 127.466C40.0195 127.744 39.4642 127.907 38.9193 127.988C37.8222 128.145 36.7729 127.972 35.8713 127.676C34.9637 127.379 34.1979 126.938 33.5493 126.492C32.2559 125.587 31.3961 124.694 30.7998 124.113C30.5147 123.828 30.2923 123.605 30.1288 123.442C29.9766 123.291 29.8967 123.216 29.8915 123.22C29.8863 123.225 29.9572 123.309 30.0997 123.469C30.2565 123.639 30.4699 123.871 30.7438 124.168C31.323 124.767 32.1664 125.68 33.4628 126.616C34.1114 127.076 34.8861 127.536 35.8115 127.851C36.731 128.165 37.8073 128.356 38.9492 128.203C39.5172 128.124 40.0993 127.959 40.6449 127.671C41.189 127.382 41.692 126.994 42.1749 126.571C43.1377 125.753 44.096 124.702 45.4634 124.422C46.8225 124.117 48.2756 124.616 49.7153 125.131C50.4445 125.389 51.1946 125.663 51.9999 125.827C52.8 125.993 53.6755 126.023 54.5084 125.762C55.345 125.508 56.0653 124.978 56.7161 124.405C57.3684 123.828 57.9692 123.189 58.6439 122.633C59.3119 122.076 60.0754 121.603 60.9472 121.458C61.8114 121.294 62.7212 121.42 63.59 121.707C65.3417 122.286 66.9381 123.401 68.7413 124.223C69.6392 124.638 70.6117 124.984 71.6484 125.058C72.1626 125.087 72.6895 125.067 73.203 124.96C73.7105 124.839 74.2113 124.672 74.6771 124.437C76.5601 123.533 78.0677 122.006 79.9978 121.264C80.9554 120.9 82.0047 120.838 83.0228 121.029C84.0468 121.219 85.0118 121.692 85.9507 122.201C87.8263 123.233 89.5466 124.563 91.5692 125.325C92.5738 125.703 93.6919 125.855 94.7494 125.647C95.8249 125.482 96.7661 124.904 97.5706 124.266C99.1872 123.004 100.484 121.36 102.314 120.757C103.209 120.442 104.18 120.501 105.071 120.76C105.965 121.032 106.794 121.483 107.581 121.976C108.376 122.463 109.117 123.012 109.92 123.482C110.718 123.947 111.559 124.334 112.441 124.558C113.315 124.783 114.261 124.851 115.123 124.564C115.997 124.305 116.689 123.66 117.176 122.974C117.678 122.286 118.049 121.548 118.494 120.893C118.927 120.238 119.457 119.644 120.149 119.388C120.834 119.103 121.594 119.186 122.249 119.473C122.912 119.753 123.499 120.179 124.064 120.6C125.184 121.438 126.281 122.344 127.591 122.622C128.893 122.904 130.14 122.568 131.183 122.154C133.298 121.321 134.848 120.04 136.422 119.788C137.976 119.46 139.21 119.93 139.884 120.382C140.566 120.85 140.831 121.216 140.852 121.194Z" fill="#FAFAFA"/>
<path d="M144.809 141.373C144.808 141.366 144.696 141.373 144.479 141.392C144.244 141.416 143.924 141.448 143.514 141.49C142.667 141.542 141.412 141.898 139.843 141.396C139.052 141.222 138.162 141.064 137.194 140.898C136.226 140.729 135.18 140.492 134.03 140.357C132.886 140.221 131.605 140.22 130.339 140.624C129.071 140.997 127.84 141.646 126.483 142.101C125.132 142.576 123.603 142.634 122.091 142.228C120.569 141.869 119.076 141.17 117.46 140.609C115.871 140.037 114.026 139.597 112.198 140.1C110.391 140.608 108.935 141.94 107.124 142.383C106.675 142.49 106.213 142.521 105.751 142.48C105.288 142.428 104.828 142.306 104.374 142.151C103.464 141.834 102.584 141.372 101.619 141.038C100.673 140.687 99.5431 140.538 98.5259 140.933C97.5145 141.321 96.7339 142.057 95.9144 142.666C95.5039 142.973 95.0777 143.257 94.6157 143.451C94.156 143.647 93.6566 143.729 93.1529 143.727C92.1378 143.689 91.1482 143.286 90.1824 142.839C89.2129 142.393 88.2307 141.892 87.1388 141.617C86.5894 141.5 86.017 141.426 85.4431 141.501C84.8699 141.567 84.3198 141.767 83.8175 142.03C82.8084 142.562 81.9755 143.301 81.0881 143.905C80.6448 144.208 80.1858 144.477 79.7006 144.665C79.4573 144.756 79.2118 144.84 78.955 144.874L78.5744 144.941L78.187 144.955C77.1488 144.98 76.1256 144.677 75.1426 144.318C74.1545 143.96 73.1865 143.54 72.1729 143.236C71.1691 142.936 70.0757 142.747 69.0278 143.01C67.9665 143.237 67.1059 143.919 66.3768 144.604C65.6423 145.297 64.9766 146.031 64.1944 146.576C63.4197 147.126 62.4868 147.379 61.571 147.323C60.6507 147.265 59.7715 146.925 58.9453 146.526C58.1161 146.123 57.3287 145.651 56.5324 145.21C54.9635 144.341 53.2387 143.536 51.4557 143.742C49.6898 143.949 48.2479 144.926 46.9761 145.841C45.6931 146.764 44.5243 147.744 43.2287 148.351C41.9487 148.982 40.6045 149.307 39.3193 149.413C38.0296 149.492 36.8115 149.363 35.695 149.132C33.4746 148.595 31.7162 147.61 30.4802 146.588C29.2338 145.563 28.5143 144.519 28.0516 143.812C27.8396 143.445 27.7016 143.151 27.5941 142.961C27.4911 142.769 27.4344 142.672 27.4284 142.674C27.4224 142.677 27.4665 142.78 27.5583 142.978C27.6538 143.175 27.7814 143.476 27.9844 143.851C28.4285 144.577 29.1361 145.647 30.3832 146.705C31.6207 147.757 33.3925 148.778 35.6457 149.344C36.7787 149.589 38.0184 149.731 39.3365 149.66C40.6493 149.562 42.03 149.239 43.3488 148.598C44.687 147.978 45.8708 146.994 47.1508 146.084C48.4181 145.179 49.8287 144.247 51.4893 144.063C53.1566 143.874 54.8083 144.638 56.3659 145.508C57.1541 145.948 57.9445 146.425 58.7908 146.841C59.6342 147.251 60.5522 147.615 61.5479 147.68C62.5368 147.747 63.5742 147.464 64.4004 146.876C65.2319 146.299 65.9081 145.552 66.6298 144.875C67.3478 144.202 68.1486 143.58 69.1121 143.377C70.0652 143.136 71.0877 143.307 72.0632 143.601C73.0454 143.896 74.0082 144.315 75.0105 144.679C76.0077 145.043 77.072 145.367 78.1945 145.341L78.6132 145.326L79.0289 145.253C79.308 145.215 79.5782 145.124 79.8402 145.025C80.3656 144.822 80.8493 144.536 81.306 144.225C82.2181 143.601 83.045 142.872 83.9959 142.373C84.4691 142.125 84.9714 141.945 85.4893 141.886C86.008 141.817 86.5342 141.885 87.0485 141.993C88.0777 142.251 89.0419 142.738 90.0212 143.189C90.9951 143.638 92.0281 144.067 93.1432 144.11C93.6969 144.113 94.2575 144.019 94.7635 143.803C95.2703 143.589 95.7203 143.286 96.142 142.97C96.9802 142.339 97.7422 141.633 98.658 141.284C99.5693 140.931 100.578 141.052 101.497 141.388C102.426 141.706 103.311 142.168 104.253 142.495C104.726 142.655 105.212 142.785 105.713 142.839C106.216 142.884 106.724 142.848 107.205 142.732C109.142 142.239 110.581 140.903 112.292 140.429C114.007 139.95 115.776 140.352 117.354 140.914C118.953 141.46 120.459 142.158 122.02 142.519C123.564 142.93 125.191 142.86 126.57 142.362C127.954 141.886 129.175 141.233 130.41 140.86C131.638 140.46 132.874 140.45 134.006 140.574C135.141 140.696 136.188 140.922 137.162 141.081C138.136 141.237 139.021 141.383 139.813 141.545C140.21 141.621 140.581 141.71 140.941 141.762C141.304 141.815 141.648 141.795 141.958 141.767C142.581 141.702 143.102 141.625 143.524 141.568C143.932 141.511 144.25 141.465 144.484 141.433C144.7 141.4 144.809 141.38 144.809 141.373Z" fill="#FAFAFA"/>
<path d="M132.383 158.973C132.383 158.967 132.307 158.97 132.161 158.981C131.993 158.998 131.779 159.02 131.512 159.046C130.943 159.108 130.105 159.218 129.029 159.379C126.876 159.676 123.784 160.316 119.92 160.635C117.986 160.798 115.869 160.783 113.598 160.522C112.461 160.418 111.261 160.314 110.025 160.492C109.41 160.582 108.79 160.75 108.205 161.028C107.619 161.306 107.092 161.688 106.582 162.086C105.566 162.871 104.602 163.821 103.361 164.196C102.747 164.39 102.089 164.355 101.452 164.182C100.813 164.002 100.196 163.7 99.5595 163.407C98.9214 163.118 98.2556 162.812 97.5078 162.717C96.7666 162.599 95.9621 162.786 95.3269 163.189C94.0387 163.973 93.1939 165.278 91.8773 165.834C90.5562 166.412 89.0651 166.051 87.7134 165.651C86.3431 165.245 84.9788 164.709 83.5211 164.678C82.8002 164.671 82.0665 164.803 81.4217 165.113C80.7746 165.416 80.2155 165.841 79.6976 166.28C78.6661 167.155 77.7563 168.129 76.6211 168.651C75.4912 169.199 74.2134 169.039 73.0857 168.66C71.9385 168.301 70.8824 167.744 69.7323 167.483C68.6068 167.232 67.3962 167.203 66.3939 167.731C65.9013 167.994 65.4968 168.409 65.2557 168.885C65.0124 169.359 64.8892 169.851 64.7332 170.304C64.5832 170.758 64.3877 171.175 64.0899 171.499C63.7951 171.824 63.4167 172.052 63.0204 172.188C62.218 172.459 61.3754 172.389 60.6589 172.175C59.9342 171.953 59.3438 171.549 58.8878 171.083C58.4251 170.624 58.0847 170.126 57.8093 169.664C57.2667 168.73 56.9734 167.935 56.7585 167.406C56.66 167.157 56.5816 166.957 56.5204 166.8C56.4652 166.664 56.4346 166.596 56.4278 166.598C56.4219 166.6 56.4405 166.673 56.4831 166.814C56.5353 166.974 56.6017 167.178 56.6853 167.433C56.8779 167.971 57.1481 168.779 57.6787 169.739C57.9489 170.215 58.287 170.731 58.7572 171.213C59.2162 171.699 59.8387 172.14 60.5947 172.381C61.3441 172.616 62.2285 172.705 63.1002 172.422C63.5316 172.278 63.9518 172.034 64.2832 171.675C64.6198 171.318 64.8362 170.858 64.9937 170.394C65.1572 169.93 65.284 169.451 65.5109 169.019C65.7341 168.589 66.0924 168.23 66.5357 167.996C67.4358 167.527 68.5822 167.548 69.6606 167.798C70.7473 168.047 71.8064 168.609 72.9804 168.986C73.5656 169.18 74.1888 169.327 74.8388 169.356C75.4882 169.38 76.1621 169.258 76.7689 168.977C77.9944 168.415 78.9221 167.414 79.9372 166.563C80.4447 166.134 80.9813 165.732 81.5806 165.453C82.177 165.169 82.8405 165.052 83.5137 165.058C84.875 165.087 86.2155 165.605 87.6015 166.02C88.2978 166.228 89.015 166.42 89.7666 166.494C90.5122 166.568 91.3123 166.513 92.0288 166.19C93.4857 165.556 94.3328 164.228 95.5255 163.519C96.1106 163.152 96.7898 162.995 97.4578 163.096C98.1287 163.179 98.7684 163.466 99.3998 163.751C100.032 164.04 100.666 164.351 101.351 164.543C102.034 164.73 102.788 164.767 103.464 164.551C104.832 164.125 105.803 163.137 106.802 162.366C107.302 161.973 107.809 161.604 108.356 161.342C108.902 161.079 109.487 160.917 110.075 160.828C111.256 160.652 112.435 160.744 113.569 160.841C115.842 161.09 118.003 161.09 119.942 160.908C123.829 160.551 126.908 159.87 129.053 159.527C130.104 159.355 130.931 159.219 131.523 159.122C131.788 159.08 132 159.046 132.166 159.02C132.311 158.996 132.385 158.98 132.383 158.973Z" fill="#FAFAFA"/>
<path d="M133.426 208.748C133.428 208.741 133.354 208.711 133.206 208.66C133.039 208.601 132.823 208.526 132.552 208.431C131.977 208.23 131.133 207.924 130.03 207.565C128.926 207.223 127.571 206.764 125.91 206.606C125.072 206.515 124.163 206.726 123.289 207.041C122.405 207.344 121.494 207.742 120.489 207.839C119.483 207.939 118.442 207.612 117.427 207.149C116.405 206.697 115.362 206.106 114.138 205.829C112.909 205.549 111.592 205.72 110.332 206.05C109.066 206.388 107.821 206.885 106.52 207.266C105.229 207.65 103.834 207.905 102.468 207.616C101.098 207.33 99.8188 206.595 98.4209 206.04C97.7223 205.763 96.9699 205.537 96.1773 205.509C95.3869 205.473 94.5719 205.692 93.8927 206.109C92.5269 206.919 91.5499 208.245 90.1214 208.776C89.4169 209.03 88.6474 209.013 87.9174 208.827C87.1838 208.645 86.4815 208.33 85.7821 208.017C85.0821 207.703 84.3797 207.376 83.6296 207.164C82.8863 206.951 82.0631 206.876 81.3048 207.115C80.5345 207.333 79.9248 207.856 79.406 208.376C78.8821 208.901 78.4201 209.456 77.8887 209.905C76.855 210.865 75.3877 210.992 74.0913 210.699C72.7717 210.44 71.5298 209.926 70.264 209.592C69.6266 209.441 68.9877 209.286 68.3339 209.301C67.6891 209.295 67.0241 209.419 66.4762 209.752C65.9001 210.037 65.4694 210.524 65.1254 211.009C64.7835 211.504 64.5134 212.018 64.235 212.505C63.6983 213.475 63.0326 214.374 62.0661 214.677C61.1227 214.994 60.1144 214.787 59.3038 214.392C58.4821 213.997 57.7947 213.441 57.2625 212.835C56.2162 211.595 55.6624 210.261 55.1063 209.252C54.5727 208.223 54.0838 207.459 53.7017 206.98C53.3188 206.502 53.0703 206.295 53.0703 206.295C53.0554 206.309 53.28 206.538 53.639 207.027C53.9973 207.517 54.46 208.285 54.9713 209.321C55.5079 210.34 56.0333 211.68 57.0983 212.977C57.6409 213.61 58.3418 214.193 59.1963 214.615C60.0375 215.034 61.1107 215.276 62.1534 214.937C63.2222 214.612 63.9499 213.626 64.494 212.655C65.0589 211.693 65.5792 210.573 66.63 210.034C67.648 209.429 68.9594 209.602 70.1752 209.923C71.4141 210.254 72.6523 210.775 74.0219 211.05C74.7003 211.194 75.4273 211.261 76.149 211.13C76.5162 211.093 76.8565 210.935 77.2051 210.807C77.5394 210.64 77.8454 210.425 78.1283 210.188C78.6933 209.712 79.162 209.149 79.6718 208.642C80.1778 208.137 80.7383 207.667 81.416 207.48C82.0869 207.27 82.8221 207.332 83.5259 207.533C84.2342 207.733 84.9223 208.053 85.6232 208.368C86.3247 208.683 87.0435 209.009 87.8249 209.203C88.5989 209.402 89.4661 209.426 90.2535 209.141C91.8313 208.538 92.8061 207.188 94.0898 206.441C94.7227 206.054 95.4407 205.864 96.1654 205.893C96.8893 205.916 97.6006 206.124 98.282 206.394C99.6464 206.929 100.942 207.677 102.393 207.979C103.851 208.282 105.313 208.003 106.622 207.609C107.945 207.215 109.182 206.715 110.421 206.378C111.653 206.05 112.908 205.885 114.07 206.142C115.232 206.396 116.267 206.969 117.307 207.422C118.337 207.883 119.441 208.227 120.515 208.112C121.581 207.998 122.5 207.58 123.371 207.274C124.241 206.952 125.085 206.746 125.896 206.822C127.516 206.955 128.88 207.389 129.986 207.709C131.07 208.048 131.922 208.315 132.528 208.504C132.805 208.584 133.025 208.647 133.195 208.696C133.346 208.737 133.424 208.754 133.426 208.748Z" fill="#FAFAFA"/>
<path d="M91.5006 190.261C91.4938 190.273 91.6394 190.366 91.9245 190.534C92.2126 190.695 92.6499 190.914 93.2396 191.134C94.4083 191.573 96.2496 191.991 98.5028 191.676C99.0611 191.587 99.644 191.467 100.232 191.274C100.822 191.084 101.41 190.817 102.007 190.566C102.604 190.324 103.247 190.114 103.903 190.178C104.562 190.237 105.19 190.566 105.78 190.984C106.373 191.402 106.949 191.902 107.629 192.318C107.969 192.526 108.343 192.699 108.747 192.808C108.948 192.869 109.157 192.888 109.368 192.902C109.579 192.934 109.788 192.908 110 192.888C111.707 192.67 113.064 191.544 114.548 190.793C115.285 190.409 116.078 190.111 116.849 190.203L117.135 190.24C117.227 190.261 117.316 190.302 117.406 190.331C117.592 190.384 117.761 190.47 117.925 190.569C118.248 190.776 118.533 191.047 118.801 191.334C119.339 191.908 119.797 192.57 120.44 193.077C120.759 193.327 121.141 193.526 121.555 193.589C121.964 193.653 122.388 193.586 122.752 193.414C123.483 193.053 123.927 192.416 124.331 191.848C124.73 191.267 125.089 190.694 125.518 190.225C126.382 189.295 127.621 188.912 128.692 188.96C129.786 188.985 130.674 189.529 131.374 190.04C132.074 190.563 132.59 191.131 132.925 191.645C133.622 192.689 133.475 193.448 133.526 193.433C133.526 193.433 133.581 193.261 133.546 192.928C133.518 192.597 133.384 192.108 133.053 191.564C132.726 191.021 132.213 190.423 131.506 189.868C130.807 189.331 129.88 188.734 128.705 188.686C127.565 188.618 126.237 189.003 125.283 190.005C124.818 190.503 124.45 191.086 124.051 191.652C123.653 192.21 123.215 192.797 122.6 193.089C121.986 193.388 121.224 193.256 120.668 192.785C120.09 192.329 119.636 191.676 119.08 191.076C118.801 190.776 118.497 190.481 118.131 190.245C117.944 190.131 117.748 190.031 117.536 189.969C117.431 189.934 117.329 189.89 117.221 189.864L116.891 189.819C115.992 189.716 115.132 190.054 114.372 190.448C112.847 191.231 111.501 192.319 109.959 192.511C109.199 192.606 108.46 192.399 107.822 192C107.178 191.612 106.602 191.12 105.987 190.691C105.376 190.263 104.685 189.899 103.935 189.838C103.185 189.774 102.494 190.016 101.886 190.268C101.275 190.533 100.71 190.799 100.14 190.989C99.5716 191.184 99.0066 191.308 98.464 191.405C96.2735 191.746 94.4591 191.381 93.2918 190.991C92.1096 190.599 91.52 190.222 91.5006 190.261Z" fill="#FAFAFA"/>
<path d="M132.695 228.688C132.692 228.682 132.615 228.703 132.469 228.75C132.39 228.776 132.3 228.805 132.198 228.839C132.088 228.861 131.956 228.873 131.809 228.895C131.217 228.968 130.332 228.798 129.311 228.289C128.274 227.833 127.112 226.984 125.485 226.603C125.078 226.514 124.642 226.5 124.194 226.541C123.749 226.606 123.308 226.759 122.887 226.973C122.045 227.405 121.305 228.064 120.486 228.658C119.679 229.251 118.707 229.773 117.623 229.673C116.543 229.588 115.516 229.007 114.416 228.515C113.863 228.268 113.276 228.039 112.64 227.928C112.004 227.815 111.341 227.846 110.699 227.968C109.407 228.208 108.19 228.763 106.904 229.112C105.626 229.497 104.244 229.478 102.882 229.173C101.516 228.883 100.176 228.346 98.8004 227.821C97.4264 227.3 95.9979 226.761 94.4537 226.57C92.9147 226.333 91.2832 226.645 89.8502 227.297C88.4 227.926 87.0782 228.735 85.687 229.296C84.307 229.866 82.8076 230.095 81.4231 229.691C78.6355 228.891 76.6002 226.633 73.9499 225.759C72.6438 225.294 71.1974 225.316 69.9614 225.739C68.7053 226.132 67.632 226.817 66.62 227.467C65.6109 228.128 64.666 228.801 63.7025 229.347C62.7434 229.901 61.7568 230.292 60.7731 230.519C58.793 230.95 56.9167 230.742 55.3777 230.292C53.8313 229.832 52.6162 229.109 51.7206 228.418C49.9204 227.003 49.3897 225.778 49.33 225.832C49.324 225.835 49.3628 225.904 49.4427 226.036C49.5367 226.185 49.6569 226.377 49.8084 226.619C50.1749 227.096 50.7175 227.821 51.6265 228.536C52.5207 229.256 53.7447 230.011 55.3143 230.5C56.8771 230.978 58.7915 231.213 60.8313 230.788C61.8433 230.563 62.8711 230.165 63.8495 229.608C64.834 229.059 65.7886 228.388 66.7954 227.737C67.803 227.097 68.8613 226.433 70.0636 226.065C71.2511 225.668 72.5908 225.654 73.8357 226.099C75.0933 226.518 76.2479 227.291 77.4324 228.06C78.6154 228.828 79.8565 229.649 81.3231 230.058C82.7934 230.492 84.4145 230.242 85.8311 229.654C87.2633 229.076 88.5874 228.266 90.0039 227.653C91.4093 227.017 92.9244 226.729 94.4059 226.953C95.8881 227.133 97.2935 227.658 98.6653 228.175C100.037 228.696 101.395 229.238 102.805 229.535C104.202 229.848 105.677 229.861 106.998 229.457C108.32 229.091 109.525 228.537 110.761 228.304C111.376 228.184 111.994 228.153 112.586 228.256C113.177 228.356 113.742 228.571 114.286 228.809C115.372 229.284 116.427 229.884 117.602 229.972C118.79 230.073 119.839 229.488 120.649 228.88C121.478 228.267 122.202 227.612 123.002 227.192C123.401 226.984 123.813 226.838 124.227 226.77C124.644 226.729 125.054 226.735 125.444 226.816C127.007 227.157 128.193 227.983 129.249 228.425C130.289 228.919 131.214 229.074 131.819 228.971C131.969 228.942 132.103 228.924 132.214 228.895C132.316 228.854 132.405 228.817 132.483 228.786C132.627 228.727 132.698 228.694 132.695 228.688Z" fill="#FAFAFA"/>
<path d="M130.851 100.36C130.831 100.343 130.632 100.629 130.126 101.033C129.621 101.432 128.77 101.913 127.561 102.154C126.355 102.416 124.842 102.412 123.093 102.242C122.218 102.172 121.276 102.083 120.27 102.097C119.267 102.112 118.184 102.239 117.133 102.658C116.082 103.069 115.097 103.709 114.043 104.278C113.515 104.561 112.966 104.826 112.381 105.015C111.797 105.2 111.175 105.298 110.538 105.32C109.258 105.37 107.936 105.114 106.573 104.867C105.213 104.623 103.769 104.365 102.272 104.542C100.76 104.712 99.3814 105.482 98.0828 106.276C96.7796 107.064 95.44 107.922 93.901 108.135C93.1375 108.227 92.353 108.169 91.5843 107.979C90.8178 107.776 90.0692 107.473 89.3273 107.134C87.8421 106.461 86.3822 105.595 84.7 105.164C83.8625 104.951 82.9826 104.882 82.1258 105.009C81.2705 105.15 80.4726 105.487 79.7457 105.896C78.2918 106.718 77.0469 107.783 75.6265 108.439C74.2145 109.104 72.6382 109.23 71.1492 108.992C69.652 108.784 68.2287 108.297 66.83 107.874C65.4321 107.439 64.0447 107.036 62.6475 106.862C61.2488 106.682 59.8621 106.815 58.5851 107.116C56.0177 107.727 53.8338 108.839 51.7776 109.632C49.7528 110.54 47.7391 110.709 45.9979 110.547C44.2589 110.39 42.7938 109.962 41.672 109.463C39.3949 108.447 38.659 107.155 38.6135 107.224C38.6135 107.224 38.7904 107.523 39.2501 107.99C39.7002 108.466 40.4824 109.064 41.6093 109.601C42.7371 110.128 44.2149 110.584 45.9785 110.764C46.8592 110.858 47.8138 110.858 48.8146 110.74C49.8207 110.634 50.8514 110.295 51.8776 109.889C53.9518 109.107 56.1393 108.014 58.6568 107.431C59.9106 107.144 61.2496 107.022 62.6057 107.202C63.9641 107.378 65.3299 107.778 66.7233 108.217C68.1198 108.645 69.552 109.142 71.0962 109.362C72.6247 109.611 74.301 109.486 75.787 108.786C77.2708 108.101 78.5224 107.03 79.9345 106.235C80.639 105.84 81.3929 105.526 82.187 105.395C82.9833 105.278 83.8043 105.341 84.6037 105.543C86.2098 105.953 87.6607 106.806 89.1646 107.488C89.9177 107.831 90.6872 108.143 91.4895 108.354C92.2948 108.553 93.1337 108.616 93.9517 108.515C95.6034 108.28 96.9782 107.38 98.2746 106.596C99.571 105.798 100.889 105.064 102.315 104.899C105.188 104.585 107.885 105.775 110.549 105.644C111.211 105.618 111.864 105.512 112.476 105.314C113.086 105.111 113.65 104.834 114.185 104.544C115.251 103.958 116.218 103.32 117.233 102.916C119.276 102.101 121.341 102.358 123.075 102.46C124.826 102.611 126.374 102.594 127.592 102.304C128.817 102.035 129.678 101.521 130.174 101.095C130.674 100.662 130.851 100.36 130.851 100.36Z" fill="#FAFAFA"/>
<path d="M74.8733 108.946L64.3326 116.236C67.68 124.542 64.5826 136.072 61.6778 145.508C60.5478 149.178 56.8101 153.003 56.9922 156.839C57.1743 160.675 53.9605 167.2 57.6766 168.171C60.1411 168.814 62.8167 167.975 64.8662 166.462C66.9157 164.95 68.4285 162.829 69.7682 160.662C77.1713 148.689 80.6254 125.789 74.8733 108.946Z" fill="black" fill-opacity="0.3"/>
<path d="M130.343 222.336C130.34 222.324 130.202 222.339 129.941 222.383C129.639 222.438 129.263 222.506 128.807 222.59C127.769 222.788 126.359 223.057 124.644 223.383C121.128 224.043 116.258 224.89 110.852 225.645C105.445 226.396 100.529 226.914 96.9659 227.241C95.2261 227.395 93.7976 227.523 92.7453 227.616C92.2833 227.661 91.9034 227.697 91.5974 227.726C91.3354 227.756 91.1981 227.778 91.1988 227.791C91.1996 227.805 91.3384 227.809 91.6018 227.805C91.9093 227.794 92.29 227.782 92.7542 227.767C93.7551 227.728 95.2015 227.644 96.9883 227.514C100.56 227.258 105.489 226.782 110.905 226.029C116.32 225.273 121.189 224.383 124.696 223.653C126.449 223.289 127.864 222.974 128.837 222.738C129.288 222.625 129.658 222.533 129.957 222.459C130.213 222.392 130.346 222.349 130.343 222.336Z" fill="#263238"/>
<path d="M113.943 220.391C113.94 220.379 113.725 220.425 113.323 220.524C112.918 220.612 112.336 220.804 111.562 220.951C110.031 221.304 107.777 221.679 104.971 221.8C102.168 221.927 98.805 221.716 95.1852 220.898C91.5692 220.087 87.715 218.608 84.0721 216.362C80.4523 214.076 77.431 211.262 75.1136 208.369C72.788 205.475 71.1214 202.546 70.0048 199.972C68.8816 197.399 68.2285 195.209 67.8725 193.678C67.665 192.919 67.5822 192.312 67.4829 191.909C67.3956 191.504 67.3433 191.291 67.3299 191.293C67.3165 191.296 67.3434 191.512 67.4053 191.923C67.4799 192.331 67.5389 192.944 67.7247 193.712C68.0367 195.259 68.6525 197.474 69.7526 200.081C70.8452 202.688 72.5021 205.659 74.8345 208.592C77.1579 211.525 80.2052 214.379 83.8661 216.691C87.5501 218.964 91.4513 220.447 95.1061 221.247C98.7655 222.054 102.161 222.237 104.983 222.075C107.808 221.917 110.069 221.498 111.597 221.099C112.368 220.929 112.945 220.712 113.345 220.6C113.742 220.475 113.948 220.404 113.943 220.391Z" fill="#263238"/>
<path d="M107.328 89.1985C107.314 89.1992 107.309 89.3843 107.312 89.7366C107.315 90.1269 107.319 90.6389 107.323 91.2763C107.305 92.6048 107.338 94.5647 106.756 96.868C106.444 98.0039 105.977 99.2376 105.141 100.343C104.337 101.468 103.17 102.43 101.802 103.177C100.433 103.927 98.8632 104.47 97.1958 104.826C95.5299 105.194 93.7603 105.378 91.9512 105.332C88.3314 105.26 84.9138 104.252 82.2591 102.592C79.5812 100.951 77.7623 98.6532 76.6928 96.5515C75.6218 94.4266 75.3061 92.4861 75.2404 91.1658C75.1926 89.8358 75.3307 89.1014 75.2822 89.0962C75.2687 89.094 75.2367 89.2761 75.1859 89.6261C75.1232 89.9747 75.0941 90.4971 75.0889 91.1703C75.1083 92.5085 75.3867 94.4923 76.4465 96.6739C77.5041 98.8309 79.3378 101.198 82.0687 102.895C84.7713 104.609 88.2583 105.647 91.9415 105.72C93.7828 105.767 95.5829 105.578 97.2764 105.198C98.9714 104.83 100.572 104.27 101.974 103.49C103.373 102.715 104.577 101.708 105.4 100.532C106.256 99.3765 106.719 98.0994 107.021 96.9351C107.58 94.5752 107.5 92.6056 107.472 91.2733C107.449 90.6038 107.415 90.0844 107.388 89.7328C107.363 89.3821 107.341 89.1985 107.328 89.1985Z" fill="#263238"/>
<path d="M111.889 90.4971C111.889 90.4971 130.05 91.1852 134.361 109.32C139.353 130.325 136.341 153.482 130.064 165.078L129.769 144.42C129.565 130.084 126.113 115.981 119.675 103.17L111.889 90.4971Z" fill="#455A64"/>
<path d="M133.233 150.106C133.247 150.107 133.262 149.889 133.28 149.474C133.294 149.024 133.313 148.419 133.337 147.658C133.365 146.869 133.383 145.903 133.348 144.782C133.32 143.661 133.327 142.382 133.22 140.975C133.177 140.269 133.133 139.531 133.086 138.763C133.036 137.994 132.937 137.197 132.86 136.37C132.722 134.715 132.453 132.96 132.194 131.111C131.599 127.425 130.767 123.398 129.611 119.245C128.425 115.098 127.03 111.229 125.611 107.775C124.865 106.063 124.178 104.426 123.43 102.942C123.064 102.197 122.732 101.467 122.373 100.784C122.011 100.105 121.663 99.4522 121.331 98.8282C120.686 97.5714 120.012 96.4854 119.45 95.5159C118.894 94.5419 118.375 93.7277 117.938 93.0701C117.52 92.4342 117.188 91.9282 116.941 91.5521C116.709 91.2072 116.582 91.0304 116.57 91.0378C116.559 91.0453 116.664 91.2371 116.875 91.5946C117.107 91.9805 117.418 92.4984 117.81 93.15C118.226 93.8195 118.726 94.6435 119.262 95.6256C119.805 96.6041 120.461 97.6968 121.089 98.9581C121.413 99.5843 121.752 100.239 122.105 100.92C122.457 101.604 122.781 102.335 123.139 103.081C123.872 104.566 124.546 106.202 125.279 107.912C126.676 111.362 128.055 115.219 129.236 119.35C130.388 123.488 131.227 127.496 131.839 131.167C132.107 133.008 132.387 134.755 132.538 136.404C132.622 137.227 132.729 138.02 132.786 138.786C132.842 139.552 132.895 140.287 132.945 140.99C133.069 142.394 133.081 143.668 133.129 144.786C133.184 145.904 133.189 146.868 133.184 147.656C133.191 148.417 133.196 149.022 133.2 149.471C133.209 149.888 133.22 150.106 133.233 150.106Z" fill="#263238"/>
<path d="M124.926 95.0901C124.914 95.0968 124.989 95.2639 125.144 95.5767C125.319 95.9215 125.548 96.373 125.835 96.935C126.456 98.1023 127.292 99.8256 128.27 101.976C128.738 103.06 129.283 104.235 129.771 105.536C130.02 106.184 130.299 106.846 130.548 107.542C130.792 108.241 131.044 108.959 131.301 109.696C132.284 112.658 133.212 115.968 133.928 119.499C135.331 126.577 135.62 133.131 135.608 137.853C135.594 140.217 135.546 142.13 135.479 143.451C135.456 144.081 135.438 144.587 135.424 144.974C135.416 145.322 135.418 145.506 135.432 145.507C135.445 145.508 135.469 145.326 135.503 144.979C135.535 144.593 135.577 144.088 135.629 143.46C135.743 142.14 135.833 140.224 135.882 137.855C135.964 133.123 135.719 126.537 134.308 119.423C133.59 115.874 132.646 112.55 131.639 109.58C131.375 108.842 131.118 108.123 130.867 107.423C130.611 106.726 130.324 106.063 130.068 105.415C129.565 104.114 129.003 102.942 128.517 101.861C127.505 99.7182 126.629 98.0105 125.966 96.8634C125.654 96.3148 125.403 95.8752 125.211 95.5386C125.036 95.2378 124.938 95.0833 124.926 95.0901Z" fill="#263238"/>
<path d="M53.2209 97.4842C53.2209 97.4842 65.4193 130.687 56.4272 158.711L55.9369 168.616C55.9369 168.616 62.8145 168.148 68.0173 158.319C73.2201 148.491 74.9054 138.348 76.669 123.73C78.4334 109.113 70.4213 90.4961 70.4213 90.4961C70.4213 90.4961 56.2138 93.6091 53.2209 97.4842Z" fill="#455A64"/>
<path d="M55.6164 167.805C55.6194 167.811 55.6798 167.782 55.7948 167.72C55.9284 167.645 56.0948 167.552 56.3008 167.435C56.7359 167.169 57.3524 166.728 58.048 166.047C59.4511 164.696 60.9647 162.219 61.9134 158.877C62.4097 157.215 62.7896 155.349 63.1083 153.343C63.4576 151.339 63.7404 149.184 63.9979 146.912C64.4928 142.367 64.7525 137.334 64.6368 132.057C64.5263 126.778 64.0449 121.761 63.3493 117.242C62.6522 112.722 61.8044 108.684 60.811 105.365C59.828 102.042 58.6436 99.4799 57.683 97.8006C57.2016 96.961 56.7904 96.331 56.4963 95.9153C56.3575 95.725 56.2455 95.5705 56.1552 95.4466C56.0769 95.3421 56.0336 95.2914 56.0284 95.2951C56.0231 95.2988 56.0552 95.3578 56.1224 95.4697C56.2038 95.5989 56.3053 95.7601 56.4307 95.9586C56.7031 96.387 57.0919 97.0266 57.5502 97.8737C58.4645 99.5672 59.6026 102.127 60.5468 105.443C61.5006 108.752 62.3194 112.787 62.9948 117.295C63.6688 121.804 64.1375 126.804 64.2479 132.066C64.3629 137.324 64.1158 142.341 63.6419 146.874C63.3949 149.14 63.1254 151.29 62.7903 153.29C62.4858 155.295 62.1246 157.147 61.6492 158.801C60.7416 162.122 59.2892 164.577 57.9398 165.942C56.5964 167.321 55.5768 167.751 55.6164 167.805Z" fill="#263238"/>
<path d="M56.0718 167.468C56.0741 167.474 56.142 167.451 56.2726 167.399C56.4226 167.337 56.6122 167.258 56.8488 167.159C57.3384 166.913 58.0639 166.542 58.8998 165.913C60.5888 164.677 62.6203 162.358 64.4541 159.113C66.223 155.844 68.2531 151.88 69.7973 147.198C71.3877 142.541 72.6655 137.253 73.323 131.609C73.9873 125.963 73.9686 120.523 73.5186 115.623C73.1096 110.711 72.1117 106.37 71.1594 102.779C70.6265 100.996 70.1846 99.3716 69.6383 97.9961C69.1248 96.6101 68.7225 95.4025 68.2725 94.4629C67.859 93.5337 67.5336 92.8015 67.2992 92.2753C67.1917 92.044 67.1059 91.8581 67.0373 91.7111C66.9761 91.585 66.9417 91.5215 66.9357 91.5245C66.9298 91.5275 66.9522 91.5962 67.0007 91.7275C67.0596 91.879 67.1343 92.0693 67.2268 92.3074C67.4448 92.8396 67.747 93.58 68.1314 94.5196C68.5591 95.466 68.9397 96.6788 69.4316 98.067C69.957 99.4448 70.3787 101.07 70.8929 102.851C71.8072 106.437 72.773 110.765 73.1603 115.655C73.5887 120.534 73.5962 125.946 72.9349 131.563C72.2811 137.179 71.0205 142.442 69.4562 147.081C67.9388 151.747 65.9431 155.706 64.2131 158.977C62.4196 162.219 60.447 164.533 58.805 165.792C57.9922 166.433 57.2862 166.822 56.8115 167.089C56.5831 167.202 56.4003 167.291 56.2547 167.363C56.1323 167.426 56.0696 167.462 56.0718 167.468Z" fill="#263238"/>
<path d="M61.8531 110.054L53.9447 112.141L55.0904 114.905L62.5308 113.421L61.8531 110.054Z" fill="#263238"/>
<path d="M61.6771 112.705C61.7212 112.661 61.2846 112.147 60.5613 111.374L60.4307 111.234L60.3233 111.402C60.018 111.88 59.6993 112.379 59.3649 112.903L59.6194 112.837C59.3358 112.676 59.044 112.509 58.7432 112.338C58.4335 112.166 58.1335 111.999 57.8401 111.836L57.6722 111.743L57.5827 111.907C57.2834 112.458 56.999 112.981 56.7258 113.483L56.9296 113.426C56.0034 112.957 55.4033 112.689 55.3735 112.743C55.3444 112.796 55.8914 113.16 56.7833 113.691L56.9087 113.765L56.9878 113.633C57.2819 113.143 57.5879 112.632 57.9103 112.095L57.6536 112.166C57.9454 112.332 58.2439 112.502 58.5521 112.677C58.8544 112.845 59.1478 113.008 59.4336 113.167L59.5971 113.258L59.6888 113.101C60.0016 112.564 60.2994 112.052 60.5845 111.562L60.3464 111.59C61.1189 112.313 61.6338 112.749 61.6771 112.705Z" fill="#E8505B"/>
<path d="M126.662 157.486L135.274 141.598H161.472L162.302 143.174L140.126 180.046L115.019 181.257L126.662 157.486Z" fill="#455A64"/>
<path d="M26.7701 166.252V194.021C26.7701 199.089 29.0479 203.89 32.9752 207.095C37.7593 210.999 44.2951 211.979 50.0144 209.649L111.155 182.552L105.166 162.158L55.9785 178.371L56.0352 165.729L26.7701 166.252Z" fill="#FFBE9D"/>
<path d="M127.492 159.063L136.105 143.174H162.302L140.956 181.622L115.85 182.833L127.492 159.063Z" fill="#263238"/>
<path d="M102.762 164.344L106.907 159.202C109.636 155.815 113.751 153.847 118.099 153.847H121.718L124.188 156.626C124.188 156.626 141.906 157.398 142.559 159.583L142.574 160.288L142.583 160.701L127.429 161.72C127.429 161.72 140.321 161.679 141.092 161.708C141.941 161.739 144.689 161.492 144.633 163.004C144.587 164.248 143.116 165.228 140.887 165.554C139.971 165.688 128.805 166.658 128.805 166.658C128.805 166.658 140.529 166.546 141.096 166.543C142.474 166.537 142.3 168.746 141.481 169.023C140.834 169.241 125.091 173.835 125.091 173.835C125.091 173.835 127.738 175.611 129.899 175.456C132.06 175.302 135.765 172.523 136.536 173.835C137.308 175.147 137.153 175.919 136.691 176.228C136.228 176.537 131.134 179.16 129.436 179.624C127.738 180.087 113.877 182.281 113.877 182.281L108.873 183.087L102.762 164.344Z" fill="#FFBE9D"/>
<path d="M158.641 149.371C158.641 149.371 161.382 150.326 159.987 153.846C157.946 158.999 154.427 162.648 154.427 162.648C154.427 162.648 154.913 164.468 153.336 165.802C153.336 165.802 155.277 166.287 154.064 169.562C154.064 169.562 155.398 172.958 151.759 174.413C151.759 174.413 152.73 177.203 149.212 178.537C145.694 179.871 142.299 177.564 142.299 177.564L158.641 149.371Z" fill="#FFBE9D"/>
<path d="M153.083 162.381C150.593 163.053 147.857 163.588 145.555 164.462C144.797 164.75 144.046 164.765 143.543 165.401C143.041 166.037 142.925 167.05 143.499 167.622C144.005 168.126 144.816 168.116 145.525 168.03C148.182 167.708 150.726 166.796 153.244 165.891" fill="#FFBE9D"/>
<path d="M152.09 166.537C149.6 167.208 146.864 167.744 144.562 168.619C143.804 168.906 143.052 168.921 142.55 169.558C142.048 170.194 141.931 171.207 142.506 171.778C143.012 172.282 143.823 172.272 144.532 172.186C147.188 171.865 149.733 170.954 152.25 170.047" fill="#FFBE9D"/>
<path d="M150.674 170.812C148.184 171.484 145.448 172.02 143.146 172.895C142.388 173.182 141.637 173.197 141.134 173.834C140.632 174.47 140.515 175.482 141.09 176.054C141.596 176.558 142.407 176.548 143.116 176.462C145.772 176.141 148.316 175.229 150.834 174.323" fill="#FFBE9D"/>
<path d="M153.096 165.978C153.054 165.873 151.297 166.488 149.091 167.101C146.885 167.721 145.064 168.104 145.083 168.215C145.098 168.316 146.966 168.101 149.195 167.475C151.424 166.856 153.135 166.072 153.096 165.978Z" fill="#EB996E"/>
<path d="M153.558 169.645C153.519 169.541 151.506 170.208 149.002 170.939C146.497 171.677 144.444 172.202 144.467 172.311C144.488 172.412 146.59 172.054 149.111 171.312C151.632 170.576 153.595 169.741 153.558 169.645Z" fill="#EB996E"/>
<path d="M151.924 174.361C151.897 174.257 149.982 174.646 147.645 175.23C145.307 175.814 143.434 176.372 143.46 176.475C143.486 176.579 145.401 176.19 147.739 175.607C150.076 175.023 151.95 174.465 151.924 174.361Z" fill="#EB996E"/>
<path d="M155.154 161.873C155.114 161.766 152.909 162.513 150.135 163.227C147.361 163.949 145.071 164.364 145.088 164.477C145.096 164.528 145.68 164.49 146.616 164.351C147.551 164.212 148.834 163.964 150.232 163.604C151.628 163.242 152.872 162.836 153.756 162.504C154.642 162.172 155.172 161.922 155.154 161.873Z" fill="#EB996E"/>
<path d="M130.219 156.838C130.219 156.731 127.436 156.63 124.002 156.612C120.567 156.594 117.783 156.666 117.782 156.773C117.782 156.88 120.565 156.982 123.999 157C127.433 157.018 130.218 156.946 130.219 156.838Z" fill="#EB996E"/>
<path d="M149.003 149.845C148.436 150.3 147.608 150.208 147.153 149.642C146.699 149.074 146.791 148.247 147.357 147.792C147.924 147.338 148.752 147.429 149.207 147.996C149.661 148.562 149.569 149.391 149.003 149.845Z" fill="#EBEBEB"/>
<path d="M59.1878 177.65C59.1818 177.624 58.9684 177.649 58.5832 177.717C58.1981 177.78 57.6481 177.917 56.9808 178.124C55.6464 178.536 53.8529 179.316 52.0907 180.534C50.3316 181.758 48.9732 183.165 48.1209 184.271C47.6925 184.823 47.3723 185.29 47.1782 185.629C46.9797 185.965 46.8812 186.157 46.9036 186.172C46.9588 186.207 47.435 185.492 48.3336 184.446C49.2285 183.4 50.5883 182.054 52.3124 180.854C54.0402 179.66 55.7762 178.857 57.0696 178.385C58.3646 177.91 59.2027 177.715 59.1878 177.65Z" fill="#EB996E"/>
<path d="M92.5439 104.083C100.61 103.439 106.704 96.4992 106.302 88.4177C106.02 82.747 105.727 77.6322 105.727 77.6322C105.727 77.6322 117.886 75.7417 118.036 63.5851C118.186 51.4286 116.079 23.5135 116.079 23.5135C102.006 17.4658 85.7626 19.5071 73.6247 28.8499L71.823 30.2367L76.428 90.3067C77.0616 98.5674 84.2848 104.742 92.5439 104.083Z" fill="#FFBE9D"/>
<path d="M105.747 77.4569C105.747 77.4569 98.0636 78.0816 89.8978 72.9526C89.8978 72.9526 93.6437 81.7014 105.775 80.6065L105.747 77.4569Z" fill="#EB996E"/>
<path d="M113.078 42.5661C113.11 43.4827 112.361 44.2663 111.404 44.3178C110.449 44.3693 109.647 43.6693 109.614 42.7527C109.582 41.8362 110.332 41.051 111.286 41.0003C112.243 40.9481 113.045 41.6496 113.078 42.5661Z" fill="#263238"/>
<path d="M113.778 40.6139C113.563 40.8401 112.247 39.8668 110.379 39.8721C108.513 39.8504 107.142 40.811 106.939 40.5826C106.839 40.4811 107.058 40.0728 107.655 39.6377C108.243 39.2048 109.245 38.7839 110.409 38.7891C111.573 38.7958 112.551 39.2235 113.114 39.6623C113.689 40.1034 113.884 40.5132 113.778 40.6139Z" fill="#263238"/>
<path d="M95.4614 43.0045C95.4935 43.9211 94.7442 44.7047 93.7874 44.7562C92.832 44.8077 92.0304 44.1076 91.9976 43.1911C91.9655 42.2746 92.7148 41.4902 93.6702 41.4387C94.627 41.3872 95.4293 42.088 95.4614 43.0045Z" fill="#263238"/>
<path d="M95.4142 40.9626C95.1985 41.1887 93.8819 40.2162 92.0146 40.2207C90.1487 40.199 88.7776 41.1603 88.5746 40.9312C88.4754 40.8305 88.6925 40.4215 89.2919 39.9871C89.8792 39.5542 90.8816 39.1333 92.0452 39.1377C93.2087 39.1444 94.1879 39.5729 94.7507 40.011C95.3239 40.4521 95.5194 40.8618 95.4142 40.9626Z" fill="#263238"/>
<path d="M102.194 54.8169C102.185 54.711 103.347 54.5102 105.229 54.2699C105.706 54.2206 106.157 54.1258 106.238 53.8004C106.351 53.4556 106.151 52.9413 105.919 52.3868C105.471 51.2322 105.001 50.0224 104.509 48.7543C102.549 43.5821 101.131 39.3294 101.34 39.2525C101.549 39.1756 103.307 43.3052 105.266 48.4767C105.738 49.7522 106.189 50.968 106.618 52.1308C106.798 52.6727 107.109 53.2877 106.866 54.0027C106.737 54.3594 106.387 54.6177 106.081 54.7005C105.775 54.7938 105.507 54.799 105.271 54.8132C103.376 54.9155 102.202 54.9237 102.194 54.8169Z" fill="#263238"/>
<path d="M96.6966 56.1096C97.0003 56.0917 97.0041 58.1195 98.7401 59.5592C100.472 61.0034 102.635 60.7758 102.65 61.0586C102.679 61.1855 102.169 61.4527 101.257 61.4773C100.362 61.5079 99.0551 61.2206 97.993 60.3399C96.9339 59.457 96.4787 58.28 96.41 57.4478C96.3316 56.6007 96.5578 56.0976 96.6966 56.1096Z" fill="#263238"/>
<path d="M95.8965 33.6414C95.7121 34.1497 93.847 33.9086 91.655 34.1728C89.4577 34.393 87.6896 35.0348 87.3993 34.5788C87.2694 34.3609 87.5777 33.8832 88.2927 33.3914C89.001 32.9003 90.1317 32.4338 91.4467 32.2868C92.7626 32.1435 93.9672 32.3517 94.7658 32.6764C95.5711 33.001 95.9756 33.4003 95.8965 33.6414Z" fill="#263238"/>
<path d="M113.091 35.2072C112.763 35.6311 111.476 35.1908 109.928 35.1706C108.381 35.0952 107.07 35.4557 106.769 35.0116C106.637 34.7959 106.843 34.3713 107.416 33.9697C107.98 33.5697 108.923 33.2421 109.987 33.2741C111.05 33.3077 111.972 33.6921 112.51 34.1272C113.057 34.5631 113.236 35.0005 113.091 35.2072Z" fill="#263238"/>
<path d="M117.497 26.3056C111.979 28.5161 105.401 27.8398 100.443 24.5521C96.9748 22.2522 94.0845 18.6928 89.9933 17.9497C87.2392 17.449 84.358 18.3805 82.0862 20.0221C79.8151 21.6637 78.0914 23.9614 76.6647 26.3791C79.9549 32.6798 79.1571 40.2513 78.2739 47.3101C78.176 48.09 78.0488 48.9337 77.4895 49.4831C76.539 50.4169 74.8969 49.9748 73.8701 49.1266C72.2257 47.7687 71.4002 45.6685 70.7773 43.6253C69.358 38.9692 68.6483 34.0527 69.1396 29.2089C69.6302 24.3652 71.3658 19.5935 74.4474 15.8337C78.2986 11.1348 84.1374 8.23516 90.1661 7.60239C96.1948 6.97036 102.365 8.52715 107.604 11.5882C110.034 13.0083 112.331 14.8023 113.789 17.2163" fill="#263238"/>
<path d="M121.19 9.72519C121.19 9.72519 121.27 9.97048 121.202 10.4431C121.138 10.9081 120.896 11.6094 120.258 12.2658C119.626 12.927 118.579 13.4438 117.31 13.6518C116.677 13.7568 115.99 13.819 115.257 13.77C114.529 13.7147 113.737 13.5337 113.046 13.0548C112.375 12.5864 111.785 11.8153 111.742 10.8694C111.69 9.9083 112.362 9.01283 113.235 8.57408C113.673 8.34746 114.172 8.21134 114.69 8.20996C115.207 8.20927 115.739 8.37786 116.177 8.6722C117.077 9.25604 117.616 10.3021 117.745 11.3841C117.886 12.4827 117.516 13.6415 116.812 14.5383C116.111 15.4455 115.129 16.133 114.038 16.5745C111.835 17.4707 109.276 17.3394 106.926 16.654C104.55 15.9796 102.416 14.8458 100.41 13.7389C98.4006 12.6354 96.4549 11.5797 94.4765 10.8963C92.5086 10.1999 90.4976 9.9387 88.6664 10.204C86.8332 10.468 85.2152 11.1838 83.9021 12.0475C81.2578 13.8094 79.8517 16.0791 79.0461 17.6282C78.6406 18.4159 78.3816 19.055 78.2122 19.4896C78.042 19.9249 77.9587 20.1563 77.9427 20.1515C77.9358 20.1494 77.949 20.0893 77.9802 19.9733C78.0129 19.8579 78.058 19.6844 78.1344 19.4626C78.2802 19.017 78.5156 18.364 78.9031 17.5584C79.6732 15.9748 81.0564 13.6442 83.741 11.8084C85.0736 10.9095 86.7263 10.157 88.6171 9.8703C90.5087 9.5801 92.5898 9.84059 94.6008 10.5419C96.6229 11.2301 98.5916 12.2914 100.604 13.3893C102.612 14.4906 104.716 15.603 107.039 16.2622C109.338 16.9324 111.792 17.0513 113.888 16.2049C114.923 15.7896 115.85 15.1401 116.502 14.302C117.158 13.4653 117.492 12.4282 117.37 11.427C117.257 10.4369 116.768 9.48751 115.977 8.97207C115.204 8.4207 114.174 8.46492 113.391 8.87672C112.601 9.26848 112.02 10.0479 112.058 10.8597C112.085 11.6743 112.601 12.3839 113.215 12.8213C113.838 13.2656 114.582 13.4514 115.279 13.5129C115.981 13.5703 116.657 13.5198 117.275 13.4286C118.513 13.2469 119.525 12.7709 120.146 12.1559C120.776 11.5431 121.034 10.8784 121.122 10.4313C121.212 9.97463 121.166 9.72519 121.19 9.72519Z" fill="#455A64"/>
<path d="M67.4919 31.6C67.5089 31.5313 68.2409 31.8748 69.4767 31.8689C70.0893 31.8577 70.8191 31.7246 71.5623 31.3961C72.307 31.0782 73.0714 30.5783 73.789 29.9755C75.2203 28.7419 75.9112 27.0838 76.1462 25.8853C76.3901 24.6692 76.2687 23.886 76.3305 23.8833C76.3491 23.8807 76.3939 24.0718 76.4285 24.4248C76.4599 24.7773 76.4626 25.2948 76.3646 25.9253C76.1797 27.1701 75.4952 28.9192 73.994 30.2135C73.2472 30.8402 72.462 31.3434 71.6736 31.6634C70.8911 31.9919 70.1144 32.109 69.4751 32.0915C68.8332 32.0702 68.3266 31.944 67.9926 31.8268C67.6586 31.7086 67.485 31.6171 67.4919 31.6Z" fill="#455A64"/>
<path d="M68.9844 37.9725C68.9859 37.9173 69.7188 37.9886 70.8646 37.7907C72.0011 37.6013 73.5629 37.0694 74.9129 35.9574C76.2623 34.8433 77.0567 33.4325 77.434 32.3737C77.8211 31.3073 77.8686 30.5936 77.9244 30.6006C77.943 30.6021 77.9503 30.7804 77.9203 31.1014C77.8913 31.4224 77.8107 31.8849 77.6386 32.4395C77.3053 33.542 76.5135 35.0257 75.1103 36.1839C73.7061 37.3407 72.0714 37.858 70.8977 37.9981C70.3069 38.0725 69.8242 38.0745 69.4935 38.0504C69.1627 38.0263 68.9828 37.9906 68.9844 37.9725Z" fill="#455A64"/>
<path d="M73.3207 42.8281C73.1139 42.7386 64.9675 40.3577 65.2332 48.6691C65.4989 56.9797 73.7879 54.9996 73.7953 54.7608C73.8021 54.5212 73.3207 42.8281 73.3207 42.8281Z" fill="#FFBE9D"/>
<path d="M71.1557 51.6925C71.1183 51.6671 71.0139 51.7984 70.7728 51.9186C70.5377 52.035 70.1294 52.1239 69.6913 51.9753C68.8032 51.6813 68.0187 50.311 67.9307 48.8145C67.8851 48.0585 68.021 47.333 68.2695 46.7285C68.5039 46.112 68.8838 45.6754 69.3226 45.5821C69.7592 45.4664 70.0809 45.7209 70.1899 45.9515C70.3085 46.1807 70.2615 46.3478 70.3056 46.3605C70.3294 46.3807 70.4795 46.2157 70.4018 45.8747C70.3623 45.7112 70.2585 45.5179 70.0585 45.3641C69.854 45.2082 69.5577 45.135 69.251 45.1783C68.6113 45.2432 68.0538 45.8515 67.7799 46.515C67.4709 47.183 67.3008 47.9988 67.3522 48.8474C67.459 50.5207 68.3665 52.0604 69.5786 52.3694C70.1682 52.503 70.6504 52.3112 70.8959 52.1067C71.1474 51.894 71.1848 51.7066 71.1557 51.6925Z" fill="#EB996E"/>
<path d="M157 232.5C157 232.777 121.852 233 78.5037 233C35.141 233 0 232.777 0 232.5C0 232.223 35.141 232 78.5037 232C121.852 232 157 232.223 157 232.5Z" fill="#263238"/>
</svg>
