<svg width="96" height="232" viewBox="0 0 96 232" fill="none" xmlns="http://www.w3.org/2000/svg">
<path d="M51.0291 203.252L50.5934 215.106C50.5934 215.106 62.4957 219.53 62.6288 221.728L39.6144 221.709L39.5355 203.212L51.0291 203.252Z" fill="#263238"/>
<path d="M43.4777 214.103C43.0321 214.224 42.7239 214.725 42.8268 215.175C42.9298 215.625 43.4364 215.943 43.8839 215.829C44.3314 215.716 44.7197 215.127 44.5669 214.69C44.414 214.254 43.7995 213.914 43.3921 214.132" fill="#E0E0E0"/>
<path d="M39.6142 221.709L39.679 219.844L61.7201 220.56C61.7201 220.56 62.7445 221.007 62.628 221.728L39.6142 221.709Z" fill="#263238"/>
<path d="M50.9667 214.989C50.963 215.101 50.4009 215.152 49.8474 215.513C49.2846 215.859 48.9992 216.346 48.8957 216.301C48.7921 216.28 48.9604 215.608 49.6378 215.182C50.3115 214.751 50.9908 214.886 50.9667 214.989Z" fill="white"/>
<path d="M53.3792 215.989C53.4045 216.098 52.9182 216.289 52.536 216.764C52.1403 217.228 52.0435 217.742 51.9314 217.737C51.826 217.755 51.7489 217.096 52.2352 216.515C52.716 215.929 53.3774 215.883 53.3792 215.989Z" fill="white"/>
<path d="M54.7482 218.88C54.6459 218.904 54.4899 218.342 54.779 217.727C55.0638 217.109 55.5939 216.867 55.6413 216.961C55.7048 217.053 55.3634 217.383 55.1341 217.892C54.8924 218.395 54.8598 218.869 54.7482 218.88Z" fill="white"/>
<path d="M50.7658 212.277C50.7184 212.379 50.2031 212.224 49.5682 212.266C48.9321 212.296 48.4378 212.509 48.3792 212.413C48.3139 212.331 48.7971 211.916 49.546 211.876C50.2943 211.83 50.8213 212.189 50.7658 212.277Z" fill="white"/>
<path d="M24.6202 204.337L23.7043 218.659L26.2462 230.196C26.4293 231.027 25.8702 231.84 25.0283 231.967C24.5567 232.037 24.084 231.878 23.7536 231.534C21.6517 229.346 13.9587 221.258 14.0844 220.213C14.2299 219.004 14.0474 205.042 14.0474 205.042L24.6202 204.337Z" fill="#263238"/>
<path d="M25.0276 231.966L14.1232 219.245L14.0986 219.853C14.077 220.378 14.2403 220.895 14.5639 221.308C15.4306 222.415 17.8905 225.421 23.7098 231.533C24.0482 231.888 24.5444 232.052 25.0276 231.966Z" fill="#263238"/>
<g opacity="0.6">
<path d="M17.2556 214.741C17.6051 215.004 17.7001 215.552 17.4517 215.912C17.2026 216.271 16.646 216.373 16.2929 216.116C15.9391 215.859 15.8047 215.204 16.0919 214.875C16.3792 214.545 17.0393 214.462 17.321 214.796" fill="white"/>
</g>
<path d="M22.0073 225.567C22.0868 225.61 22.4406 224.872 23.3104 224.503C24.1684 224.108 24.9524 224.343 24.974 224.255C24.9882 224.221 24.8106 224.102 24.4772 224.041C24.1468 223.978 23.6592 224.005 23.1828 224.215C22.7063 224.426 22.3587 224.768 22.1824 225.055C22.0036 225.343 21.9722 225.554 22.0073 225.567Z" fill="white"/>
<path d="M22.9498 227.529C23.0157 227.593 23.4947 227.146 24.2454 226.964C24.9918 226.766 25.6261 226.93 25.6532 226.841C25.6976 226.769 25.0196 226.437 24.1677 226.658C23.3134 226.871 22.877 227.487 22.9498 227.529Z" fill="white"/>
<path d="M20.2069 223.028C20.2716 223.099 21.0051 222.407 22.1472 222.022C23.2832 221.619 24.2879 221.709 24.2947 221.613C24.3212 221.537 23.2641 221.294 22.0443 221.724C20.8208 222.14 20.1397 222.985 20.2069 223.028Z" fill="white"/>
<path d="M20.1218 218.651C20.1563 218.738 20.9619 218.44 21.9944 218.445C23.0268 218.436 23.8336 218.731 23.8681 218.643C23.9107 218.575 23.1032 218.123 21.9937 218.129C20.8842 218.127 20.0793 218.582 20.1218 218.651Z" fill="white"/>
<path d="M20.284 214.44C20.3253 214.524 21.1413 214.079 22.228 214.173C23.3166 214.244 24.0562 214.807 24.1098 214.729C24.1345 214.7 23.9853 214.514 23.663 214.309C23.3431 214.104 22.8376 213.905 22.2521 213.859C21.6659 213.816 21.137 213.937 20.79 214.092C20.4399 214.246 20.2642 214.408 20.284 214.44Z" fill="white"/>
<path d="M22.2354 213.372C22.2539 213.372 22.2939 213.181 22.2773 212.83C22.2594 212.481 22.1799 211.966 21.9044 211.392C21.7602 211.119 21.6128 210.77 21.2208 210.565C21.0254 210.461 20.7277 210.486 20.5496 210.669C20.3733 210.847 20.3104 211.08 20.2963 211.307C20.2741 212.217 21.0193 213.13 22.0375 213.302C23.0607 213.457 24.0161 212.909 24.4556 212.139C24.553 211.94 24.6251 211.693 24.5234 211.446C24.4242 211.197 24.1363 211.088 23.9298 211.114C23.5014 211.161 23.2228 211.395 22.9652 211.567C22.4548 211.944 22.1318 212.349 21.9408 212.64C21.7491 212.935 21.6837 213.118 21.6998 213.127C21.7484 213.167 22.0912 212.438 23.0928 211.749C23.3449 211.592 23.6358 211.391 23.9434 211.376C24.0932 211.367 24.2195 211.432 24.2676 211.554C24.3175 211.672 24.2805 211.851 24.1961 212.007C23.8256 212.637 22.9516 213.136 22.0887 212.991C21.2288 212.854 20.5755 212.051 20.586 211.318C20.5915 211.142 20.6451 210.966 20.7437 210.865C20.8411 210.766 20.9835 210.744 21.113 210.802C21.3872 210.926 21.5623 211.235 21.7047 211.492C22.2668 212.57 22.1713 213.383 22.2354 213.372Z" fill="white"/>
<path d="M61.1136 103.061C61.1136 103.061 63.0139 109.775 62.5708 118.018C62.3994 121.207 52.1545 213.371 52.1545 213.371L39.1193 212.199L41.3728 126.029L40.8261 126.517C40.8261 126.517 33.0609 162.77 32.5469 168.502C32.0846 173.653 25.8862 215.036 25.8862 215.036L13.2381 214.435L16.1037 162.121L19.94 114.628L21.4767 100.793L61.1136 103.061Z" fill="#263238"/>
<path d="M38.8653 118.601C38.8573 118.619 39.0731 118.739 39.4786 118.928C39.8855 119.109 40.4827 119.384 41.2896 119.515C41.6921 119.58 42.1488 119.59 42.6265 119.494C43.1005 119.399 43.6053 119.184 44.0084 118.791C44.4122 118.397 44.6649 117.853 44.8214 117.29C44.9792 116.723 45.0637 116.135 45.1697 115.536C45.5771 113.136 45.8403 110.947 45.9864 109.359C46.0597 108.565 46.1054 107.922 46.1282 107.476C46.1503 107.031 46.1516 106.783 46.1306 106.782C46.109 106.78 46.0678 107.024 46.0092 107.465C45.9445 107.971 45.865 108.596 45.7707 109.335C45.5697 110.914 45.2732 113.092 44.867 115.484C44.6599 116.667 44.5286 117.87 43.8087 118.59C43.0894 119.297 42.0687 119.393 41.3192 119.3C40.545 119.203 39.9415 118.963 39.5243 118.818C39.107 118.664 38.874 118.58 38.8653 118.601Z" fill="#455A64"/>
<path d="M42.9729 107.271C42.9772 107.258 42.8774 107.198 42.6727 107.19C42.4706 107.18 42.1648 107.248 41.8671 107.47C41.5817 107.69 41.2822 108.081 41.2816 108.605C41.2698 109.135 41.6958 109.647 42.2394 109.829C42.7781 110.025 43.4303 109.889 43.7514 109.467C44.0768 109.057 44.0855 108.564 43.9992 108.215C43.9043 107.856 43.707 107.612 43.5424 107.495C43.3773 107.374 43.262 107.358 43.2564 107.372C43.2176 107.413 43.6706 107.606 43.7865 108.261C43.8377 108.57 43.797 108.982 43.5344 109.285C43.2823 109.595 42.7874 109.696 42.3405 109.539C41.893 109.384 41.5682 108.997 41.5645 108.597C41.5478 108.197 41.7722 107.848 42.0046 107.638C42.5032 107.197 42.9778 107.328 42.9729 107.271Z" fill="#455A64"/>
<path d="M20.1212 113.774C20.12 113.794 20.2963 113.817 20.6168 113.839C20.9373 113.867 21.4039 113.865 21.9778 113.824C23.1249 113.746 24.7102 113.431 26.3226 112.712C27.9332 111.985 29.2227 111.011 30.0437 110.206C30.4561 109.804 30.768 109.458 30.9603 109.2C31.1569 108.945 31.2568 108.799 31.2407 108.786C31.1988 108.751 30.7452 109.296 29.8964 110.047C29.0507 110.799 27.7717 111.722 26.1969 112.432C24.6196 113.136 23.0799 113.478 21.9562 113.61C20.8313 113.742 20.1231 113.719 20.1212 113.774Z" fill="#455A64"/>
<path d="M55.2555 107.255C55.2247 107.272 55.4842 107.853 56.0426 108.717C56.5986 109.58 57.48 110.709 58.6308 111.78C59.7853 112.849 60.9755 113.644 61.8779 114.134C62.7809 114.627 63.38 114.843 63.3942 114.811C63.4152 114.766 62.8512 114.481 61.9876 113.946C61.1241 113.414 59.9751 112.605 58.8404 111.554C57.7087 110.501 56.8168 109.415 56.2214 108.593C55.6247 107.772 55.2987 107.23 55.2555 107.255Z" fill="#455A64"/>
<path d="M58.6086 1.37032C56.0306 0.810933 53.6023 3.29884 50.9809 3.00976C49.3891 2.83454 48.1007 1.67551 46.6417 1.01031C44.4601 0.0161383 41.4983 0.0782488 39.4622 1.34732C37.426 2.616 36.1524 3.89504 36.0629 6.30474C34.0325 5.35083 31.0079 8.08105 30.1067 10.5429C29.2055 13.0051 29.6875 15.4301 30.5255 17.915C31.9681 22.1934 34.2548 26.1812 37.2135 29.5778C37.4755 29.8787 37.8806 30.2016 38.2248 30.0014C38.4631 29.863 38.5179 29.5463 38.5385 29.2699C38.7136 26.9169 38.2221 24.5736 37.8258 22.2482C37.4294 19.9229 37.1286 17.5166 37.6754 15.2223C38.2221 12.928 39.7846 10.7449 42.0367 10.0939C43.7001 9.61313 45.504 10.018 47.0791 10.7396C48.6542 11.4615 50.0714 12.486 51.5848 13.3318C53.0982 14.1772 54.7742 14.8558 56.5035 14.7845C58.2328 14.7132 60.012 13.7374 60.6139 12.1037C61.2159 10.4697 60.2046 8.30726 58.4875 8.09102C60.0242 7.81573 61.2642 6.3519 61.2928 4.78032C61.3213 3.20951 60.1342 1.70158 58.6086 1.37032Z" fill="#263238"/>
<path d="M79 221.5C79 221.223 61.3139 221 39.5019 221C17.6824 221 0 221.225 0 221.5C0 221.775 17.6824 222 39.5019 222C61.3137 222.002 79 221.777 79 221.5Z" fill="#263238"/>
<path d="M56.6888 37.7016C56.6888 37.7016 62.213 37.4707 64.0125 37.8427C65.812 38.2147 78.8675 39.6488 78.8675 39.6488L71.8691 36.0952L68.1504 24.209L92.1137 35.0504C94.3797 36.5007 95.8174 38.9455 95.9836 41.6308C96.2294 45.5892 93.6829 49.1841 89.8668 50.266L63.1459 55.7585L56.6888 37.7016Z" fill="#FFBE9D"/>
<path d="M35.9449 38.4675C35.5998 38.5824 25.3403 42.2891 22.3554 44.2513C20.2509 45.6352 20.0517 49.1642 21.0756 51.4649L26.1865 62.9481L29.038 77.1494L19.797 99.3687L18.8682 103.031L63.5138 106.188L65.4754 101.561L63.1466 80.5564V54.155L56.6888 37.702L45.6285 37.8432L35.9449 38.4675Z" fill="#F68C22"/>
<path d="M22.7597 43.9769C22.7597 43.9769 21.0301 44.7 19.3622 47.1885C17.6936 49.6769 12.133 66.0617 12.133 66.0617L26.3133 71.9447L29.8352 64.4135L22.7597 43.9769Z" fill="#F68C22"/>
<path d="M63.1466 55.7584L75.7857 53.1605L74.2781 38.9084C74.2781 38.9084 64.3169 37.6704 61.8093 37.6537C59.3023 37.6364 54.7655 37.6537 54.7655 37.6537" fill="#F68C22"/>
<path d="M54.9628 14.1133C54.2195 10.1075 49.3813 6.60415 45.4108 7.51737L32.6676 11.5799L32.9738 13.7466L36.1518 40.196C36.6548 44.3811 40.3992 47.4043 44.5963 47.0137C49.0816 46.5963 52.2758 42.4686 51.5546 38.0221L51.1909 35.7794C51.1909 35.7794 56.2439 34.298 56.4968 27.4402C56.6224 24.0295 55.7894 18.5633 54.9628 14.1133Z" fill="#FFBE9D"/>
<path d="M54.0921 19.4048C54.1633 19.8581 53.8379 20.2929 53.3655 20.3761C52.8936 20.4592 52.4534 20.1596 52.3817 19.7062C52.3105 19.2523 52.6353 18.8175 53.1071 18.7344C53.5802 18.6513 54.0209 18.9515 54.0921 19.4048Z" fill="#263238"/>
<path d="M54.119 17.1114C54.0257 17.237 53.3134 16.8321 52.3847 16.9475C51.4559 17.0492 50.8327 17.6095 50.7179 17.5079C50.6623 17.4636 50.7466 17.2471 51.0175 16.9954C51.2836 16.7448 51.7561 16.475 52.335 16.4075C52.9133 16.3405 53.4259 16.4942 53.7321 16.6784C54.0442 16.8632 54.1656 17.0546 54.119 17.1114Z" fill="#263238"/>
<path d="M45.8707 20.7624C45.9419 21.2163 45.6165 21.6505 45.1441 21.7337C44.6722 21.8168 44.2315 21.5172 44.1603 21.0632C44.0885 20.6093 44.4145 20.1745 44.8857 20.0914C45.3582 20.0089 45.7996 20.3091 45.8707 20.7624Z" fill="#263238"/>
<path d="M45.0621 18.5879C44.9688 18.7135 44.2553 18.3092 43.3278 18.424C42.399 18.5257 41.7752 19.0861 41.6604 18.9844C41.6054 18.9401 41.6885 18.7237 41.96 18.4719C42.2262 18.2213 42.6986 17.9516 43.2769 17.884C43.8558 17.817 44.3684 17.9713 44.6746 18.1549C44.9868 18.3397 45.1082 18.5311 45.0621 18.5879Z" fill="#263238"/>
<path d="M49.2174 24.8686C49.2066 24.8166 49.7718 24.6468 50.6928 24.4135C50.9266 24.3603 51.1455 24.2861 51.1658 24.1193C51.2011 23.9411 51.0707 23.6977 50.9224 23.4357C50.63 22.8891 50.3238 22.3162 50.0026 21.7151C48.7174 19.2625 47.7563 17.2345 47.8556 17.1837C47.9549 17.1329 49.0774 19.0789 50.3626 21.5315C50.6736 22.1368 50.9709 22.7139 51.2543 23.2665C51.3769 23.5248 51.5683 23.8119 51.4906 24.1821C51.4481 24.3669 51.2896 24.517 51.1425 24.5762C50.996 24.6408 50.8632 24.6599 50.7466 24.6809C49.8106 24.8459 49.2275 24.9213 49.2174 24.8686Z" fill="#263238"/>
<path d="M51.1909 35.7789C51.1909 35.7789 46.7002 36.6192 41.8889 34.4674C41.8889 34.4674 44.851 38.8786 51.5085 37.4325L51.1909 35.7789Z" fill="#EB996E"/>
<path d="M46.5626 25.8422C46.7127 25.8153 46.8365 26.8224 47.7862 27.4336C48.7341 28.0466 49.7951 27.8032 49.8196 27.9437C49.8411 28.0053 49.6043 28.1686 49.1522 28.2356C48.709 28.305 48.0422 28.241 47.4615 27.8672C46.882 27.4922 46.5847 26.9342 46.5004 26.5246C46.4107 26.1083 46.4932 25.8446 46.5626 25.8422Z" fill="#263238"/>
<path d="M44.9401 15.2363C44.8791 15.5001 43.9378 15.4923 42.8643 15.756C41.7854 15.9983 40.9457 16.4235 40.7735 16.2142C40.6958 16.1137 40.8201 15.8577 41.1455 15.5701C41.4678 15.2836 42.0019 14.9834 42.6466 14.8315C43.2919 14.6808 43.9037 14.7119 44.3199 14.8255C44.7392 14.9379 44.9646 15.1119 44.9401 15.2363Z" fill="#263238"/>
<path d="M53.4515 14.4655C53.314 14.6957 52.6478 14.5546 51.8769 14.6377C51.1036 14.6933 50.4739 14.9517 50.2968 14.7489C50.2185 14.6497 50.295 14.426 50.5558 14.1922C50.8118 13.9589 51.2615 13.7394 51.792 13.6916C52.3224 13.6443 52.8039 13.7801 53.0975 13.9631C53.3959 14.1473 53.5114 14.3542 53.4515 14.4655Z" fill="#263238"/>
<path d="M68.4979 37.2118C68.4734 37.7991 67.3167 37.4068 66.7516 37.2471C66.1864 37.0868 65.6685 36.6149 65.638 36.0283C65.6105 35.4912 65.9771 35.0199 66.3461 34.6282C66.7151 34.2365 67.1254 33.8304 67.2223 33.3011C67.294 32.9076 67.1786 32.5033 67.2055 32.1039C67.2324 31.7044 67.4986 31.2564 67.8981 31.2714C68.1642 31.2815 68.3843 31.5034 68.4758 31.7534C68.5673 32.0034 68.5577 32.2773 68.5463 32.5434C68.4794 34.154 68.5655 35.6 68.4979 37.2118Z" fill="#FFBE9D"/>
<path d="M67.3856 23.0194C67.3856 23.0194 70.5235 25.0893 70.4571 25.6233C70.3902 26.1574 69.7227 26.6914 69.7227 26.6914C69.7227 26.6914 72.9947 27.4258 72.7943 29.6291C72.7943 29.6291 73.6621 30.2971 73.5287 31.0315C73.3953 31.7659 72.4606 31.6325 72.4606 31.6325C72.4606 31.6325 73.4623 33.1683 71.8596 33.1683C70.2574 33.1683 66.7851 32.5009 66.7851 32.5009C66.7851 32.5009 65.3833 31.6331 65.717 31.0321C66.0507 30.431 66.5184 30.2307 66.5184 30.2307C66.5184 30.2307 65.8145 29.3629 65.6656 28.5615C65.5167 27.7601 66.2511 27.4934 66.2511 27.4934C66.2511 27.4934 65.04 26.0916 65.6458 25.6239C66.2511 25.1562 66.5854 25.5569 66.5854 25.5569C66.5854 25.5569 65.9843 24.0211 66.385 23.5541C66.7851 23.0864 67.3856 23.0194 67.3856 23.0194Z" fill="#FFBE9D"/>
<path d="M72.46 31.6326C72.4408 31.7145 71.0797 31.4633 69.4213 31.0716C67.7617 30.6799 66.4322 30.2965 66.452 30.2146C66.4711 30.1327 67.8317 30.3838 69.4913 30.7756C71.1502 31.1673 72.4797 31.5512 72.46 31.6326Z" fill="#EB996E"/>
<path d="M69.7227 26.6921C69.6976 26.7674 68.9662 26.6257 68.0823 26.3458C67.1942 26.0659 66.5387 25.6652 66.58 25.5905C66.6188 25.5169 67.306 25.7818 68.1768 26.0563C69.0481 26.3326 69.7502 26.6077 69.7227 26.6921Z" fill="#EB996E"/>
<path d="M72.8128 29.6636C72.7865 29.7431 71.2962 29.3221 69.4841 28.7229C67.672 28.1236 66.2241 27.5728 66.251 27.4933C66.2774 27.4137 67.7677 27.8348 69.5798 28.434C71.3913 29.0333 72.8392 29.5841 72.8128 29.6636Z" fill="#EB996E"/>
<path d="M73.4049 36.8751C71.7303 36.164 69.1223 37.4294 68.151 37.5168C67.617 35.7268 68.3627 31.9998 68.3627 31.9998L71.8332 32.6169L73.4049 36.8751Z" fill="#FFBE9D"/>
<path d="M68.8872 32.9812C69.2646 33.425 69.4177 34.0368 69.3711 34.6211C69.3429 34.9141 69.2742 35.2065 69.1378 35.4721C69.0116 35.7358 68.7975 35.9864 68.5236 36.0952C68.6803 35.8518 68.7461 35.6012 68.8101 35.3495C68.8657 35.0965 68.907 34.8417 68.9243 34.5846C68.9751 34.0661 68.9339 33.5577 68.8872 32.9812Z" fill="#EB996E"/>
<path d="M68.9518 35.4738C69.081 35.0491 69.3776 34.6831 69.7066 34.3907C70.0361 34.0899 70.4158 33.8501 70.8153 33.6545C71.6149 33.2747 72.5443 33.1031 73.4049 33.2975C72.5455 33.4625 71.7573 33.6964 71.0079 34.06C70.6323 34.2346 70.2711 34.4409 69.9213 34.6664C69.5756 34.899 69.2323 35.1383 68.9518 35.4738Z" fill="#EB996E"/>
<path d="M57.0447 12.0054C54.1888 13.1493 50.785 12.7993 48.2193 11.098C46.4245 9.90777 44.9288 8.06579 42.8116 7.68123C41.3864 7.42214 39.8953 7.9042 38.7197 8.75372C37.5445 9.60324 36.6525 10.7923 35.9141 12.0434C37.6168 15.304 37.2039 19.2222 36.7469 22.8751C36.6962 23.2787 36.6304 23.7153 36.3409 23.9996C35.8491 24.4829 34.9993 24.2541 34.468 23.8151C33.617 23.1124 33.1898 22.0256 32.8674 20.9682C32.1329 18.5587 31.7657 16.0145 32.0199 13.5078C32.2738 11.0012 33.172 8.53192 34.7667 6.58622C36.7597 4.15458 39.7812 2.65403 42.901 2.32657C46.0208 1.99951 49.2138 2.80513 51.925 4.38919C53.1827 5.12412 54.3715 6.0525 55.1257 7.30172" fill="#263238"/>
<path d="M58.9557 4.55622C58.9557 4.55622 58.9967 4.68315 58.9618 4.92772C58.9284 5.16836 58.8034 5.53128 58.4731 5.87096C58.1461 6.21315 57.6042 6.4806 56.9477 6.58822C56.6199 6.64257 56.2646 6.67476 55.8851 6.64937C55.5085 6.62076 55.0985 6.52708 54.7413 6.27929C54.3938 6.03687 54.0887 5.63784 54.066 5.14834C54.0395 4.65097 54.3869 4.18758 54.8386 3.96053C55.0654 3.84325 55.3238 3.77281 55.5919 3.7721C55.8596 3.77174 56.1345 3.85898 56.3612 4.0113C56.8273 4.31344 57.1058 4.85478 57.173 5.41472C57.2456 5.98324 57.0544 6.58286 56.69 7.04697C56.3271 7.51645 55.819 7.87222 55.2544 8.1007C54.1142 8.56446 52.7903 8.49652 51.5739 8.14182C50.3442 7.79284 49.2403 7.20609 48.2022 6.63328C47.1622 6.06226 46.1553 5.51591 45.1315 5.16228C44.1131 4.80186 43.0724 4.66671 42.1248 4.80401C41.1761 4.9406 40.3388 5.31103 39.6593 5.75798C38.2909 6.66975 37.5632 7.84433 37.1463 8.64598C36.9365 9.05359 36.8024 9.38434 36.7148 9.60924C36.6267 9.8345 36.5836 9.95428 36.5753 9.95178C36.5717 9.95071 36.5786 9.9196 36.5947 9.85953C36.6116 9.79982 36.635 9.71007 36.6745 9.59529C36.75 9.36467 36.8718 9.02678 37.0723 8.60986C37.4708 7.79034 38.1867 6.58429 39.5759 5.63426C40.2655 5.16907 41.1208 4.7797 42.0993 4.63131C43.0782 4.48113 44.1551 4.61593 45.1958 4.97886C46.2422 5.33498 47.261 5.8842 48.3024 6.45236C49.3413 7.0223 50.4301 7.59797 51.6325 7.93908C52.822 8.28591 54.0919 8.34742 55.1768 7.90941C55.7122 7.69451 56.192 7.35841 56.5294 6.92469C56.869 6.49169 57.0418 5.95499 56.9789 5.43689C56.92 4.9245 56.667 4.43322 56.2581 4.16648C55.8578 3.88115 55.3249 3.90403 54.9195 4.11714C54.5109 4.31987 54.2101 4.7232 54.2299 5.14333C54.2439 5.56489 54.5109 5.93211 54.8286 6.15844C55.1509 6.38835 55.5362 6.48453 55.8966 6.51635C56.2599 6.54603 56.6095 6.51993 56.9294 6.47273C57.5701 6.3787 58.094 6.13234 58.4153 5.81411C58.7412 5.49696 58.8749 5.15299 58.9205 4.92165C58.9669 4.6853 58.9432 4.55622 58.9557 4.55622Z" fill="#455A64"/>
<path d="M30.0361 13.6142C30.045 13.5787 30.4237 13.7564 31.0633 13.7534C31.3803 13.7476 31.758 13.6787 32.1425 13.5087C32.5279 13.3442 32.9235 13.0855 33.2948 12.7735C34.0356 12.1351 34.3931 11.2771 34.5147 10.6569C34.6409 10.0276 34.5781 9.62224 34.6101 9.62086C34.6197 9.61949 34.6429 9.7184 34.6608 9.90108C34.677 10.0835 34.6784 10.3513 34.6277 10.6775C34.532 11.3218 34.1778 12.2269 33.401 12.8967C33.0145 13.221 32.6081 13.4814 32.2001 13.647C31.7952 13.817 31.3933 13.8776 31.0625 13.8685C30.7303 13.8575 30.4681 13.7922 30.2953 13.7316C30.1224 13.6704 30.0326 13.623 30.0361 13.6142Z" fill="#455A64"/>
<path d="M30.8085 16.9116C30.8093 16.883 31.1886 16.9199 31.7815 16.8175C32.3696 16.7195 33.1779 16.4443 33.8765 15.8688C34.5748 15.2923 34.9859 14.5622 35.1811 14.0142C35.3814 13.4624 35.406 13.0931 35.4349 13.0967C35.4446 13.0975 35.4483 13.1898 35.4328 13.3558C35.4178 13.5219 35.3761 13.7613 35.287 14.0483C35.1145 14.6188 34.7048 15.3866 33.9786 15.986C33.252 16.5846 32.406 16.8523 31.7986 16.9249C31.4929 16.9633 31.2431 16.9644 31.0719 16.9519C30.9008 16.9394 30.8077 16.921 30.8085 16.9116Z" fill="#455A64"/>
<path d="M35.1465 21.6679C35.058 21.6368 31.6066 20.8946 31.9673 24.3346C32.3279 27.7745 35.7069 26.7028 35.7027 26.6036C35.6985 26.5043 35.1465 21.6679 35.1465 21.6679Z" fill="#FFBE9D"/>
<path d="M34.5155 25.4104C34.4994 25.4009 34.4599 25.4589 34.3636 25.5157C34.2697 25.5713 34.1029 25.6204 33.9169 25.5719C33.5395 25.4768 33.1729 24.932 33.0916 24.3136C33.0497 24.0014 33.0844 23.6964 33.1693 23.4381C33.2483 23.1755 33.3924 22.9824 33.5718 22.9309C33.7494 22.8699 33.8906 22.9656 33.9426 23.0583C33.9988 23.1498 33.9839 23.2204 34.003 23.2246C34.0138 23.2324 34.0706 23.1594 34.0281 23.02C34.0066 22.9531 33.9582 22.8765 33.8703 22.8191C33.7805 22.7605 33.6555 22.739 33.5294 22.7659C33.2662 22.8119 33.0527 23.081 32.9594 23.3645C32.8518 23.651 32.8057 23.9949 32.8524 24.3453C32.9469 25.0361 33.3697 25.6479 33.8822 25.7394C34.131 25.777 34.3248 25.6832 34.421 25.5911C34.5179 25.4942 34.5281 25.4152 34.5155 25.4104Z" fill="#EB996E"/>
<path d="M52.7043 37.6764C52.6969 37.6778 52.707 37.7842 52.7334 37.9859C52.7625 38.2095 52.8006 38.5027 52.8478 38.8677C52.9313 39.6304 53.0872 40.7516 52.9259 42.1114C52.8325 42.7837 52.6603 43.5226 52.2739 44.2131C51.9064 44.9125 51.326 45.5434 50.6195 46.0646C49.9124 46.5877 49.0788 47.0056 48.1784 47.3235C47.2795 47.6478 46.3101 47.8735 45.3026 47.97C43.2882 48.1753 41.3203 47.8299 39.73 47.0592C38.1282 46.3007 36.9571 45.1077 36.2157 43.9758C35.4719 42.8307 35.1603 41.7399 35.0311 40.9876C34.9111 40.2285 34.9361 39.7982 34.9088 39.7985C34.9012 39.7981 34.8962 39.9047 34.8926 40.1088C34.8823 40.3128 34.9029 40.6143 34.9473 41.0005C35.0521 41.7662 35.346 42.8844 36.0876 44.0627C36.8262 45.2271 38.0104 46.4588 39.6457 47.2462C41.2663 48.0445 43.2748 48.4023 45.3245 48.1936C46.3499 48.0948 47.3359 47.8641 48.2492 47.5311C49.1642 47.2048 50.0131 46.7747 50.7368 46.2326C51.4591 45.6929 52.0567 45.0339 52.431 44.3037C52.8246 43.5832 52.9921 42.8197 53.0777 42.1318C53.2222 40.7411 53.0394 39.6176 52.9305 38.8558C52.8706 38.4737 52.8151 38.1783 52.7754 37.9786C52.7367 37.7793 52.7118 37.6755 52.7043 37.6764Z" fill="#263238"/>
<path d="M68.08 49.5892C68.08 49.5892 67.9755 49.4514 67.6831 49.2708C67.3965 49.0959 66.8548 48.9104 66.17 49.0246C65.4731 49.1122 64.797 49.5762 63.9054 49.8647C63.4645 50.0092 62.9484 50.121 62.424 50.0203C61.8981 49.923 61.4421 49.6038 60.9618 49.2933C60.719 49.1385 60.464 48.9777 60.1617 48.8676C59.8648 48.754 59.4957 48.7168 59.1685 48.8313C58.8346 48.9348 58.5873 49.1729 58.3959 49.4162C58.1984 49.6613 58.0386 49.9276 57.8309 50.1662C57.628 50.4057 57.3602 50.6137 57.0199 50.6983C56.6847 50.7921 56.308 50.7699 55.9514 50.691C55.5919 50.6126 55.2433 50.4756 54.9113 50.3102C54.5805 50.1448 54.2594 49.9423 53.9159 49.7625C53.574 49.5805 53.2094 49.4097 52.8045 49.3042C52.4019 49.203 51.9465 49.1784 51.5311 49.3017C51.1141 49.4175 50.7514 49.6361 50.4249 49.8745C50.0948 50.1117 49.7877 50.3715 49.4483 50.5961C49.1122 50.8209 48.7351 51.0153 48.3108 51.0693C47.8918 51.1387 47.4483 51.0893 47.0358 50.9573C46.2043 50.6921 45.471 50.2132 44.6542 49.8308C44.2446 49.6426 43.8186 49.4642 43.3531 49.3901C42.8916 49.3156 42.4021 49.3411 41.9672 49.4826C41.0958 49.7709 40.4506 50.3298 39.677 50.6424C39.4863 50.7246 39.2849 50.781 39.0824 50.8228C38.8782 50.8591 38.6692 50.8659 38.4631 50.8561C38.0483 50.832 37.6486 50.7137 37.2725 50.5668C36.5151 50.2766 35.83 49.8701 35.0484 49.6518C34.6608 49.5436 34.2422 49.494 33.8409 49.5599C33.4364 49.6182 33.0826 49.8067 32.7899 50.016C32.2032 50.4323 31.7421 50.9597 31.0714 51.137C30.7436 51.2249 30.3949 51.2181 30.0648 51.1615C29.7332 51.1056 29.4159 51.0093 29.1033 50.9168C28.4869 50.7335 27.8405 50.5434 27.2148 50.6644C26.9042 50.7165 26.6352 50.8547 26.4032 51.0044C26.1709 51.1566 25.967 51.3228 25.7632 51.4752C25.5599 51.6284 25.3525 51.7656 25.1311 51.8679C24.9097 51.969 24.6719 52.0281 24.4386 52.0574C23.9689 52.1146 23.5196 52.0517 23.1336 51.9441C22.7451 51.8361 22.4172 51.6761 22.1395 51.514C21.5858 51.1853 21.2177 50.8607 20.9623 50.6497C20.8403 50.5462 20.7451 50.4651 20.6751 50.4057C20.6099 50.3509 20.5757 50.3235 20.5735 50.3252C20.5712 50.3268 20.6016 50.3574 20.6626 50.4154C20.7297 50.4775 20.8211 50.5616 20.9384 50.6695C21.1863 50.8873 21.5474 51.2189 22.1025 51.559C22.3801 51.7263 22.7118 51.8934 23.1081 52.0078C23.5017 52.1217 23.9625 52.1911 24.4514 52.1355C24.6946 52.107 24.9438 52.0471 25.1774 51.9424C25.4104 51.8372 25.6258 51.6965 25.8325 51.5427C26.2447 51.2455 26.655 50.8634 27.2404 50.7617C27.8223 50.6511 28.4444 50.8322 29.0608 51.0196C29.373 51.1132 29.6942 51.2127 30.039 51.2724C30.3815 51.3328 30.7563 51.3434 31.1129 51.2488C31.4712 51.1566 31.7795 50.964 32.0582 50.7558C32.3374 50.5459 32.5947 50.3138 32.8835 50.1117C33.1695 49.9094 33.4964 49.7378 33.8697 49.6849C34.2397 49.6252 34.6292 49.6711 35.0011 49.7755C35.7511 49.9856 36.4346 50.391 37.2066 50.6896C37.5911 50.8404 38.0074 50.9659 38.4513 50.9928C38.6714 51.0036 38.897 50.9963 39.1169 50.9575C39.3342 50.9133 39.5486 50.8529 39.748 50.7674C40.5542 50.439 41.1997 49.8842 42.026 49.6144C42.436 49.4821 42.8852 49.4596 43.3211 49.529C43.7595 49.5981 44.1727 49.7701 44.5747 49.955C45.3777 50.3298 46.1142 50.8133 46.9802 51.0899C47.4103 51.2273 47.889 51.2827 48.3418 51.207C48.8022 51.1471 49.2052 50.9369 49.5496 50.7053C50.2418 50.2465 50.7971 49.6494 51.5807 49.4303C51.9638 49.3158 52.3792 49.3373 52.7607 49.4314C53.1435 49.5303 53.4986 49.6941 53.8357 49.8731C54.176 50.0502 54.493 50.2495 54.8368 50.4203C55.1787 50.5893 55.5385 50.73 55.9162 50.8114C56.2904 50.893 56.6953 50.9177 57.0643 50.8135C57.4388 50.7194 57.7351 50.4849 57.9434 50.2357C58.1585 49.9856 58.3173 49.7177 58.5077 49.4796C58.6934 49.2418 58.9202 49.026 59.2165 48.9329C59.5098 48.8294 59.8351 48.8595 60.1153 48.9639C60.3991 49.0655 60.6506 49.2204 60.8925 49.3731C61.3721 49.6779 61.8415 50.0068 62.4026 50.1079C62.9599 50.2104 63.4939 50.0881 63.9406 49.9379C64.8459 49.6353 65.5096 49.1697 66.1835 49.0783C66.8488 48.959 67.3773 49.1298 67.6658 49.2941C67.9579 49.4642 68.071 49.597 68.08 49.5892Z" fill="#FAFAFA"/>
<path d="M62.4244 65.4248C62.4244 65.4248 62.3298 65.287 62.0653 65.1064C61.806 64.9315 61.3159 64.746 60.6964 64.8602C60.0658 64.9478 59.4541 65.4117 58.6474 65.7003C58.2485 65.8448 57.7815 65.9565 57.3071 65.8559C56.8312 65.7586 56.4187 65.4394 55.9841 65.1289C55.7644 64.9741 55.5337 64.8133 55.2602 64.7032C54.9916 64.5895 54.6577 64.5524 54.3617 64.6668C54.0595 64.7704 53.8358 65.0085 53.6626 65.2517C53.4839 65.4969 53.3394 65.7632 53.1514 66.0018C52.9679 66.2413 52.7256 66.4492 52.4177 66.5339C52.1144 66.6277 51.7735 66.6055 51.4509 66.5265C51.1256 66.4482 50.8102 66.3112 50.5098 66.1458C50.2106 65.9804 49.9201 65.7778 49.6093 65.598C49.2999 65.4161 48.97 65.2452 48.6037 65.1397C48.2395 65.0386 47.8275 65.0139 47.4516 65.1373C47.0743 65.2531 46.7462 65.4717 46.4507 65.71C46.1521 65.9473 45.8742 66.2071 45.5672 66.4316C45.2631 66.6564 44.9219 66.8509 44.538 66.9048C44.1589 66.9742 43.7577 66.9249 43.3844 66.7928C42.6322 66.5276 41.9686 66.0487 41.2297 65.6664C40.859 65.4782 40.4737 65.2997 40.0524 65.2257C39.6349 65.1511 39.192 65.1766 38.7985 65.3182C38.0101 65.6064 37.4264 66.1653 36.7265 66.478C36.5539 66.5602 36.3717 66.6166 36.1885 66.6583C36.0037 66.6947 35.8146 66.7014 35.6282 66.6917C35.2529 66.6675 34.8912 66.5493 34.5509 66.4023C33.8657 66.1122 33.2459 65.7057 32.5387 65.4874C32.188 65.3792 31.8093 65.3296 31.4462 65.3955C31.0802 65.4538 30.7601 65.6422 30.4953 65.8516C29.9645 66.2678 29.5473 66.7953 28.9405 66.9726C28.6438 67.0605 28.3284 67.0537 28.0297 66.997C27.7297 66.9412 27.4426 66.8449 27.1598 66.7524C26.6021 66.5691 26.0173 66.379 25.4512 66.5C25.1702 66.552 24.9267 66.6903 24.7168 66.84C24.5067 66.9921 24.3222 67.1584 24.1377 67.3108C23.9539 67.464 23.7662 67.6012 23.5659 67.7034C23.3655 67.8046 23.1504 67.8637 22.9394 67.893C22.5144 67.9502 22.1079 67.8873 21.7587 67.7796C21.4071 67.6717 21.1105 67.5117 20.8592 67.3495C20.3582 67.0209 20.0251 66.6963 19.7941 66.4853C19.6837 66.3817 19.5976 66.3006 19.5342 66.2413C19.4753 66.1865 19.4443 66.1591 19.4423 66.1607C19.4403 66.1624 19.4677 66.193 19.523 66.251C19.5837 66.3131 19.6664 66.3972 19.7725 66.5051C19.9968 66.7229 20.3235 67.0545 20.8257 67.3946C21.0769 67.5619 21.377 67.7289 21.7355 67.8434C22.0917 67.9573 22.5086 68.0267 22.9509 67.9711C23.171 67.9426 23.3965 67.8827 23.6078 67.778C23.8186 67.6728 24.0134 67.5321 24.2005 67.3783C24.5734 67.0811 24.9447 66.699 25.4743 66.5973C26.0008 66.4867 26.5637 66.6678 27.1214 66.8552C27.4038 66.9488 27.6944 67.0483 28.0063 67.1079C28.3163 67.1684 28.6554 67.179 28.978 67.0843C29.3021 66.9921 29.5811 66.7996 29.8332 66.5913C30.0859 66.3815 30.3186 66.1493 30.58 65.9473C30.8388 65.745 31.1345 65.5734 31.4722 65.5205C31.807 65.4608 32.1594 65.5067 32.4959 65.6111C33.1745 65.8212 33.7929 66.2266 34.4914 66.5252C34.8392 66.676 35.2159 66.8015 35.6175 66.8283C35.8167 66.8392 36.0208 66.8319 36.2197 66.7931C36.4163 66.7489 36.6103 66.6884 36.7907 66.603C37.5201 66.2746 38.1041 65.7198 38.8517 65.45C39.2227 65.3176 39.6292 65.2951 40.0235 65.3646C40.4202 65.4337 40.794 65.6056 41.1577 65.7906C41.8842 66.1653 42.5506 66.6488 43.3341 66.9254C43.7233 67.0629 44.1563 67.1182 44.566 67.0426C44.9826 66.9826 45.3472 66.7725 45.6589 66.5409C46.2851 66.0821 46.7875 65.485 47.4964 65.2658C47.8431 65.1514 48.2189 65.1728 48.5641 65.2669C48.9105 65.3659 49.2317 65.5297 49.5367 65.7087C49.8446 65.8857 50.1314 66.0851 50.4425 66.2559C50.7518 66.4248 51.0774 66.5656 51.4191 66.6469C51.7576 66.7286 52.1239 66.7532 52.4579 66.6491C52.7967 66.555 53.0647 66.3204 53.2532 66.0712C53.4478 65.8212 53.5915 65.5533 53.7638 65.3152C53.9318 65.0774 54.137 64.8615 54.405 64.7685C54.6704 64.6649 54.9647 64.695 55.2183 64.7994C55.475 64.9011 55.7026 65.056 55.9214 65.2086C56.3554 65.5134 56.7801 65.8424 57.2877 65.9435C57.792 66.046 58.2751 65.9237 58.6792 65.7735C59.4983 65.4709 60.0988 65.0052 60.7085 64.9139C61.3104 64.7945 61.7886 64.9654 62.0497 65.1297C62.3139 65.2997 62.4163 65.4326 62.4244 65.4248Z" fill="#FAFAFA"/>
<path d="M62.4244 82.3914C62.4244 82.3914 62.3298 82.2537 62.0653 82.0731C61.806 81.8982 61.3159 81.7127 60.6964 81.8268C60.0658 81.9144 59.4541 82.3784 58.6474 82.6669C58.2485 82.8115 57.7815 82.9232 57.3071 82.8226C56.8312 82.7252 56.4187 82.4061 55.9841 82.0956C55.7644 81.9407 55.5337 81.7799 55.2602 81.6698C54.9916 81.5562 54.6577 81.5191 54.3617 81.6335C54.0595 81.7371 53.8358 81.9752 53.6626 82.2184C53.4839 82.4636 53.3394 82.7299 53.1514 82.9685C52.9679 83.2079 52.7256 83.4159 52.4177 83.5005C52.1144 83.5944 51.7735 83.5721 51.4509 83.4932C51.1256 83.4148 50.8102 83.2779 50.5098 83.1125C50.2106 82.9471 49.9201 82.7445 49.6093 82.5647C49.2999 82.3828 48.97 82.2119 48.6037 82.1064C48.2395 82.0053 47.8275 81.9806 47.4516 82.104C47.0743 82.2198 46.7462 82.4383 46.4507 82.6767C46.1521 82.914 45.8742 83.1738 45.5672 83.3983C45.2631 83.6231 44.9219 83.8175 44.538 83.8715C44.1589 83.9409 43.7577 83.8916 43.3844 83.7595C42.6322 83.4943 41.9686 83.0154 41.2297 82.633C40.859 82.4448 40.4737 82.2664 40.0524 82.1924C39.6349 82.1178 39.192 82.1433 38.7985 82.2849C38.0101 82.5731 37.4264 83.132 36.7265 83.4447C36.5539 83.5268 36.3717 83.5832 36.1885 83.625C36.0037 83.6613 35.8146 83.6681 35.6282 83.6584C35.2529 83.6342 34.8912 83.516 34.5509 83.369C33.8657 83.0789 33.2459 82.6724 32.5387 82.4541C32.188 82.3459 31.8093 82.2962 31.4462 82.3621C31.0802 82.4204 30.7601 82.6089 30.4953 82.8183C29.9645 83.2345 29.5473 83.7619 28.9405 83.9393C28.6438 84.0272 28.3284 84.0204 28.0297 83.9637C27.7297 83.9078 27.4426 83.8116 27.1598 83.7191C26.6021 83.5358 26.0173 83.3457 25.4512 83.4666C25.1702 83.5187 24.9267 83.657 24.7168 83.8067C24.5067 83.9588 24.3222 84.125 24.1377 84.2774C23.9539 84.4307 23.7662 84.5679 23.5659 84.6701C23.3655 84.7713 23.1504 84.8304 22.9394 84.8597C22.5144 84.9169 22.1079 84.854 21.7587 84.7463C21.4071 84.6384 21.1105 84.4784 20.8592 84.3162C20.3582 83.9876 20.0251 83.663 19.7941 83.452C19.6837 83.3484 19.5976 83.2673 19.5342 83.2079C19.4753 83.1532 19.4443 83.1258 19.4423 83.1274C19.4403 83.129 19.4677 83.1597 19.523 83.2177C19.5837 83.2798 19.6664 83.3639 19.7725 83.4718C19.9968 83.6895 20.3235 84.0212 20.8257 84.3612C21.0769 84.5286 21.377 84.6956 21.7355 84.81C22.0917 84.9239 22.5086 84.9933 22.9509 84.9378C23.171 84.9093 23.3965 84.8494 23.6078 84.7447C23.8186 84.6395 24.0134 84.4987 24.2005 84.345C24.5734 84.0478 24.9447 83.6657 25.4743 83.564C26.0008 83.4533 26.5637 83.6345 27.1214 83.8219C27.4038 83.9154 27.6944 84.0149 28.0063 84.0746C28.3163 84.1351 28.6554 84.1457 28.978 84.051C29.3021 83.9588 29.5811 83.7663 29.8332 83.558C30.0859 83.3481 30.3186 83.116 30.58 82.914C30.8388 82.7117 31.1345 82.54 31.4722 82.4872C31.807 82.4275 32.1594 82.4733 32.4959 82.5777C33.1745 82.7879 33.7929 83.1933 34.4914 83.4919C34.8392 83.6426 35.2159 83.7682 35.6175 83.795C35.8167 83.8059 36.0208 83.7985 36.2197 83.7598C36.4163 83.7156 36.6103 83.6551 36.7907 83.5697C37.5201 83.2413 38.1041 82.6865 38.8517 82.4167C39.2227 82.2843 39.6292 82.2618 40.0235 82.3312C40.4202 82.4004 40.794 82.5723 41.1577 82.7572C41.8842 83.132 42.5506 83.6155 43.3341 83.8921C43.7233 84.0296 44.1563 84.0849 44.566 84.0093C44.9826 83.9493 45.3472 83.7392 45.6589 83.5076C46.2851 83.0488 46.7875 82.4516 47.4964 82.2325C47.8431 82.1181 48.2189 82.1395 48.5641 82.2336C48.9105 82.3326 49.2317 82.4964 49.5367 82.6753C49.8446 82.8524 50.1314 83.0517 50.4425 83.2226C50.7518 83.3915 51.0774 83.5323 51.4191 83.6136C51.7576 83.6952 52.1239 83.7199 52.4579 83.6158C52.7967 83.5217 53.0647 83.2871 53.2532 83.0379C53.4478 82.7879 53.5915 82.52 53.7638 82.2819C53.9318 82.0441 54.137 81.8282 54.405 81.7352C54.6704 81.6316 54.9647 81.6617 55.2183 81.7661C55.475 81.8678 55.7026 82.0226 55.9214 82.1753C56.3554 82.4801 56.7801 82.809 57.2877 82.9102C57.792 83.0127 58.2751 82.8904 58.6792 82.7402C59.4983 82.4375 60.0988 81.9719 60.7085 81.8805C61.3104 81.7612 61.7886 81.9321 62.0497 82.0964C62.3139 82.2664 62.4163 82.3993 62.4244 82.3914Z" fill="#FAFAFA"/>
<path d="M64.6866 57.1965C64.6863 57.1942 64.6432 57.1965 64.5595 57.2032C64.4688 57.2115 64.3457 57.2226 64.1878 57.2371C63.861 57.2552 63.3774 57.3782 62.7727 57.2045C62.4677 57.1443 62.1248 57.0895 61.7514 57.0321C61.3786 56.9734 60.9752 56.8915 60.5319 56.8447C60.0912 56.7977 59.5972 56.7974 59.1093 56.937C58.6206 57.0665 58.1462 57.2911 57.6232 57.4488C57.1022 57.6131 56.513 57.6333 55.9302 57.4927C55.3436 57.3684 54.7679 57.1262 54.1451 56.9321C53.5326 56.7338 52.8215 56.5816 52.117 56.7555C51.4202 56.9316 50.8592 57.3929 50.161 57.5465C49.9878 57.5834 49.8098 57.5943 49.6317 57.5798C49.4533 57.562 49.2761 57.5196 49.1012 57.4658C48.7505 57.3562 48.4113 57.1962 48.0391 57.0804C47.6746 56.9589 47.239 56.9072 46.8469 57.0442C46.4571 57.1784 46.1562 57.4333 45.8403 57.6444C45.6821 57.7507 45.5178 57.8489 45.3398 57.9163C45.1626 57.9841 44.9701 58.0125 44.7759 58.0117C44.3847 57.9985 44.0032 57.8592 43.6309 57.7041C43.2572 57.5498 42.8787 57.3761 42.4578 57.281C42.246 57.2407 42.0254 57.2148 41.8042 57.2409C41.5832 57.2637 41.3712 57.333 41.1776 57.4239C40.7887 57.6082 40.4676 57.8641 40.1255 58.0735C39.9547 58.1782 39.7777 58.2715 39.5908 58.3366C39.497 58.3681 39.4023 58.3974 39.3034 58.409L39.1566 58.4323L39.0073 58.4369C38.6072 58.4457 38.2128 58.3408 37.8339 58.2164C37.453 58.0924 37.0799 57.9468 36.6892 57.8419C36.3023 57.7377 35.8808 57.6723 35.4769 57.7636C35.0678 57.8422 34.7361 58.0781 34.4551 58.3154C34.172 58.5555 33.9154 58.8096 33.6139 58.9983C33.3153 59.1891 32.9557 59.2764 32.6027 59.257C32.248 59.2371 31.9091 59.1193 31.5906 58.981C31.271 58.8414 30.9675 58.6781 30.6605 58.5253C30.0558 58.2244 29.391 57.9455 28.7037 58.0169C28.0231 58.0887 27.4673 58.4271 26.9771 58.7437C26.4826 59.0637 26.0321 59.4028 25.5326 59.613C25.0393 59.8316 24.5212 59.9443 24.0258 59.9808C23.5287 60.0082 23.0592 59.9635 22.6288 59.8836C21.7729 59.6977 21.0952 59.3566 20.6188 59.0027C20.1383 58.6476 19.861 58.286 19.6826 58.0412C19.6009 57.9143 19.5477 57.8124 19.5063 57.7465C19.4666 57.6801 19.4447 57.6462 19.4424 57.6473C19.4401 57.6483 19.4571 57.6837 19.4925 57.7525C19.5293 57.8204 19.5785 57.9249 19.6567 58.0549C19.8279 58.3061 20.1006 58.6768 20.5814 59.043C21.0583 59.4075 21.7413 59.7611 22.6098 59.957C23.0465 60.042 23.5243 60.0911 24.0324 60.0663C24.5384 60.0325 25.0706 59.9206 25.579 59.6985C26.0948 59.484 26.551 59.1433 27.0444 58.828C27.5329 58.5147 28.0766 58.1919 28.7167 58.128C29.3594 58.0626 29.996 58.3273 30.5964 58.6287C30.9002 58.7809 31.2048 58.9461 31.5311 59.0901C31.8562 59.2322 32.21 59.3581 32.5938 59.3809C32.9749 59.4041 33.3748 59.3059 33.6933 59.1025C34.0138 58.9024 34.2744 58.6437 34.5526 58.4092C34.8293 58.1764 35.138 57.9608 35.5094 57.8905C35.8768 57.8073 36.2709 57.8665 36.6469 57.9683C37.0255 58.0704 37.3966 58.2154 37.783 58.3415C38.1673 58.4677 38.5775 58.5796 39.0102 58.5708L39.1716 58.5654L39.3318 58.5403C39.4394 58.5271 39.5436 58.4956 39.6445 58.4615C39.8471 58.3909 40.0335 58.2919 40.2096 58.1841C40.5611 57.9683 40.8798 57.7158 41.2464 57.5428C41.4287 57.457 41.6224 57.3945 41.822 57.3741C42.0219 57.3503 42.2248 57.3738 42.423 57.4113C42.8197 57.5005 43.1914 57.6692 43.5688 57.8254C43.9442 57.981 44.3424 58.1296 44.7722 58.1443C44.9856 58.1456 45.2017 58.113 45.3967 58.0381C45.5921 57.9639 45.7655 57.859 45.9281 57.7496C46.2511 57.5312 46.5449 57.2864 46.8979 57.1657C47.2491 57.0435 47.6381 57.0853 47.9922 57.2017C48.3504 57.3118 48.6913 57.4718 49.0546 57.585C49.2367 57.6405 49.424 57.6855 49.6173 57.7044C49.8109 57.7199 50.0068 57.7072 50.1924 57.6672C50.9389 57.4966 51.4936 57.0339 52.1529 56.8695C52.814 56.7038 53.4961 56.8429 54.1043 57.0375C54.7205 57.2267 55.301 57.4684 55.9028 57.5935C56.4981 57.7359 57.1249 57.7116 57.6565 57.539C58.1902 57.3743 58.6606 57.1482 59.1367 57.0189C59.6102 56.8804 60.0863 56.877 60.5227 56.9197C60.9603 56.962 61.3639 57.0404 61.7393 57.0954C62.1147 57.1494 62.4556 57.1998 62.7609 57.2559C62.9139 57.2826 63.0569 57.3133 63.1958 57.3312C63.3357 57.3495 63.4683 57.3428 63.588 57.333C63.8279 57.3105 64.0287 57.2839 64.1915 57.2642C64.3489 57.2443 64.4714 57.2285 64.5615 57.2172C64.6446 57.2058 64.6869 57.1988 64.6866 57.1965Z" fill="#FAFAFA"/>
<path d="M63.5555 73.0321C63.5553 73.0297 63.5218 73.0321 63.4569 73.0388C63.3867 73.0471 63.2913 73.0582 63.1689 73.0726C62.9156 73.0907 62.5408 73.2138 62.0722 73.0401C61.8358 72.9798 61.5701 72.925 61.2807 72.8677C60.9917 72.809 60.6792 72.7271 60.3356 72.6803C59.994 72.6332 59.6112 72.633 59.2331 72.7726C58.8543 72.902 58.4866 73.1267 58.0813 73.2843C57.6775 73.4487 57.2209 73.4689 56.7692 73.3283C56.3146 73.2039 55.8685 72.9618 55.3858 72.7676C54.9111 72.5694 54.36 72.4171 53.814 72.5911C53.274 72.7671 52.8392 73.2285 52.2981 73.382C52.1639 73.419 52.0259 73.4299 51.8879 73.4154C51.7497 73.3975 51.6123 73.3552 51.4768 73.3014C51.205 73.1918 50.9421 73.0318 50.6536 72.916C50.3712 72.7945 50.0336 72.7428 49.7297 72.8798C49.4276 73.014 49.1944 73.2688 48.9496 73.48C48.827 73.5862 48.6997 73.6845 48.5617 73.7519C48.4243 73.8196 48.2752 73.8481 48.1247 73.8473C47.8215 73.8341 47.5258 73.6948 47.2373 73.5397C46.9477 73.3854 46.6543 73.2117 46.3281 73.1166C46.164 73.0763 45.993 73.0504 45.8216 73.0765C45.6504 73.0993 45.486 73.1685 45.336 73.2595C45.0346 73.4438 44.7857 73.6997 44.5207 73.9091C44.3882 74.0137 44.2511 74.1071 44.1062 74.1722C44.0335 74.2037 43.9601 74.2329 43.8835 74.2446L43.7698 74.2678L43.654 74.2725C43.3439 74.2813 43.0382 74.1763 42.7446 74.052C42.4494 73.9279 42.1602 73.7824 41.8575 73.6775C41.5576 73.5733 41.231 73.5079 40.918 73.5992C40.6009 73.6777 40.3439 73.9137 40.126 74.151C39.9066 74.3911 39.7078 74.6452 39.4741 74.8339C39.2427 75.0246 38.964 75.112 38.6904 75.0926C38.4155 75.0727 38.1529 74.9549 37.9061 74.8166C37.6584 74.677 37.4232 74.5136 37.1853 74.3609C36.7166 74.06 36.2014 73.7811 35.6688 73.8525C35.1412 73.9243 34.7105 74.2627 34.3306 74.5793C33.9473 74.8993 33.5982 75.2384 33.2111 75.4485C32.8288 75.6672 32.4272 75.7799 32.0433 75.8164C31.6581 75.8438 31.2942 75.799 30.9607 75.7192C30.2974 75.5333 29.7721 75.1921 29.4029 74.8383C29.0306 74.4831 28.8156 74.1215 28.6774 73.8768C28.6141 73.7498 28.5728 73.648 28.5407 73.5821C28.51 73.5157 28.493 73.4818 28.4912 73.4828C28.4895 73.4839 28.5026 73.5193 28.53 73.588C28.5586 73.656 28.5967 73.7604 28.6573 73.8905C28.79 74.1417 29.0014 74.5123 29.3739 74.8786C29.7436 75.243 30.2729 75.5966 30.9459 75.7926C31.2844 75.8776 31.6547 75.9267 32.0485 75.9019C32.4406 75.868 32.8531 75.7561 33.247 75.5341C33.6468 75.3196 34.0004 74.9789 34.3828 74.6635C34.7613 74.3503 35.1827 74.0274 35.6788 73.9636C36.1769 73.8982 36.6703 74.1629 37.1356 74.4643C37.371 74.6165 37.6071 74.7817 37.8599 74.9256C38.1119 75.0678 38.3861 75.1937 38.6835 75.2164C38.9789 75.2397 39.2888 75.1415 39.5357 74.9381C39.784 74.738 39.986 74.4793 40.2016 74.2448C40.4161 74.0119 40.6553 73.7964 40.9432 73.7261C41.2279 73.6428 41.5333 73.702 41.8247 73.8039C42.1181 73.906 42.4057 74.051 42.7051 74.1771C43.003 74.3032 43.3209 74.4152 43.6563 74.4064L43.7813 74.4009L43.9055 74.3759C43.9889 74.3627 44.0696 74.3311 44.1479 74.297C44.3048 74.2265 44.4493 74.1275 44.5858 74.0197C44.8582 73.8039 45.1052 73.5513 45.3893 73.3784C45.5306 73.2926 45.6807 73.23 45.8354 73.2096C45.9904 73.1858 46.1475 73.2094 46.3012 73.2469C46.6086 73.336 46.8967 73.5048 47.1892 73.6609C47.4801 73.8165 47.7887 73.9652 48.1218 73.9799C48.2872 73.9812 48.4547 73.9486 48.6058 73.8736C48.7572 73.7995 48.8916 73.6945 49.0176 73.5852C49.268 73.3668 49.4956 73.122 49.7692 73.0013C50.0414 72.879 50.3428 72.9209 50.6173 73.0372C50.8949 73.1473 51.1591 73.3073 51.4407 73.4205C51.5818 73.4761 51.7269 73.5211 51.8768 73.54C52.0268 73.5555 52.1786 73.5428 52.3224 73.5027C52.901 73.3321 53.3309 72.8695 53.8419 72.7051C54.3542 72.5394 54.8828 72.6785 55.3542 72.8731C55.8317 73.0623 56.2816 73.304 56.7481 73.4291C57.2094 73.5715 57.6952 73.5472 58.1072 73.3745C58.5208 73.2099 58.8853 72.9837 59.2543 72.8545C59.6213 72.7159 59.9902 72.7126 60.3285 72.7552C60.6676 72.7976 60.9804 72.8759 61.2713 72.931C61.5623 72.985 61.8265 73.0354 62.063 73.0915C62.1816 73.1181 62.2925 73.1489 62.4001 73.1667C62.5085 73.1851 62.6113 73.1784 62.704 73.1685C62.89 73.146 63.0456 73.1194 63.1718 73.0998C63.2937 73.0799 63.3887 73.0641 63.4585 73.0527C63.5229 73.0414 63.5557 73.0344 63.5555 73.0321Z" fill="#FAFAFA"/>
<path d="M63.5555 89.9987C63.5552 89.9964 63.5175 89.9987 63.4442 90.0055C63.3649 90.0137 63.2572 90.0248 63.119 90.0393C62.833 90.0574 62.4099 90.1804 61.8808 90.0067C61.614 89.9465 61.3139 89.8917 60.9872 89.8343C60.6609 89.7757 60.308 89.6937 59.9201 89.647C59.5345 89.5999 59.1023 89.5996 58.6754 89.7392C58.2477 89.8687 57.8326 90.0933 57.375 90.251C56.9191 90.4154 56.4036 90.4356 55.8936 90.2949C55.3803 90.1706 54.8766 89.9284 54.3317 89.7343C53.7958 89.5361 53.1735 89.3838 52.557 89.5578C51.9474 89.7338 51.4565 90.1952 50.8456 90.3487C50.694 90.3857 50.5382 90.3965 50.3824 90.3821C50.2263 90.3642 50.0713 90.3218 49.9182 90.2681C49.6114 90.1585 49.3146 89.9985 48.9889 89.8827C48.67 89.7612 48.2889 89.7095 47.9458 89.8465C47.6047 89.9806 47.3414 90.2355 47.065 90.4467C46.9265 90.5529 46.7828 90.6511 46.627 90.7186C46.4719 90.7863 46.3035 90.8147 46.1336 90.814C45.7913 90.8008 45.4575 90.6615 45.1318 90.5064C44.8048 90.3521 44.4735 90.1784 44.1052 90.0833C43.92 90.0429 43.7269 90.0171 43.5333 90.0432C43.34 90.0659 43.1545 90.1352 42.9851 90.2262C42.6448 90.4105 42.3638 90.6664 42.0645 90.8757C41.915 90.9804 41.7602 91.0737 41.5966 91.1389C41.5145 91.1704 41.4317 91.1996 41.3451 91.2112L41.2168 91.2345L41.0861 91.2392C40.736 91.2479 40.3908 91.143 40.0593 91.0187C39.7261 90.8946 39.3996 90.7491 39.0577 90.6441C38.7192 90.54 38.3504 90.4746 37.997 90.5658C37.639 90.6444 37.3488 90.8804 37.1029 91.1177C36.8552 91.3578 36.6306 91.6119 36.3668 91.8006C36.1056 91.9913 35.7909 92.0787 35.482 92.0593C35.1717 92.0394 34.8751 91.9215 34.5965 91.7832C34.3168 91.6437 34.0513 91.4803 33.7827 91.3276C33.2536 91.0267 32.6718 90.7478 32.0705 90.8191C31.4749 90.891 30.9886 91.2293 30.5596 91.546C30.1269 91.866 29.7327 92.2051 29.2957 92.4152C28.864 92.6339 28.4107 92.7466 27.9772 92.783C27.5423 92.8104 27.1314 92.7657 26.7549 92.6858C26.006 92.5 25.4129 92.1588 24.9961 91.805C24.5757 91.4498 24.3331 91.0882 24.177 90.8434C24.1055 90.7165 24.0589 90.6147 24.0227 90.5488C23.988 90.4823 23.9688 90.4485 23.9668 90.4495C23.9648 90.4505 23.9797 90.486 24.0106 90.5547C24.0428 90.6227 24.0859 90.7271 24.1543 90.8571C24.3041 91.1084 24.5428 91.479 24.9634 91.8453C25.3807 92.2097 25.9783 92.5633 26.7383 92.7592C27.1204 92.8443 27.5385 92.8934 27.983 92.8686C28.4258 92.8347 28.8915 92.7228 29.3363 92.5008C29.7876 92.2862 30.1868 91.9456 30.6185 91.6302C31.046 91.317 31.5217 90.9941 32.0818 90.9303C32.6441 90.8649 33.2012 91.1296 33.7265 91.4309C33.9924 91.5832 34.2589 91.7483 34.5444 91.8923C34.8288 92.0345 35.1384 92.1604 35.4742 92.1831C35.8078 92.2064 36.1577 92.1081 36.4363 91.9047C36.7167 91.7047 36.9448 91.4459 37.1882 91.2115C37.4304 90.9786 37.7005 90.763 38.0254 90.6927C38.3469 90.6095 38.6917 90.6687 39.0207 90.7705C39.352 90.8726 39.6767 91.0176 40.0148 91.1438C40.3511 91.2699 40.71 91.3818 41.0886 91.373L41.2298 91.3676L41.37 91.3425C41.4642 91.3294 41.5553 91.2978 41.6437 91.2637C41.8209 91.1931 41.984 91.0941 42.1381 90.9864C42.4457 90.7705 42.7246 90.518 43.0452 90.3451C43.2048 90.2593 43.3742 90.1967 43.5489 90.1763C43.7239 90.1525 43.9014 90.176 44.0748 90.2135C44.4219 90.3027 44.7471 90.4715 45.0774 90.6276C45.4059 90.7832 45.7543 90.9318 46.1303 90.9466C46.3171 90.9479 46.5062 90.9153 46.6768 90.8403C46.8477 90.7661 46.9995 90.6612 47.1418 90.5519C47.4244 90.3335 47.6815 90.0887 47.9903 89.968C48.2977 89.8457 48.638 89.8876 48.9479 90.0039C49.2612 90.114 49.5595 90.274 49.8775 90.3872C50.0368 90.4428 50.2007 90.4878 50.3698 90.5066C50.5392 90.5221 50.7107 90.5095 50.873 90.4694C51.5262 90.2988 52.0116 89.8361 52.5885 89.6718C53.167 89.5061 53.7638 89.6451 54.2959 89.8398C54.8351 90.029 55.3431 90.2706 55.8697 90.3957C56.3905 90.5382 56.939 90.5139 57.4042 90.3412C57.8711 90.1766 58.2827 89.9504 58.6993 89.8212C59.1136 89.6826 59.5302 89.6793 59.9121 89.7219C60.2949 89.7643 60.6481 89.8426 60.9766 89.8977C61.3051 89.9517 61.6034 90.0021 61.8705 90.0582C62.0044 90.0848 62.1295 90.1156 62.2511 90.1334C62.3734 90.1518 62.4894 90.145 62.5942 90.1352C62.8041 90.1127 62.9798 90.0861 63.1223 90.0665C63.26 90.0466 63.3672 90.0308 63.446 90.0194C63.5187 90.008 63.5557 90.0011 63.5555 89.9987Z" fill="#FAFAFA"/>
<path d="M63.5555 99.0476C63.5552 99.0452 63.5142 99.0476 63.4347 99.0543C63.3486 99.0626 63.2316 99.0737 63.0816 99.0881C62.7711 99.1062 62.3117 99.2293 61.7372 99.0556C61.4475 98.9954 61.1218 98.9405 60.767 98.8832C60.4128 98.8245 60.0297 98.7426 59.6085 98.6958C59.1898 98.6487 58.7206 98.6485 58.2571 98.7881C57.7927 98.9176 57.3421 99.1422 56.8452 99.2998C56.3503 99.4642 55.7906 99.4844 55.2369 99.3438C54.6796 99.2194 54.1327 98.9773 53.5411 98.7831C52.9592 98.5849 52.2836 98.4327 51.6143 98.6066C50.9524 98.7826 50.4195 99.244 49.7562 99.3975C49.5916 99.4345 49.4225 99.4454 49.2533 99.4309C49.0839 99.413 48.9155 99.3707 48.7493 99.3169C48.4162 99.2073 48.094 99.0473 47.7403 98.9315C47.3941 98.81 46.9803 98.7583 46.6078 98.8953C46.2375 99.0295 45.9516 99.2843 45.6515 99.4955C45.5012 99.6017 45.3451 99.7 45.176 99.7674C45.0076 99.8351 44.8248 99.8636 44.6403 99.8628C44.2686 99.8496 43.9062 99.7103 43.5526 99.5552C43.1976 99.4009 42.8379 99.2272 42.4381 99.1321C42.2369 99.0918 42.0273 99.0659 41.8172 99.092C41.6073 99.1148 41.4058 99.184 41.2219 99.275C40.8524 99.4593 40.5474 99.7152 40.2225 99.9246C40.0601 100.029 39.8921 100.123 39.7144 100.188C39.6253 100.219 39.5354 100.248 39.4414 100.26L39.302 100.283L39.1602 100.288C38.78 100.297 38.4053 100.192 38.0454 100.068C37.6835 99.9434 37.3291 99.7979 36.9579 99.693C36.5903 99.5888 36.19 99.5234 35.8063 99.6147C35.4176 99.6932 35.1025 99.9292 34.8355 100.166C34.5666 100.407 34.3228 100.661 34.0364 100.849C33.7527 101.04 33.4111 101.128 33.0757 101.108C32.7388 101.088 32.4168 100.97 32.1143 100.832C31.8107 100.692 31.5223 100.529 31.2307 100.376C30.6562 100.076 30.0247 99.7966 29.3717 99.868C28.7251 99.9398 28.1971 100.278 27.7314 100.595C27.2616 100.915 26.8336 101.254 26.3592 101.464C25.8905 101.683 25.3983 101.795 24.9277 101.832C24.4554 101.859 24.0094 101.815 23.6005 101.735C22.7875 101.549 22.1436 101.208 21.691 100.854C21.2346 100.499 20.9711 100.137 20.8017 99.8923C20.7241 99.7653 20.6735 99.6635 20.6342 99.5976C20.5965 99.5312 20.5757 99.4973 20.5735 99.4983C20.5713 99.4994 20.5874 99.5348 20.6211 99.6035C20.656 99.6715 20.7028 99.7759 20.7771 99.906C20.9397 100.157 21.1988 100.528 21.6555 100.894C22.1086 101.259 22.7574 101.612 23.5825 101.808C23.9974 101.893 24.4513 101.942 24.934 101.917C25.4147 101.884 25.9203 101.772 26.4032 101.55C26.8932 101.335 27.3267 100.994 27.7954 100.679C28.2594 100.366 28.776 100.043 29.3841 99.9791C29.9946 99.9137 30.5994 100.178 31.1698 100.48C31.4584 100.632 31.7478 100.797 32.0577 100.941C32.3665 101.083 32.7027 101.209 33.0673 101.232C33.4294 101.255 33.8093 101.157 34.1118 100.954C34.4163 100.753 34.6639 100.495 34.9282 100.26C35.1911 100.027 35.4843 99.8119 35.8371 99.7416C36.1861 99.6583 36.5606 99.7175 36.9178 99.8194C37.2774 99.9215 37.63 100.066 37.997 100.193C38.3621 100.319 38.7519 100.431 39.1629 100.422L39.3162 100.416L39.4684 100.391C39.5706 100.378 39.6696 100.347 39.7655 100.313C39.9579 100.242 40.135 100.143 40.3023 100.035C40.6362 99.8194 40.939 99.5668 41.2872 99.3939C41.4605 99.3081 41.6444 99.2455 41.8341 99.2251C42.024 99.2014 42.2167 99.2249 42.405 99.2624C42.7819 99.3515 43.135 99.5203 43.4936 99.6764C43.8502 99.832 44.2285 99.9807 44.6368 99.9954C44.8395 99.9967 45.0448 99.9641 45.2301 99.8892C45.4157 99.815 45.5805 99.71 45.7349 99.6007C46.0418 99.3823 46.3208 99.1375 46.6562 99.0168C46.9899 98.8945 47.3593 98.9364 47.6958 99.0527C48.036 99.1628 48.3599 99.3228 48.7051 99.436C48.8781 99.4916 49.056 99.5366 49.2396 99.5555C49.4236 99.571 49.6097 99.5583 49.786 99.5182C50.4952 99.3476 51.0221 98.885 51.6485 98.7206C52.2765 98.5549 52.9245 98.694 53.5022 98.8886C54.0876 99.0778 54.6392 99.3195 55.2109 99.4446C55.7764 99.587 56.3719 99.5627 56.8769 99.39C57.3839 99.2254 57.8307 98.9992 58.283 98.87C58.7329 98.7314 59.1852 98.7281 59.5998 98.7707C60.0155 98.8131 60.3989 98.8914 60.7556 98.9465C61.1122 99.0005 61.4361 99.0509 61.726 99.107C61.8714 99.1336 62.0072 99.1644 62.1393 99.1822C62.2721 99.2006 62.3981 99.1939 62.5118 99.184C62.7397 99.1615 62.9304 99.1349 63.0851 99.1153C63.2346 99.0954 63.3511 99.0796 63.4366 99.0682C63.5156 99.0569 63.5558 99.0499 63.5555 99.0476Z" fill="#FAFAFA"/>
<path d="M60.2424 90.2886C59.7999 89.7755 59.1121 89.5608 58.4614 89.3724C50.4009 87.046 42.1891 85.2291 33.8822 84.0534C31.9529 83.7801 29.9398 83.5486 28.0949 84.1754C26.2499 84.8015 24.1436 86.5622 24.3164 88.5029L24.0473 89.1494C27.4221 91.2156 31.4194 92.0212 35.3731 91.8501C37.7312 91.7479 40.3082 91.2808 42.286 92.569C43.6256 93.4416 44.3917 94.9552 45.5388 96.0688C47.0369 97.5232 49.215 98.2397 51.2866 97.9802C53.3589 97.7206 55.2852 96.4976 56.4203 94.7447C57.0476 93.7759 57.6026 92.5343 58.7365 92.3178C59.2138 92.2269 59.749 92.3388 60.1587 92.0774C60.7304 91.7144 60.685 90.8018 60.2424 90.2886Z" fill="black" fill-opacity="0.3"/>
<path d="M43.8708 82.2311L24.3858 74.7872L25.3618 71.3789L13.7752 66.7434C12.1324 71.3651 10.9189 74.3661 10.471 77.8516C10.4435 78.0645 10.4237 78.2744 10.4106 78.4819C10.1122 83.2687 13.731 87.4204 18.4741 88.1308L42.3422 89.7294L43.8708 82.2311Z" fill="#FFBE9D"/>
<path d="M52.9941 91.2103L52.8673 90.8479C52.8673 90.8479 53.6717 92.7676 52.8751 93.9703C52.7453 94.1664 52.5934 94.3106 52.4319 94.4212C52.2609 95.1413 51.7053 95.7608 51.0026 95.9965C50.2712 96.2417 49.4136 96.0617 48.8418 95.5438C48.5685 95.2962 48.3514 94.9044 48.5027 94.5683C48.5823 94.3907 48.7479 94.2699 48.904 94.1539C48.986 94.0929 49.0685 94.0271 49.1379 93.9523L47.7492 93.3172C47.7492 93.3172 44.2566 92.2646 43.7518 90.1452C43.6711 89.8055 35.9317 88.6052 35.9317 88.6052L38.5201 80.1709L50.8202 84.9063C50.8202 84.9063 59.572 88.0771 60.45 88.2834C61.3853 88.5035 61.2753 89.1877 61.1658 89.5567C60.9948 90.1314 60.5062 90.2516 59.6282 90.0818C59.3244 90.0232 53.8858 88.9138 53.8858 88.9138C54.186 89.6918 54.5065 90.9137 53.7028 91.1373L52.9941 91.2103Z" fill="#FFBE9D"/>
<path d="M50.1671 91.6062C50.182 91.5686 50.4278 91.617 50.8118 91.7516C51.1885 91.8897 51.734 92.1224 52.1789 92.6044C52.6364 93.0786 52.777 93.7341 52.6759 94.1521C52.5862 94.5833 52.3565 94.7621 52.3344 94.7358C52.2943 94.7089 52.4397 94.499 52.463 94.1234C52.4947 93.7502 52.3548 93.2305 51.9547 92.8095C51.5635 92.3837 51.0743 92.1337 50.7257 91.9483C50.3722 91.7677 50.1509 91.6469 50.1671 91.6062Z" fill="#EB996E"/>
<path d="M50.9105 88.9555C50.9242 88.9214 51.2143 88.9877 51.6221 89.2359C52.027 89.4805 52.5383 89.9327 52.8966 90.5768C53.2554 91.2209 53.3714 91.8937 53.3661 92.3667C53.3631 92.844 53.2668 93.1256 53.2303 93.1191C53.1382 93.1227 53.3092 91.9325 52.631 90.7251C51.9612 89.5128 50.859 89.032 50.9105 88.9555Z" fill="#EB996E"/>
<path d="M52.2716 87.8409C52.2926 87.7631 52.8117 87.8516 53.335 88.2134C53.8606 88.5723 54.1298 89.025 54.0646 89.0728C53.997 89.1279 53.6465 88.7935 53.1627 88.4646C52.6825 88.1309 52.2447 87.924 52.2716 87.8409Z" fill="#EB996E"/>
<path d="M50.5349 94.7632C50.4518 94.7859 50.2969 94.4696 49.9458 94.2627C49.6025 94.0426 49.2503 94.048 49.2329 93.963C49.1976 93.8847 49.6486 93.7196 50.1049 94.0031C50.5642 94.2824 50.621 94.7596 50.5349 94.7632Z" fill="#EB996E"/>
<path d="M26.2266 54.8797C26.2475 54.8761 26.3026 55.0705 26.3827 55.4263C26.464 55.7815 26.5663 56.2995 26.6793 56.9412C26.906 58.2246 27.1625 60.0086 27.3473 61.9893C27.5303 63.9706 27.6069 65.7714 27.6201 67.0745C27.6266 67.7264 27.6219 68.2533 27.6069 68.6181C27.5931 68.9823 27.5752 69.1838 27.5537 69.1838C27.5082 69.1844 27.4693 68.3801 27.3994 67.0817C27.33 65.7839 27.2194 63.9922 27.037 62.018C26.8534 60.0444 26.6321 58.2635 26.4616 56.9747C26.2918 55.6859 26.1818 54.8881 26.2266 54.8797Z" fill="#263238"/>
<path d="M61.3875 45.0517C61.4084 45.0488 61.4662 45.1852 61.5514 45.4354C61.6378 45.6851 61.7474 46.0495 61.8695 46.5013C62.1144 47.4049 62.3964 48.662 62.6094 50.0599C62.8206 51.4582 62.9228 52.7308 62.9545 53.6526C62.9704 54.1138 62.9731 54.4867 62.9633 54.7451C62.9548 55.0031 62.9397 55.1461 62.9182 55.1465C62.8728 55.1479 62.8224 54.5795 62.734 53.6622C62.6461 52.7453 62.51 51.4797 62.2994 50.0864C62.0878 48.6936 61.8411 47.4379 61.6524 46.5294C61.4642 45.6208 61.3428 45.0585 61.3875 45.0517Z" fill="#263238"/>
</svg>
