<svg width="375" height="48" viewBox="0 0 375 48" fill="none" xmlns="http://www.w3.org/2000/svg">
<rect width="375" height="48" fill="#FEF8F3"/>
<path fill-rule="evenodd" clip-rule="evenodd" d="M294 23H295C295.552 23 296 23.4477 296 24V30C296 30.5523 295.552 31 295 31H294C293.448 31 293 30.5523 293 30V24C293 23.4477 293.448 23 294 23Z" fill="#F9F9F9"/>
<path fill-rule="evenodd" clip-rule="evenodd" d="M289.5 25H290.5C291.052 25 291.5 25.4477 291.5 26V30C291.5 30.5523 291.052 31 290.5 31H289.5C288.948 31 288.5 30.5523 288.5 30V26C288.5 25.4477 288.948 25 289.5 25Z" fill="#F9F9F9"/>
<path fill-rule="evenodd" clip-rule="evenodd" d="M285 26.5H286C286.552 26.5 287 26.9477 287 27.5V30C287 30.5523 286.552 31 286 31H285C284.448 31 284 30.5523 284 30V27.5C284 26.9477 284.448 26.5 285 26.5Z" fill="#F9F9F9"/>
<path fill-rule="evenodd" clip-rule="evenodd" d="M298.5 21H299.5C300.052 21 300.5 21.4477 300.5 22V30C300.5 30.5523 300.052 31 299.5 31H298.5C297.948 31 297.5 30.5523 297.5 30V22C297.5 21.4477 297.948 21 298.5 21Z" fill="#3C3C43" fill-opacity="0.18"/>
<path fill-rule="evenodd" clip-rule="evenodd" d="M294 23H295C295.552 23 296 23.4477 296 24V30C296 30.5523 295.552 31 295 31H294C293.448 31 293 30.5523 293 30V24C293 23.4477 293.448 23 294 23Z" fill="black"/>
<path fill-rule="evenodd" clip-rule="evenodd" d="M289.5 25H290.5C291.052 25 291.5 25.4477 291.5 26V30C291.5 30.5523 291.052 31 290.5 31H289.5C288.948 31 288.5 30.5523 288.5 30V26C288.5 25.4477 288.948 25 289.5 25Z" fill="black"/>
<path fill-rule="evenodd" clip-rule="evenodd" d="M285 26.5H286C286.552 26.5 287 26.9477 287 27.5V30C287 30.5523 286.552 31 286 31H285C284.448 31 284 30.5523 284 30V27.5C284 26.9477 284.448 26.5 285 26.5Z" fill="black"/>
<path d="M314.132 27.9395C314.771 27.9395 315.393 28.1075 315.94 28.4279L316.162 28.5577C316.33 28.6562 316.36 28.8865 316.222 29.024L314.328 30.9129C314.212 31.0289 314.023 31.0289 313.907 30.9129L312.025 29.0362C311.887 28.8993 311.916 28.6701 312.083 28.5709L312.302 28.4405C312.855 28.112 313.484 27.9395 314.132 27.9395Z" fill="black"/>
<path d="M314.133 24.4697C315.724 24.4697 317.251 24.9975 318.495 25.9748L318.671 26.1129C318.811 26.223 318.824 26.4305 318.697 26.5564L317.567 27.684C317.462 27.7883 317.297 27.8003 317.178 27.7121L317.04 27.6097C316.2 26.9851 315.186 26.6501 314.133 26.6501C313.073 26.6501 312.053 26.9893 311.21 27.621L311.072 27.7244C310.953 27.8133 310.787 27.8016 310.682 27.697L309.552 26.5697C309.426 26.4442 309.438 26.2372 309.578 26.1269L309.753 25.9886C311 25.0026 312.534 24.4697 314.133 24.4697Z" fill="black"/>
<path d="M314.133 21C316.657 21 319.072 21.8906 320.983 23.5229L321.146 23.6623C321.278 23.7749 321.285 23.9756 321.163 24.098L320.036 25.2219C319.926 25.3308 319.752 25.3385 319.634 25.2395L319.494 25.1228C317.989 23.8647 316.104 23.1804 314.133 23.1804C312.155 23.1804 310.263 23.8694 308.756 25.1354L308.617 25.2527C308.498 25.3521 308.324 25.3447 308.214 25.2356L307.087 24.1118C306.965 23.9895 306.972 23.7892 307.104 23.6765L307.266 23.5371C309.18 21.8959 311.601 21 314.133 21Z" fill="black"/>
<path d="M350 24C350.552 24 351 24.4477 351 25V27C351 27.5523 350.552 28 350 28V24Z" fill="#3C3C43" fill-opacity="0.6"/>
<path fill-rule="evenodd" clip-rule="evenodd" d="M329 20H346C347.657 20 349 21.3431 349 23V29C349 30.6569 347.657 32 346 32H329C327.343 32 326 30.6569 326 29V23C326 21.3431 327.343 20 329 20ZM329 21C327.895 21 327 21.8954 327 23V29C327 30.1046 327.895 31 329 31H346C347.105 31 348 30.1046 348 29V23C348 21.8954 347.105 21 346 21H329Z" fill="#3C3C43" fill-opacity="0.6"/>
<rect x="328" y="22" width="19" height="8" rx="1" fill="black"/>
<path d="M42.8672 31.0889C45.5552 31.0889 47.1519 28.9868 47.1519 25.4272C47.1519 24.0869 46.8955 22.959 46.4048 22.0874C45.6943 20.7324 44.4712 20 42.9258 20C40.626 20 39 21.5454 39 23.7134C39 25.7495 40.4648 27.229 42.479 27.229C43.7168 27.229 44.7202 26.6504 45.2183 25.647H45.2402C45.2402 25.647 45.2695 25.647 45.2769 25.647C45.2915 25.647 45.3428 25.647 45.3428 25.647C45.3428 28.064 44.4272 29.5068 42.8818 29.5068C41.9736 29.5068 41.2705 29.0088 41.0288 28.2104H39.1465C39.4614 29.9463 40.9336 31.0889 42.8672 31.0889ZM42.9331 25.7275C41.7173 25.7275 40.853 24.8633 40.853 23.6548C40.853 22.4756 41.7612 21.5747 42.9404 21.5747C44.1196 21.5747 45.0278 22.4902 45.0278 23.6841C45.0278 24.8633 44.1416 25.7275 42.9331 25.7275Z" fill="black"/>
<path d="M50.243 30.9863C50.9388 30.9863 51.4148 30.4883 51.4148 29.8291C51.4148 29.1626 50.9388 28.6719 50.243 28.6719C49.5545 28.6719 49.0711 29.1626 49.0711 29.8291C49.0711 30.4883 49.5545 30.9863 50.243 30.9863ZM50.243 25.4932C50.9388 25.4932 51.4148 25.0024 51.4148 24.3433C51.4148 23.6768 50.9388 23.186 50.243 23.186C49.5545 23.186 49.0711 23.6768 49.0711 24.3433C49.0711 25.0024 49.5545 25.4932 50.243 25.4932Z" fill="black"/>
<path d="M58.2706 30.8325H60.0797V28.8623H61.5079V27.2656H60.0797V20.2637H57.4137C55.546 23.0762 54.0592 25.4272 53.107 27.1777V28.8623H58.2706V30.8325ZM54.8575 27.1997C56.088 25.0317 57.1866 23.2959 58.1974 21.8018H58.2999V27.3096H54.8575V27.1997Z" fill="black"/>
<path d="M65.5365 30.8325H67.4262V20.2637H65.5438L62.7826 22.1973V24.0137L65.412 22.168H65.5365V30.8325Z" fill="black"/>
</svg>
