<svg width="327" height="256" viewBox="0 0 327 256" fill="none" xmlns="http://www.w3.org/2000/svg">
<g clip-path="url(#clip0_2138_6507)">
<path d="M326.063 254.599C326.063 254.857 252.856 255.066 162.571 255.066C72.2553 255.066 -0.936523 254.855 -0.936523 254.599C-0.936523 254.342 72.2553 254.131 162.571 254.131C252.856 254.131 326.063 254.34 326.063 254.599Z" fill="#263238"/>
<path d="M47.835 199.265V215.346H71.4189H97.4305V199.265H47.835Z" fill="#F5F5F5"/>
<path d="M45.7529 194.769V199.265H99.1653V194.769H71.4178H45.7529Z" fill="#EBEBEB"/>
<path d="M72.4573 215.345H97.4296V199.265H99.1655V194.769H71.418V198.849L72.4573 215.345Z" fill="#E0E0E0"/>
<path d="M64.828 201.858H54.7695V204.278H64.828V201.858Z" fill="#E0E0E0"/>
<path d="M66.3908 207.306H53.4756V212.418H66.3908V207.306Z" fill="#E0E0E0"/>
<path d="M108.319 254.043L107.135 3.7373H102.276V53.031H89.721L89.4878 3.7373H84.6285V53.031H42.8696H41.4424L41.2092 3.7373H36.3498V53.031H23.8318L23.5986 3.7373H18.7393V254.043H24.7841L24.6232 220.45H36.3491V254.043H42.3931L42.2338 220.45H84.6292V254.043H90.6741L90.5147 220.45H102.276V254.043H108.319ZM30.1674 187.282L25.825 168.729H34.7407L30.1674 187.282ZM36.3483 169.865V213.69L31.087 191.213L36.3483 169.865ZM36.3483 106.159L31.087 83.6819L36.3483 62.3338V106.159ZM35.4069 110.185H24.5563L30.1215 87.6034L35.4069 110.185ZM30.1674 79.751L25.1946 58.5006H35.4046L30.1674 79.751ZM29.2019 83.6718L24.0744 104.476L23.8684 60.8842L29.2019 83.6718ZM24.3877 170.634L29.2019 191.203L24.5734 209.982L24.3877 170.634ZM30.1208 195.135L34.7656 214.98H25.2311L30.1208 195.135ZM24.5455 163.26L24.505 163.089L24.3527 163.124L24.128 115.655H36.3491V163.26H24.5455ZM41.7386 115.654H84.6285V163.259H42.8696H41.964L41.7386 115.654ZM95.7099 87.6019L100.994 110.184H90.1439L95.7099 87.6019ZM89.9589 103.268L89.7646 62.2066L94.7895 83.6695L89.9589 103.268ZM102.276 107.61L96.6746 83.6803L102.276 60.9532V107.61ZM102.276 110.106V110.185H101.936L102.276 110.106ZM102.276 171.166V212.322L97.3354 191.214L102.276 171.166ZM96.415 187.282L92.0726 168.729H100.987L96.415 187.282ZM95.755 79.7494L90.7798 58.4998H100.99L95.755 79.7494ZM102.276 115.654V163.259H90.793L90.7526 163.088L90.2442 163.206L90.0188 115.654H102.276V115.654ZM95.4495 191.203L90.4712 211.403L90.2714 169.077L95.4495 191.203ZM96.3683 195.135L101.013 214.98H91.4787L96.3683 195.135ZM84.6285 58.5006V110.185H42.8696H41.7121L41.4673 58.5006H84.6285ZM42.9831 214.98H42.2081L41.9881 168.729H84.6285V214.98H42.9831Z" fill="#EBEBEB"/>
<path d="M42.9775 110.434V104.784H82.9904L83.1179 110.434H42.9775Z" fill="#E0E0E0"/>
<path d="M83.0115 105.706C83.0115 105.706 47.523 105.966 45.2259 106.506C44.7315 106.622 44.2285 108.794 45.2259 108.993C46.2232 109.192 83.0115 109.491 83.0115 109.491V105.706Z" fill="white"/>
<path d="M47.627 104.561V98.9116H79.3243L79.4253 104.561H47.627Z" fill="#EBEBEB"/>
<path d="M79.339 99.834C79.339 99.834 51.2269 100.094 49.4071 100.633C49.0145 100.749 48.6157 102.921 49.4071 103.121C50.1977 103.321 79.339 103.62 79.339 103.62V99.834Z" fill="white"/>
<path d="M47.4863 98.9797V93.3311H79.1821L79.2831 98.9797H47.4863Z" fill="#E0E0E0"/>
<path d="M79.1976 94.2534C79.1976 94.2534 51.0863 94.5131 49.2665 95.0526C48.8739 95.1681 48.4751 97.3417 49.2665 97.5401C50.0571 97.7393 79.1976 98.0378 79.1976 98.0378V94.2534Z" fill="white"/>
<path d="M84.6285 15.6274H76.6006V52.9378H84.6285V15.6274Z" fill="#E0E0E0"/>
<path d="M82.3669 43.9866C82.3669 44.8618 81.6549 45.5718 80.7765 45.5718C79.898 45.5718 79.1875 44.8618 79.1875 43.9866C79.1875 43.1107 79.898 42.4014 80.7765 42.4014C81.6549 42.4006 82.3669 43.1107 82.3669 43.9866Z" fill="white"/>
<path d="M81.937 25.5117H79.4805V40.76H81.937V25.5117Z" fill="white"/>
<path d="M76.4732 15.6274H68.4453V52.9378H76.4732V15.6274Z" fill="#EBEBEB"/>
<path d="M72.6208 45.5724C73.4992 45.5724 74.2113 44.8623 74.2113 43.9864C74.2113 43.1105 73.4992 42.4004 72.6208 42.4004C71.7424 42.4004 71.0303 43.1105 71.0303 43.9864C71.0303 44.8623 71.7424 45.5724 72.6208 45.5724Z" fill="white"/>
<path d="M73.7807 25.5117H71.3242V40.76H73.7807V25.5117Z" fill="white"/>
<path d="M68.7086 15.6274H60.6807V52.9378H68.7086V15.6274Z" fill="#F5F5F5"/>
<path d="M66.4466 43.9866C66.4466 44.8618 65.7345 45.5718 64.8561 45.5718C63.9777 45.5718 63.2656 44.8618 63.2656 43.9866C63.2656 43.1107 63.9777 42.4014 64.8561 42.4014C65.7345 42.4006 66.4466 43.1107 66.4466 43.9866Z" fill="white"/>
<path d="M66.0161 25.5117H63.5596V40.76H66.0161V25.5117Z" fill="white"/>
<path d="M84.6285 126.049H76.6006V163.359H84.6285V126.049Z" fill="#E0E0E0"/>
<path d="M82.3669 154.407C82.3669 155.282 81.6549 155.992 80.7765 155.992C79.898 155.992 79.1875 155.282 79.1875 154.407C79.1875 153.531 79.898 152.821 80.7765 152.821C81.6549 152.822 82.3669 153.532 82.3669 154.407Z" fill="white"/>
<path d="M81.937 135.933H79.4805V151.181H81.937V135.933Z" fill="white"/>
<path d="M76.4732 126.049H68.4453V163.359H76.4732V126.049Z" fill="#EBEBEB"/>
<path d="M74.2113 154.407C74.2113 155.282 73.5 155.992 72.6208 155.992C71.7439 155.992 71.0303 155.282 71.0303 154.407C71.0303 153.531 71.7431 152.821 72.6208 152.821C73.4992 152.822 74.2113 153.532 74.2113 154.407Z" fill="white"/>
<path d="M73.7807 135.933H71.3242V151.181H73.7807V135.933Z" fill="white"/>
<path d="M68.7086 126.049H60.6807V163.359H68.7086V126.049Z" fill="#F5F5F5"/>
<path d="M66.4466 154.407C66.4466 155.282 65.7345 155.992 64.8561 155.992C63.9777 155.992 63.2656 155.282 63.2656 154.407C63.2656 153.531 63.9777 152.821 64.8561 152.821C65.7345 152.822 66.4466 153.532 66.4466 154.407Z" fill="white"/>
<path d="M66.0161 135.933H63.5596V151.181H66.0161V135.933Z" fill="white"/>
<path d="M50.7533 52.3689L60.3989 19.5476L57.0733 18.0918L47.1797 51.1798L50.7533 52.3689Z" fill="#E0E0E0"/>
<path d="M300.099 155.57C294.952 158.228 291.006 162.805 288.168 167.845C285.331 172.885 283.501 178.415 281.69 183.905L280.104 212.219C286.093 202.061 290.899 190.118 292.198 178.406C290.87 178.287 289.541 178.17 288.213 178.052C290.885 177.645 293.128 175.714 294.555 173.425C295.982 171.136 296.716 168.497 297.433 165.898C295.813 166.138 294.192 166.378 292.571 166.619C296.378 164.084 299.139 160.033 300.099 155.57Z" fill="#455A64"/>
<g opacity="0.3">
<path d="M300.099 155.57C294.952 158.228 291.006 162.805 288.168 167.845C285.331 172.885 283.501 178.415 281.69 183.905L280.104 212.219C286.093 202.061 290.899 190.118 292.198 178.406C290.87 178.287 289.541 178.17 288.213 178.052C290.885 177.645 293.128 175.714 294.555 173.425C295.982 171.136 296.716 168.497 297.433 165.898C295.813 166.138 294.192 166.378 292.571 166.619C296.378 164.084 299.139 160.033 300.099 155.57Z" fill="#48B04F"/>
</g>
<path d="M279.218 218.853C279.218 218.853 266.22 203.34 266.37 188.53H271.621C271.621 188.53 265.918 184.79 266.369 182.696C266.821 180.602 266.971 172.673 266.971 172.673L271.771 173.87C271.771 173.87 268.171 172.075 267.721 169.232C267.271 166.39 268.771 153.226 268.771 153.226C268.771 153.226 274.621 159.359 276.422 165.642C278.222 171.926 282.948 179.255 281.56 198.403C280.172 217.551 279.218 218.853 279.218 218.853Z" fill="#B3E5BA"/>
<path d="M285.808 220.318C285.808 220.318 299.89 210.963 303.019 199.024L298.797 197.878C298.797 197.878 304.203 196.115 304.3 194.333C304.397 192.551 306.015 186.144 306.015 186.144L301.894 186.059C301.894 186.059 305.182 185.401 306.168 183.214C307.153 181.027 308.835 170.116 308.835 170.116C308.835 170.116 302.786 173.771 299.96 178.429C297.134 183.088 291.727 187.95 288.641 203.647C285.555 219.345 285.808 220.318 285.808 220.318Z" fill="#B3E5BA"/>
<path d="M272.32 166.752C272.324 166.751 272.339 166.806 272.366 166.913C272.394 167.032 272.431 167.19 272.478 167.391C272.575 167.824 272.713 168.442 272.889 169.232C273.069 170.032 273.278 171.012 273.505 172.153C273.736 173.293 274.005 174.591 274.268 176.032C274.824 178.909 275.411 182.348 276.015 186.174C276.601 190.003 277.186 194.221 277.706 198.66C278.216 203.102 278.612 207.344 278.917 211.206C279.204 215.069 279.42 218.551 279.537 221.478C279.61 222.941 279.645 224.265 279.681 225.428C279.721 226.591 279.742 227.593 279.75 228.412C279.759 229.221 279.766 229.854 279.772 230.298C279.772 230.505 279.772 230.667 279.772 230.788C279.77 230.898 279.768 230.955 279.764 230.955C279.76 230.955 279.755 230.899 279.748 230.789C279.743 230.667 279.735 230.505 279.726 230.299C279.711 229.855 279.69 229.222 279.662 228.414C279.641 227.596 279.607 226.595 279.555 225.433C279.506 224.271 279.461 222.947 279.377 221.486C279.24 218.561 279.008 215.082 278.709 211.223C278.392 207.364 277.99 203.126 277.481 198.687C276.961 194.251 276.383 190.034 275.809 186.206C275.216 182.381 274.647 178.941 274.111 176.063C273.858 174.621 273.6 173.321 273.381 172.179C273.167 171.036 272.97 170.054 272.804 169.251C272.646 168.458 272.522 167.837 272.434 167.402C272.397 167.198 272.366 167.039 272.344 166.919C272.324 166.809 272.316 166.753 272.32 166.752Z" fill="#455A64"/>
<path d="M277.415 228.353C277.415 228.353 265.52 214.895 261.827 206.76L264.615 205.572C262.594 205.905 260.524 205.038 258.956 203.723C257.389 202.407 256.239 200.678 255.11 198.973L258.783 198.354C255.443 197.419 252.5 195.146 250.758 192.155C255.092 192.866 259.013 195.24 262.245 198.207C264.861 200.61 267.078 203.399 269.205 206.249C270.243 207.639 271.152 209.121 271.909 210.681C273.906 214.802 277.422 223.411 277.415 228.353Z" fill="#46745E"/>
<path d="M303.206 177.95C303.209 177.951 303.191 177.998 303.15 178.087C303.104 178.186 303.043 178.315 302.966 178.477C302.794 178.832 302.551 179.332 302.241 179.97C301.602 181.262 300.698 183.141 299.604 185.473C298.506 187.803 297.244 190.599 295.888 193.722C294.543 196.851 293.111 200.31 291.686 203.972C290.269 207.638 288.995 211.159 287.879 214.377C286.776 217.598 285.823 220.513 285.063 222.974C284.299 225.433 283.7 227.43 283.302 228.813C283.101 229.494 282.943 230.026 282.832 230.404C282.779 230.576 282.736 230.712 282.704 230.816C282.674 230.909 282.657 230.956 282.653 230.955C282.649 230.954 282.659 230.905 282.682 230.81C282.709 230.705 282.744 230.566 282.788 230.392C282.89 230.012 283.034 229.475 283.217 228.79C283.59 227.398 284.165 225.394 284.91 222.927C285.651 220.459 286.588 217.537 287.682 214.309C288.788 211.086 290.057 207.559 291.475 203.89C292.901 200.225 294.34 196.766 295.696 193.639C297.064 190.518 298.343 187.727 299.459 185.404C300.572 183.079 301.499 181.211 302.161 179.93C302.488 179.3 302.744 178.806 302.925 178.457C303.01 178.298 303.077 178.172 303.129 178.076C303.177 177.991 303.202 177.948 303.206 177.95Z" fill="#455A64"/>
<path d="M278.424 234.12C278.416 234.121 278.397 234.036 278.368 233.872C278.338 233.684 278.301 233.448 278.254 233.158C278.209 232.847 278.151 232.467 278.069 232.029C277.99 231.59 277.913 231.088 277.793 230.54C277.58 229.438 277.275 228.137 276.886 226.705C276.484 225.278 275.991 223.723 275.389 222.121C274.779 220.521 274.118 219.028 273.473 217.692C272.817 216.361 272.183 215.183 271.612 214.216C271.338 213.726 271.064 213.298 270.832 212.917C270.603 212.534 270.395 212.211 270.223 211.948C270.065 211.699 269.937 211.497 269.835 211.336C269.748 211.194 269.706 211.118 269.713 211.113C269.719 211.109 269.774 211.177 269.873 211.31C269.984 211.464 270.124 211.659 270.296 211.899C270.48 212.155 270.7 212.471 270.939 212.849C271.181 213.226 271.466 213.648 271.75 214.135C272.34 215.094 272.991 216.269 273.661 217.6C274.318 218.937 274.988 220.433 275.602 222.04C276.206 223.65 276.695 225.214 277.088 226.65C277.467 228.09 277.757 229.4 277.951 230.51C278.061 231.062 278.126 231.567 278.194 232.009C278.264 232.45 278.31 232.833 278.341 233.146C278.371 233.439 278.395 233.677 278.414 233.867C278.428 234.032 278.432 234.119 278.424 234.12Z" fill="#455A64"/>
<path d="M294.119 230.955H268.086V236.25H294.119V230.955Z" fill="#455A64"/>
<path d="M270.566 236.25L273.382 254.062H289.113L291.738 236.25H270.566Z" fill="#455A64"/>
<path d="M292.523 236.25C292.523 236.313 287.598 236.363 281.524 236.363C275.448 236.363 270.524 236.312 270.524 236.25C270.524 236.188 275.448 236.137 281.524 236.137C287.598 236.137 292.523 236.188 292.523 236.25Z" fill="#263238"/>
<path d="M141.433 65.3874C141.956 62.7708 143.812 61.377 146.283 60.3505C148.753 59.324 151.727 59.6061 153.959 61.0782C155.451 62.0629 156.668 63.557 158.394 64.03C161.235 64.8092 164.353 62.5209 167.098 63.5881C168.724 64.2198 169.767 66.077 169.459 67.7894C169.152 69.5012 167.525 70.8811 165.781 70.9101C167.638 71.4507 168.372 73.9916 167.42 75.6702C166.469 77.3488 164.333 78.1002 162.413 77.8722C160.492 77.6443 158.763 76.6066 157.242 75.4149C155.721 74.2233 154.338 72.8531 152.727 71.7859C151.117 70.7186 149.198 69.9576 147.278 70.1882C144.678 70.5009 142.57 72.6096 141.562 75.0197C140.554 77.4298 140.462 80.1118 140.49 82.7224C140.517 85.3331 140.647 87.9808 140.039 90.5201C139.968 90.8183 139.851 91.1546 139.564 91.264C139.15 91.4216 138.759 90.9969 138.524 90.622C135.858 86.3875 134.037 81.6257 133.199 76.6967C132.712 73.8334 132.608 71.0989 134.036 68.5681C135.464 66.0373 139.361 63.9855 141.433 65.3874Z" fill="#263238"/>
<path d="M137.19 77.7916L137.74 104.446C137.842 109.424 140.348 114.572 148.233 114.051C155.041 113.085 155.218 108.326 155.184 102.422C155.184 102.422 162.642 101.568 163.03 94.1818C163.217 90.6128 163.002 83.2296 162.731 76.5528C162.439 69.382 156.665 63.6405 149.474 63.3541L148.759 63.3257C141.03 63.4683 136.834 70.0926 137.19 77.7916Z" fill="#FFBE9D"/>
<path d="M155.183 102.422C155.183 102.422 150.501 102.51 145.648 99.1938C145.648 99.1938 147.751 105.017 155.172 104.646L155.183 102.422Z" fill="#EB996E"/>
<path d="M160.105 83.9804C160.102 84.5381 159.626 84.9961 159.041 85.0042C158.458 85.0122 157.986 84.5676 157.988 84.0093C157.991 83.4516 158.467 82.9925 159.05 82.9845C159.635 82.9764 160.107 83.4221 160.105 83.9804Z" fill="#263238"/>
<path d="M160.991 80.1168C160.855 80.2493 160.076 79.6256 158.937 79.5832C157.8 79.5248 156.941 80.0755 156.823 79.9318C156.765 79.868 156.908 79.6245 157.283 79.3751C157.652 79.1263 158.273 78.8946 158.982 78.9262C159.692 78.9584 160.278 79.2421 160.61 79.5226C160.95 79.8042 161.058 80.0573 160.991 80.1168Z" fill="#263238"/>
<path d="M149.55 83.5194C149.548 84.0777 149.072 84.5352 148.487 84.5432C147.904 84.5513 147.432 84.1067 147.435 83.5484C147.437 82.9907 147.913 82.5316 148.497 82.5235C149.081 82.5155 149.553 82.9617 149.55 83.5194Z" fill="#263238"/>
<path d="M149.79 79.8824C149.652 80.0149 148.874 79.3912 147.735 79.3488C146.598 79.2904 145.739 79.8411 145.621 79.6969C145.563 79.6331 145.705 79.3901 146.081 79.1402C146.45 78.8914 147.071 78.6597 147.78 78.6908C148.49 78.7235 149.076 79.0072 149.408 79.2872C149.747 79.5698 149.856 79.8235 149.79 79.8824Z" fill="#263238"/>
<path d="M153.585 88.469C153.582 88.4041 154.295 88.3103 155.448 88.21C155.74 88.1917 156.018 88.1451 156.075 87.9488C156.151 87.7418 156.042 87.4243 155.915 87.0816C155.67 86.3689 155.413 85.6224 155.143 84.8394C154.074 81.6479 153.314 79.0287 153.443 78.9868C153.573 78.945 154.543 81.4978 155.611 84.6892C155.868 85.476 156.113 86.2257 156.347 86.9433C156.443 87.2774 156.618 87.6587 156.452 88.0872C156.365 88.3006 156.146 88.4497 155.957 88.4921C155.768 88.5414 155.604 88.5382 155.46 88.5409C154.303 88.557 153.587 88.5339 153.585 88.469Z" fill="#263238"/>
<path d="M150.262 75.4442C150.137 75.7483 149.006 75.5568 147.664 75.6641C146.319 75.7445 145.226 76.0915 145.06 75.8078C144.986 75.6721 145.186 75.389 145.633 75.1074C146.077 74.8264 146.777 74.57 147.583 74.5127C148.388 74.4574 149.118 74.6135 149.596 74.8301C150.079 75.0473 150.317 75.2994 150.262 75.4442Z" fill="#263238"/>
<path d="M160.706 76.8135C160.495 77.0634 159.721 76.7647 158.778 76.7143C157.837 76.6311 157.029 76.8183 156.856 76.541C156.781 76.407 156.917 76.1538 157.275 75.9232C157.629 75.6937 158.212 75.5178 158.86 75.5634C159.507 75.6095 160.06 75.8658 160.377 76.1431C160.7 76.4214 160.799 76.6912 160.706 76.8135Z" fill="#263238"/>
<path d="M137.575 83.2873C137.451 83.2277 132.544 81.5829 132.503 86.6412C132.463 91.6995 137.564 90.6967 137.574 90.5519C137.584 90.4065 137.575 83.2873 137.575 83.2873Z" fill="#FFBE9D"/>
<path d="M136.04 88.6232C136.017 88.6066 135.951 88.6843 135.801 88.7514C135.655 88.8168 135.404 88.8602 135.14 88.7594C134.606 88.5588 134.161 87.7067 134.144 86.795C134.135 86.3343 134.235 85.8967 134.402 85.5352C134.56 85.1663 134.801 84.9099 135.072 84.8643C135.341 84.8048 135.53 84.9673 135.591 85.1099C135.658 85.2521 135.625 85.3524 135.652 85.3615C135.666 85.3743 135.762 85.2778 135.722 85.0681C135.703 84.9673 135.644 84.8477 135.526 84.7496C135.405 84.6498 135.226 84.5983 135.038 84.6171C134.646 84.6407 134.291 84.9968 134.108 85.3942C133.904 85.7926 133.78 86.2844 133.791 86.8019C133.815 87.8214 134.331 88.7793 135.063 88.9965C135.419 89.0919 135.717 88.9873 135.872 88.8688C136.03 88.7455 136.057 88.6323 136.04 88.6232Z" fill="#EB996E"/>
<path d="M163.094 69.6748C162.493 68.1962 161.364 66.9885 160.126 65.9771C157.459 63.797 154.133 62.3726 150.689 62.1823C147.246 61.9924 143.705 63.0848 141.118 65.3598C139.049 67.1805 137.644 69.6871 136.933 72.3461C136.221 75.005 136.178 77.8125 136.556 80.539C136.722 81.7355 136.997 82.9818 137.798 83.8876C138.299 84.4534 139.182 84.8481 139.799 84.4126C140.163 84.1557 140.311 83.6972 140.436 83.2703C141.567 79.4106 142.697 75.2571 141.415 71.4446C142.434 70.224 143.609 69.0972 145.033 68.3855C146.457 67.6739 148.159 67.4138 149.661 67.941C151.893 68.7245 153.196 70.9705 154.937 72.567C157.426 74.8479 161.061 75.8175 164.36 75.0812L163.094 69.6748Z" fill="#263238"/>
<path d="M154.146 91.6332C153.999 92.0896 153.849 92.5529 153.58 92.9492C153.31 93.3456 152.898 93.6727 152.42 93.7269C151.911 93.7848 151.399 93.5161 151.087 93.1123C150.774 92.7079 150.642 92.1872 150.631 91.6766C150.622 91.2149 150.796 90.6518 151.251 90.5676C151.441 90.5322 151.633 90.5933 151.817 90.6539C152.642 90.9258 153.467 91.1977 154.292 91.4696" fill="#EB996E"/>
<path d="M153.314 93.6741C153.297 93.5995 152.782 93.8489 152.018 93.6006C151.648 93.4799 151.235 93.2198 150.988 92.7844C150.742 92.3543 150.658 91.7552 150.852 91.2141C150.896 91.0789 150.967 90.9535 151.038 90.8408C151.127 90.7346 151.11 90.7405 151.215 90.7486C151.315 90.7684 151.478 90.8323 151.611 90.8741C151.749 90.9197 151.885 90.9647 152.018 91.0087C152.548 91.183 153.027 91.3337 153.431 91.4549C154.24 91.6968 154.75 91.8185 154.77 91.7622C154.789 91.7064 154.315 91.4833 153.532 91.1674C153.141 91.0098 152.672 90.829 152.15 90.6344C152.018 90.5856 151.884 90.5362 151.748 90.4858C151.603 90.4375 151.492 90.3818 151.295 90.334C151.2 90.3137 151.065 90.3078 150.938 90.3678C150.815 90.4279 150.741 90.5191 150.687 90.5952C150.588 90.7454 150.503 90.8988 150.446 91.0688C150.206 91.7445 150.323 92.4674 150.647 92.9871C150.978 93.518 151.501 93.7947 151.936 93.8929C152.379 93.9975 152.75 93.9406 152.983 93.8644C153.219 93.7861 153.325 93.6977 153.314 93.6741Z" fill="#263238"/>
<path d="M168.623 64.8373C168.634 64.8363 168.652 64.9521 168.675 65.1779C168.678 65.4026 168.683 65.7426 168.57 66.162C168.37 66.9906 167.7 68.1763 166.332 68.9582C164.97 69.7551 162.978 69.8726 161.025 69.2875C159.041 68.7271 157.158 67.4743 155.167 66.3095C153.186 65.1457 151.092 64.2544 149.098 64.3359C147.109 64.3911 145.444 65.2937 144.3 66.2446C143.138 67.2056 142.421 68.2213 141.984 68.94C141.556 69.6699 141.38 70.108 141.349 70.0946C141.339 70.0903 141.377 69.9788 141.458 69.7696C141.533 69.5567 141.678 69.2585 141.873 68.8767C142.28 68.1296 142.98 67.0742 144.151 66.0665C145.303 65.0717 147.009 64.1096 149.088 64.0334C151.175 63.9326 153.336 64.8524 155.333 66.0252C157.34 67.2008 159.192 68.4396 161.111 68.9968C163.005 69.5803 164.913 69.4859 166.22 68.7544C167.54 68.0336 168.218 66.916 168.447 66.1266C168.689 65.32 168.579 64.8357 168.623 64.8373Z" fill="#455A64"/>
<path d="M133.786 75.3645C133.751 75.3565 133.828 74.8191 134.175 74.02C134.511 73.2215 135.144 72.1688 136.108 71.2426C136.586 70.776 137.1 70.3974 137.592 70.0939C138.085 69.7903 138.6 69.5892 139.059 69.5715C139.517 69.5501 139.877 69.6911 140.083 69.8348C140.29 69.9812 140.356 70.1089 140.342 70.1201C140.321 70.1668 139.913 69.7104 139.077 69.8026C138.266 69.8922 137.268 70.6082 136.337 71.4786C135.407 72.372 134.766 73.3647 134.385 74.1187C133.994 74.8711 133.839 75.3806 133.786 75.3645Z" fill="#455A64"/>
<path d="M134.498 79.8486C134.464 79.8379 134.585 79.307 134.974 78.5213C135.359 77.7373 136.052 76.7178 137.05 75.8163C138.052 74.918 139.14 74.3339 139.961 74.032C140.785 73.7269 141.327 73.6609 141.334 73.6952C141.348 73.7483 140.831 73.8942 140.051 74.246C139.271 74.5951 138.241 75.1904 137.271 76.0597C136.306 76.9328 135.607 77.8933 135.178 78.6318C134.747 79.3692 134.549 79.8674 134.498 79.8486Z" fill="#455A64"/>
<path d="M171.806 152.898L198.788 163.734L194.486 171.42L163.89 166.741L171.806 152.898Z" fill="#FFBE9D"/>
<path d="M171.861 121.581C171.999 129.152 171.756 147.384 171.756 147.384L176.081 154.161L168.512 164.327L159.768 165.555L158.899 172.317C158.899 172.317 143.58 179.155 131.323 175.009C121.786 171.784 110.641 182.629 110.641 182.629C110.641 182.629 109.623 180.858 111.277 165.561C112.853 150.981 115.609 126.919 115.609 126.919L124.424 104.935L137.663 102.646C143.206 112.045 154.294 112.098 155.184 106.385L163.987 110.039C166.55 111.103 168.752 112.927 170.148 115.321C171.091 116.938 171.813 119.008 171.861 121.581Z" fill="#F68C22"/>
<path d="M164.232 123.887C164.309 123.895 163.378 132.579 162.154 143.28C160.929 153.984 159.874 162.651 159.797 162.642C159.721 162.634 160.651 153.952 161.876 143.248C163.1 132.547 164.155 123.878 164.232 123.887Z" fill="#263238"/>
<path d="M159.864 143.486C159.906 143.551 155.581 146.398 150.205 149.845C144.828 153.293 140.435 156.034 140.394 155.969C140.352 155.904 144.676 153.058 150.054 149.61C155.43 146.163 159.822 143.421 159.864 143.486Z" fill="#263238"/>
<path d="M144.388 254.062H139.304L136.398 219.97H144.388V254.062Z" fill="#263238"/>
<path d="M104.78 254.062H99.6958L96.791 219.97H104.78V254.062Z" fill="#263238"/>
<path d="M200.582 254.062H195.498L192.593 219.97H200.582V254.062Z" fill="#263238"/>
<path d="M118.721 189.591L123.565 115.68H77.8581C74.3806 115.68 71.7555 118.827 72.3885 122.237L90.7749 221.242C96.6247 221.16 203.258 221.242 203.258 221.242V189.591H118.721Z" fill="#455A64"/>
<path d="M186.53 210.352C186.53 210.429 176.398 210.491 163.903 210.491C151.404 210.491 141.274 210.429 141.274 210.352C141.274 210.275 151.404 210.212 163.903 210.212C176.398 210.212 186.53 210.275 186.53 210.352Z" fill="#263238"/>
<path d="M227.002 227.548L230.292 243.196C230.292 243.196 247.347 245.116 248.238 247.948L218.041 255.4L211.911 231.229L227.002 227.548Z" fill="#455A64"/>
<path d="M220.631 244.196C220.086 244.5 219.845 245.255 220.126 245.81C220.408 246.365 221.176 246.616 221.726 246.322C222.276 246.029 222.593 245.131 222.251 244.611C221.909 244.09 220.991 243.845 220.528 244.262" fill="#E0E0E0"/>
<path d="M218.177 256.039L217.58 253.698L246.666 246.715C246.666 246.715 248.155 246.967 248.238 247.949L218.177 256.039Z" fill="#E0E0E0"/>
<path d="M230.744 242.922C230.775 243.07 230.055 243.319 229.446 243.971C228.821 244.607 228.605 245.336 228.455 245.311C228.312 245.316 228.314 244.383 229.064 243.607C229.807 242.824 230.742 242.78 230.744 242.922Z" fill="#263238"/>
<path d="M234.236 243.447C234.305 243.581 233.728 243.988 233.382 244.734C233.013 245.469 233.054 246.172 232.905 246.203C232.772 246.26 232.457 245.424 232.905 244.505C233.345 243.583 234.197 243.308 234.236 243.447Z" fill="#263238"/>
<path d="M236.972 246.783C236.846 246.848 236.459 246.164 236.637 245.265C236.81 244.365 237.426 243.876 237.519 243.983C237.633 244.083 237.292 244.626 237.156 245.366C237.003 246.102 237.115 246.733 236.972 246.783Z" fill="#263238"/>
<path d="M229.597 239.439C229.568 239.588 228.842 239.552 228.022 239.814C227.197 240.06 226.618 240.499 226.51 240.392C226.398 240.307 226.896 239.606 227.865 239.311C228.833 239.008 229.641 239.306 229.597 239.439Z" fill="#263238"/>
<g opacity="0.3">
<path d="M227.002 227.548L230.292 243.196C230.292 243.196 247.347 245.116 248.238 247.948L218.177 256.039L211.911 231.229L227.002 227.548Z" fill="black"/>
</g>
<path d="M210.958 180.366L230.074 235.705L213.564 241.794L183.142 181.132L132.602 173.248L162.937 165.11L206.203 176.009C208.424 176.568 210.212 178.207 210.958 180.366Z" fill="#263238"/>
<path d="M226.475 221.401L237.393 233.357C237.393 233.357 253.247 226.307 255.48 228.321L232.992 250.261L215.215 232.328L226.475 221.401Z" fill="#455A64"/>
<path d="M229.486 239.17C229.167 239.713 229.345 240.495 229.876 240.835C230.408 241.175 231.206 241.001 231.534 240.463C231.863 239.926 231.678 238.981 231.112 238.702C230.546 238.424 229.619 238.679 229.43 239.279" fill="#E0E0E0"/>
<path d="M233.438 250.749L231.714 249.013L253.475 228.049C253.475 228.049 254.902 227.507 255.479 228.32L233.438 250.749Z" fill="#E0E0E0"/>
<path d="M237.644 232.888C237.748 233.001 237.248 233.586 237.053 234.465C236.835 235.34 237.022 236.086 236.878 236.141C236.756 236.218 236.278 235.404 236.533 234.344C236.777 233.281 237.57 232.764 237.644 232.888Z" fill="#263238"/>
<path d="M240.957 231.56C241.087 231.641 240.794 232.291 240.875 233.119C240.932 233.948 241.33 234.54 241.216 234.642C241.129 234.76 240.424 234.193 240.342 233.163C240.252 232.133 240.853 231.457 240.957 231.56Z" fill="#263238"/>
<path d="M245.061 233.067C244.984 233.188 244.294 232.79 243.988 231.915C243.675 231.042 243.961 230.3 244.097 230.346C244.247 230.376 244.23 231.023 244.492 231.737C244.737 232.457 245.159 232.95 245.061 233.067Z" fill="#263238"/>
<path d="M234.854 230.438C234.906 230.583 234.254 230.923 233.675 231.571C233.082 232.207 232.803 232.886 232.653 232.847C232.512 232.83 232.586 231.965 233.279 231.212C233.967 230.453 234.823 230.299 234.854 230.438Z" fill="#263238"/>
<path d="M127.161 196.564L171.232 196.379L220.142 241.794L235.347 227.674C235.347 227.674 193.818 180.941 189.017 176.119C184.217 171.297 137.987 168.084 137.987 168.084L110.197 180.122L110.828 183.267C112.382 191.025 119.228 196.598 127.161 196.564Z" fill="#263238"/>
<path d="M170.205 190.606C170.282 190.596 170.494 191.796 170.679 193.284C170.864 194.774 170.952 195.988 170.875 195.998C170.798 196.008 170.586 194.808 170.401 193.319C170.217 191.83 170.129 190.615 170.205 190.606Z" fill="#455A64"/>
<path d="M230.267 222.04C230.281 222.053 230.085 222.279 229.72 222.678C229.355 223.076 228.818 223.644 228.145 224.338C226.802 225.727 224.914 227.614 222.777 229.647C220.64 231.68 218.66 233.472 217.206 234.746C216.48 235.382 215.886 235.891 215.469 236.236C215.053 236.581 214.817 236.765 214.804 236.751C214.791 236.736 215.003 236.525 215.396 236.154C215.829 235.753 216.394 235.229 217.073 234.599C218.492 233.289 220.448 231.475 222.583 229.445C224.717 227.414 226.625 225.551 228.004 224.199C228.668 223.551 229.219 223.014 229.641 222.602C230.031 222.227 230.253 222.026 230.267 222.04Z" fill="#455A64"/>
<path d="M203.956 226.764C203.956 226.764 204.058 226.846 204.248 227.016C204.444 227.194 204.724 227.448 205.09 227.779C205.833 228.461 206.917 229.456 208.315 230.738C211.118 233.327 215.173 237.071 220.209 241.722H220.075C224.392 237.703 229.551 232.899 235.26 227.582L235.25 227.755C228.843 220.306 221.169 212.147 213.129 203.469C209.574 199.638 206.107 195.894 202.793 192.246C199.48 188.597 196.315 185.046 193.428 181.554C191.99 179.813 190.561 178.116 188.861 176.827C188.019 176.177 187.105 175.65 186.152 175.254C185.2 174.854 184.214 174.582 183.236 174.361C181.273 173.939 179.336 173.692 177.489 173.393C175.64 173.106 173.864 172.831 172.17 172.568C165.399 171.511 159.918 170.655 156.12 170.062C154.232 169.761 152.765 169.527 151.759 169.366C151.267 169.285 150.89 169.222 150.626 169.178C150.371 169.134 150.241 169.105 150.241 169.105C150.241 169.105 150.374 169.116 150.63 169.15C150.895 169.188 151.274 169.241 151.768 169.31C152.775 169.459 154.246 169.676 156.137 169.954C159.938 170.526 165.423 171.353 172.2 172.373C173.896 172.629 175.672 172.899 177.522 173.18C179.371 173.474 181.303 173.713 183.286 174.134C184.274 174.354 185.274 174.628 186.244 175.033C187.216 175.434 188.152 175.971 189.01 176.63C190.743 177.94 192.186 179.65 193.627 181.389C196.515 184.871 199.682 188.416 202.996 192.061C206.312 195.706 209.78 199.448 213.335 203.279C221.374 211.957 229.042 220.123 235.442 227.592L235.521 227.684L235.432 227.766C229.708 233.067 224.536 237.858 220.208 241.866L220.141 241.929L220.075 241.866C215.064 237.188 211.03 233.421 208.241 230.818C206.858 229.518 205.786 228.511 205.051 227.82C204.694 227.48 204.42 227.22 204.228 227.038C204.045 226.86 203.956 226.764 203.956 226.764Z" fill="#455A64"/>
<path d="M165.28 161.429L151.986 165.897L127.506 155.969L114.438 168.085L149.355 174.333C150.533 174.525 151.74 174.439 152.879 174.082L163.173 170.858C163.173 170.858 166.537 174.648 167.239 174.704C167.94 174.76 169.36 174.663 168.684 173.412C168.009 172.161 166.279 169.981 166.279 169.981C166.279 169.981 171.006 173.869 171.542 173.349C172.078 172.829 171.864 171.626 171.025 170.644C170.187 169.661 167.409 166.482 167.409 166.482C167.409 166.482 173.234 171.293 173.788 170.562C174.34 169.832 174.616 168.682 172.282 166.451C170.749 164.985 168.39 162.894 167.148 161.803C166.637 161.354 165.926 161.211 165.28 161.429Z" fill="#FFBE9D"/>
<path d="M151.624 166.015C151.68 166.07 151.084 166.747 150.354 167.579C149.622 168.411 149.028 169.088 148.965 169.04C148.905 168.995 149.404 168.235 150.143 167.396C150.881 166.555 151.571 165.961 151.624 166.015Z" fill="#EB996E"/>
<path d="M171.232 170.896C171.202 170.93 170.744 170.508 170.111 169.751C169.47 169 168.62 167.935 167.66 166.781C166.68 165.678 165.858 164.419 164.795 164.624C164.32 164.649 163.953 164.808 163.726 164.948C163.497 165.088 163.387 165.197 163.37 165.18C163.359 165.171 163.441 165.035 163.664 164.858C163.884 164.683 164.265 164.481 164.78 164.427C165.036 164.401 165.324 164.418 165.619 164.497C165.765 164.53 165.918 164.61 166.061 164.705C166.185 164.807 166.321 164.906 166.436 165.024C166.918 165.48 167.39 166.024 167.875 166.601C168.84 167.76 169.664 168.845 170.265 169.626C170.532 169.972 170.768 170.277 170.978 170.548C171.145 170.768 171.247 170.877 171.232 170.896Z" fill="#EB996E"/>
<path d="M161.8 167.495C161.789 167.484 161.879 167.362 162.108 167.217C162.336 167.078 162.719 166.928 163.21 166.937C163.457 166.943 163.718 166.974 164 167.09C164.278 167.217 164.51 167.444 164.703 167.695C164.901 167.947 165.069 168.229 165.255 168.502C165.437 168.766 165.666 169.045 165.876 169.328C167.607 171.597 168.893 173.538 168.777 173.608C168.758 173.616 168.68 173.498 168.524 173.289C168.327 173.027 168.107 172.735 167.86 172.406C167.239 171.588 166.486 170.595 165.653 169.497C165.439 169.208 165.225 168.946 165.028 168.655C164.838 168.369 164.678 168.09 164.498 167.851C164.323 167.61 164.124 167.41 163.903 167.299C163.679 167.197 163.422 167.15 163.203 167.134C162.279 167.077 161.818 167.545 161.8 167.495Z" fill="#EB996E"/>
<path d="M172.615 166.78C172.589 166.808 172.178 166.481 171.536 165.929C170.893 165.378 170.018 164.601 169.064 163.731C168.594 163.297 168.146 162.883 167.726 162.496C167.322 162.098 166.956 161.785 166.579 161.617C165.822 161.266 165.279 161.471 165.28 161.428C165.272 161.412 165.391 161.338 165.634 161.299C165.875 161.26 166.244 161.273 166.656 161.435C166.861 161.517 167.073 161.635 167.284 161.783C167.493 161.938 167.689 162.117 167.898 162.302C168.323 162.685 168.776 163.094 169.251 163.523C170.207 164.393 171.061 165.194 171.669 165.783C172.278 166.373 172.641 166.752 172.615 166.78Z" fill="#EB996E"/>
<path d="M113.2 168.416C113.2 168.416 108.232 162.852 108.544 155.429C108.857 148.006 110.992 126.522 111.942 120.626C112.882 114.795 117.339 106.689 124.421 104.936C129.602 103.653 130.671 119.278 130.671 119.278L126.759 153.767L134.555 158.283L127.279 170.576L113.2 168.416Z" fill="#F68C22"/>
<path d="M129.998 117.557C129.945 117.563 129.881 116.802 129.553 115.628C129.394 115.04 129.144 114.357 128.812 113.625C128.466 112.9 128.031 112.128 127.489 111.373C126.939 110.625 126.34 109.971 125.757 109.417C125.163 108.874 124.592 108.424 124.081 108.089C123.064 107.412 122.36 107.114 122.382 107.065C122.39 107.047 122.57 107.112 122.889 107.245C123.05 107.308 123.244 107.394 123.46 107.513C123.676 107.63 123.93 107.751 124.188 107.923C124.721 108.242 125.317 108.684 125.932 109.228C126.536 109.783 127.155 110.446 127.716 111.21C128.269 111.981 128.707 112.773 129.047 113.519C129.372 114.272 129.608 114.974 129.745 115.578C129.828 115.876 129.864 116.155 129.907 116.396C129.954 116.638 129.975 116.848 129.985 117.021C130.012 117.365 130.018 117.555 129.998 117.557Z" fill="#263238"/>
<path d="M126.743 153.791C126.76 153.83 126.275 154.078 125.512 154.508C124.748 154.938 123.714 155.567 122.641 156.362C121.57 157.159 120.666 157.964 120.027 158.564C119.388 159.164 119.002 159.548 118.971 159.52C118.945 159.496 119.279 159.064 119.888 158.424C120.495 157.784 121.389 156.944 122.474 156.138C123.56 155.333 124.626 154.723 125.42 154.334C126.213 153.944 126.729 153.759 126.743 153.791Z" fill="#263238"/>
<path d="M178.374 145.929L169.82 176.905H209.763L219.495 147.394C219.874 146.242 219.022 145.054 217.806 145.04L180.13 144.611C179.312 144.602 178.592 145.143 178.374 145.929Z" fill="#E0E0E0"/>
<path d="M180.962 144.621C181.036 144.641 179.098 151.886 176.633 160.8C174.168 169.716 172.109 176.926 172.034 176.906C171.96 176.886 173.897 169.642 176.363 160.725C178.828 151.811 180.887 144.6 180.962 144.621Z" fill="#263238"/>
<path d="M196.4 160.278C195.94 161.228 196.24 162.322 197.071 162.722C197.902 163.122 198.948 162.676 199.409 161.727C199.868 160.777 199.568 159.683 198.737 159.283C197.906 158.883 196.86 159.328 196.4 160.278Z" fill="white"/>
<path d="M169.82 176.906H143.092C143.092 175.646 144.116 174.625 145.379 174.625H170.811L169.82 176.906Z" fill="#E0E0E0"/>
<path d="M108.545 155.429C108.551 155.429 108.556 155.514 108.562 155.68C108.565 155.86 108.571 156.103 108.577 156.413C108.569 156.735 108.615 157.131 108.658 157.598C108.685 158.067 108.791 158.599 108.89 159.199C109.131 160.389 109.533 161.828 110.233 163.401C110.927 164.969 111.907 166.694 113.28 168.344L113.217 168.31C117.23 168.918 122.031 169.645 127.3 170.442L127.164 170.507C128.935 167.513 130.85 164.273 132.832 160.921C133.372 160.008 133.907 159.105 134.436 158.211L134.486 158.402C131.767 156.825 129.148 155.306 126.692 153.881L126.619 153.839L126.626 153.755C127.341 145.86 127.956 139.072 128.394 134.238C128.621 131.842 128.802 129.932 128.928 128.604C128.994 127.96 129.045 127.458 129.082 127.101C129.101 126.941 129.116 126.814 129.127 126.715C129.138 126.628 129.147 126.584 129.15 126.584C129.154 126.585 129.154 126.63 129.15 126.717C129.144 126.817 129.137 126.945 129.127 127.106C129.101 127.463 129.064 127.967 129.016 128.612C128.908 129.942 128.753 131.854 128.559 134.253C128.146 139.088 127.566 145.88 126.891 153.778L126.826 153.652C129.283 155.072 131.905 156.588 134.626 158.161L134.747 158.232L134.676 158.352C134.147 159.246 133.612 160.15 133.072 161.063C131.086 164.413 129.168 167.65 127.394 170.642L127.348 170.721L127.258 170.707C121.992 169.889 117.194 169.144 113.184 168.52L113.143 168.514L113.12 168.486C110.358 165.079 109.212 161.608 108.771 159.219C108.68 158.614 108.583 158.078 108.566 157.605C108.531 157.134 108.495 156.736 108.514 156.413C108.52 156.102 108.525 155.859 108.529 155.678C108.535 155.513 108.54 155.429 108.545 155.429Z" fill="#263238"/>
<path d="M88.5352 165.11C88.5352 165.11 135.774 171.072 137.459 172.723C138.94 174.174 140.829 212.433 141.251 212.246L97.1666 210.58L88.5352 165.11Z" fill="#455A64"/>
<path d="M127.505 221.128C127.428 221.134 126.445 210.099 125.309 196.484C124.172 182.864 123.314 171.821 123.392 171.814C123.468 171.808 124.452 182.841 125.588 196.461C126.724 210.076 127.583 221.121 127.505 221.128Z" fill="#263238"/>
<path d="M79.2462 115.68C79.251 115.679 79.2693 115.741 79.3005 115.863C79.3339 115.999 79.3774 116.179 79.4323 116.406C79.5458 116.902 79.7071 117.604 79.9131 118.5C80.3224 120.338 80.908 122.968 81.6303 126.212C83.0572 132.743 85.0223 141.74 87.193 151.677C87.7313 154.165 88.2568 156.593 88.7645 158.94C89.0178 160.113 89.2663 161.265 89.5099 162.393C89.5707 162.675 89.6309 162.956 89.6911 163.235C89.7546 163.519 89.7982 163.791 89.9036 164.034C90.1069 164.53 90.4785 164.947 90.9313 165.213C91.1578 165.346 91.4035 165.443 91.6568 165.501C91.9053 165.556 92.185 165.58 92.449 165.618C92.9831 165.688 93.5102 165.756 94.0297 165.825C95.0682 165.961 96.0766 166.093 97.0517 166.22C99.0002 166.477 100.816 166.716 102.475 166.935C105.777 167.379 108.455 167.739 110.326 167.99C111.238 168.119 111.954 168.22 112.458 168.291C112.69 168.326 112.873 168.355 113.012 168.376C113.137 168.397 113.2 168.41 113.2 168.415C113.199 168.42 113.134 168.416 113.009 168.405C112.869 168.39 112.684 168.371 112.452 168.347C111.945 168.288 111.228 168.205 110.312 168.098C108.439 167.867 105.757 167.538 102.45 167.131C100.789 166.922 98.9717 166.694 97.0216 166.45C96.046 166.327 95.037 166.199 93.998 166.068C93.4784 166.002 92.9508 165.936 92.4168 165.867C92.1479 165.83 91.8854 165.81 91.6004 165.749C91.3218 165.687 91.0507 165.581 90.8006 165.434C90.3005 165.143 89.8874 164.684 89.6605 164.134C89.5411 163.857 89.4943 163.564 89.4319 163.291C89.3711 163.012 89.3098 162.732 89.2485 162.45C89.0027 161.322 88.7521 160.17 88.4966 158.997C87.9873 156.651 87.4597 154.223 86.9198 151.736C84.7803 141.792 82.8436 132.79 81.4373 126.253C80.7515 123.002 80.1954 120.365 79.8071 118.523C79.6232 117.622 79.4791 116.916 79.3774 116.418C79.3333 116.188 79.2989 116.006 79.2725 115.868C79.2505 115.746 79.2419 115.681 79.2462 115.68Z" fill="#263238"/>
<path d="M138.169 175.765C138.246 175.758 139.148 185.934 140.183 198.491C141.218 211.051 141.994 221.235 141.917 221.242C141.84 221.248 140.939 211.074 139.904 198.514C138.869 185.957 138.092 175.771 138.169 175.765Z" fill="#263238"/>
<path d="M192.253 16.4223L199.724 19.3676L201.964 28.3799L206.322 22.3323L210.184 24.1152L217.852 6.22803L192.253 16.4223Z" fill="#F68C22"/>
<path d="M202.569 20.618C202.637 20.8937 201.959 28.3754 201.959 28.3754L206.315 22.3314L202.569 20.618Z" fill="#B54D08"/>
<path d="M217.853 6.22852L202.578 20.6159L201.968 28.3758L199.728 19.3653L217.853 6.22852Z" fill="#B54D08"/>
<path d="M202.256 140.57C202.304 140.655 203.008 140.35 203.826 139.887C204.646 139.424 205.27 138.98 205.221 138.895C205.173 138.81 204.47 139.115 203.651 139.578C202.832 140.041 202.207 140.485 202.256 140.57Z" fill="#263238"/>
<path d="M197.519 143.245C197.567 143.33 198.003 143.176 198.491 142.9C198.979 142.624 199.336 142.331 199.288 142.245C199.239 142.16 198.804 142.314 198.316 142.591C197.827 142.867 197.47 143.16 197.519 143.245Z" fill="#263238"/>
<path d="M188.332 30.9579C188.385 31.0414 189.065 30.6982 189.884 30.2487C190.702 29.7976 191.357 29.4079 191.315 29.3178C191.274 29.2299 190.543 29.4807 189.712 29.9382C188.882 30.3936 188.279 30.8767 188.332 30.9579Z" fill="#263238"/>
<path d="M183.046 35.23C183.118 35.2983 183.698 34.8057 184.388 34.1775C185.077 33.5482 185.621 33.0154 185.559 32.9376C185.5 32.8618 184.848 33.2766 184.149 33.9149C183.448 34.5527 182.976 35.1633 183.046 35.23Z" fill="#263238"/>
<path d="M178.948 40.6486C179.035 40.6972 179.472 40.0741 179.987 39.2963C180.5 38.5175 180.9 37.8699 180.822 37.8088C180.745 37.7499 180.212 38.3088 179.691 39.1C179.167 39.8909 178.863 40.6021 178.948 40.6486Z" fill="#263238"/>
<path d="M176.438 46.9473C176.535 46.9697 176.778 46.2497 177.061 45.3627C177.341 44.4749 177.556 43.7463 177.464 43.7085C177.375 43.6713 177.008 44.3515 176.722 45.2555C176.435 46.1587 176.344 46.927 176.438 46.9473Z" fill="#263238"/>
<path d="M175.915 53.7018C176.014 53.6932 176.026 52.9341 176.026 52.0029C176.024 51.0716 176.011 50.3123 175.912 50.304C175.816 50.2948 175.67 51.0541 175.672 52.0028C175.672 52.9509 175.819 53.7107 175.915 53.7018Z" fill="#263238"/>
<path d="M177.427 60.3082C177.519 60.2709 177.305 59.5415 177.031 58.6523C176.755 57.7631 176.518 57.0409 176.42 57.0617C176.326 57.0816 176.411 57.85 176.693 58.7564C176.972 59.6628 177.338 60.3453 177.427 60.3082Z" fill="#263238"/>
<path d="M180.912 66.1193C180.986 66.0534 180.546 65.4345 180.004 64.6771C179.46 63.9211 179.014 63.3058 178.927 63.3556C178.844 63.4031 179.161 64.1105 179.716 64.8828C180.27 65.657 180.84 66.1837 180.912 66.1193Z" fill="#263238"/>
<path d="M186.207 70.3421C186.252 70.253 185.611 69.8436 184.831 69.3343C184.05 68.8277 183.418 68.4056 183.354 68.4826C183.292 68.5556 183.838 69.1114 184.638 69.6308C185.437 70.1525 186.165 70.4277 186.207 70.3421Z" fill="#263238"/>
<path d="M192.695 72.321C192.706 72.2214 191.961 72.0642 191.049 71.8709C190.136 71.6805 189.391 71.5253 189.361 71.6203C189.331 71.7112 190.044 72.0231 190.977 72.2178C191.909 72.4149 192.686 72.4161 192.695 72.321Z" fill="#263238"/>
<path d="M199.465 71.8853C199.439 71.7887 198.688 71.9116 197.768 72.0533C196.848 72.1977 196.095 72.3117 196.101 72.4122C196.105 72.5076 196.881 72.5521 197.824 72.404C198.765 72.2584 199.491 71.9773 199.465 71.8853Z" fill="#263238"/>
<path d="M205.525 68.8728C205.461 68.7968 204.833 69.2214 204.049 69.7206C203.267 70.2226 202.617 70.6155 202.661 70.7067C202.701 70.7933 203.436 70.5352 204.24 70.0196C205.046 69.5061 205.589 68.9461 205.525 68.8728Z" fill="#263238"/>
<path d="M208.789 63.1018C208.688 63.0993 208.592 63.8421 208.285 64.7059C207.989 65.5729 207.646 66.2484 207.735 66.3024C207.811 66.3533 208.306 65.7375 208.621 64.8211C208.945 63.905 208.885 63.0977 208.789 63.1018Z" fill="#263238"/>
<path d="M204.591 58.7986C204.593 58.9061 205.356 58.9219 206.206 59.2318C207.062 59.5314 207.614 60.0525 207.689 59.9803C207.768 59.9308 207.275 59.2352 206.327 58.8988C205.387 58.5605 204.577 58.7114 204.591 58.7986Z" fill="#263238"/>
<path d="M199.63 62.7161C199.731 62.7401 199.952 62.016 200.429 61.2415C200.896 60.4684 201.482 59.9817 201.417 59.8981C201.373 59.8192 200.643 60.2064 200.126 61.0567C199.613 61.8955 199.538 62.7036 199.63 62.7161Z" fill="#263238"/>
<path d="M201.212 69.106C201.291 69.041 200.865 68.4168 200.455 67.593C200.04 66.7716 199.794 66.0578 199.695 66.0817C199.603 66.0996 199.702 66.8875 200.138 67.7513C200.57 68.6171 201.143 69.1691 201.212 69.106Z" fill="#263238"/>
<path d="M206.852 72.7745C206.884 72.6791 206.188 72.3709 205.345 71.98C204.5 71.5923 203.825 71.2478 203.771 71.3316C203.717 71.4111 204.327 71.9025 205.196 72.3015C206.062 72.7032 206.823 72.8652 206.852 72.7745Z" fill="#263238"/>
<path d="M213.522 74.1441C213.534 74.0473 212.793 73.8508 211.865 73.7056C210.937 73.5604 210.17 73.5208 210.152 73.6172C210.133 73.7129 210.874 73.9094 211.808 74.0557C212.742 74.2014 213.509 74.241 213.522 74.1441Z" fill="#263238"/>
<path d="M220.208 75.4596C220.239 75.3665 219.52 75.0894 218.603 74.8412C217.683 74.6053 216.909 74.5641 216.895 74.6507C216.875 74.7574 217.615 74.9537 218.52 75.1859C219.421 75.4303 220.178 75.5527 220.208 75.4596Z" fill="#263238"/>
<path d="M226.372 78.3269C226.424 78.2465 225.821 77.762 224.988 77.3066C224.156 76.8497 223.422 76.6031 223.382 76.6906C223.341 76.7807 223.998 77.1669 224.818 77.6172C225.638 78.0655 226.318 78.4103 226.372 78.3269Z" fill="#263238"/>
<path d="M231.646 82.6144C231.717 82.5483 231.246 81.9358 230.547 81.2948C229.849 80.6522 229.199 80.2341 229.139 80.3092C229.077 80.3863 229.62 80.9218 230.307 81.5553C230.995 82.1866 231.574 82.6822 231.646 82.6144Z" fill="#263238"/>
<path d="M235.762 88.0175C235.845 87.9698 235.531 87.2643 235.002 86.4781C234.474 85.6908 233.94 85.1324 233.864 85.1919C233.786 85.2529 234.188 85.8993 234.708 86.6748C235.229 87.4492 235.676 88.0665 235.762 88.0175Z" fill="#263238"/>
<path d="M238.452 94.2451C238.545 94.2203 238.417 93.4587 238.096 92.5686C237.776 91.6774 237.391 91.0089 237.303 91.0478C237.213 91.088 237.447 91.8109 237.762 92.6873C238.078 93.5641 238.356 94.2714 238.452 94.2451Z" fill="#263238"/>
<path d="M239.433 100.955C239.531 100.956 239.562 100.19 239.503 99.2447C239.465 98.2968 239.265 97.5499 239.17 97.5654C239.072 97.5808 239.113 98.3397 239.149 99.2713C239.207 100.2 239.335 100.955 239.433 100.955Z" fill="#263238"/>
<path d="M238.608 107.687C238.701 107.712 238.973 106.99 239.146 106.06C239.322 105.13 239.328 104.358 239.232 104.348C239.134 104.337 238.971 105.079 238.798 105.995C238.627 106.911 238.512 107.662 238.608 107.687Z" fill="#263238"/>
<path d="M236.16 114.019C236.244 114.066 236.68 113.429 237.071 112.568C237.464 111.707 237.658 110.961 237.568 110.927C237.475 110.892 237.135 111.572 236.747 112.421C236.363 113.269 236.072 113.972 236.16 114.019Z" fill="#263238"/>
<path d="M232.29 119.601C232.362 119.666 232.936 119.15 233.519 118.404C234.103 117.659 234.467 116.979 234.387 116.925C234.305 116.869 233.815 117.451 233.239 118.185C232.664 118.92 232.216 119.535 232.29 119.601Z" fill="#263238"/>
<path d="M227.184 124.083C227.237 124.164 227.923 123.808 228.672 123.227C229.423 122.648 229.941 122.075 229.876 122.004C229.809 121.93 229.193 122.377 228.454 122.947C227.717 123.518 227.129 124.001 227.184 124.083Z" fill="#263238"/>
<path d="M224.125 125.843C224.168 125.931 224.228 125.991 224.258 125.976C224.288 125.961 224.278 125.878 224.235 125.79C224.191 125.702 224.132 125.643 224.102 125.658C224.072 125.672 224.082 125.756 224.125 125.843Z" fill="#263238"/>
<path d="M224.292 108.276L230.454 104.136L233.044 107.966L226.882 112.106L224.292 108.276Z" fill="#F68C22"/>
<g opacity="0.3">
<path d="M224.291 108.276L230.453 104.136L233.043 107.966L226.881 112.106L224.291 108.276Z" fill="black"/>
</g>
<path d="M224.296 108.268C224.289 108.363 226.239 108.588 228.695 108.777L228.825 108.787L228.873 108.665C228.896 108.607 228.92 108.546 228.944 108.484C229.87 106.112 230.546 104.161 230.455 104.125C230.363 104.089 229.539 105.983 228.613 108.354C228.589 108.416 228.565 108.478 228.542 108.535L228.72 108.423C226.265 108.243 224.303 108.173 224.296 108.268Z" fill="#455A64"/>
<path d="M229.229 107.262C229.212 107.358 230.052 107.591 231.106 107.782C232.159 107.973 233.028 108.05 233.045 107.953C233.063 107.856 232.223 107.624 231.168 107.433C230.115 107.242 229.247 107.166 229.229 107.262Z" fill="#455A64"/>
<path d="M226.769 112.171C226.866 112.184 227.048 111.369 227.193 110.355C227.341 109.313 227.389 108.447 227.265 108.49C227.172 108.522 226.978 109.29 226.842 110.307C226.705 111.323 226.672 112.157 226.769 112.171Z" fill="#455A64"/>
<path d="M201.252 132.619L217.104 121.969L223.768 131.823L207.916 142.473L201.252 132.619Z" fill="#F68C22"/>
<path d="M201.261 132.615C201.259 132.639 201.573 132.685 202.141 132.749C202.778 132.812 203.589 132.891 204.558 132.987C206.604 133.173 209.44 133.407 212.599 133.647L212.73 133.657L212.777 133.535C212.835 133.388 212.897 133.229 212.959 133.07C214.151 130.019 215.211 127.25 215.961 125.24C216.311 124.282 216.603 123.481 216.833 122.852C217.032 122.285 217.131 121.968 217.108 121.958C217.085 121.949 216.943 122.25 216.705 122.801C216.448 123.419 216.12 124.206 215.728 125.148C214.917 127.135 213.82 129.89 212.628 132.941C212.566 133.1 212.504 133.259 212.447 133.406L212.625 133.294C209.466 133.058 206.626 132.865 204.576 132.742C203.603 132.691 202.791 132.648 202.151 132.615C201.579 132.592 201.263 132.591 201.261 132.615Z" fill="#455A64"/>
<path d="M213.952 130.026C213.935 130.123 216.119 130.599 218.83 131.09C221.542 131.582 223.753 131.901 223.77 131.805C223.788 131.709 221.604 131.232 218.892 130.741C216.182 130.251 213.969 129.93 213.952 130.026Z" fill="#455A64"/>
<path d="M207.622 142.655C207.72 142.669 208.083 140.56 208.435 137.946C208.787 135.33 208.994 133.201 208.897 133.187C208.8 133.173 208.436 135.283 208.084 137.898C207.733 140.512 207.526 142.642 207.622 142.655Z" fill="#455A64"/>
<path d="M218.902 124.895C217.433 125.443 215.797 124.699 215.247 123.235C214.697 121.771 215.442 120.139 216.911 119.592C218.38 119.044 220.016 119.788 220.566 121.252C221.115 122.717 220.371 124.347 218.902 124.895Z" fill="#263238"/>
<path d="M219.553 122.232C219.566 122.283 218.601 122.558 217.398 122.847C217.223 122.888 217.054 122.927 216.891 122.965L216.8 122.987L216.779 122.897C216.546 121.941 216.403 121.224 216.447 121.213C216.491 121.202 216.708 121.9 216.96 122.852L216.848 122.784C217.012 122.744 217.18 122.703 217.354 122.66C218.556 122.373 219.541 122.181 219.553 122.232Z" fill="white"/>
<path d="M208.334 114.828L216.639 109.248L220.13 114.411L211.825 119.99L208.334 114.828Z" fill="#F68C22"/>
<g opacity="0.2">
<path d="M208.334 114.828L216.639 109.248L220.13 114.411L211.825 119.99L208.334 114.828Z" fill="black"/>
</g>
<path d="M208.34 114.821C208.339 114.834 208.503 114.858 208.801 114.891C209.135 114.924 209.56 114.966 210.068 115.016C211.139 115.113 212.625 115.236 214.28 115.362L214.348 115.367L214.373 115.303C214.404 115.226 214.436 115.142 214.468 115.059C215.093 113.461 215.648 112.01 216.041 110.957C216.225 110.455 216.378 110.035 216.498 109.706C216.602 109.409 216.653 109.243 216.642 109.238C216.63 109.234 216.555 109.391 216.431 109.68C216.296 110.004 216.124 110.416 215.919 110.909C215.494 111.95 214.92 113.393 214.295 114.992C214.262 115.076 214.23 115.159 214.2 115.236L214.293 115.178C212.638 115.054 211.151 114.953 210.076 114.889C209.567 114.862 209.141 114.839 208.806 114.822C208.507 114.81 208.341 114.809 208.34 114.821Z" fill="#455A64"/>
<path d="M214.989 113.465C214.98 113.515 216.124 113.765 217.544 114.022C218.964 114.28 220.123 114.447 220.132 114.397C220.141 114.347 218.997 114.097 217.576 113.84C216.157 113.582 214.997 113.414 214.989 113.465Z" fill="#455A64"/>
<path d="M211.674 120.082C211.725 120.089 211.916 118.984 212.1 117.614C212.284 116.244 212.392 115.129 212.341 115.121C212.29 115.114 212.1 116.219 211.916 117.589C211.732 118.959 211.624 120.074 211.674 120.082Z" fill="#455A64"/>
<path d="M285.106 22.8961C281.375 29.3306 273.118 31.5311 266.665 27.8104C260.212 24.0898 258.004 15.8572 261.735 9.42266C265.466 2.98809 273.722 0.787623 280.176 4.50829C286.629 8.22833 288.836 16.4607 285.106 22.8961Z" fill="#263238"/>
<path d="M280.227 10.4972C280.428 10.6491 277.72 14.5677 274.179 19.2486C273.662 19.9253 273.162 20.5793 272.677 21.2139L272.408 21.5653L272.058 21.304C268.307 18.4951 265.611 16.2968 265.739 16.1232C265.867 15.9496 268.776 17.8586 272.585 20.5892L271.967 20.6794C272.445 20.0401 272.939 19.3804 273.449 18.699C276.99 14.0189 280.025 10.3459 280.227 10.4972Z" fill="white"/>
</g>
<defs>
<clipPath id="clip0_2138_6507">
<rect width="327" height="256" fill="white"/>
</clipPath>
</defs>
</svg>
