<svg width="88" height="40" viewBox="0 0 88 40" fill="none" xmlns="http://www.w3.org/2000/svg">
<path d="M87.643 37.9206C88.4061 38.6835 87.8645 39.9815 86.7876 39.9815H78.295H72.6641L72.6272 39.9446L70.1102 37.4346C69.8825 37.207 69.5748 37.084 69.2547 37.084H64.4177C64.0977 37.084 63.79 36.9548 63.5623 36.7333L60.3376 33.5158C59.5745 32.753 60.116 31.4549 61.193 31.4549C62.2699 31.4549 62.8053 30.1569 62.0484 29.394L61.193 28.5389L58.3437 25.6906L55.5005 22.8484L55.4267 22.7745V39.9877H49.7896H45.2971C44.6325 39.9877 44.0909 39.4463 44.0909 38.7819V34.2971L44.0602 34.3279V34.2664L41.1678 37.1578L38.3492 39.9754L38.3308 39.9938H32.5829H28.152C27.4874 39.9938 26.9458 39.4525 26.9458 38.7881V28.5943H26.9397L26.9151 28.6127V28.5512L24.0165 31.4488L21.2103 34.2479L18.2994 37.1516L15.4932 39.9569L15.4501 40H4.12671H1.2097C0.132748 40 -0.402652 38.6958 0.354293 37.9391L1.2097 37.0901L4.01594 34.291L6.92064 31.3934L9.73303 28.5881L12.6377 25.6844L15.444 22.8853L18.3364 19.9938L21.1549 17.1763L24.0473 14.2848L26.8535 11.4857L29.7705 8.56967L32.5645 5.77668L35.4815 2.86066L38.2877 0.0676715L38.3492 0V19.9077C38.3492 20.9843 39.6477 21.5195 40.4108 20.7628L41.1924 19.9815L43.9925 17.1886L46.9095 14.2725L49.7157 11.4672L52.6266 8.56352L54.5774 6.61335C55.0513 6.13965 55.8144 6.13965 56.2821 6.61335L58.3067 8.63119L61.1437 11.4672L64.0177 14.3402L66.8608 17.1824L69.7101 20.0308L72.5779 22.8914L75.4272 25.7398L78.2704 28.582L83.9875 34.291L87.6245 37.9206H87.643Z" fill="#056AAD"/>
</svg>
